<svg xmlns="http://www.w3.org/2000/svg" width="256" height="256"><path fill="#1976D2" fill-opacity=".016" fill-rule="evenodd" d="M0 128.004v128.004l128.25-.254 128.25-.254.254-127.75L257.008 0H0zm.485.496c0 70.4.119 99.053.265 63.672s.146-92.98 0-128S.485 58.1.485 128.5"/><path fill="#1976D2" fill-opacity=".263" fill-rule="evenodd" d="M118.844 88.333c-14.433 5.395-21.87 14.986-22.617 29.167-.393 7.442.173 10.587 3.149 17.5.522 1.211-.271 1.508-4.115 1.541-2.619.022-8.586.325-13.261.672l-8.5.631-.297 7.235c-.163 3.978-.108 7.726.122 8.327.279.726 3.155.926 8.548.594 4.471-.275 8.164-.275 8.206 0 .043.275.197 2.454.342 4.843.434 7.184 3.806 8.16 30.667 8.872 22.077.585 38.701-.692 42.644-3.275 1.828-1.198 2.268-2.403 2.268-6.213V153.5l7.588.504c4.174.278 8.019.239 8.545-.086.526-.326.824-4.075.662-8.332l-.295-7.741-8.5-.632c-4.675-.347-10.562-.65-13.083-.672l-4.583-.041 2.041-4.5c3.176-7.003 2.864-18.779-.693-26.143-3.199-6.622-9.933-13.194-16.506-16.108-5.863-2.6-17.237-3.321-22.332-1.416m-3.554 12.632c-3.385 2.063-9.02 9.638-7.96 10.698.343.343.932-.229 1.309-1.27 1.025-2.827 4.368-7.393 5.413-7.393.864 0-1.866 6.929-3.152 8-.33.275-1.189 1.615-1.907 2.978-1.237 2.345-1.345 2.372-2.012.5-.516-1.451-.818-.808-1.132 2.412-.334 3.425-.2 3.977.611 2.508.572-1.035 2.435-3.254 4.139-4.931 1.769-1.739 3.391-4.598 3.777-6.656.372-1.985 1.597-4.779 2.723-6.21 2.45-3.114 2.327-3.158-1.809-.636m23.575.392c1.218 1.296 2.495 4.087 2.838 6.202.413 2.543 1.63 4.692 3.593 6.344 1.633 1.374 3.567 3.87 4.297 5.547l1.329 3.05-.031-3.5c-.018-1.925-.459-4.4-.982-5.5-.885-1.864-.921-1.847-.523.25.235 1.237.019 2.25-.48 2.25-.498 0-.906-.365-.906-.811s-.819-1.691-1.82-2.766c-1.841-1.975-4.519-8.418-3.799-9.138.385-.385 2.981 2.723 5.31 6.357.72 1.122 1.215 1.344 1.25.56.073-1.614-9.399-11.202-11.068-11.202-.682 0-.243 1.041.992 2.357m-11.224 2.408c-.432 1.245-1.203 2.006-1.713 1.691-.51-.316-.928.154-.928 1.044s-.374 1.387-.831 1.104-1.999 3.629-3.427 8.691-2.016 8.418-1.308 7.455c.751-1.022 2.593-1.75 4.426-1.75 2.997 0 3.14-.183 3.14-4 0-2.816-.427-4-1.441-4-2.258 0-2.885-1.939-.872-2.695.997-.375 2.343-1.384 2.992-2.243 1.056-1.401 1.248-1.381 1.857.188.373.963 1.305 1.75 2.071 1.75s1.393.675 1.393 1.5-.675 1.5-1.5 1.5c-2.34 0-2.095 7.961.25 8.115 3.823.252 4.354.439 5.349 1.885.835 1.214.935 1.118.525-.5-2.044-8.065-4.969-16.5-5.721-16.5-.497 0-.935-1.013-.973-2.25-.067-2.135-.112-2.148-.876-.25-.748 1.86-.834 1.824-1.216-.5l-.412-2.5zm5.026 20.902c-1.255 1.255-.666 2.1 1.79 2.569 2.133.408 2.326.227 1.464-1.383q-1.548-2.893-3.254-1.186m-11.398 2.026c.973.254 2.323.237 3-.037s-.119-.481-1.769-.461-2.204.244-1.231.498m-5.602 4.974c-1.122 1.121-.744 2.333.726 2.333.766 0 1.652-.675 1.969-1.5.577-1.504-1.411-2.118-2.695-.833M126 132.5c1.329 1.601 6.511 2.135 5.544.571-.315-.51.446-1.124 1.691-1.363 1.246-.24-.153-.497-3.107-.572-4.671-.118-5.21.06-4.128 1.364m11.357 0c.825.825 2.193 1.5 3.04 1.5.958 0 1.323-.567.965-1.5-.317-.825-1.685-1.5-3.04-1.5-2.191 0-2.298.167-.965 1.5m-9.544.183c.721.289 1.584.253 1.916-.079s-.258-.568-1.312-.525c-1.165.048-1.402.285-.604.604M126 137c-.825.533-3.75 1.01-6.5 1.059l-5 .089 4 1.852c5.32 2.463 13.859 2.487 19 .055 3.691-1.747 3.794-1.899 1.333-1.974-1.466-.045-2.832.415-3.034 1.022-.437 1.312-11.26 2.356-13.639 1.316-2.351-1.028 5.315-2.442 9.84-1.815l3.5.485-3.365-1.545c-3.927-1.802-4.157-1.822-6.135-.544m-24 7.877c0 5.686-.155 5.606 12.333 6.421l5.832.38-4.879-2.319c-2.683-1.275-6.77-3.938-9.082-5.917L102 139.844zm48.441-1.816c-1.613 1.684-5.532 4.309-8.71 5.834l-5.778 2.773 5.774-.375c12.393-.807 12.273-.745 12.273-6.338 0-2.725-.141-4.955-.313-4.955s-1.633 1.378-3.246 3.061"/><path fill="#1976D2" fill-opacity=".503" fill-rule="evenodd" d="M122.8 91.2c1.741 1.741 1.471 4.877-.55 6.39-1.589 1.19-1.541 1.258.522.738 2.118-.534 2.201-.386 1.222 2.188-1.343 3.532-.724 4.217.962 1.067 1.201-2.245 5.044-4.287 5.044-2.681 0 .394.678 1.589 1.506 2.657 1.401 1.806 1.434 1.741.479-.93-.991-2.769-.93-2.852 1.725-2.344 2.572.491 2.626.434.83-.88-1.057-.773-3.687-1.405-5.845-1.405-3.789 0-3.907-.102-3.482-3 .366-2.491.097-3-1.586-3-1.577 0-1.76.267-.827 1.2m4.2.848c0 .89.563 1.669 1.25 1.732 5.628.508 12.744 3.081 14.438 5.22 1.038 1.311 1.375 1.248 2.668-.498 1.748-2.36 1.304-3.295-.753-1.587-1.197.993-1.353.845-.908-.858.373-1.426.06-2.057-1.019-2.057-.857 0-1.841.457-2.186 1.016-.943 1.527-2.474.161-2.606-2.325-.09-1.692-.22-1.792-.573-.441-.626 2.396-2.311 2.213-2.311-.25s-.865-2.547-2.608-.25c-1.106 1.457-1.334 1.493-1.36.214-.043-2.088-4.032-2.006-4.032.084M118 92c0 .615-.521.796-1.158.403-.793-.491-.98-.037-.593 1.441.573 2.191-.621 2.98-1.749 1.156-1.277-2.067-2.721-.936-2.211 1.731.485 2.538.424 2.597-.868.831-1.344-1.838-1.455-1.841-3.396-.085-1.892 1.713-1.907 1.891-.266 3.138 2.184 1.658 4.056 1.8 2.441.185-.66-.66-1.2-1.871-1.2-2.691 0-1.122.372-1.01 1.5.45 1.42 1.838 1.572 1.848 2.86.191.748-.963 2.098-1.75 3-1.75s1.64-.477 1.64-1.059.45-.781 1-.441 1-.282 1-1.382-.45-2.278-1-2.618-1-.115-1 .5m29.028 8.467c-1.06 1.277-.984 1.533.457 1.533 1.126 0 1.528.523 1.153 1.5-.316.825-.139 1.5.393 1.5.533 0 .969.689.969 1.531 0 .843.647 1.78 1.437 2.083a1.534 1.534 0 0 1 .893 1.969c-.36.938.148 1.417 1.504 1.417 2.736 0 3.52-1.503 1.723-3.3-.804-.804-1.183-1.74-.843-2.081 1.208-1.207-1.335-.599-2.636.631-1.09 1.03-1.126.866-.2-.934 1.454-2.83 1.415-3.316-.267-3.316-.764 0-1.326-.739-1.25-1.642.19-2.24-1.777-2.766-3.333-.891m-30.177 1.783c-1.495 2.758-2.841 10.862-1.686 10.148.459-.284.835-1.869.835-3.523 0-3.17 1.554-6.877 3.4-8.11.769-.514.735-.739-.115-.75-.668-.008-1.763.998-2.434 2.235M103.5 102c-.928 1.502.5 3.214 2.153 2.58.841-.323 1.184-.125.815.472-.35.566-1.611.763-2.802.437-2.135-.584-2.138-.57-.185.988 1.938 1.547 1.928 1.575-.459 1.302-1.663-.19-2.556.279-2.804 1.471-.229 1.101.241 1.75 1.268 1.75.897 0 1.366.43 1.041.956s-1.155.74-1.844.476c-.728-.279-1.318.369-1.406 1.543-.105 1.389.456 2.025 1.785 2.025 1.066 0 1.867-.338 1.779-.75-.286-1.351 1.558-5.649 4.409-10.281 1.031-1.674.987-2.197-.25-2.984-1.927-1.226-2.735-1.223-3.5.015m36.231 3.08c.354 1.352.807 1.806 1.057 1.057.24-.722-.038-1.787-.62-2.369-.742-.742-.872-.351-.437 1.312m-27.531.12c-1.411 1.411-1.568 2.8-.317 2.8.486 0 1.119-.9 1.407-2 .61-2.334.514-2.404-1.09-.8m30.847-.7c-.024 1.486 1.761 4.026 2.388 3.398.3-.299-.112-1.411-.914-2.471-.801-1.06-1.465-1.477-1.474-.927m-8.906 4.5c0 .825.386 2.4.859 3.5.542 1.261.859 1.445.859.5 0-.825-.386-2.4-.859-3.5-.542-1.261-.859-1.445-.859-.5m-24.641 1c.34.55 1.041 1 1.559 1s.941-.45.941-1-.702-1-1.559-1-1.281.45-.941 1m11.579.583c.048 1.165.285 1.402.604.605.289-.722.253-1.585-.079-1.917s-.568.258-.525 1.312M127 110c0 .55-.675 1-1.5 1s-1.5.675-1.5 1.5.675 1.5 1.5 1.5c1.083 0 1.5 1.111 1.5 4 0 2.2.45 4 1 4s1-1.748 1-3.883c0-3.105.421-3.994 2.101-4.433 2.251-.589 1.736-2.684-.66-2.684-.793 0-1.441-.45-1.441-1s-.45-1-1-1-1 .45-1 1m19.201 2.058c1.318 1.783 2.43 2.549 2.667 1.837.224-.671-.323-1.754-1.215-2.407-.892-.652-1.329-1.479-.971-1.837s-.112-.651-1.045-.651c-1.473 0-1.398.404.564 3.058m-38.594.524c-.939 2.446-.735 2.769.893 1.418 1.662-1.38 1.99-3 .607-3-.491 0-1.166.712-1.5 1.582m33.393-.689c0 .491.739 1.176 1.641 1.523 1.373.527 1.435.38.378-.893-1.44-1.735-2.019-1.916-2.019-.63m13.75.796c-.963.252-1.714 1.212-1.671 2.134.049 1.04.27 1.202.583.427.278-.687 1.142-1.25 1.921-1.25s1.417-.45 1.417-1-.113-.948-.25-.884-1.037.322-2 .573m-45.161 3.388c-1.424 1.692-2.575 3.604-2.559 4.25s.529.273 1.137-.827 2.023-3.013 3.144-4.25 1.774-2.25 1.452-2.25-1.75 1.385-3.174 3.077m26.552-.077c0 .825.386 2.4.859 3.5.542 1.261.859 1.445.859.5 0-.825-.386-2.4-.859-3.5-.542-1.261-.859-1.445-.859-.5m10.288.571c.864.865 1.571 2.065 1.571 2.667s.261.834.581.514c.809-.808-1.422-4.752-2.688-4.752-.57 0-.329.707.536 1.571m-46.735 3.163c-.244.421-.126 1.642.263 2.712.673 1.852.735 1.84 1.281-.249.555-2.12-.639-4.025-1.544-2.463M155 121.559c0 1.451.433 2.292 1 1.941.55-.34 1-1.491 1-2.559s-.45-1.941-1-1.941-1 1.152-1 2.559m-35.429 2.973c-.912 1.392-1.994 2.325-2.403 2.072s-.834.633-.945 1.968l-.201 2.428h12.489c11.309 0 14.446-.673 11.533-2.473-.526-.325-.709-1.364-.406-2.309.433-1.35.339-1.421-.439-.329-.789 1.109-1.326.806-2.658-1.5-1.48-2.563-1.494-1.719-.03 1.861.386.945-1.664 1.25-8.396 1.25h-8.908l1.422-2.75c1.784-3.448 1.145-3.58-1.058-.218m-13.471 1.07c-.107 3.327 3.432 9.448 5.9 10.203.825.252.277-.848-1.218-2.445s-3.137-4.693-3.65-6.881c-.881-3.766-.936-3.813-1.032-.877m42.461 2.877c-.95 2.489-2.69 5.199-3.867 6.023-1.176.824-1.667 1.498-1.091 1.498 1.689 0 5.263-4.318 6.492-7.844 1.762-5.053.41-4.768-1.534.323m-47.817-1.729c-.918 1.842 2.558 9.25 4.341 9.25.568 0 .753.453.411 1.007-.343.554.078 1.276.935 1.605s1.324.975 1.039 1.436c-.484.783 7.721 6.181 9.999 6.579.567.099 1.837.503 2.822.899 3.032 1.218 1.528-1.743-1.791-3.526-2.083-1.119-3.409-1.305-4.339-.609-1.019.762-1.258.537-1-.945.224-1.287-.23-1.95-1.34-1.959-.924-.007-2.049-.416-2.5-.91-.48-.525-.198-.552.679-.065 1.222.677 1.201.475-.111-1.09-.885-1.057-2.428-2.911-3.428-4.121-1-1.209-2.182-1.973-2.628-1.698s-.542-.197-.215-1.051c.405-1.055.001-1.562-1.261-1.582-1.754-.029-1.759-.088-.086-1.062.974-.567 1.51-1.453 1.191-1.969-.696-1.127-2.198-1.231-2.718-.189m52.399.75c-.105.825-.276 2.4-.381 3.5s-.739 2-1.409 2c-1.219 0-2.961 3.728-2.51 5.373.131.48-.505.587-1.413.238-1.177-.451-1.491-.213-1.092.827.353.919.083 1.277-.729.966-.709-.272-1.866.2-2.571 1.05S140.937 143 139.937 143c-2.318 0-3.491 1.846-2.073 3.264.785.785 1.653.578 3.112-.743 1.113-1.007 2.038-1.424 2.056-.926.017.498.58.185 1.25-.694.67-.88 1.648-1.78 2.173-2 2.359-.991 5.249-4.797 4.335-5.711-.619-.619-.52-1.239.277-1.732.801-.494.988-.357.528.387-.392.635-.349 1.143.096 1.128s1.803-2 3.018-4.409c1.913-3.797 2.002-4.461.668-4.973-2.056-.789-2.017-.805-2.234.909M119 132.792c0 .436 1.35.774 3 .752s3-.378 3-.792-1.35-.752-3-.752-3 .356-3 .792m14 .188c1.8 1.187 5 1.336 5 .233 0-.433-1.463-.885-3.25-1.005-2.442-.164-2.877.028-1.75.772m-17.345 4.27c.254.412 1.985.75 3.845.75s3.591-.338 3.845-.75c.255-.412-1.475-.75-3.845-.75s-4.1.338-3.845.75m17.004 0c.59.963 6.481.948 8.004-.021.64-.406-1.003-.737-3.65-.734s-4.607.343-4.354.755m-53.409.487-5.25.368v16.19l8.5-.653 8.5-.654.118 3.756c.066 2.066.05 4.141-.035 4.611-.773 4.309 10.331 6.11 37.417 6.068 21.416-.033 32.171-1.155 35.282-3.68.724-.588 1.183-2.705 1.056-4.865-.124-2.103.128-4.173.56-4.601s4.457-.777 8.944-.777h8.158l.129-7.611.128-7.611-8.128-.633c-4.471-.348-10.717-.636-13.879-.639L155 137v13.711l-6.75.637c-8.675.82-29.82.832-39.386.023l-7.437-.628.118-6.872.119-6.871-8.582.185c-4.72.102-10.944.35-13.832.552M127 139.5c0 .825.45 1.5 1 1.5s1-.675 1-1.5-.45-1.5-1-1.5-1 .675-1 1.5m-4.5.5c.34.55 1.266 1 2.059 1s1.441-.45 1.441-1-.927-1-2.059-1-1.781.45-1.441 1m7.5 0c0 1.253 1.061 1.253 3 0 1.213-.784 1.069-.972-.75-.985-1.238-.008-2.25.435-2.25.985m9 5.059c0 .582.45.781 1 .441s1-.816 1-1.059-.45-.441-1-.441-1 .477-1 1.059m-14.268 2.026c.368 1.404.787 1.693 1.286.886.555-.898.861-.857 1.224.166.266.75.792 1.079 1.169.732.747-.689-2.038-3.869-3.389-3.869-.459 0-.589.938-.29 2.085m5.39-1.181c-.758.48-1.081 1.353-.718 1.941.875 1.416 3.596.318 3.596-1.452 0-1.593-.896-1.745-2.878-.489m3.878.596c0 .825.661 1.5 1.469 1.5.894 0 1.243-.586.893-1.5-.317-.825-.978-1.5-1.469-1.5s-.893.675-.893 1.5"/><path fill="#1976D2" fill-opacity=".51" fill-rule="evenodd" d="M123.71 92c.288 1.1.696 2 .907 2 .21 0 .383-.9.383-2s-.408-2-.906-2-.671.9-.384 2m3.448 0c0 1.375.227 1.938.504 1.25.278-.687.278-1.812 0-2.5-.277-.687-.504-.125-.504 1.25m5.301.067c-.363.586-.445 1.281-.183 1.543s.743-.218 1.069-1.067c.676-1.762.1-2.072-.886-.476m8.413 3.625c-.754.931-.848 1.378-.207.994.64-.384 1.382-.133 1.648.558s.433.243.372-.994c-.132-2.694-.091-2.681-1.813-.558m-28.116-.028c.691.279 1.005.913.698 1.41s.178.621 1.078.275c1.309-.502 1.369-.796.302-1.473-.734-.465-1.784-.817-2.334-.782s-.435.292.256.57m34.192 5.053c-1.153 1.521-1.146 1.6.05.533 1.675-1.493 3.375-1.663 2.502-.25-.34.55-.104 1 .524 1 1.362 0 .8-2.225-.686-2.721-.571-.19-1.646.457-2.39 1.438m-40.384 3.99c-.542 1.425-.428 1.54.56.56.684-.679.991-1.486.683-1.793-.308-.308-.867.247-1.243 1.233m45.436-.905c0 .629-.78.884-1.75.572-1.463-.47-1.505-.39-.258.49 1.564 1.104 3.961-.244 2.691-1.514-.375-.376-.683-.172-.683.452m-40.541 2.265c-.363.586-.445 1.281-.183 1.543s.743-.218 1.069-1.067c.676-1.762.1-2.072-.886-.476m32.105.226c.376.986.935 1.541 1.243 1.233s.001-1.114-.683-1.793c-.988-.98-1.102-.865-.56.56m8.936 1.373c-1.803 1.445-1.817 1.539-.139.957 1.443-.5 1.719-.274 1.227 1.007-.547 1.427-.411 1.468.999.298 1.024-.85 1.217-1.493.516-1.727-.613-.204-.861-.783-.55-1.286.8-1.295.248-1.093-2.053.751m-51.767 2.458c.679.684 1.486.991 1.793.683.308-.308-.247-.867-1.233-1.243-1.425-.542-1.54-.428-.56.56m8.445.449c-.727.823-1.177 1.889-1 2.369s1.131-.21 2.119-1.535c1.946-2.608 1.043-3.282-1.119-.834m17.822-.146c0 .784-.787 1.632-1.75 1.884-1.667.435-1.667.463 0 .573 1.351.09 1.75 1.015 1.75 4.057 0 2.168.45 4.219 1 4.559.61.377 1-1.132 1-3.868 0-3.431.411-4.593 1.75-4.943 1.667-.435 1.667-.463 0-.573-.963-.064-1.75-.791-1.75-1.616s-.45-1.5-1-1.5-1 .642-1 1.427m18-.368c0 .582.45.781 1 .441s1-.816 1-1.059-.45-.441-1-.441-1 .477-1 1.059m2 1.882c0 .518.445 1.216.989 1.552.566.35.734-.051.393-.941-.665-1.732-1.382-2.049-1.382-.611m-46.988 2.082c.582 1.087 1.478 1.977 1.992 1.977 1.377 0 .078-2.755-1.604-3.4-1.16-.445-1.237-.164-.388 1.423m52.988-.054c0 .532.675.709 1.5.393.825-.317 1.5-.753 1.5-.969s-.675-.393-1.5-.393-1.5.436-1.5.969m-36.05 14.481c-.523.522-.949 1.198-.947 1.5.001.302 5.402.55 12.001.55 10.953 0 14.321-.67 10.58-2.106-2.526-.969-20.656-.922-21.634.056m36.557-.461c-.35.566.051.734.941.393 1.732-.665 2.049-1.382.611-1.382-.518 0-1.216.445-1.552.989M152.5 132c.34.55.816 1 1.059 1s.441-.45.441-1-.477-1-1.059-1-.781.45-.441 1m-65.75 5.716c-2.462.373-2.75.828-2.75 4.342 0 3.704.158 3.908 2.795 3.619 6.038-.661 7.166-3.612 1.455-3.802l-3.75-.125 4.5-.739c2.475-.407 4.642-.376 4.815.069.585 1.504 3.185-.281 3.185-2.187 0-2.15-3.519-2.672-4.338-.643-.403 1-.52 1-.583 0-.08-1.261-.349-1.288-5.329-.534M98 138.5c0 .917.484 1.505 1.075 1.308s1.075-.786 1.075-1.308-.484-1.111-1.075-1.308S98 137.583 98 138.5m58.5-.718c-1.462 1.05-1.826 5.218-.456 5.218.644 0 .922-.646.619-1.435-.303-.79-.058-1.6.543-1.8.602-.201.914-.891.694-1.533s-.85-.845-1.4-.45m2.5 1.101c0 1.043.893 2.117 2 2.407 1.591.416 2 .03 2-1.884 0-1.739-.554-2.406-2-2.406-1.292 0-2 .667-2 1.883m5 .044c0 1.431.642 2.073 2.073 2.073 2.563 0 2.272-3.31-.334-3.812-1.2-.231-1.739.308-1.739 1.739m-85 1.146c0 2.563 3.31 2.272 3.812-.334.231-1.2-.308-1.739-1.739-1.739S79 138.642 79 140.073M127.5 139c-.34.55-.141 1 .441 1s1.059-.45 1.059-1-.198-1-.441-1-.719.45-1.059 1m41.5.5c0 .933.944 1.5 2.5 1.5 1.375 0 2.5.459 2.5 1.019 0 .588-1.058.753-2.5.392-2.075-.521-2.5-.269-2.5 1.481 0 2.34 3.463 3.025 4.338.858.403-1 .52-1 .583 0 .043.688 1.204 1.25 2.579 1.25s2.5.401 2.5.891c0 .491-2.25.695-5 .454l-5-.438v3.046c0 2.754.312 3.055 3.25 3.129 1.787.045 4.488.286 6 .534 1.519.25 2.75-.011 2.75-.582 0-.569-2.025-1.034-4.5-1.034s-4.5-.405-4.5-.901c0-.495 2.025-.711 4.5-.48l4.5.42v-4.019c0-3.866-.125-4.021-3.25-4.035-2.21-.011-2.814-.292-1.889-.878.748-.474 2.211-.64 3.25-.368 1.229.322 1.889-.027 1.889-.997 0-1.971-6.064-3.243-7.168-1.504-.635 1-.805 1.003-.817.012-.008-.687-.915-1.25-2.015-1.25-1.111 0-2 .667-2 1.5M75 145c0 4.611.34 6 1.47 6 1.76 0 1.868-7.065.125-8.235-.754-.505-.705-.739.155-.75.688-.008 1.25-.69 1.25-1.515s-.675-1.5-1.5-1.5c-1.167 0-1.5 1.333-1.5 6m49.5-5c.34.55.816 1 1.059 1s.441-.45.441-1-.477-1-1.059-1-.781.45-.441 1m6.313-.317c.721.289 1.584.253 1.916-.079s-.258-.568-1.312-.525c-1.165.048-1.402.285-.604.604m16.187.376c0 .582.45.781 1 .441s1-.816 1-1.059-.45-.441-1-.441-1 .477-1 1.059m-49.25 1.735c-1.513.187-2.75.759-2.75 1.272 0 .514-.675.934-1.5.934-2.096 0-1.877 2.728.313 3.9 2.148 1.149 6.311-.592 6.934-2.9.242-.896.072-1.097-.421-.5-.454.55-1.276 1.061-1.826 1.135s-2.069.46-3.375.857c-1.628.495-2.16.374-1.691-.385.376-.609 1.445-1.121 2.375-1.139 1.694-.032 5.921-2.699 5.118-3.23-.235-.155-1.664-.13-3.177.056m60.25 3.099c0 3.675 2.236 4.567 5.201 2.074l2.299-1.932-2.25-.634c-1.238-.349-2.25-1.032-2.25-1.518 0-.485-.675-.883-1.5-.883-.988 0-1.5.988-1.5 2.893m7.232-.893c.687 1.1 1.591 2 2.009 2s.759-.9.759-2c0-1.336-.667-2-2.008-2-1.759 0-1.853.249-.76 2M79 144.5c0 .833.889 1.5 2 1.5s2-.667 2-1.5-.889-1.5-2-1.5-2 .667-2 1.5m38.543.431c-.317.512-.193 1.167.274 1.456s.85-.13.85-.931c0-1.686-.316-1.833-1.124-.525m37.707 1.587c0 1.365.298 2.482.662 2.482.971 0 1.101-3.874.149-4.462-.446-.276-.811.615-.811 1.98M160 146c1.939 1.253 3 1.253 3 0 0-.55-1.012-.993-2.25-.985-1.819.013-1.963.201-.75.985m-81 3q0 2 2 2t2-2-2-2-2 2m5 1c0 2.762.278 3 3.5 3 1.925 0 3.5-.48 3.5-1.067 0-.613-.853-.797-2-.433s-2 .18-2-.433c0-.587.9-1.067 2-1.067 1.111 0 2-.667 2-1.5 0-1.048-1.056-1.5-3.5-1.5-3.222 0-3.5.238-3.5 3m81.197 0c.137 1.807.789 3 1.638 3 1.14 0 1.171-.287.165-1.5-.86-1.036-.898-1.5-.122-1.5.617 0 1.122-.675 1.122-1.5s-.682-1.5-1.516-1.5c-1.068 0-1.448.885-1.287 3M92 150.377c0 .838.787 2.03 1.75 2.649 1.667 1.071 1.667 1.099 0 .581-2.02-.628-2.365 1.378-.55 3.193 2.159 2.159 2.92 1.27 2.607-3.041-.224-3.094-.78-4.332-2.057-4.574-1.046-.198-1.75.281-1.75 1.192m69.25-.715c-.709.286-1.25 2.245-1.25 4.528 0 3.259.301 3.909 1.582 3.417.87-.334 1.77-.607 2-.607s.418-.675.418-1.5-.787-1.514-1.75-1.53c-1.667-.029-1.667-.079 0-1.05.963-.561 1.75-1.672 1.75-2.47 0-1.493-.586-1.661-2.75-.788M97 152q0 2 2 2c2.373 0 2.684-2.523.418-3.393-2.294-.88-2.418-.809-2.418 1.393m59.25-1.338c-2.007.81-1.438 3.338.75 3.338q2 0 2-2c0-2.021-.479-2.254-2.75-1.338M102 153q0 2 2 2t2-2-2-2-2 2m5 .094c0 1.239.699 1.906 2 1.906 1.1 0 2-.623 2-1.383 0-.761-.9-1.619-2-1.907-1.483-.388-2-.03-2 1.384m39.75-1.405c-2.413.631-2.211 3.311.25 3.311q2 0 2-2c0-1.1-.113-1.948-.25-1.884s-1.037.322-2 .573M150 153q0 2 2 2t2-2-2-2-2 2m-75 0c0 .55.675 1 1.5 1s1.5-.45 1.5-1-.675-1-1.5-1-1.5.45-1.5 1m4-.094c0 .499.9.671 2 .384s2-.696 2-.907c0-.21-.9-.383-2-.383s-2 .408-2 .906M112 156v4h4c2.889 0 4-.417 4-1.5 0-1.006-1.007-1.5-3.059-1.5-1.792 0-2.802-.416-2.439-1.004.341-.552 1.718-.728 3.059-.391 2.008.504 2.439.239 2.439-1.497 0-2.321-1.927-2.781-3.8-.908-.933.933-1.2.933-1.2 0 0-.66-.675-1.2-1.5-1.2-1.083 0-1.5 1.111-1.5 4m9.667-3.333C120.29 154.043 121.073 156 123 156q2 0 2-2c0-1.927-1.957-2.71-3.333-1.333M126 154q0 2 2 2t2-2-2-2-2 2m5-.073c0 1.431.642 2.073 2.073 2.073s1.97-.539 1.739-1.739c-.502-2.606-3.812-2.897-3.812-.334m5 .073c0 1.506.522 2.046 1.75 1.81.963-.186 1.75-1 1.75-1.81s-.787-1.624-1.75-1.81c-1.228-.236-1.75.304-1.75 1.81m5-.083c0 1.054.563 2.143 1.25 2.421.688.277-.437.54-2.5.583-2.632.055-3.75.526-3.75 1.579 0 .848.895 1.5 2.059 1.5 1.132 0 1.781-.45 1.441-1s-.141-1 .441-1 1.059.45 1.059 1 .675 1 1.5 1c1.083 0 1.5-1.111 1.5-4s-.417-4-1.5-4c-.825 0-1.5.863-1.5 1.917M97.273 159c0 3.236.356 4 1.863 4 2.086 0 2.555-2.554.614-3.338-1-.403-1-.52 0-.583 2.083-.132 1.489-4.079-.614-4.079-1.507 0-1.863.764-1.863 4M155 157.073c0 1.431.539 1.97 1.739 1.739 2.606-.502 2.897-3.812.334-3.812-1.431 0-2.073.642-2.073 2.073m-53 .344c0 .779.563 1.643 1.25 1.921 1 .403 1 .52 0 .583-2.083.132-1.489 4.079.614 4.079 1.507 0 1.863-.764 1.863-4s-.356-4-1.863-4c-1.025 0-1.864.637-1.864 1.417m5 .51c0 1.431.642 2.073 2.073 2.073 2.563 0 2.272-3.31-.334-3.812-1.2-.231-1.739.308-1.739 1.739m38.667-1.26C144.29 158.043 145.073 160 147 160q2 0 2-2c0-1.927-1.957-2.71-3.333-1.333m4.606 3.333c0 3.236.356 4 1.863 4 2.125 0 2.623-3.527.614-4.338-1-.403-1-.52 0-.583 2.019-.128 1.431-3.079-.614-3.079-1.507 0-1.863.764-1.863 4m-29 1c0 3.236.356 4 1.863 4 2.125 0 2.623-3.527.614-4.338-1-.403-1-.52 0-.583 2.019-.128 1.431-3.079-.614-3.079-1.507 0-1.863.764-1.863 4m4.727-2.5c0 .833.889 1.5 2 1.5s2-.667 2-1.5-.889-1.5-2-1.5-2 .667-2 1.5m5-.083c0 .779.563 1.643 1.25 1.921 1 .403 1 .52 0 .583-2.14.135-1.476 4.079.687 4.079 1.603 0 1.928-.691 1.882-4-.044-3.23-.417-4-1.937-4-1.035 0-1.882.637-1.882 1.417m-39 1.033c0 .798.787 1.909 1.75 2.47 1.609.937 1.589 1.023-.25 1.065-1.66.038-1.745.21-.5 1.015 2.408 1.556 3 1.182 3-1.893 0-1.716-.644-3.14-1.582-3.5-2.227-.855-2.418-.788-2.418.843m69.25-.788c-1.322.534-1.782 6.349-.5 6.323.412-.009 1.425-.452 2.25-.985 1.245-.805 1.16-.977-.5-1.015-1.839-.042-1.859-.128-.25-1.065.963-.561 1.75-1.672 1.75-2.47 0-1.493-.586-1.661-2.75-.788M155 161.5c0 .833.889 1.5 2 1.5s2-.667 2-1.5-.889-1.5-2-1.5-2 .667-2 1.5m-48 1c0 .833.889 1.5 2 1.5s2-.667 2-1.5-.889-1.5-2-1.5-2 .667-2 1.5m5 1.5c0 2.885.163 2.995 4.25 2.858l4.25-.142-4-.716c-2.2-.394-3.437-.78-2.75-.858 1.792-.204 1.554-4.142-.25-4.142q-1.5 0-1.5 3m4.5-2c-.837 1.354.292 3 2.059 3 .793 0 1.441-.9 1.441-2 0-2.07-2.413-2.76-3.5-1m9.5 1q0 2 2 2t2-2-2-2-2 2m10 0c0 1.506.522 2.046 1.75 1.81.963-.186 1.75-1 1.75-1.81s-.787-1.624-1.75-1.81c-1.228-.236-1.75.304-1.75 1.81m5 0c0 1.1.563 2.007 1.25 2.015q1.25.016-.25.985c-1.282.828-1.246.972.25.985 1.281.011 1.75-.789 1.75-2.985q0-3-1.5-3c-.833 0-1.5.889-1.5 2m4-.5c0 .833.889 1.5 2 1.5s2-.667 2-1.5-.889-1.5-2-1.5-2 .667-2 1.5M97.5 165c.34.55 1.266 1 2.059 1s1.441-.45 1.441-1-.927-1-2.059-1-1.781.45-1.441 1m57.5 0c0 .55.648 1 1.441 1s1.719-.45 2.059-1-.309-1-1.441-1-2.059.45-2.059 1m-52.25.662c.688.278 1.813.278 2.5 0 .688-.277.125-.504-1.25-.504s-1.937.227-1.25.504M107 166c0 .55.927 1 2.059 1s1.781-.45 1.441-1-1.266-1-2.059-1-1.441.45-1.441 1m38.5 0c-.34.55.309 1 1.441 1s2.059-.45 2.059-1-.648-1-1.441-1-1.719.45-2.059 1m5.25-.338c.688.278 1.813.278 2.5 0 .688-.277.125-.504-1.25-.504s-1.937.227-1.25.504m-29 1c.688.278 1.813.278 2.5 0 .688-.277.125-.504-1.25-.504s-1.937.227-1.25.504m5 0c.688.278 1.813.278 2.5 0 .688-.277.125-.504-1.25-.504s-1.937.227-1.25.504m5 0c.688.278 1.813.278 2.5 0 .688-.277.125-.504-1.25-.504s-1.937.227-1.25.504m5 0c.688.278 1.813.278 2.5 0 .688-.277.125-.504-1.25-.504s-1.937.227-1.25.504"/></svg>