<svg xmlns="http://www.w3.org/2000/svg" width="256" height="256"><path fill="#1976D2" fill-opacity=".016" fill-rule="evenodd" d="M0 128.004v128.004l128.25-.254 128.25-.254.254-127.75L257.008 0H0zm.485.496c0 70.4.119 99.053.265 63.672s.146-92.98 0-128S.485 58.1.485 128.5"/><path fill="#1976D2" fill-opacity=".199" fill-rule="evenodd" d="M116.756 34.02C101.027 36.502 86.849 43.935 75 55.909c-9.566 9.668-13.989 16.531-18.32 28.426-2.543 6.983-3.041 10.001-3.443 20.845-.578 15.618 1.011 23.72 7.087 36.129 2.83 5.782 3.758 8.525 2.731 8.077-3.547-1.549-14.703-1.496-29.655.14-8.745.956-19.772 1.734-24.504 1.729l-8.604-.01.135 19.127.134 19.128 2.946.104c4.062.143 28.045-1.39 33.243-2.125l4.25-.602v11.407c0 12.497.109 12.757 6.805 16.149 9.959 5.047 63.168 8.482 103.695 6.694 13.75-.607 26.35-1.287 28-1.512s5.925-.717 9.5-1.094c10.63-1.122 19.18-3.421 22.696-6.103l3.304-2.52v-23.121l3.25.6c5.249.968 36.943 2.763 37.578 2.128.32-.319.651-9.267.737-19.883l.156-19.302-4.111.794c-3.908.755-14.85.067-33.61-2.112-10.862-1.261-21.158-1.273-24.435-.027-3.171 1.206-3.175.922-.054-4.403 1.38-2.356 3.63-7.575 4.998-11.599 16.162-47.517-17.611-96.912-67.969-99.411-4.972-.246-11.625-.04-14.784.458m5.266 37.028c-1.852 8.276-3.758 15.289-4.235 15.583s-.642-.514-.367-1.797c1.854-8.662 3.551-18.197 3.285-18.463-.174-.173-1.981 5.41-4.017 12.407a10561 10561 0 0 1-9.087 30.972c-2.962 10.037-5.281 18.25-5.154 18.25s2.208-3.15 4.624-7c3.337-5.319 4.937-7 6.661-7 1.247 0 2.268.505 2.268 1.122 0 .798.415.778 1.436-.069 1.1-.913 1.947-.918 3.621-.023 1.487.796 1.967.818 1.505.07-.384-.62 0-1.1.879-1.1 1.303 0 1.559-1.562 1.559-9.5V95h-3.5c-3.222 0-3.5-.238-3.5-3 0-2.751.285-3 3.434-3 3.002 0 3.473-.345 3.75-2.75.248-2.16.906-2.818 3.066-3.066 2.46-.284 2.75 0 2.75 2.689 0 2.748.32 3.033 3.727 3.317 3.227.268 3.728.646 3.728 2.81 0 2.168-.499 2.541-3.763 2.812l-3.763.313.286 9.687.285 9.688 5.25-.083c3.143-.049 5.256.352 5.265 1 .009.596.434.421.946-.388 1.133-1.792.91-2.011 6.63 6.519 2.564 3.824 4.439 6.277 4.168 5.452-.272-.825-4.476-15.091-9.342-31.702-4.866-16.61-8.978-30.071-9.137-29.912s.646 4.876 1.789 10.481c3.163 15.507 1.702 14.487-1.969-1.375-1.781-7.696-3.66-15.117-4.175-16.492l-.937-2.5.434 2.5c.239 1.375.679 7.225.978 13 .606 11.707-.783 9.047-1.998-3.825-.83-8.789-1.972-7.676-2.902 2.825-.374 4.219-1.11 8.308-1.637 9.086-.927 1.368-.539-8.612.731-18.836.976-7.85-.181-4.352-3.572 10.798m-18.112-9.87C95.861 65.168 84.521 76.346 80.758 84c-4.115 8.369-5.882 16.707-5.549 26.186.23 6.558.471 7.68 1.137 5.314 3.196-11.356 8.13-18.35 15.834-22.443l4.32-2.294.089-6.132c.137-9.458 4.536-18.11 12.143-23.881 4.786-3.632 3.056-3.478-4.822.428m43.296-.761C154.668 65.642 160 76.362 160 86.139c0 4.579.191 4.918 3.818 6.768 4.229 2.157 10.215 8.323 12.647 13.025.867 1.678 2.205 5.642 2.973 8.809l1.395 5.759.248-5.5c.619-13.768-1.045-22.328-6.25-32.14C169.486 72.784 155.88 61.3 146 58.525c-2.004-.563-1.764-.188 1.206 1.892m-31.956-.728c.963.252 2.537.252 3.5 0 .963-.251.175-.457-1.75-.457s-2.713.206-1.75.457m22.512.018c1.244.239 3.044.23 4-.02s-.062-.446-2.262-.435-2.982.216-1.738.455M108.5 63c-.383.62 1.47 1 4.882 1 3.025 0 5.778-.45 6.118-1 .383-.62-1.47-1-4.882-1-3.025 0-5.778.45-6.118 1m28.5 0c0 .55 2.502 1 5.559 1 3.451 0 5.325-.379 4.941-1-.34-.55-2.841-1-5.559-1S137 62.45 137 63m-29.272 3.722c1.775.221 4.925.224 7 .008 2.074-.217.622-.397-3.228-.402-3.85-.004-5.548.173-3.772.394m33 0c1.775.221 4.925.224 7 .008 2.074-.217.622-.397-3.228-.402-3.85-.004-5.548.173-3.772.394M102.562 69.9c-.311.503 2.753.9 6.941.9 4.123 0 7.497-.405 7.497-.9 0-1.175-13.712-1.175-14.438 0m36.438.153c0 .66 2.783.978 7.469.854 4.108-.108 7.232-.582 6.941-1.052-.778-1.26-14.41-1.073-14.41.198m-48.533 5.086c-4.55 4.864-4.707 5.213-2.928 6.514 2.587 1.891 3.467 1.37 4.945-2.929.701-2.038 2.014-4.835 2.918-6.215 2.748-4.194.156-2.813-4.935 2.63m69.565-4.601c.017.529.701 1.848 1.52 2.931s1.957 3.708 2.529 5.834c.763 2.831 1.448 3.708 2.562 3.281.836-.321 1.934-.584 2.439-.584 2.162 0 .578-2.91-4.082-7.5-2.75-2.709-4.986-4.492-4.968-3.962m-55.256 3.195c2.352.212 5.952.209 8-.006s.124-.388-4.276-.384c-4.4.003-6.076.179-3.724.39m39 0c2.352.212 5.952.209 8-.006s.124-.388-4.276-.384c-4.4.003-6.076.179-3.724.39m-44.31 3.321c-.439.712 1.979.991 7.441.859 4.451-.107 8.093-.581 8.093-1.054 0-1.246-14.757-1.061-15.534.195M141 76.905c0 .497 3.6.905 8 .905s8-.408 8-.905-3.6-.905-8-.905-8 .407-8 .905m-38.224 3.828c2.352.212 5.952.209 8-.006s.124-.388-4.276-.384c-4.4.003-6.076.179-3.724.39m42.974-.001c2.338.211 6.162.211 8.5 0 2.338-.21.425-.383-4.25-.383s-6.588.173-4.25.383m-61.712 3.196c-1.316 2.46 1.949 5.528 4.89 4.595 3.124-.992 2.582-4.149-.922-5.371-2.527-.881-3.145-.76-3.968.776m84.212-.861c-2.611 1.008-3.049 4.689-.667 5.603.928.356 2.468-.277 3.719-1.527 1.87-1.871 1.953-2.309.666-3.54-1.019-.974-2.157-1.139-3.718-.536M98 84.053c0 .66 2.791.978 7.5.854 4.125-.11 7.5-.583 7.5-1.053S109.625 83 105.5 83c-4.583 0-7.5.409-7.5 1.053m45 0c0 .66 2.791.978 7.5.854 4.125-.11 7.5-.583 7.5-1.053S154.625 83 150.5 83c-4.583 0-7.5.409-7.5 1.053m-41.75 3.675c2.063.216 5.438.216 7.5 0 2.063-.215.375-.392-3.75-.392s-5.812.177-3.75.392m46 0c2.063.216 5.438.216 7.5 0 2.063-.215.375-.392-3.75-.392s-5.812.177-3.75.392M80.901 90.75C79.312 94.917 78.154 102 79.062 102c.442 0 1.111-1.013 1.487-2.25s1.756-3.682 3.067-5.433c2.796-3.733 2.957-4.883.802-5.71-2.316-.889-2.373-.854-3.517 2.143m90.075-1.221c-1.048 1.263-.916 1.917.76 3.75 1.117 1.222 2.769 3.684 3.673 5.471s1.892 3.25 2.196 3.25c.612 0-.194-4.465-1.849-10.25-1.14-3.987-2.71-4.716-4.78-2.221M99 91.052c0 .644 2.33.969 6 .836 3.3-.119 6-.592 6-1.052S108.3 90 105 90c-3.533 0-6 .433-6 1.052M145 91c0 .554 2.647 1 5.941 1 3.268 0 6.219-.45 6.559-1 .388-.628-1.823-1-5.941-1-3.706 0-6.559.435-6.559 1m-47.72 3.736c2.629.207 6.679.204 9-.005 2.321-.21.17-.379-4.78-.376s-6.849.175-4.22.381m53 0c2.629.207 6.679.204 9-.005 2.321-.21.17-.379-4.78-.376s-6.849.175-4.22.381M88.5 98c-.397.643 3.156 1 9.941 1 6.373 0 10.559-.396 10.559-1 0-.6-3.98-1-9.941-1-5.549 0-10.214.442-10.559 1m58.5 0c0 .606 4.353 1 11.059 1 7.118 0 10.839-.356 10.441-1-.348-.563-5.177-1-11.059-1-6.294 0-10.441.397-10.441 1m-56.211 3.741c3.459.196 8.859.195 12-.003s.311-.358-6.289-.356-9.17.164-5.711.359m62.961-.001c3.438.196 9.063.196 12.5 0 3.438-.195.625-.355-6.25-.355s-9.687.16-6.25.355m-71.209 3.193c-.345.559 4.447.934 11.941.934 7.083 0 12.518-.406 12.518-.934 0-.525-5.216-.933-11.941-.933-6.568 0-12.201.42-12.518.933m66.986.111c.796 1.287 24.473 1.138 24.473-.154 0-.489-5.652-.89-12.559-.89-8.475 0-12.349.34-11.914 1.044m-62.235 3.698c3.735.193 9.585.192 13-.003 3.414-.194.358-.352-6.792-.35-7.15.001-9.944.161-6.208.353m68.958 0c3.713.192 9.787.192 13.5 0 3.713-.193.675-.35-6.75-.35s-10.463.157-6.75.35M79.5 112c-.4.647 3.99 1 12.441 1 8.039 0 13.059-.384 13.059-1 0-.613-4.814-1-12.441-1-7.215 0-12.701.42-13.059 1m72 0c.358.58 5.844 1 13.059 1 7.627 0 12.441-.387 12.441-1 0-.616-5.02-1-13.059-1-8.451 0-12.841.353-12.441 1m-66.208 3.742c3.735.193 9.585.192 13-.003 3.414-.194.358-.352-6.792-.35-7.15.001-9.944.161-6.208.353m72.958 0c3.713.192 9.787.192 13.5 0 3.713-.193.675-.35-6.75-.35s-10.463.157-6.75.35m-37.15 3.553c-1.265 2.107-1.243 2.128.479.479.991-.95 1.587-1.942 1.324-2.205s-1.074.514-1.803 1.726m-43.1-.402c0 .492 5.625.962 12.5 1.045 8.12.098 12.5-.215 12.5-.893 0-.671-4.476-1.045-12.5-1.045-6.875 0-12.5.402-12.5.893m38.603-.06c-.283.459.14.834.941.834s1.456-.375 1.456-.834-.423-.833-.941-.833-1.173.375-1.456.833m36.924.211c.796 1.287 24.473 1.138 24.473-.154 0-.489-5.652-.89-12.559-.89-8.475 0-12.349.34-11.914 1.044M112.5 120c.34.55.816 1 1.059 1s.441-.45.441-1-.477-1-1.059-1-.781.45-.441 1m20 1c.34.55 1.068 1 1.618 1s.722-.45.382-1-1.068-1-1.618-1-.722.45-.382 1m-48.75 1.74c3.438.196 9.063.196 12.5 0 3.438-.195.625-.355-6.25-.355s-9.687.16-6.25.355m76 0c3.438.196 9.063.196 12.5 0 3.438-.195.625-.355-6.25-.355s-9.687.16-6.25.355M113.158 125c0 1.375.227 1.938.504 1.25.278-.687.278-1.812 0-2.5-.277-.687-.504-.125-.504 1.25m3.254-.775c.299 1.46 10.58 1.842 10.585.393.002-.485-1.797-.64-3.997-.345-2.869.385-3.805.21-3.308-.618.416-.695.057-.641-.903.137-1.078.873-1.764.946-2.117.225-.287-.587-.404-.493-.26.208m19.845-.225c.225.825.822 1.507 1.326 1.515s1.41.33 2.012.714 3.025 1.006 5.383 1.384c3.176.507 4.182.368 3.88-.539-.224-.673-.796-1.152-1.271-1.064-.475.089-1.244-.44-1.71-1.175-.633-.998-.85-1.02-.862-.085-.008.688-.69 1.25-1.515 1.25s-1.5-.477-1.5-1.059-.5-.75-1.112-.372c-.611.378-1.504.067-1.984-.691-.723-1.14-.879-1.119-.904.122-.027 1.333-.148 1.333-1.091 0s-1.016-1.333-.652 0m-26.757 1c.34.55.816 1 1.059 1s.441-.45.441-1-.477-1-1.059-1-.781.45-.441 1M79 126c0 .606 4.333 1 11 1s11-.394 11-1-4.333-1-11-1-11 .394-11 1m76.5 0c.348.563 5.157 1 11 1s10.652-.437 11-1c.398-.645-3.509-1-11-1s-11.398.355-11 1m-70.75 3.737c2.888.202 7.612.202 10.5 0s.525-.367-5.25-.367-8.138.165-5.25.367m77 0c2.887.202 7.613.202 10.5 0s.525-.367-5.25-.367-8.137.165-5.25.367M81 132.864c0 1.271 16.689 1.448 17.469.185.435-.703-2.341-1.049-8.41-1.049-4.982 0-9.059.389-9.059.864m76.444.045c.309.5 4.385.909 9.059.909s8.497-.409 8.497-.909-4.077-.909-9.059-.909c-5.181 0-8.819.389-8.497.909M91 136l-8.5.627 7.75.187c9.461.227 10.528 2.186 1.191 2.186-6.964 0-8.265 1.442-1.654 1.832 4.857.287 9.213-1.282 9.213-3.317 0-1.319 1.515-1.458 10.75-.989 9.257.47 10.993.834 12.5 2.621 2.424 2.873 2.207 3.536-1.189 3.632-2.26.064-3.038-.421-3.364-2.098-.424-2.177-.425-2.177-.561.069-.075 1.238-.769 2.25-1.542 2.25-.919 0-1.259-.781-.98-2.25.39-2.057.353-2.079-.442-.25-.782 1.801-2.105 2.054-13.27 2.538-6.821.296 5.373.538 27.098.537 21.725 0 35.808-.148 31.297-.327-7.199-.287-8.139-.537-7.675-2.038.446-1.442.373-1.472-.464-.195-1.281 1.951-19.936 2.71-23.235.944-1.488-.796-1.952-.815-1.485-.059.374.605.252 1.1-.272 1.1-1.288 0-2.331-2.924-1.515-4.245.362-.586.19-.775-.383-.421s-1.597-.026-2.277-.845c-1.079-1.3-.109-1.487 7.637-1.474 6.097.011 8.403.319 7.372.985-.825.533-1.028.976-.45.985.577.008 1.547-.482 2.154-1.089.757-.757 1.666-.788 2.897-.099 1.139.637 2.685.665 4.235.075 1.343-.51 2.679-.69 2.969-.4s.003.528-.638.528c-.642 0-1.167.52-1.167 1.155 0 .691.735.49 1.829-.5 2.527-2.287 8.145-2.222 8.25.095.047 1.045.282 1.247.583.5.334-.826 3.104-1.305 8.171-1.412l7.667-.162-9.5-.726c-11.368-.869-61.009-.835-73 .05m13.195 3.5c.02 1.65.244 2.204.498 1.231s.237-2.323-.037-3-.481.119-.461 1.769m30.22.638c-.432.698-.292.904.345.51.588-.363 1.297-.095 1.576.596.362.899.529.917.585.065.114-1.721-1.656-2.548-2.506-1.171m24.918.318c0 .801.292 1.276.648 1.056s2.783-.511 5.392-.646c6.903-.358 6.784-1.866-.147-1.866-4.492 0-5.893.346-5.893 1.456M125 146.92c-7.2 5.335-19.044 6.454-28.25 2.668-3.162-1.301-5.75-2.225-5.75-2.053 0 .171 3.037 2.329 6.75 4.796 10.331 6.863 17.654 9.068 30.25 9.108 12.456.039 20.533-2.276 30.003-8.6 7.268-4.854 8.401-6.29 2.72-3.45-3.241 1.62-6.083 2.111-12.223 2.111-7.792 0-10.197-.724-20.5-6.168-.275-.146-1.625.569-3 1.588M95 147c.825.533 6.675.969 13 .969s12.175-.436 13-.969c1.006-.65-3.274-.969-13-.969s-14.006.319-13 .969m40 0c.825.533 6.675.969 13 .969s12.175-.436 13-.969c1.006-.65-3.274-.969-13-.969s-14.006.319-13 .969M.158 153c0 1.375.227 1.938.504 1.25.278-.687.278-1.812 0-2.5-.277-.687-.504-.125-.504 1.25m125.921-.596c-1.686 2.032-.295 6.596 2.01 6.596 2.349 0 3.638-4.419 1.9-6.513-1.538-1.854-2.424-1.872-3.91-.083m-59.461 13.347c.065 7.362.515 13.759 1 14.216s4.032 1.117 7.882 1.465 8.125.828 9.5 1.066 9.7.65 18.5.915c15.657.471 15.861.451 9.5-.94-16.806-3.677-33.205-13.407-42.705-25.34l-3.795-4.767zm51.882-11.637c-1.65.519-4.237.716-5.75.439-4.102-.75-3.322.967 1 2.203 10.014 2.865 12.498 2.445 10.261-1.735-1.196-2.236-1.251-2.245-5.511-.907m13.964-.245c-.255.255-.464 1.289-.464 2.298 0 1.251.737 1.833 2.322 1.833 2.804 0 11.68-2.923 11.673-3.844-.007-.738-12.808-1.01-13.531-.287m48.98 7.47c-11.165 11.31-22.616 17.735-37.646 21.121-6.116 1.377-5.835 1.404 9.702.917 8.8-.276 16.675-.67 17.5-.876s4.875-.668 9-1.028 7.812-.951 8.194-1.314c.382-.362.832-6.622 1-13.911s.306-13.211.306-13.161-3.625 3.763-8.056 8.252M.195 161.5c.02 1.65.244 2.204.498 1.231s.237-2.323-.037-3-.481.119-.461 1.769m-.116 6.083c.048 1.165.285 1.402.604.605.289-.722.253-1.585-.079-1.917s-.568.258-.525 1.312"/><path fill="#1976D2" fill-opacity=".478" fill-rule="evenodd" d="M122.25 34.739c3.162.198 8.337.198 11.5 0 3.162-.198.575-.361-5.75-.361s-8.913.163-5.75.361m-9.5.923c.688.278 1.813.278 2.5 0 .688-.277.125-.504-1.25-.504s-1.937.227-1.25.504m34.173 1.392c25.88 6.777 45.945 26.809 53.108 53.023 1.413 5.173 1.858 6.093 1.465 3.037-2.2-17.132-17.64-38.612-35.215-48.993-7.109-4.199-20.492-9.16-24.457-9.066-1.278.03 1.016.93 5.099 1.999m-38.11-.371c.721.289 1.584.253 1.916-.079s-.258-.568-1.312-.525c-1.165.048-1.402.285-.604.604M103 38c-1.828 1.181-.249 1.181 2.5 0 1.319-.567 1.489-.878.5-.914-.825-.031-2.175.381-3 .914m-9.802 4.441c-17.422 9.39-29.993 24.023-36.243 42.19-1.075 3.125-1.935 6.399-1.91 7.276.024.876 1.069-1.568 2.321-5.431 6.341-19.569 18.324-33.722 36.898-43.582 3.98-2.113 6.786-3.843 6.236-3.845s-3.836 1.525-7.302 3.392m24.052-2.718C113.733 40.16 112.723 42 116 42c1.587 0 2.003.671 2.014 3.25.017 4.181.98 7.75 2.091 7.75.479 0 .664-2.432.411-5.404-.353-4.143-.116-5.535 1.012-5.968 1.79-.687 1.97-2.692.222-2.468-.687.088-2.713.342-4.5.563m8.417-.056c-.367.366-.667 2.841-.667 5.5 0 3.629.374 4.833 1.5 4.833.919 0 1.5-.935 1.5-2.412 0-1.731.494-2.336 1.75-2.146 1.164.177 1.645.985 1.437 2.412-.206 1.413.221 2.146 1.25 2.146 1.228 0 1.563-1.179 1.563-5.5 0-3.025-.45-5.5-1-5.5s-1 .9-1 2q0 2-2 2t-2-2c0-1.992-1.066-2.601-2.333-1.333m12.475 4.77c-2.848 4.492-3.395 8.216-.829 5.65 1.639-1.639 4.465-1.306 5.562.655.536.958 1.278 1.438 1.649 1.067.968-.967-.429-8.296-1.986-10.426-1.208-1.652-1.571-1.4-4.396 3.054M105 44.066c0 .586.502 2.004 1.116 3.15 1.111 2.077 1.104 2.077-1.905-.065C101.172 44.986 99 44.389 99 45.717c0 .394.736 2.644 1.636 5 1.752 4.588 3.998 5.944 2.953 1.783-.7-2.789.51-3.291 2.411-1 1.56 1.88 4 1.954 4 .122 0-2.276-2.954-8.622-4.013-8.622-.543 0-.987.48-.987 1.066m42.964 3.517c-1.08 2.521-1.964 4.734-1.964 4.92 0 .699 10.155 3.675 10.696 3.134.94-.939 4.304 1.326 4.304 2.898 0 2.283 1.698 1.721 2.37-.785.896-3.346.754-8.555-.251-9.176-.484-.3-2.518.756-4.519 2.347-3.222 2.56-3.971 2.765-6.552 1.791-2.875-1.085-2.894-1.144-1.48-4.528 1.702-4.074 1.787-5.184.396-5.184-.569 0-1.919 2.062-3 4.583M140 46c0 .55.45 1 1 1s1-.45 1-1-.45-1-1-1-1 .45-1 1m-49.346 3.751c-.873 1.412 1.605 11.329 2.736 10.952.61-.203 1.117-.782 1.125-1.286.038-2.251 1.823-3.549 4.094-2.979 3.627.91 2.871-.912-1.806-4.351-4.369-3.213-5.372-3.594-6.149-2.336M160 53.059c0 .582.45.781 1 .441s1-.816 1-1.059-.45-.441-1-.441-1 .477-1 1.059M93.5 54c.34.55.816 1 1.059 1s.441-.45.441-1-.477-1-1.059-1-.781.45-.441 1m72.822 3.249c-1.748 2.296-2.908 4.612-2.578 5.146.71 1.149 7.256-6.123 7.256-8.062 0-2.278-1.377-1.419-4.678 2.916M84.4 55.601c1.022 2.663 5.018 7.285 6.35 7.344 1.867.082 1.558-.768-1.834-5.051-3.125-3.946-5.64-5.223-4.516-2.293m32.1-.431c-19.68 3.726-37.658 21.925-42.027 42.543-1.818 8.578-1.81 13.024.038 21.787 2.321 11.005 6.748 18.932 15.403 27.58 11.416 11.407 22.207 15.907 38.086 15.884 10.711-.016 15.626-1.141 24.876-5.695 17.934-8.829 30.163-28.794 30.109-49.155-.037-14.03-5.68-27.03-16.374-37.725-13.554-13.554-30.969-18.843-50.111-15.219m13.905 9.08.476 9.25-1.271-8c-1.359-8.558-1.622-8.332-3.49 3-.906 5.494-.944 5.221-.449-3.25.298-5.087.307-9.25.021-9.25-.287 0-1.76 5.4-3.274 11.999s-2.941 11.812-3.17 11.582.523-5.027 1.672-10.661 1.96-10.374 1.801-10.532c-.319-.32-20.723 68.594-20.722 69.99.001.483 2.275-2.605 5.055-6.863 2.779-4.257 5.284-7.511 5.565-7.229.282.281-.868 3.244-2.554 6.584S107 127.243 107 127.611s2.362.3 5.25-.149c2.888-.45 9.975-.818 15.75-.818s12.863.368 15.75.818c6.301.98 6.421.583 2.129-7.023-4.668-8.271-2.766-7.663 3.066.98 2.814 4.169 5.257 7.581 5.429 7.581s-4.229-15.478-9.781-34.396c-5.551-18.918-10.243-34.256-10.426-34.084s.412 3.965 1.323 8.429c2.634 12.917 1.214 11.502-1.841-1.835C132.123 60.451 130.661 55 130.401 55s-.258 4.163.004 9.25m-51.8-4.36c-1.604 1.674-2.343 3.154-1.756 3.517.557.344 1.32.129 1.695-.478.434-.703 1.868.047 3.956 2.071 4.088 3.962 6.011 2.186 2.078-1.918-1.682-1.756-2.409-3.36-2.002-4.419.982-2.559-.901-1.977-3.971 1.227m29.172-.95c-7.011 2.74-17.272 10.477-21.732 16.384-8.542 11.314-12.905 25.818-11.483 38.176 1.095 9.52 2.062 10.769 2.652 3.423.289-3.601 1.432-8.27 2.572-10.504 2.576-5.05 9.147-11.685 13.721-13.855 3.437-1.631 3.493-1.757 3.494-7.861.001-10.04 5.61-19.8 14.972-26.052 3.187-2.128 1.731-2.028-4.196.289m37.859.911c8.883 6.435 13.523 14.803 13.732 24.763.118 5.635.387 6.408 2.568 7.403 8.211 3.742 14.43 12.068 17.15 22.961l1.628 6.522.765-6.801c2.55-22.675-9.399-44.224-30.084-54.254-8.637-4.188-11.066-4.438-5.759-.594m-32.195-.341c-1.806 1.406-1.633 1.493 2.481 1.25 2.447-.144 4.606-.819 4.834-1.51.59-1.796-4.924-1.6-7.315.26m22.197-.01c.387 1.007 1.937 1.49 4.719 1.468 3.86-.029 4.01-.132 2.202-1.5-2.657-2.01-7.695-1.986-6.921.032m37.377 3.985c-3.26 3.363-3.669 6.132-.52 3.519 1.27-1.054 1.867-.986 3.379.382 2.032 1.839 4.643 1.315 5.577-1.119.552-1.439-2.86-6.267-4.429-6.267-.346 0-2.15 1.568-4.007 3.485M108 63c-1.05.679.523.974 5.25.985 3.844.008 6.75-.416 6.75-.985 0-1.281-10.017-1.281-12 0m28.5 0c.34.55 3.318 1 6.618 1 3.745 0 5.768-.376 5.382-1-.34-.55-3.318-1-6.618-1-3.745 0-5.768.376-5.382 1m39.688 1.063c.24.721 1.028 1.509 1.75 1.75.75.25 1.125-.125.875-.875-.241-.722-1.029-1.51-1.75-1.75-.75-.25-1.125.125-.875.875m-71.227 2.484c-1.142 1.376-.474 1.514 6.048 1.25 4.752-.192 7.476-.737 7.744-1.547.653-1.975-12.135-1.699-13.792.297m32.661-.091c.775 2.02 14.798 2.311 14.131.294-.266-.806-2.955-1.354-7.568-1.544-6.112-.25-7.069-.068-6.563 1.25M71.369 68.56c-1.535 2.343-1.542 2.695-.083 4.154s1.819 1.448 4.241-.14c2.688-1.761 4.212-1.579 3.014.359-.362.587-1.345 1.067-2.183 1.067-1.676 0-1.388 2.157.366 2.741 1.05.35 5.276-3.445 5.276-4.738 0-.342-.642-1.494-1.426-2.562-1.385-1.886-1.513-1.89-4.5-.134-1.691.993-3.074 1.379-3.074.857 0-.523.675-1.209 1.5-1.526 1.932-.741 1.949-2.638.023-2.638-.812 0-2.232 1.152-3.154 2.56M102.5 70c-.391.633 2.137 1 6.882 1 4.125 0 7.778-.45 8.118-1 .391-.633-2.137-1-6.882-1-4.125 0-7.778.45-8.118 1m36 0c.34.55 3.966 1 8.059 1 4.294 0 7.441-.423 7.441-1 0-.584-3.353-1-8.059-1-5.118 0-7.833.365-7.441 1m43 .491c-.55.184-2.238.607-3.75.941-3.322.732-3.608 2.307-.5 2.748 1.69.24 2.25.983 2.25 2.981 0 4.27.955 4.126 4.392-.66 3.885-5.41 2.939-7.788-2.392-6.01M90.561 75.2c-3.757 4.389-4.101 6.3-1.135 6.3 1.139 0 2.216-1.328 3.052-3.759.711-2.068 1.85-4.431 2.53-5.25.758-.914.832-1.491.192-1.491-.574 0-2.662 1.89-4.639 4.2m70.462-4.161c-.013.296.877 2.303 1.977 4.461s2 4.503 2 5.211c0 1.513 3.6 1.746 4.498.292.339-.549-1.424-3.137-3.917-5.75-2.494-2.614-4.545-4.511-4.558-4.214m-60.356 1.628c-1.848 1.848.061 2.388 7.503 2.123 5.429-.193 8.308-.709 8.583-1.54.308-.93-1.616-1.25-7.503-1.25-4.354 0-8.217.3-8.583.667m38.956.793c.778 2.027 16.8 2.315 16.13.29-.275-.83-3.151-1.347-8.568-1.54-7.004-.249-8.07-.073-7.562 1.25m41.377.599c0 .582.45.781 1 .441s1-.816 1-1.059-.45-.441-1-.441-1 .477-1 1.059m-114 .839c0 1.179 8.271 6.053 9.247 5.449 1.457-.9.7-1.869-3.203-4.097C68.848 73.854 67 73.441 67 74.898M99 77c0 .583 3.314 1 7.941 1 4.368 0 8.219-.45 8.559-1 .394-.637-2.49-1-7.941-1-5.039 0-8.559.411-8.559 1m41.5 0c.34.55 4.191 1 8.559 1 4.627 0 7.941-.417 7.941-1 0-.589-3.52-1-8.559-1-5.451 0-8.335.363-7.941 1m44.316 2.651c-4.751 3.265-4.198 5.799 1.074 4.911l3.61-.607-2.75 2.106c-4.261 3.263-3.635 5.087 1.5 4.367 5.77-.808 6.75-1.174 6.75-2.522 0-.762-1.107-.949-3.25-.55l-3.25.607 2.358-1.979c3.049-2.56 2.23-4.874-1.529-4.318l-2.829.418 2.25-1.664c1.238-.915 2.25-2.059 2.25-2.542 0-1.525-2.374-.844-6.184 1.773m-120.245.92C63.707 81.436 63 82.524 63 82.99s-.255 1.51-.566 2.32c-.4 1.045.744 1.974 3.924 3.189 5.018 1.916 8.5 1.082 4.527-1.085L68.5 86.113l3.25-1.154c3.739-1.328 4.415-3.415.888-2.741-1.563.299-2.751-.169-3.509-1.383-1.403-2.247-2.51-2.311-4.558-.264m33.925-.564c-.983 1.59 1.662 2.115 9.024 1.792 4.341-.19 6.971-.753 7.234-1.549.515-1.559-15.299-1.796-16.258-.243M142 80.5c0 1.208 1.556 1.5 8 1.5s8-.292 8-1.5-1.556-1.5-8-1.5-8 .292-8 1.5M65.5 83c-.34.55-.31 1.498.066 2.107.672 1.087 2.382-.579 2.419-2.357.022-1.096-1.764-.916-2.485.25m18.938 1.101c-.375.605.229 2.01 1.34 3.121C88.005 89.45 90 88.895 90 86.048c0-2.648-4.217-4.124-5.562-1.947M98 84c0 .577 3.147 1 7.441 1 4.093 0 7.719-.45 8.059-1 .392-.635-2.323-1-7.441-1-4.706 0-8.059.416-8.059 1m45 0c0 .578 3.167 1 7.5 1s7.5-.422 7.5-1-3.167-1-7.5-1-7.5.422-7.5 1m24.25-.338c-1.808.73-1.536 4.014.395 4.755 2.045.785 5.413-2.102 4.681-4.011-.536-1.396-2.68-1.71-5.076-.744m-41.434 3.088c-.274 2.388-.81 2.791-4.066 3.06-3.224.267-3.75.653-3.75 2.75 0 2.18.426 2.44 4 2.44h4v9.441c0 9.585.819 11.784 3.544 9.523 1.075-.892 1.456-3.534 1.456-10.086V95h3.5c3.067 0 3.5-.31 3.5-2.5s-.433-2.5-3.5-2.5c-3.222 0-3.5-.238-3.5-3 0-2.511-.396-3-2.434-3-1.911 0-2.501.59-2.75 2.75M98 87.544c0 1.275 1.246 1.493 7.17 1.25 4.625-.19 7.317-.738 7.583-1.544.307-.926-1.549-1.25-7.17-1.25-6.169 0-7.583.288-7.583 1.544m46-.044c0 1.19 1.444 1.5 7 1.5s7-.31 7-1.5-1.444-1.5-7-1.5-7 .31-7 1.5m-63.461 5.682c-1.969 6.627-1.91 9.173.123 5.318.869-1.65 2.493-3.999 3.606-5.221 1.672-1.833 1.804-2.487.756-3.75-2.056-2.478-2.859-1.824-4.485 3.653m90.904-3.764c-1.761 1.288-1.695 1.531 1.353 5.003 1.762 2.007 3.204 4.158 3.204 4.78 0 .623.276.857.613.52.741-.742-1.504-10.536-2.566-11.192-.414-.256-1.585.144-2.604.889M60.691 90.69c-.345.559.019 1.869.809 2.913 1.975 2.609 1.847 3.3-.5 2.687-1.345-.352-2-.031-2 .98 0 1.014 1.46 1.722 4.491 2.176 5.879.882 5.9.881 6.317-.371.197-.591-.327-1.075-1.166-1.075-2.705 0-2.839-1.974-.202-2.977 1.408-.535 2.56-1.638 2.56-2.45 0-1.273-.439-1.292-3.182-.139-2.895 1.218-3.331 1.153-4.841-.71-.975-1.204-1.917-1.63-2.286-1.034M98 91c0 .563 2.814 1 6.441 1 3.543 0 6.719-.45 7.059-1 .39-.631-1.99-1-6.441-1-4.039 0-7.059.428-7.059 1m47 0c0 .564 2.833 1 6.5 1s6.5-.436 6.5-1-2.833-1-6.5-1-6.5.436-6.5 1m47.5 1.655c-6.878 1.454-6.635 1.279-6.311 4.552.171 1.727.893 3.33 1.605 3.564.935.307 1.114-.288.648-2.145-.598-2.382-.345-2.618 3.457-3.226 2.49-.398 4.101-1.195 4.101-2.028 0-1.411-.11-1.434-3.5-.717M92.441 94.468c-1.751 1.324-.995 1.472 7.702 1.5 7.67.025 9.761-.275 10.219-1.468.483-1.259-.755-1.5-7.702-1.5-5.73 0-8.875.452-10.219 1.468M146 94.5c0 1.233 1.736 1.494 9.75 1.468 8.791-.028 9.559-.176 7.809-1.5C160.763 92.353 146 92.38 146 94.5m-91.805 2c.02 1.65.244 2.204.498 1.231s.237-2.323-.037-3-.481.119-.461 1.769M87.5 98c-.398.644 3.303 1 10.382 1 6.255 0 11.267-.431 11.618-1 .398-.644-3.303-1-10.382-1-6.255 0-11.267.431-11.618 1m59.5 0c0 .606 4.353 1 11.059 1 7.118 0 10.839-.356 10.441-1-.348-.563-5.177-1-11.059-1-6.294 0-10.441.397-10.441 1m55.2 9.5c-.122 5.5-.435 11.8-.696 14l-.473 4 1.017-3.981c.559-2.19.872-8.49.695-14l-.321-10.019zM53.36 109c0 5.225.169 7.362.375 4.75s.206-6.888 0-9.5-.375-.475-.375 4.75m31.307-8.333C82.793 102.541 85.023 103 96 103c10 0 12-.25 12-1.5 0-1.245-1.926-1.5-11.333-1.5-6.234 0-11.634.3-12 .667m63.333.801c0 1.291 1.898 1.532 12.083 1.532 9.222 0 11.985-.296 11.669-1.25-.293-.882-3.846-1.333-12.084-1.532-9.935-.24-11.668-.054-11.668 1.25M82 105c0 .613 4.814 1 12.441 1 7.215 0 12.701-.42 13.059-1 .4-.647-3.99-1-12.441-1-8.039 0-13.059.384-13.059 1m67 0c0 .616 5.02 1 13.059 1 8.451 0 12.841-.353 12.441-1-.358-.58-5.844-1-13.059-1-7.627 0-12.441.387-12.441 1m-87.398 4.076c-1.718 1.695-1.742 1.933-.25 2.506 1.005.385 1.648 1.76 1.648 3.525 0 1.591.45 2.893 1 2.893s1-1.312 1-2.917.563-3.126 1.25-3.383c.886-.33.668-1.052-.75-2.481-1.955-1.97-2.043-1.973-3.898-.143m19.065-1.409C78.776 109.558 81.114 110 93 110c10.889 0 13-.244 13-1.5 0-1.252-2.037-1.5-12.333-1.5-6.784 0-12.634.3-13 .667m69.571.552c.31.932 3.906 1.358 13.187 1.562 10.022.22 12.671.005 12.337-1-.31-.932-3.906-1.358-13.187-1.562-10.022-.22-12.671-.005-12.337 1m40.364.914c-1.717 1.642-1.741 1.877-.25 2.449 1.005.385 1.648 1.76 1.648 3.525 0 1.591.45 2.893 1 2.893s1-1.35 1-3 .45-3 1-3c1.641 0 1.133-2.436-.75-3.601-1.356-.839-2.177-.674-3.648.734M79 112c0 .615 5 1 13 1s13-.385 13-1-5-1-13-1-13 .385-13 1m72 0c0 .615 5 1 13 1s13-.385 13-1-5-1-13-1-13 .385-13 1m-72.333 2.667C76.776 116.558 79.114 117 91 117c10.889 0 13-.244 13-1.5 0-1.252-2.037-1.5-12.333-1.5-6.784 0-12.634.3-13 .667m73.581.583c.297.892 4.044 1.33 13.084 1.53 10.826.239 12.668.057 12.668-1.25 0-1.295-2.007-1.53-13.083-1.53-10.022 0-12.987.293-12.669 1.25M78 119c0 .613 4.833 1 12.5 1s12.5-.387 12.5-1-4.833-1-12.5-1-12.5.387-12.5 1m75 0c0 .613 4.833 1 12.5 1s12.5-.387 12.5-1-4.833-1-12.5-1-12.5.387-12.5 1m-98.838 2c-.008 2.424 2.565 11.509 2.691 9.5.034-.55-.555-3.475-1.31-6.5s-1.377-4.375-1.381-3M78 122.5c0 1.25 2 1.5 12 1.5s12-.25 12-1.5-2-1.5-12-1.5-12 .25-12 1.5m76.248-.25c.293.882 3.846 1.333 12.084 1.532 9.935.24 11.668.054 11.668-1.25 0-1.291-1.898-1.532-12.083-1.532-9.222 0-11.985.296-11.669 1.25m-89.998 2.769c-2.458 1.001-3.19 3.556-.75 2.619 1.794-.688 1.968.494.317 2.145-1.476 1.476-.417 2.71 1.366 1.594.725-.453 1.992-.836 2.817-.851.993-.017 1.5-1.036 1.5-3.012 0-3.272-1.542-4.005-5.25-2.495m122.75.121c0 .627.787 1.746 1.75 2.487 1.605 1.236 1.553 1.327-.64 1.11-3.626-.36-3.63 1.886-.006 3.149 4.352 1.518 5.378 1.4 3.849-.442-.71-.856-.878-1.478-.372-1.382 2.151.409 2.577-.169 1.291-1.754-.781-.964-.864-1.387-.191-.984.649.39 1.436.295 1.749-.21.312-.506-.849-1.413-2.58-2.017-3.978-1.386-4.85-1.378-4.85.043M78 126c0 .609 4.5 1 11.5 1s11.5-.391 11.5-1-4.5-1-11.5-1-11.5.391-11.5 1m77 0c0 .609 4.5 1 11.5 1s11.5-.391 11.5-1-4.5-1-11.5-1-11.5.391-11.5 1m-87.921 1.583c.048 1.165.285 1.402.604.605.289-.722.253-1.585-.079-1.917s-.568.258-.525 1.312m132.492.988c-.367 1.466-.475 2.858-.24 3.094.236.235.73-.771 1.098-2.236.367-1.466.475-2.858.24-3.094-.236-.235-.73.771-1.098 2.236m-120.323.679c.287.865 3.549 1.338 10.583 1.535 8.599.241 10.169.048 10.169-1.25 0-1.283-1.735-1.535-10.583-1.535-8.021 0-10.483.303-10.169 1.25m77.002 0c.296.887 3.272 1.25 10.25 1.25s9.954-.363 10.25-1.25c.316-.948-2.161-1.25-10.25-1.25s-10.566.302-10.25 1.25M80.5 133c.34.55 4.641 1 9.559 1 5.294 0 8.941-.408 8.941-1 0-.597-3.853-1-9.559-1-6.118 0-9.337.36-8.941 1m76.5 0c0 .592 3.647 1 8.941 1 4.918 0 9.219-.45 9.559-1 .396-.64-2.823-1-8.941-1-5.706 0-9.559.403-9.559 1m-93 1c0 .55.675 1 1.5 1 .961 0 1.5.965 1.5 2.687v2.687l3-2.874c1.65-1.581 3-3.24 3-3.687S70.975 133 68.5 133s-4.5.45-4.5 1m132.563 3.474c-5.052 13.23-19.772 29.348-33.035 36.176-4.071 2.096-7.238 3.974-7.038 4.173.2.2 3.659-1.35 7.686-3.445 11.05-5.746 24.97-20.04 30.788-31.617 2.416-4.806 4.152-8.978 3.858-9.272-.293-.293-1.31 1.5-2.259 3.985M183 135.326c0 1.368 4.066 5.674 5.358 5.674.401 0 .657-.562.567-1.25-.344-2.653.134-3.75 1.634-3.75.857 0 1.281-.45.941-1-.955-1.546-8.5-1.257-8.5.326m-124.929.174c0 .55.643 2.125 1.429 3.5s1.429 2.05 1.429 1.5-.643-2.125-1.429-3.5-1.429-2.05-1.429-1.5m24.567 1c.427 1.112 2.422 1.55 7.719 1.693l7.143.192-6.279.356c-7.49.425-7.426 2.181.088 2.434 5.128.172 5.139.179.869.561-3.626.324-4.129.618-3.127 1.825 1.585 1.91 35.861 2.127 37.749.239.933-.933 1.467-.933 2.4 0 1.714 1.714 35.11 1.67 38.116-.05 2.013-1.152 1.793-1.296-2.816-1.843l-5-.593 5.691-.157c8.312-.229 8.407-2.118.118-2.337l-6.809-.18 7.421-.57c4.613-.354 7.578-1.043 7.834-1.82.325-.988-9.246-1.25-45.64-1.25-40.525 0-45.983.18-45.477 1.5m-12.568 2.926c-2.638 2.808-2.069 4.644 1.181 3.807 2.015-.52 2.104-.403.856 1.118-1.942 2.368-.584 3.268 2.931 1.941 3.538-1.336 3.773-.77.712 1.712-1.237 1.003-1.923 2.152-1.524 2.552.399.401 1.485.102 2.414-.663 1.545-1.276 1.582-1.194.431.964-1.862 3.494.017 4.361 3.294 1.522 2.811-2.434 3.056-4.803.257-2.48-1.189.986-1.401.636-1.274-2.108.137-2.958-.123-3.287-2.56-3.255-2.529.034-2.604-.082-1.114-1.729 1.458-1.611 1.459-1.819.01-2.375-.874-.335-2.172-.278-2.886.126-1.042.591-1.052.47-.048-.611.688-.741 1.25-1.707 1.25-2.147 0-1.49-1.641-.811-3.93 1.626m40.455-1.466c-.454.734-.204 1.629.597 2.136 1.082.686 1.096.877.069.889-.72.008-1.043.445-.718.971.631 1.021 3.527.305 3.527-.872 0-.386-.606-1.531-1.347-2.544-1.023-1.398-1.536-1.538-2.128-.58M106 140.5c0 1.556.567 2.5 1.5 2.5 1.816 0 1.991-1.635.25-2.338-1-.403-1-.52 0-.583 1.788-.113 1.552-2.079-.25-2.079-.933 0-1.5.944-1.5 2.5m8.71-.5c.288 1.1.643 2 .79 2s.502-.9.79-2c.327-1.25.03-2-.79-2s-1.117.75-.79 2m3.29-.167c0 2.36.841 3.165 2.598 2.491 2.212-.849 1.731-4.324-.598-4.324-1.273 0-2 .667-2 1.833m19.015-1.083c.009.412.452 1.425.985 2.25.784 1.213.972 1.069.985-.75.008-1.238-.435-2.25-.985-2.25s-.993.338-.985.75m2.985.309c0 .582.563.721 1.25.308.937-.563.925-.35-.049.852-1.238 1.529-.183 3.429 1.16 2.087 1.236-1.236.622-4.306-.861-4.306-.825 0-1.5.477-1.5 1.059m4-.059c0 .55.423 1 .941 1s1.219-.45 1.559-1-.084-1-.941-1-1.559.45-1.559 1m4-.067c0 .513-.907 1.22-2.015 1.572-1.108.351-1.732 1.096-1.387 1.654.422.683.958.685 1.637.006.555-.555 1.629-.771 2.387-.48.902.346 1.378-.199 1.378-1.578 0-1.159-.45-2.107-1-2.107s-1 .42-1 .933M119 140c0 .55.45 1 1 1s1-.45 1-1-.45-1-1-1-1 .45-1 1m62.239-.278c-.694.249-1.701 1.273-2.237 2.275-.795 1.485-.385 2.197 2.215 3.844 3.176 2.011 3.198 2.011 4.577.043.761-1.087 1.145-2.601.852-3.365-.684-1.781-3.777-3.381-5.407-2.797m.291 2.229c-.863 1.397.237 3.049 2.029 3.049 1.836 0 1.851-1.415.03-2.926-.965-.801-1.616-.839-2.059-.123m-118.078 4.425c3.102 5.935 3.108 6.028.298 4.232-2.151-1.374-7.593-2.031-14.427-1.742-2.11.089-3.33.722-3.634 1.884-.435 1.667-.463 1.667-.573 0-.199-2.998-9.622-2.003-10.446 1.103-.357 1.344-.459 1.301-.554-.234-.099-1.605-.665-1.79-3.866-1.261-2.062.341-4.28.625-4.927.631s-1.382.798-1.634 1.761c-.411 1.574-.469 1.563-.573-.114-.103-1.653-.652-1.779-4.866-1.116-5.913.929-5.666.928-12 .034L1 150.812v38.496l13.982-.667c7.69-.368 16.69-.951 20-1.297 5.967-.624 6.018-.607 6.018 1.955 0 1.42.428 2.847.951 3.17.576.357.955-3.347.962-9.405.007-5.496-.421-10.26-.951-10.587-1.745-1.079-1.002-5.091 1.352-7.303 1.273-1.196 2.684-2.174 3.135-2.174.452 0-.365.933-1.814 2.073-2.63 2.068-3.565 6.234-1.663 7.41 1.318.814 5.807-2.235 6.343-4.31.237-.92.412.121.387 2.314s-.229 3.431-.456 2.75c-.627-1.879-3.046-1.478-4.211.697-.569 1.064-1.035 3.934-1.035 6.378 0 3.453.502 4.812 2.25 6.095l2.25 1.651-2.25-1.064c-2.157-1.02-2.25-.879-2.25 3.414 0 3.489.497 4.843 2.25 6.128l2.25 1.649-2.25-.66c-2.095-.614-2.25-.353-2.25 3.786 0 3.454.502 4.813 2.25 6.096l2.25 1.651-2.25-1.064c-2.018-.955-2.25-.806-2.25 1.445 0 2.486 2.389 4.349 7.656 5.972 2.078.64 2.158.378 2.24-7.302.073-6.773-.175-8.034-1.655-8.421-1.59-.416-1.593-.466-.043-.572 1.48-.101 1.7-1.461 1.719-10.616.021-10.267-.029-10.5-2.257-10.5-1.253 0-3.151-.661-4.219-1.47-1.762-1.334-1.65-1.363 1.219-.315 4.072 1.489 11.299-.414 11.419-3.005.053-1.156.25-1.281.608-.387 1.024 2.564 5.313-2.805 5.313-6.652v-3.481l-2.2 1.905-2.2 1.905 2.2-2.885c1.21-1.587 2.2-4.184 2.2-5.773 0-2.851-.032-2.867-2.5-1.25-1.375.901-2.532 2.599-2.57 3.773-.068 2.072-.094 2.076-.862.135-.608-1.536-.203-2.39 1.744-3.683 1.394-.926 2.943-2.414 3.442-3.307.754-1.346 1.935-.502 6.949 4.971 8.35 9.111 21.021 17.876 28.797 19.919 1.375.361-.358-.699-3.851-2.356-12.543-5.949-23.784-15.598-30.813-26.446-4.905-7.57-5.508-8.244-2.884-3.222m59.965 1.166c-8.455 5.102-20.496 5.261-30.039.396l-3.865-1.971 2.493 2.461c3.974 3.922 13.95 9.477 20.849 11.608 16.751 5.176 40.562-.205 51.147-11.559l2.498-2.679-3.632 2.13c-6.011 3.525-14.507 4.536-21.996 2.618-3.495-.896-6.674-1.947-7.066-2.337s5.32-.562 12.693-.382c8.431.205 14.072-.076 15.203-.757 1.333-.803-2.409-1.046-14.481-.939-8.954.079-16.567-.143-16.917-.494-1.085-1.084-2.651-.651-6.887 1.905M176 145.64c0 .352.787 1.265 1.75 2.03 1.612 1.281 1.56 1.369-.657 1.111-1.324-.155-2.578.219-2.787.83-.443 1.294 4.562 4.855 5.502 3.915.349-.349-.028-1.053-.837-1.565-1.116-.706-.807-.934 1.279-.946 3.538-.019 3.479-1.1-.21-3.827-3.067-2.268-4.04-2.641-4.04-1.548M94 147c.825.533 7.125.969 14 .969s13.175-.436 14-.969c1.004-.649-3.628-.969-14-.969s-15.004.32-14 .969m103.755 1.933c-2.61.362-5.31 1.222-6 1.911-1.664 1.662-2.498 29.733-.854 28.717.605-.373 1.099-.202 1.099.38s-.45 1.059-1 1.059c-1.487 0-1.252 9.732.25 10.338 1 .403 1 .52 0 .583-.8.051-1.25 1.674-1.25 4.509 0 3.8.32 4.493 2.25 4.864l2.25.434-2.25.136c-2.01.121-2.25.661-2.25 5.053 0 2.997.488 5.113 1.25 5.421 1 .403 1 .52 0 .583-.687.043-1.25 1.26-1.25 2.704 0 2.407.26 2.573 3.125 2 1.719-.344 3.969-.625 5-.625 1.676 0 1.875-.843 1.875-7.927 0-6.708-.269-7.997-1.75-8.384-1.615-.422-1.61-.466.062-.573 1.654-.106 1.785-1.082 1.5-11.118-.194-6.849.065-11.025.688-11.063.55-.034-.09-.497-1.422-1.03-1.756-.702-2.645-.615-3.234.314-.636 1.001-.817.967-.829-.155-.008-.789-1.027-2.586-2.265-3.992-2.101-2.388-2.108-2.438-.104-.754 1.658 1.394 2.266 1.506 2.671.493.359-.897.55-.79.604.341.074 1.556 4.697 3.848 7.76 3.848.761 0 3.019-.683 5.017-1.518 3.484-1.456 3.555-1.582 1.718-3.056-1.833-1.47-1.821-1.49.292-.468 1.844.892 2.394.72 3.336-1.04.934-1.746.745-2.514-1.105-4.483-1.228-1.307-3.772-2.885-5.653-3.506-1.881-.62-3.227-1.321-2.992-1.557.236-.235 1.592.014 3.014.555 2.529.962 2.594.88 2.959-3.722l.373-4.705.197 5c.153 3.867.76 5.534 2.68 7.355 3.117 2.957 3.12 4.417.013 7.524-2.102 2.102-5.694 3.768-11.28 5.231-.787.206-1.25 2.158-1.25 5.275 0 3.023.486 5.145 1.25 5.453 1 .403 1 .52 0 .583-.803.051-1.25 1.688-1.25 4.579 0 3.981.259 4.507 2.25 4.563l2.25.064-2.25.904c-1.861.748-2.25 1.674-2.25 5.353 0 2.624.513 4.656 1.25 4.954 1 .403 1 .52 0 .583-1.376.087-1.768 5.079-.399 5.079 2.376 0 7.857-2.463 9.399-4.223.963-1.099 1.757-1.611 1.765-1.138s.452.186.985-.639.976-4.832.985-8.905c.014-6.959-.09-7.314-1.735-5.902-3.359 2.885-4.723 3.015-1.5.143 2.235-1.992 3.25-3.79 3.25-5.759v-2.862l6.018.629c3.31.346 12.31.929 20 1.297l13.982.667v-38.431l-4.75.721c-2.613.396-5.2.688-5.75.648-5.901-.421-14.686-1.301-18.089-1.812-3.581-.537-4.299-.351-4.702 1.216-.377 1.462-.501 1.507-.593.217-.218-3.065-9.654-4.075-10.427-1.117-.435 1.667-.463 1.667-.573 0-.076-1.152-.942-1.75-2.534-1.75-1.33 0-3.018-.163-3.75-.362-.733-.2-3.467-.067-6.077.295m-93.505.795c2.063.216 5.438.216 7.5 0 2.063-.215.375-.392-3.75-.392s-5.812.177-3.75.392m40.478-.006c1.775.221 4.925.224 7 .008 2.074-.217.622-.397-3.228-.402-3.85-.004-5.548.173-3.772.394m54.351 1.861c.048 1.165.285 1.402.604.605.289-.722.253-1.585-.079-1.917s-.568.258-.525 1.312M81.04 153.452c-2.486 2.995.804 7.589 4.437 6.195 1.423-.546 1.519-.947.513-2.159-1.372-1.654-3.464-2.064-2.49-.488.34.55.108 1-.514 1-.623 0-.982-.782-.798-1.739.431-2.236 3.812-2.976 3.812-.834 0 .865.45 1.573 1 1.573 1.38 0 1.256-2.344-.2-3.8-1.628-1.628-4.297-1.511-5.76.252m44.567-.626c-.996 1.612.652 5.174 2.393 5.174s3.389-3.562 2.393-5.174c-.281-.454-1.358-.826-2.393-.826s-2.112.372-2.393.826m44.393.559c0 .762.64 2.9 1.422 4.75l1.423 3.365 1.045-2.731c.709-1.85 1.54-2.541 2.578-2.143 3.118 1.197 1.409-1.314-2.002-2.941-4.275-2.039-4.466-2.051-4.466-.3m-49.5.67c-1.1.442-3.8.883-6 .98l-4 .175 4 1.318c6.14 2.024 9.5 1.858 9.5-.469 0-2.462-.975-3.02-3.5-2.004m12.198-.419c-.384.383-.698 1.581-.698 2.662 0 1.658.507 1.881 3.256 1.435 1.791-.29 4.828-1.212 6.75-2.049l3.494-1.521-4.668-.081c-2.568-.045-5.291-.321-6.052-.613-.762-.292-1.698-.217-2.082.167m-87.619 1.947c.048 1.165.285 1.402.604.605.289-.722.253-1.585-.079-1.917s-.568.258-.525 1.312M34.272 159.5c0 2.75.192 4.012.427 2.804.342-1.762 1.252-2.27 4.613-2.575l4.188-.38-4.18-.174c-3.472-.145-4.254-.557-4.614-2.425-.239-1.238-.434 0-.434 2.75m158.388-2.833c1.188 1.008 2.331 2.733 2.541 3.833.368 1.939.398 1.935.96-.111.448-1.632-.129-2.502-2.541-3.834-3.046-1.681-3.069-1.678-.96.112m6.419-.084c.048 1.165.285 1.402.604.605.289-.722.253-1.585-.079-1.917s-.568.258-.525 1.312m22.187 2.917c-.019 2.75.167 4.236.413 3.302.321-1.217 1.774-1.803 5.134-2.07l4.687-.372-4.684-.18c-4.286-.165-4.718-.413-5.1-2.93-.229-1.512-.432-.5-.45 2.25m-197.98 1c.008 2.75.202 3.756.432 2.236s.223-3.77-.014-5-.425.014-.418 2.764M166.5 158c.652 2.053-.885 2.805-2.01.984-.346-.559-1.055-.753-1.577-.43-1.017.628 2.649 6.446 4.061 6.446.462 0 .603-.9.316-2-.584-2.231.677-2.633 2.51-.8 1.836 1.836 1.551-.735-.415-3.735-1.942-2.964-3.772-3.259-2.885-.465m-154.421.583c.048 1.165.285 1.402.604.605.289-.722.253-1.585-.079-1.917s-.568.258-.525 1.312m75.469.984c-1.922 2.934-.728 5.433 2.596 5.433 2.622 0 4.587-4.414 2.881-6.47-1.837-2.214-3.561-1.887-5.477 1.037M45 159c0 .55.45 1 1 1s1-.45 1-1-.45-1-1-1-1 .45-1 1m11.458.068c-.363.588-1.29.827-2.059.532-.77-.296-1.399-.15-1.399.323s-1.178 1.156-2.618 1.517c-1.44.362-2.416.859-2.17 1.106.724.724 9.788-2.647 9.788-3.64 0-1.221-.735-1.144-1.542.162M90.5 160c.34.55.816 1 1.059 1s.441-.45.441-1-.477-1-1.059-1-.781.45-.441 1m108.597.081c1.722 1.09 3.903 1.185 3.902.169 0-.412-1.194-.819-2.653-.904-1.898-.11-2.253.099-1.249.735m15.665-.374c1.244.239 3.044.23 4-.02s-.062-.446-2.262-.435-2.982.216-1.738.455m-188.012.999c1.238.238 3.262.238 4.5 0 1.237-.239.225-.434-2.25-.434s-3.488.195-2.25.434m133.606 1.135c.444 2.061.213 2.268-1.926 1.731-2.901-.728-3.021.012-.598 3.686 1.77 2.684 3.532 2.855 2.531.245-.613-1.597 1.255-2.931 2.127-1.519.345.559 1.067 1.016 1.604 1.016 1.11 0 .003-2.346-2.595-5.5-1.624-1.972-1.64-1.967-1.143.341M232 161c0 .55.45 1 1 1s1-.45 1-1-.45-1-1-1-1 .45-1 1m-221 .877c0 .802 8.95.341 9.917-.51.229-.202-1.909-.367-4.75-.367s-5.167.395-5.167.877M88 162c0 .55.702 1 1.559 1s1.281-.45.941-1-1.041-1-1.559-1-.941.45-.941 1m148-.442c3.787.824 9 .964 9 .241 0-.439-2.363-.747-5.25-.683s-4.575.263-3.75.442m-141.25 2.768c-3.202 2.619-3.576 4.071-.824 3.198 1.268-.403 2.267-.002 2.925 1.174 1.285 2.296 1.881 1.625 2.306-2.599.423-4.195-.829-4.699-4.407-1.773m-34.75.529c0 1.196-1.156 2.256-3.25 2.981-3.004 1.041-3.03 1.085-.345.587 1.82-.338 3.215-.05 3.735.769.525.829.835-.067.845-2.442.008-2.062-.21-3.75-.485-3.75s-.5.835-.5 1.855m133.203.305c.988.913 1.804 2.488 1.812 3.5.012 1.361.231 1.5.845.532.536-.845 1.857-1.093 3.735-.701 2.868.6 2.864.589-.345-.893-1.89-.873-3.256-2.254-3.265-3.3-.013-1.466-.183-1.533-.924-.362-.614.97-1.353 1.132-2.282.5-.755-.515-.565-.189.424.724m-92.574 1.943c-.84 4.201.137 5.419 2.575 3.212 1.953-1.766 1.997-1.756 1.651.39-.195 1.212.095 2.272.645 2.355 1.396.211 5.03-4.863 4.129-5.765-.406-.405-1.156-.075-1.668.734-.735 1.162-.934.998-.946-.779-.017-2.498-1-2.865-2.815-1.05-.933.933-1.2.822-1.2-.5 0-2.889-1.715-1.874-2.371 1.403m50.452-1.701c-2.125 2.561-.94 6.057 2.175 6.415 1.823.21 2.964-.228 3.373-1.293.886-2.307-.589-3.347-1.765-1.245-1.2 2.144-2.864 1.341-2.864-1.382 0-1.194.572-1.868 1.434-1.691.789.162 1.488-.156 1.553-.706.194-1.635-2.572-1.704-3.906-.098M34.3 171c0 3.025.187 4.262.416 2.75s.229-3.988 0-5.5-.416-.275-.416 2.75m187 0c0 3.025.187 4.262.416 2.75s.229-3.988 0-5.5-.416-.275-.416 2.75m-198.164-2.313c-.104 1.68-.889 2.28-3.386 2.59l-3.25.403 3.18.16c2.439.123 3.282.685 3.614 2.41.432 2.243.434 2.243.57.063.104-1.68.889-2.28 3.386-2.59l3.25-.403-3.18-.16c-2.439-.123-3.282-.685-3.614-2.41-.432-2.243-.434-2.243-.57-.063m87.088 2.327c-.556 2.192-.722 3.992-.368 4 .354.007 1.657.285 2.894.616 1.35.362 2.25.157 2.25-.513 0-.615-.726-1.117-1.613-1.117-1.23 0-1.508-.725-1.167-3.044.669-4.559-.835-4.516-1.996.058m32.569-3.43c-.889 1.536-1.925 8.416-1.267 8.416.339 0 1.307-.691 2.151-1.535 1.182-1.182 1.855-1.268 2.929-.377 1.077.894 1.393.845 1.389-.216-.007-1.913-4.553-7.409-5.202-6.288M119 170.282c.858.696 1.365 2.395 1.184 3.968-.174 1.512.163 2.75.75 2.75.586 0 1.066-1.35 1.066-3q0-3 1.5-3c.928 0 1.5.941 1.5 2.465 0 3.32 3.282 5.11 5.431 2.962 1.734-1.735 1.85-2.945.569-5.927-.891-2.074-1.207-1.569-1.392 2.227-.155 3.183-2.049 3.281-2.415.125-.318-2.752-2.378-3.841-7.193-3.807-2.12.016-2.272.204-1 1.237m14 2.159c0 1.893.45 3.719 1 4.059s1-.084 1-.941c0-1.999.886-1.972 3.171.096 1.006.91 1.829 1.162 1.829.559s-.39-1.337-.866-1.631-.649-1.671-.383-3.059c.432-2.262.159-2.524-2.634-2.524-2.885 0-3.117.256-3.117 3.441m73-2.559c0 .55.45 1.278 1 1.618s1 .168 1-.382-.45-1.278-1-1.618-1-.168-1 .382m23.5 1.158-3 .57 3 .457c1.65.252 4.575.205 6.5-.103l3.5-.56-3.5-.467c-1.925-.257-4.85-.21-6.5.103M9 172.069l-3.5.668 3.25.131c2.627.107 3.272.563 3.366 2.382.105 2.043.162 2.066.616.25.275-1.1.935-2.275 1.468-2.611 1.639-1.035-1.489-1.528-5.2-.82m233.378.053c-1.237.486-.257.761 2.872.808 2.613.038 4.75-.104 4.75-.317 0-.817-5.835-1.193-7.622-.491M63.25 173.527c-1.237.873-2.257 2.348-2.265 3.28-.011 1.177-.251 1.323-.786.481-.446-.702-1.74-.959-3.069-.612-1.72.45-1.963.815-.965 1.447.937.594.975.851.127.862-.867.011-1.209 2.969-1.209 10.451 0 9.968.099 10.455 2.209 10.864l2.208.428-2.234.136c-2.108.128-2.23.558-2.158 7.598.085 8.222.045 8.174 7.491 9.02 2.145.243 6.263.747 9.151 1.12 5.147.663 5.25.626 5.25-1.893 0-1.87-.613-2.688-2.25-3.003-2.24-.432-2.241-.434-.065-.57 2.09-.13 2.185-.564 2.185-10.075 0-9.423-.114-9.961-2.185-10.364l-2.185-.425 2.25-.136c2.01-.121 2.25-.661 2.25-5.056v-4.921l-6.474-.693c-6.005-.643-6.399-.834-5.439-2.629.57-1.065.896-3.052.725-4.416-.298-2.366-.415-2.407-2.562-.894m157.886 5.223c-.105 1.744-.755 2.259-2.886 2.292-1.661.025-4.267 1.382-6.584 3.428-2.664 2.353-3.212 3.224-1.796 2.854 1.12-.293 2.743-1.611 3.606-2.928 2.142-3.269 7.199-3.364 7.818-.146.432 2.243.434 2.243.57.063.104-1.68.889-2.28 3.386-2.59l3.25-.403-3.18-.16c-2.439-.123-3.282-.685-3.614-2.41l-.434-2.25zm-198 .945c-.116 1.876-.828 2.25-4.886 2.57l-4.75.375 4.75.18c4.167.158 4.764.456 4.866 2.43.105 2.043.162 2.066.616.25.275-1.1 1.01-2.331 1.634-2.735.832-.538.819-.738-.046-.75-.65-.008-1.376-1.027-1.614-2.265l-.434-2.25zm10.98-.511c-.071 1.028-1.187 1.845-2.866 2.1l-2.75.416 2.68.15c1.923.108 2.803.786 3.114 2.4.432 2.243.434 2.243.57.063.104-1.68.889-2.28 3.386-2.59l3.25-.403-3.177-.16c-2.095-.106-3.332-.756-3.634-1.91-.409-1.566-.469-1.573-.573-.066m113.384.933c-4.633 1.452-5.096 1.748-2.031 1.296 2.182-.322 5.332-1.185 7-1.918 4.242-1.864 2.112-1.597-4.969.622m-88.75-.455c.688.278 1.813.278 2.5 0 .688-.277.125-.504-1.25-.504s-1.937.227-1.25.504m136 0c.688.278 1.813.278 2.5 0 .688-.277.125-.504-1.25-.504s-1.937.227-1.25.504m-86.937 1.021c.721.289 1.584.253 1.916-.079s-.258-.568-1.312-.525c-1.165.048-1.402.285-.604.604m4 1c.721.289 1.584.253 1.916-.079s-.258-.568-1.312-.525c-1.165.048-1.402.285-.604.604m70.437.04c-3.166.393-3.25.529-3.25 5.271 0 4.252.284 4.922 2.25 5.3l2.25.434-2.25.136c-2.173.131-2.25.475-2.25 10.066 0 9.504.097 9.95 2.25 10.364l2.25.434-2.25.136c-1.697.103-2.25.75-2.25 2.636 0 2.064.48 2.498 2.75 2.486 5.088-.025 7.25-1.078 7.25-3.529 0-1.359-.72-2.499-1.75-2.768-1.667-.435-1.667-.463 0-.573 1.541-.102 1.75-1.3 1.75-10.043 0-8.613-.232-9.987-1.75-10.384-1.667-.435-1.667-.463 0-.573 1.418-.094 1.75-1.065 1.75-5.116 0-5.403.381-5.162-6.75-4.277m48.487.461c-.681.432 1.688.74 5.263.685 6.607-.103 6.521-.466-.263-1.112-2.07-.197-4.32-.005-5 .427M11 183c0 .55.45 1 1 1s1-.45 1-1-.45-1-1-1-1 .45-1 1m67 3.81c0 3.083.483 5.218 1.25 5.528 1 .403 1 .52 0 .583-.82.052-1.25 1.774-1.25 5.009 0 4.318.279 4.985 2.25 5.364l2.25.434-2.25.136c-1.973.119-2.25.679-2.25 4.553 0 2.597.515 4.624 1.25 4.921 1 .403 1 .52 0 .583-1.816.115-1.535 4.756.332 5.472.87.334 3.12.607 5 .607 2.953 0 3.418-.331 3.418-2.43 0-1.726-.653-2.557-2.25-2.864l-2.25-.434 2.25-.136c2.011-.122 2.25-.66 2.25-5.066 0-4.318-.279-4.985-2.25-5.364l-2.25-.434 2.25-.136c1.974-.119 2.25-.679 2.25-4.566 0-3.8-.32-4.493-2.25-4.864l-2.25-.434 2.25-.136c2.015-.122 2.25-.658 2.25-5.136v-5h-3.418c-1.88 0-4.13-.273-5-.607-1.313-.504-1.582.247-1.582 4.417m43.72-3.507c4.17.508 9.872.506 13.5-.006 5.528-.78 4.663-.885-7.22-.879-12.587.006-13.012.066-6.28.885m54.169-.864c-.617.611-18.804 1.773-25.139 1.607l-5.75-.151v4.983c0 4.372.276 5.036 2.25 5.416l2.25.434-2.201.136c-2.109.13-2.201.546-2.212 10.071-.011 9.462.094 9.956 2.201 10.364l2.212.429-2.18.136c-1.408.088-2.334.933-2.614 2.386-.431 2.234-.435 2.234-.57.07-.088-1.408-.933-2.334-2.386-2.614l-2.25-.434 2.25-.136c2.173-.131 2.25-.475 2.25-10.066 0-9.504-.097-9.95-2.25-10.364l-2.25-.434 2.25-.136c2.023-.122 2.25-.653 2.25-5.261v-5.125l-3.125.625c-1.719.344-3.969.625-5 .625-1.551 0-1.875.765-1.875 4.43 0 3.8.32 4.493 2.25 4.864l2.25.434-2.25.136c-2.173.131-2.25.475-2.25 10.066 0 9.504.097 9.95 2.25 10.364l2.25.434-2.25.136c-1.734.105-2.25.745-2.25 2.789v2.654l20.469-.673c11.258-.37 21.158-.937 22-1.261 1.837-.704 2.048-4.998.281-5.711-1-.403-1-.52 0-.583.8-.051 1.25-1.674 1.25-4.509 0-3.8-.32-4.493-2.25-4.864l-2.25-.434 2.25-.136c2.01-.121 2.25-.661 2.25-5.053 0-2.997-.488-5.113-1.25-5.421-1-.403-1-.52 0-.583.801-.051 1.25-1.676 1.25-4.52 0-3.917-.963-6.254-2.111-5.12M243 183c0 .55.45 1 1 1s1-.45 1-1-.45-1-1-1-1 .45-1 1m-154 4.805c0 4.448.271 5.108 2.25 5.489l2.25.434-2.25.136c-2.173.131-2.25.475-2.25 10.066 0 9.504.097 9.95 2.25 10.364l2.25.434-2.25.136c-1.659.1-2.25.756-2.25 2.497 0 2.101.577 2.43 5.25 2.991 2.888.347 12.787.635 22 .639L133 221v-2.43c0-1.726-.653-2.557-2.25-2.864l-2.25-.434 2.201-.136c2.109-.13 2.201-.546 2.212-10.071.011-9.462-.094-9.956-2.201-10.364l-2.212-.429 2.25-.136c1.98-.12 2.25-.676 2.25-4.636V185h-10v4.43c0 3.8.32 4.493 2.25 4.864l2.25.434-2.25.136c-2.173.131-2.25.475-2.25 10.066 0 9.504.097 9.95 2.25 10.364 2.234.431 2.234.435.07.57-1.408.088-2.334.933-2.614 2.386-.431 2.238-.434 2.239-.57.066-.098-1.568-.91-2.3-2.886-2.6l-2.75-.416 2.685-.15 2.685-.15v-19.88l-2.685-.41-2.685-.41 2.805-.15c2.697-.144 2.793-.329 2.5-4.801l-.305-4.651-10.713-.395-10.712-.396.012 9.985.012 9.985 2.7.412 2.701.411-2.767.15c-2.762.15-2.767.165-2.623 7.189.08 3.872-.138 7.322-.483 7.667s-.627-2.791-.627-6.97c0-7.083-.152-7.626-2.25-8.03l-2.25-.434 2.25-.136c2.174-.131 2.25-.473 2.25-10.136 0-9.111-.167-10-1.875-10-1.031 0-3.281-.281-5-.625L89 182.75zm-76.921-1.222c.048 1.165.285 1.402.604.605.289-.722.253-1.585-.079-1.917s-.568.258-.525 1.312M65 191.139c0 .473 1.125.861 2.5.861s2.5-.173 2.5-.383-1.125-.599-2.5-.862-2.5-.09-2.5.384m99.5 1.879-3 .592 3.013.487c1.657.268 4.132.214 5.5-.121l2.487-.607-2.5-.471c-1.375-.259-3.85-.205-5.5.12M155 194c0 .55.45 1 1 1s1-.45 1-1-.45-1-1-1-1 .45-1 1m-113.892 7.449c.101 9.838 1.683 10.815 1.783 1.101.042-4.099-.359-7.721-.892-8.051-.594-.367-.938 2.319-.891 6.95m67.142-6.733c1.513.229 3.987.229 5.5 0s.275-.416-2.75-.416-4.263.187-2.75.416m43.563-.033c.721.289 1.584.253 1.916-.079s-.258-.568-1.312-.525c-1.165.048-1.402.285-.604.604m-90.73 6.676c1.195 1.03 5.917 1.557 5.917.66 0-.56-1.425-1.019-3.167-1.019s-2.979.162-2.75.359m7.73 1.324c.721.289 1.584.253 1.916-.079s-.258-.568-1.312-.525c-1.165.048-1.402.285-.604.604m4 0c.721.289 1.584.253 1.916-.079s-.258-.568-1.312-.525c-1.165.048-1.402.285-.604.604m113 0c.721.289 1.584.253 1.916-.079s-.258-.568-1.312-.525c-1.165.048-1.402.285-.604.604M166 204c0 .55.45 1 1 1s1-.45 1-1-.45-1-1-1-1 .45-1 1m3.813-.317c.721.289 1.584.253 1.916-.079s-.258-.568-1.312-.525c-1.165.048-1.402.285-.604.604m-63 1c.721.289 1.584.253 1.916-.079s-.258-.568-1.312-.525c-1.165.048-1.402.285-.604.604M110 205c0 .55.45 1 1 1s1-.45 1-1-.45-1-1-1-1 .45-1 1m41.285-.381c.764.763 8.714.715 9.487-.058.309-.308-1.839-.561-4.772-.561s-5.055.278-4.715.619m11.528.064c.721.289 1.584.253 1.916-.079s-.258-.568-1.312-.525c-1.165.048-1.402.285-.604.604m47.172 2.345c-2.421 1.844-2.427 1.877-.219 1.311 1.246-.319 2.528-1.006 2.85-1.526 1.099-1.779-.144-1.677-2.631.215m-145.568 5.106c-.294.476.842.866 2.524.866s3.059-.173 3.059-.383c0-.849-5.085-1.288-5.583-.483m100.083 1.884-3 .592 3.013.487c1.657.268 4.132.214 5.5-.121l2.487-.607-2.5-.471c-1.375-.259-3.85-.205-5.5.12M155 215c0 .55.45 1 1 1s1-.45 1-1-.45-1-1-1-1 .45-1 1m-46.75.716c1.513.229 3.987.229 5.5 0s.275-.416-2.75-.416-4.263.187-2.75.416m43.563-.033c.721.289 1.584.253 1.916-.079s-.258-.568-1.312-.525c-1.165.048-1.402.285-.604.604"/><path fill="#1976D2" fill-opacity=".705" fill-rule="evenodd" d="M126.15 44.583c.082 3.254.337 4.68.566 3.167.323-2.133.963-2.75 2.85-2.75 1.945 0 2.434.515 2.434 2.559 0 1.451.433 2.292 1 1.941.55-.34 1-2.616 1-5.059S133.55 40 133 40s-1 .931-1 2.07c0 1.574-.539 1.993-2.25 1.75-1.306-.186-2.255-1.024-2.263-1.999-.007-.924-.344-2.012-.75-2.417-.405-.406-.67 1.925-.587 5.179M115.5 41c-.34.55.044 1 .853 1 .937 0 1.717 1.452 2.147 4 .91 5.388 2.102 5.096 1.664-.409-.288-3.618-.02-4.494 1.493-4.884 1.013-.261.182-.527-1.848-.591s-3.969.334-4.309.884m22.267 4.5c-1.495 2.475-2.305 4.5-1.801 4.5s1.194-.45 1.534-1c1.019-1.648 3.289-1.139 5.575 1.25 2.001 2.092 2.113 2.11 1.592.25-.308-1.1-.859-3.687-1.225-5.75-.366-2.062-1.18-3.75-1.811-3.75-.63 0-2.369 2.025-3.864 4.5M105 43.566c0 .311.486 1.474 1.081 2.585 1.579 2.95.411 3.381-2.646.977-3.604-2.836-4.633-1.858-2.782 2.644 1.525 3.71 4.169 7.28 3.131 4.228-.28-.825-.846-2.573-1.257-3.885l-.747-2.385 3.448 2.63c1.896 1.447 3.71 2.369 4.03 2.049.753-.754-2.442-9.409-3.474-9.409-.431 0-.784.255-.784.566M140 45c-.854 1.596-.76 2 .465 2 .868 0 1.535-.869 1.535-2 0-1.1-.209-2-.465-2-.255 0-.946.9-1.535 2m8.522 2.581c-.953 2.497-1.574 4.647-1.378 4.777 2.026 1.348 5.856 2.408 5.856 1.621 0-.539-.338-.986-.75-.994s-1.346-.393-2.074-.855c-1.089-.69-1.055-1.484.19-4.463.832-1.993 1.148-3.849.702-4.125s-1.592 1.542-2.546 4.039m8.978 5.014c-2.21 1.97-3.154 3.296-2.109 2.963 2.842-.907 5.609.331 5.609 2.509 0 1.063.45 1.933 1 1.933s1-1.069 1-2.375.281-3.781.625-5.5c.844-4.221-1.023-4.078-6.125.47M91.525 54.25c.858 5.209 2.399 8.381 2.445 5.035.033-2.469 3.493-4.962 4.538-3.271.347.56 1.073.745 1.615.41 1.123-.694-5.922-6.354-7.961-6.396-1.019-.021-1.171.985-.637 4.222m68.676-1.995c-.932 1.125-.983 1.761-.183 2.256 1.48.915 2.237.047 1.82-2.088-.304-1.563-.467-1.579-1.637-.168M93 53.878c0 1.167.423 2.122.941 2.122 1.732 0 2.053-1.76.548-3.009-1.239-1.029-1.489-.88-1.489.887m-8.307.762c-.352.352.753 2.398 2.454 4.546 3.971 5.013 5.024 4.112 1.366-1.168-3.058-4.412-2.913-4.284-3.82-3.378m37.365.188c-3.809.362-8.928 3.172-5.781 3.172.948 0 1.723-.45 1.723-1s1.302-1 2.894-1c2.875 0 2.888.026 1.963 4.14-.512 2.277-.777 4.601-.589 5.163.187.563.919-1.56 1.625-4.717 1.49-6.655 2.542-6.569 2.421.197-.061 3.415.033 3.751.339 1.217.726-5.996 1.685-6.799 2.388-2l.659 4.5.15-4.917c.175-5.749 1.175-5.31 2.83 1.244l1.18 4.673-.544-4.75c-.525-4.594-.457-4.75 2.07-4.75 1.438 0 2.614.45 2.614 1s.775 1 1.723 1c1.471 0 1.42-.211-.345-1.448-2.078-1.455-10.91-2.335-17.32-1.724m44.46 2.738c-3.073 4.029-2.67 6.008.474 2.326C169.89 56.497 171.23 54 170.154 54c-.504 0-2.14 1.605-3.636 3.566m-87.344 1.748c-2.368 2.522-2.992 4.61-.844 2.827 1.019-.846 2.001-.405 4.188 1.877 1.571 1.64 3.31 2.982 3.865 2.982s-.499-1.557-2.343-3.459c-2.822-2.911-3.15-3.703-2.074-5 2.037-2.455-.391-1.782-2.792.773m67.617 2.326c1.81 1.573 4.285 4.006 5.5 5.407s1.782 1.851 1.259 1c-1.723-2.806-6.016-7.202-8.05-8.243-1.1-.563-.519.263 1.291 1.836m26.388 1.676c-2.975 3.068-3.458 5.991-.599 3.618.889-.738 1.839-.689 3.209.166 4.267 2.665 7.174-2.014 3.382-5.445-2.383-2.156-2.26-2.191-5.992 1.661m-67.231.24c-1.321 1.405-1.727 2.296-.903 1.98 1.302-.499 4.539-4.536 3.638-4.536-.184 0-1.415 1.15-2.735 2.556m70.172-.201c-.871 1.05-.815 1.653.235 2.525s1.653.815 2.525-.235.815-1.653-.235-2.525-1.653-.815-2.525.235m-57.041 2.228c.048 1.165.285 1.402.604.605.289-.722.253-1.585-.079-1.917s-.568.258-.525 1.312m-46.35 1.549c-2.18 1.22-2.333 5.868-.194 5.868.845 0 2.603-.699 3.908-1.554 1.647-1.08 2.579-1.219 3.05-.457.797 1.289-1.341 4.223-2.537 3.484-.45-.278-1.1-.048-1.446.511-.983 1.59 3.101 1.19 4.45-.436 2.987-3.599-1.368-7.299-4.866-4.133-.966.874-2.057 1.288-2.425.921-1.232-1.232-.687-2.394 1.502-3.204 1.194-.441 1.747-1.065 1.229-1.385-.519-.32-1.721-.147-2.671.385m61.35.451c.048 1.165.285 1.402.604.605.289-.722.253-1.585-.079-1.917s-.568.258-.525 1.312m-32.207 1.167c-1.243 1.586-1.208 1.621.378.378 1.666-1.307 2.195-2.128 1.372-2.128-.207 0-.995.787-1.75 1.75m19.207-.167c.048 1.165.285 1.402.604.605.289-.722.253-1.585-.079-1.917s-.568.258-.525 1.312m58.421 2.894c-2.75.707-4.55 1.392-4 1.523.55.13 1.388.167 1.862.081 1.476-.267 3.584 3.329 3.03 5.169-.29.963-.31 1.75-.046 1.75 1.027 0 6.557-8.349 6.061-9.151-.621-1.004-.523-1.013-6.907.628m-79.5.582c0 .582.45.781 1 .441s1-.816 1-1.059-.45-.441-1-.441-1 .477-1 1.059m-9.412 3.851C86.916 79.67 86.523 82 89.559 82c.793 0 1.441-.58 1.441-1.289 0-.708.851-2.958 1.892-5S94.699 72 94.595 72s-1.907 1.759-4.007 3.91m71.979-2.41c.401 1.1 1.225 3.474 1.831 5.274.649 1.929 1.685 3.162 2.519 3 2.531-.49 2.119-2.198-1.513-6.274-2.027-2.274-3.251-3.137-2.837-2m18.576-.61c-.946.6-1.021 1.067-.25 1.544 1.269.784 3.107-.1 3.107-1.493 0-1.163-1.072-1.182-2.857-.051m-25.112.61c0 .55.436 1.675.969 2.5s.969 1.05.969.5-.436-1.675-.969-2.5-.969-1.05-.969-.5m-88.38 1.182c-.7.701 6.811 5.318 8.651 5.318 1.43 0 .156-1.108-4.399-3.827-1.978-1.18-3.891-1.852-4.252-1.491m30.973.857c-.343.893-.595 2.15-.561 2.793.035.642.495.09 1.022-1.227s.779-2.574.56-2.793-.679.333-1.021 1.227m87.126 4.156c-2.062 1.417-3.75 2.965-3.75 3.44s1.912.873 4.25.882l4.25.017-3.25 2.081c-1.787 1.145-3.25 2.487-3.25 2.983 0 1.082 5.504 1.022 9-.098 2.829-.906 1.915-1.289-2.5-1.048l-3 .164 3-2.481c2.621-2.168 2.779-2.567 1.248-3.166-.964-.377-2.989-.401-4.5-.055-2.716.623-2.707.595.752-2.365 4.277-3.66 2.883-3.879-2.25-.354m-27.925.979c.426 2.093.678 2.345.969.97.217-1.021-.043-2.293-.576-2.826-.626-.626-.766.031-.393 1.856m-93.85 1.891c-1.412 3.713-1.269 4.133 1.775 5.235a159 159 0 0 1 4.5 1.705c2.588 1.049 2.128-1.023-.5-2.252-2.175-1.017-2.125-1.105 1.5-2.666 4.271-1.838 4.994-3.116 1.228-2.171-1.768.444-2.697.177-3.107-.891-.943-2.457-4.313-1.807-5.396 1.04m1.708-.915c-1.065 1.065-.802 4.35.348 4.35 1.479 0 2.41-2.959 1.285-4.084-.522-.522-1.257-.642-1.633-.266m31.396.933c.048 1.165.285 1.402.604.605.289-.722.253-1.585-.079-1.917s-.568.258-.525 1.312m-12.343 1.6c-.653 1.811 2.134 4.804 3.858 4.143 1.543-.592 1.964-4.326.488-4.326-.505 0-1.583-.255-2.395-.567s-1.69.026-1.951.75m83.514-.414c-2.515.414-2.952 2.404-.902 4.105 1.029.854 1.781.641 3.177-.901 2.098-2.319 1.078-3.757-2.275-3.204M126 87c0 2.805-.246 3-3.786 3-3.119 0-3.785.352-3.785 2s.666 2 3.785 2H126v10c0 6 .4 10 1 10 .55 0 1.338.004 1.75.009s.975-4.383 1.25-9.75l.5-9.759 3.75-.31c2.938-.244 3.75-.731 3.75-2.25 0-1.597-.708-1.94-4-1.94-3.778 0-4-.167-4-3 0-2.333-.444-3-2-3s-2 .667-2 3m-44.855 4.909c-1.718 5.734-1.357 6.975.97 3.341C83.26 93.463 84.602 92 85.098 92c1.585 0 .967-1.895-.953-2.922-1.596-.855-2.013-.461-3 2.831m15.934-2.326c.048 1.165.285 1.402.604.605.289-.722.253-1.585-.079-1.917s-.568.258-.525 1.312m75.088-.284c-1.082 1.303-.785 2.244 1.851 5.876 2.944 4.058 3.094 4.14 2.423 1.325-.393-1.65-1.226-4.294-1.851-5.876-.995-2.52-1.295-2.684-2.423-1.325m-14.152.451c.03 1.454 1.765 3.489 2.661 3.122.499-.205.101-1.159-.884-2.122-.986-.963-1.785-1.412-1.777-1M61 91.055c0 .825.701 2.5 1.557 3.722 1.496 2.137 1.448 2.225-1.25 2.286-2.43.055-2.539.172-.807.871 4.079 1.645 8.5 2.241 8.5 1.145 0-.593-.675-1.079-1.5-1.079-2.494 0-1.681-2.916 1-3.589 1.375-.345 2.5-1.059 2.5-1.587 0-.846-1.786-.568-5.646.88-.631.237-1.868-.6-2.75-1.859C61.529 90.31 61 90.05 61 91.055m33.813 1.628c.721.289 1.584.253 1.916-.079s-.258-.568-1.312-.525c-1.165.048-1.402.285-.604.604m-7.192 4.419c-2.563 2.256-5.151 5.069-5.75 6.25-.602 1.187.189.66 1.769-1.178 1.573-1.829 4.435-4.629 6.36-6.223 1.925-1.593 3.226-2.909 2.891-2.924s-2.707 1.819-5.27 4.075m101.129-3.386c-2.861.434-3.086 1.112-1.75 5.284.759 2.369.806 2.329.9-.75.088-2.851.438-3.252 2.85-3.265 1.512-.009 3.425-.452 4.25-.985 1.174-.759.957-.94-1-.835-1.375.074-3.738.322-5.25.551M166 95.378c0 .207.787.995 1.75 1.75 1.586 1.243 1.621 1.208.378-.378-1.307-1.666-2.128-2.195-2.128-1.372m5.5 5.622c.995 1.1 2.035 2 2.31 2s-.315-.9-1.31-2-2.035-2-2.31-2 .315.9 1.31 2m3.5 5c.589 1.1 1.295 2 1.57 2s.019-.9-.57-2-1.295-2-1.57-2-.019.9.57 2m-112.789 3.611c-.71.764-.849 1.389-.311 1.389.539 0 1.156 1.688 1.372 3.75l.392 3.75.168-3.75c.126-2.806.608-3.77 1.918-3.829 1.394-.063 1.445-.195.25-.65-.825-.314-1.725-.904-2-1.31s-1.08-.114-1.789.65m129 0c-.71.764-.849 1.389-.311 1.389.539 0 1.156 1.688 1.372 3.75l.392 3.75.168-3.75c.126-2.806.608-3.77 1.918-3.829 1.394-.063 1.445-.195.25-.65-.825-.314-1.725-.904-2-1.31s-1.08-.114-1.789.65m-114.132 6.972c.048 1.165.285 1.402.604.605.289-.722.253-1.585-.079-1.917s-.568.258-.525 1.312M108 120.778c-1.925 3.147-3.438 6.28-3.363 6.961.075.682-.154 1.059-.511.839-.955-.59-3.65 1.656-4.407 3.672-.615 1.641 1.136 1.75 28.224 1.75 25.101 0 28.851-.196 28.66-1.5-.121-.825-.928-2.062-1.792-2.75-.865-.687-3.651-4.395-6.192-8.239-5.327-8.061-6.047-8.011-1.468.102 2.574 4.561 2.894 5.745 1.75 6.47-1.819 1.151-2.702 1.133-6.908-.143-5.887-1.786-18.942-1.941-25.402-.302-3.25.824-6.985 1.229-8.3.899l-2.391-.6 3.435-6.469c4.244-7.994 3.4-8.43-1.335-.69m43-4.837c0 .518.445 1.216.989 1.552.566.35.734-.051.393-.941-.665-1.732-1.382-2.049-1.382-.611m2 7c0 .518.445 1.216.989 1.552.566.35.734-.051.393-.941-.665-1.732-1.382-2.049-1.382-.611m-75.911 2.419c-.114 3.673 5.162 13.587 9.197 17.28l3.124 2.86-3.186-3.763c-3.929-4.641-6.17-8.877-7.796-14.737-1.042-3.752-1.264-4.024-1.339-1.64m-12.589.186-3 1.456 3.75-.546c2.951-.43 3.75-.217 3.75.999 0 1.829-1.985 2.118-2.032.295-.018-.704-.673-.402-1.5.691-.807 1.068-1.454 2.418-1.438 3 .017.583.466.313.998-.598.598-1.024 1.732-1.457 2.97-1.133 2.083.544 2.601-.987 1.395-4.128-.729-1.9-1.046-1.903-4.893-.036m123.094-.806c-.714.713 1.308 3.26 2.587 3.26.516 0 .685-.408.377-.907-.309-.498.34-.671 1.441-.383s2.001.29 2.001.004c0-.83-5.771-2.609-6.406-1.974m-33.03 2.553c.376.986.935 1.541 1.243 1.233s.001-1.114-.683-1.793c-.988-.98-1.102-.865-.56.56m23.436-.449c0 2.32-4.177 10.003-7.633 14.04-1.935 2.261-2.826 3.846-1.978 3.52 3.049-1.17 11.77-16.578 10.246-18.103-.349-.349-.635-.104-.635.543m10.75 1.937c-3.684.471-3.473 1.782.5 3.107 2.874.959 3.038.922 1.419-.322-1.739-1.334-1.714-1.422.5-1.737 1.282-.182 1.881-.572 1.331-.866s-2.238-.376-3.75-.182m-122.177 5.114c-1.778.697-1.792.807-.181 1.425 1.247.479 1.567 1.315 1.121 2.925-.576 2.076-.423 2.033 1.931-.551 1.406-1.543 2.556-3.23 2.556-3.75 0-1.103-2.674-1.127-5.427-.049M68 135c0 .55.423 1 .941 1s1.219-.45 1.559-1-.084-1-.941-1-1.559.45-1.559 1m115 .313c0 .172 1.379 1.634 3.064 3.248 2.203 2.111 2.86 2.404 2.337 1.043-.497-1.295-.14-2.321 1.128-3.249 1.668-1.219 1.434-1.355-2.338-1.355-2.305 0-4.191.141-4.191.313m2.51 1.703c.346.559 1.047.758 1.559.441 1.387-.857 1.129-1.457-.628-1.457-.857 0-1.276.457-.931 1.016m-114.339 2.302c-2.9 3.087-2.736 4.041.552 3.215 2.703-.678 2.709-.668.839 1.398-2.553 2.822-1.497 3.491 2.572 1.63 1.851-.847 2.315-1.277 1.03-.956-2.092.523-2.222.373-1.25-1.445 1.569-2.93 1.378-3.222-1.414-2.16-2.896 1.101-3.285.294-.752-1.558.962-.703 1.489-1.538 1.171-1.856s-1.555.462-2.748 1.732m34.987.682c0 1.375.227 1.938.504 1.25.278-.687.278-1.812 0-2.5-.277-.687-.504-.125-.504 1.25m12 0c0 1.375.227 1.938.504 1.25.278-.687.278-1.812 0-2.5-.277-.687-.504-.125-.504 1.25m20 0c0 1.375.227 1.938.504 1.25.278-.687.278-1.812 0-2.5-.277-.687-.504-.125-.504 1.25m41.747 1.615c-1.149 1.384-1.008 1.883.988 3.5 2.931 2.373 3.78 2.365 5.07-.046.78-1.457.648-2.315-.536-3.5-2.008-2.007-3.831-1.992-5.522.046m.588.396c-.381.617.139 1.753 1.157 2.524 2.646 2.005 3.535 1.787 3.17-.775-.346-2.421-3.199-3.574-4.327-1.749m-50.76 3.113c.679.684 1.486.991 1.793.683.308-.308-.247-.867-1.233-1.243-1.425-.542-1.54-.428-.56.56m-5.733.935c0 .582.45.781 1 .441s1-.816 1-1.059-.45-.441-1-.441-1 .477-1 1.059m-48.076 2.684-2.424 2.743 2.375-1.993 2.375-1.993-.724 3.338c-.667 3.079-.574 3.258 1.207 2.305 2.243-1.201 4.884-4.143 3.718-4.143-.436 0-1.64.766-2.674 1.702-1.813 1.64-1.843 1.601-.829-1.065 1.268-3.334 1.286-3.637.226-3.637-.454 0-1.916 1.234-3.25 2.743m102.517-1.211c1.831 1.384 1.75 1.468-1.424 1.468h-3.366l2.349 2.5c2.859 3.044 5.084 3.372 2.405.355-1.901-2.141-1.899-2.145.845-1.639 1.512.279 2.75.189 2.75-.2 0-.999-3.474-4.022-4.579-3.984-.506.017-.047.692 1.02 1.5m-139.191 2.2-4.25.383v9.071l4.25-.542c2.337-.298 4.587-.565 5-.593s.75-2.076.75-4.551-.337-4.421-.75-4.325-2.663.347-5 .557M47 153.5c0 3.996.252 4.502 2.25 4.514 1.237.007 3.263.285 4.5.616 2.119.568 2.25.305 2.25-4.513V149h-9zm11 0c0 5.058.598 5.391 4.365 2.427 3.33-2.619 3.354-4.703.07-5.952C58.375 148.432 58 148.73 58 153.5m58.813-3.817c.721.289 1.584.253 1.916-.079s-.258-.568-1.312-.525c-1.165.048-1.402.285-.604.604m40 0c.721.289 1.584.253 1.916-.079s-.258-.568-1.312-.525c-1.165.048-1.402.285-.604.604m37.192.211c-3.595 1-3.595 3.55 0 6.109 1.71 1.218 3.265 2.054 3.455 1.856.463-.483.797-3.844.655-6.609-.122-2.393-.243-2.432-4.11-1.356m5.995 4.223c0 4.818.131 5.081 2.25 4.513 1.238-.331 3.488-.609 5-.616 2.591-.013 2.75-.275 2.75-4.514V149h-10zm11-.724c0 2.534.338 4.63.75 4.658s2.662.295 5 .593l4.25.542v-4.593c0-4.562-.023-4.593-3.418-4.593-1.88 0-4.13-.273-5-.607-1.302-.499-1.582.21-1.582 4m-182.25-2.588-4.75.305V160l3.75-.015c5.337-.022 6.432-1.031 6.065-5.584L33.5 150.5zm193.679.099c-.236.236-.429 2.102-.429 4.146 0 3.984 1.355 4.907 7.25 4.936 2.585.013 2.75-.249 2.75-4.385v-4.4l-4.571-.363c-2.513-.2-4.763-.17-5 .066M5 170.75V189h3c2.533 0 3-.389 3-2.5 0-2-.5-2.5-2.5-2.5-1.375 0-2.5-.45-2.5-1s1.125-1 2.5-1c2.306 0 2.5-.359 2.5-4.617 0-4.385-.125-4.592-2.5-4.138-1.375.263-2.5.09-2.5-.384 0-.473 1.125-.861 2.5-.861 2.296 0 2.5-.367 2.5-4.5s-.204-4.5-2.5-4.5c-1.375 0-2.5-.45-2.5-1s1.125-1 2.5-1c2.275 0 2.5-.383 2.5-4.25 0-4.056-.137-4.25-3-4.25H5zm8-14.25c0 4.901.457 5.159 6.875 3.875 2.855-.571 3.125-.96 3.125-4.5V152H13zm68.977-2.477c-1.607 1.607-1.805 2.43-.965 4 1.155 2.157 3.477 2.612 4.542.89.369-.598.105-1.611-.588-2.25-.986-.91-1.126-.782-.645.587.737 2.094-.612 2.309-2.233.356-.896-1.08-.768-1.783.57-3.121 1.636-1.636 1.822-1.61 3.535.505.994 1.227 1.807 1.764 1.807 1.192 0-1.009-2.709-4.182-3.571-4.182-.236 0-1.339.91-2.452 2.023m44.385-.523c-.723 1.883.231 4.5 1.639 4.5 1.615 0 2.966-4.357 1.623-5.235-1.714-1.12-2.63-.914-3.262.735M234 156c0 2.2.338 4.017.75 4.038s2.438.282 4.5.581l3.75.544V152h-9zm11 .711c0 3.908.222 4.289 2.5 4.289 1.375 0 2.5.45 2.5 1s-1.125 1-2.5 1c-2.296 0-2.5.367-2.5 4.5s.204 4.5 2.5 4.5c1.375 0 2.5.388 2.5.861 0 .474-1.125.647-2.5.384-2.375-.454-2.5-.247-2.5 4.138 0 4.258.194 4.617 2.5 4.617 1.375 0 2.5.45 2.5 1s-1.125 1-2.5 1c-2 0-2.5.5-2.5 2.5 0 2.095.472 2.5 2.918 2.5 2.907 0 2.919-.025 3.25-6.839.183-3.762.107-11.975-.168-18.25l-.5-11.411-2.75-.039c-2.579-.037-2.75.227-2.75 4.25m-74.494-1.961c.397.963.947 2.537 1.224 3.5s.927 1.75 1.446 1.75.683-.419.366-.932c-.316-.512.33-1.566 1.437-2.341 1.981-1.387 1.973-1.428-.53-2.568-3.596-1.639-4.787-1.46-3.943.591m-53.506.181c-4.854.662-3.993 1.342 3.348 2.645 3.359.596 3.804.455 3.5-1.113-.421-2.173-1.077-2.32-6.848-1.532m16 .963c0 1.834.397 2.048 2.75 1.476 4.49-1.09 7.028-2.232 5.125-2.307-.894-.034-3.031-.344-4.75-.688-2.723-.545-3.125-.349-3.125 1.519m39-.335c0 .857.457 1.276 1.016.931.559-.346.758-1.047.441-1.559-.857-1.387-1.457-1.129-1.457.628m18.218 2.413c.05 1.734 1.059 3.879 2.433 5.17l2.349 2.207-.031-3.425c-.023-2.441-.722-3.925-2.433-5.17-2.391-1.738-2.402-1.732-2.318 1.218m-127.638-.06c-.983 1.086-1.59 3.052-1.405 4.553.285 2.32.533 2.483 2.037 1.338 1.809-1.377 3.421-7.803 1.957-7.803-.472 0-1.637.86-2.589 1.912m25.108 2.038c-1.68 2.845-1.672 2.988.219 4 2.867 1.535 3.457 1.328 4.865-1.705 1.099-2.365 1.039-2.91-.441-3.992-2.384-1.743-2.673-1.638-4.643 1.697m79.553-2.452c.408.45.236 1.427-.382 2.172-.849 1.023-1.459 1.077-2.492.22-2.067-1.716-1.639-.045.757 2.952 1.819 2.276 2.03 2.352 1.47.526-.767-2.502 1.484-3.851 3.407-2.04.988.931 1.012.721.116-1.022-.62-1.207-1.688-2.517-2.372-2.911-.685-.393-.911-.347-.504.103m-77.715 1.461c-.359.58.07 1.333.954 1.672 2.2.844 2.884-.084 1.133-1.537-.985-.818-1.639-.86-2.087-.135m-53.276 1.703c-.735.297-1.25 2.324-1.25 4.921 0 3.964.24 4.417 2.339 4.417 1.532 0 2.738-.873 3.492-2.528.633-1.391 1.831-2.789 2.66-3.107S45 162.934 45 161.893c0-1.535-.71-1.878-3.75-1.814-2.062.043-4.312.306-5 .583M47 161c0 1.253 1.061 1.253 3 0 1.213-.784 1.069-.972-.75-.985-1.237-.008-2.25.435-2.25.985m7 .409c-2.91 1.045-3.554 1.812-3.823 4.551-.301 3.076-.156 3.252 2.206 2.659 6.414-1.61 7.617-2.494 7.617-5.594 0-3.336-.691-3.522-6-1.616m142.785-.263c-1.055 3.163.466 5.613 4.173 6.723 5.123 1.535 5.042 1.571 5.042-2.244 0-2.881-.403-3.456-2.75-3.93-1.512-.305-3.49-.841-4.394-1.191-.94-.364-1.828-.089-2.071.642M206 161c1.957 1.264 4 1.264 4 0 0-.55-1.238-.993-2.75-.985-2.143.012-2.419.23-1.25.985m5 .606c0 .883 1.125 2.491 2.5 3.573s2.5 2.608 2.5 3.394c0 .855 1.001 1.427 2.5 1.427 2.287 0 2.5-.374 2.5-4.393 0-4.855-.882-5.607-6.582-5.607-2.472 0-3.418.445-3.418 1.606m-185.25.083c-1.342.351-1.75 1.514-1.75 4.991 0 3.724.283 4.425 1.582 3.927.87-.334 3.12-.607 5-.607 3.384 0 3.418-.044 3.418-4.5 0-4.434-.048-4.498-3.25-4.384-1.788.064-4.038.322-5 .573m62.438.374c.24.721 1.028 1.509 1.75 1.75.75.25 1.125-.125.875-.875-.241-.722-1.029-1.51-1.75-1.75-.75-.25-1.125.125-.875.875m72.378.086c.779 2.253-1.291 3.324-3.264 1.687-1.436-1.19-1.428-.982.069 1.914 1.681 3.251 3.342 4.55 2.28 1.782-.77-2.007 1.107-2.977 2.893-1.496 2.168 1.799 1.785-.426-.546-3.175-1.206-1.422-1.775-1.705-1.432-.712M222 165.407c0 4.562.023 4.593 3.418 4.593 1.88 0 4.13.273 5 .607 1.302.499 1.582-.21 1.582-4 0-2.534-.338-4.63-.75-4.658s-2.662-.295-5-.593l-4.25-.542zm-207.75-2.745c-.719.29-1.25 2.274-1.251 4.671v4.167l5-.347 5.001-.346V162l-3.75.079c-2.062.043-4.312.306-5 .583m81.25 1.678c-1.65 1.482-2.55 2.633-2 2.559 2.431-.33 3.5.22 3.5 1.801 0 1.21.309 1.391 1.073.627.59-.59.927-2.56.75-4.377l-.323-3.304zm138.5 2.002v4.457l4.545.361 4.545.362-.295-4.511-.295-4.511-4.25-.307-4.25-.308zm-44-.739c0 3.042 2.388 7.397 4.057 7.397 2.002 0 .893-5.698-1.557-8l-2.5-2.349zm-145.777-.046c-2.25 1.576-2.982 4.856-1.313 5.887 2.497 1.544 6.523-3.116 5.352-6.194-.621-1.632-1.351-1.577-4.039.307m19.027.18c-2.276 1.525-3.282 7.263-1.273 7.263 1.559 0 4.208-4.699 3.85-6.828-.301-1.788-.506-1.823-2.577-.435M96.5 165c-.34.55-.141 1 .441 1S98 165.55 98 165s-.198-1-.441-1-.719.45-1.059 1m5.167-.333c-.367.366-.657 2.279-.645 4.25l.022 3.583L103 170l1.956-2.5.022 2.75c.029 3.645 1.19 3.474 3.39-.5l1.799-3.25-2.16 2.5-2.16 2.5.438-2.75c.498-3.127-.881-3.587-2.993-1-1.3 1.593-1.375 1.503-.841-1 .596-2.794.413-3.281-.784-2.083M208 166.965c0 3.027 3.027 5.754 5.021 4.522 1.729-1.069 1.046-4.326-1.244-5.93-3.141-2.201-3.777-1.964-3.777 1.408m-57.638-.465c-1.445 3.764 2.669 6.897 5.43 4.137 1.052-1.052 1.203-1.637.422-1.637-.668 0-1.214.45-1.214 1 0 1.614-2.73 1.146-3.393-.582-.879-2.29-.829-2.393 1.643-3.387l2.25-.904-2.281-.064c-1.255-.034-2.541.612-2.857 1.437m-96.112 3.162c-3.685 1.305-4.25 1.893-4.25 4.421 0 3.358 1.306 3.652 6.532 1.468 2.883-1.204 3.468-1.964 3.468-4.5 0-3.448.04-3.438-5.75-1.389m56.38.588c-1.029 3.839-.709 4.754 1.62 4.634 1.632-.084 1.78-.24.538-.566-1.309-.344-1.574-1.14-1.125-3.384.686-3.431-.149-3.983-1.033-.684m31.987-.694c-.339.884-.61 2.583-.602 3.776.012 1.641.23 1.829.898.775.514-.812 1.753-1.166 2.967-.849 1.732.453 1.928.252 1.157-1.188-.51-.954-1.575-2.271-2.366-2.928-1.14-.946-1.565-.861-2.054.414M197 171.508c0 2.798.476 3.462 3.149 4.394 5.124 1.786 6.014 1.464 5.664-2.048-.273-2.747-.852-3.304-4.563-4.394l-4.25-1.249zm-77.115-1.6c.917.581 1.164 1.759.731 3.485-.384 1.532-.234 2.607.365 2.607.56 0 1.019-1.125 1.019-2.5s.563-2.532 1.25-2.57c.688-.039.35-.457-.75-.93-2.65-1.139-4.363-1.199-2.615-.092m14.442-.146c-.821.533-.904 1.804-.277 4.249l.895 3.489-.313-3.343c-.202-2.157.178-3.531 1.071-3.873 1.944-.746 3.036.641 1.332 1.694-1.164.72-1.181 1.141-.098 2.446 1.546 1.863 3.545 2.138 2.372.326-.445-.687-.809-2.142-.809-3.231 0-2.098-2.21-3.028-4.173-1.757m-8.934 1.82c.334.87.607 2.476.607 3.569 0 1.49.564 1.908 2.25 1.669 1.736-.247 2.271-1.005 2.343-3.32.088-2.83.07-2.845-.313-.25-.565 3.824-3.28 3.617-3.28-.25 0-1.65-.498-3-1.107-3s-.834.712-.5 1.582M143 171c0 .55.45 1 1 1s1-.45 1-1-.45-1-1-1-1 .45-1 1m-125.75 1.807-4.25.308v8.995l4.75-.305c4.735-.304 4.751-.317 5.068-4.187.175-2.135-.05-4.16-.5-4.5s-2.731-.48-5.068-.311M24 176.5v4.5h10v-9H24zm11 0c0 4.476.019 4.5 3.5 4.5 1.925 0 3.5.404 3.5.897 0 .494-1.462.832-3.25.75-2.669-.121-3.307.258-3.571 2.116-.285 2.002.061 2.234 2.99 2 3.073-.244 3.355-.011 3.908 3.237.367 2.151.64.031.708-5.5.146-11.763-.11-12.5-4.352-12.5-3.402 0-3.433.041-3.433 4.5m11.002-3.501c-1.215.751-1.164 1.002.319 1.571 2.113.81 2.836.303 1.848-1.296-.459-.743-1.248-.843-2.167-.275m17.248.987c-2.797 2.281-2.944 5.014-.269 5.014 1.27 0 2.202-.882 2.598-2.457q1.404-5.6-2.329-2.557m127.033 1.248c.201 2.516.773 3.339 2.489 3.586 3.142.45 2.964-3.108-.261-5.221-2.487-1.629-2.489-1.628-2.228 1.635M208 173.5c0 .917.484 1.505 1.075 1.308s1.075-.786 1.075-1.308-.484-1.111-1.075-1.308-1.075.391-1.075 1.308m6.2-.3c-.66.66-1.2 3.225-1.2 5.7 0 3.5.267 4.233 1.2 3.3.66-.66 2.46-1.2 4-1.2 2.652 0 2.8-.238 2.8-4.5s-.148-4.5-2.8-4.5c-1.54 0-3.34.54-4 1.2m7.8 3.203v4.404l5.001.346 5 .347v-4.75L232 172h-10zm12 .84V182h9v-8.799l-4.5-.358-4.5-.357zm-189.848 2.59c.04 5.153 1.243 6.56 7.03 8.219C54 188.86 54 188.86 54 183.949c0-4.536-.21-4.96-2.75-5.549-1.513-.351-3.737-1.253-4.943-2.004-2.143-1.336-2.191-1.259-2.155 3.437M57.5 177c-1.908.82-1.897.863.25.93 1.237.038 2.25-.38 2.25-.93s-.112-.968-.25-.93c-.138.039-1.15.457-2.25.93m139.5.031c0 .533.675.969 1.5.969s1.5-.177 1.5-.393-.675-.652-1.5-.969-1.5-.139-1.5.393m9.25.814c-4.229 1.338-4.25 1.369-4.25 6.18v4.835l3.203-.918c4.682-1.343 5.972-3.077 5.612-7.543l-.315-3.899zM56 184.258c0 4.766 1.094 5.694 6.75 5.728 2.002.012 2.25-.482 2.25-4.486 0-3.152-.412-4.5-1.375-4.5-.756 0-2.781-.281-4.5-.625L56 179.75zm137.341-3.541c-3.024.379-3.156.586-3.091 4.84.062 4.101.266 4.442 2.658 4.429 5.978-.031 7.092-.911 7.092-5.603 0-4.707.302-4.54-6.659-3.666M67 186.243c0 4.589.103 4.757 2.918 4.757 1.605 0 3.63.273 4.5.607 1.313.504 1.582-.245 1.582-4.399v-5.007l-4.5-.358-4.5-.357zm-38.75-3.511c-3.793.342-4.25.658-4.25 2.942 0 2.166.346 2.467 2.25 1.956 1.238-.331 3.488-.609 5-.616 2.263-.012 2.75-.457 2.75-2.514 0-1.375-.337-2.421-.75-2.325s-2.663.347-5 .557m151.417-.065c-.367.366-.667 2.669-.667 5.116 0 4.127.163 4.406 2.25 3.847 1.238-.331 3.488-.609 5-.616 2.591-.013 2.75-.275 2.75-4.514V182h-4.333c-2.384 0-4.634.3-5 .667m34.988 1.162c-1.802 1.991-2.364 9.727-.629 8.655.564-.349.902-1.838.75-3.309-.253-2.451-.004-2.654 2.974-2.421 2.869.224 3.25-.04 3.25-2.25 0-1.96-.509-2.504-2.345-2.504-1.29 0-3.09.823-4 1.829m7.774-.925c-.236.236-.429 1.254-.429 2.263 0 1.33.755 1.837 2.75 1.847 1.512.007 3.762.285 5 .616 1.897.509 2.25.208 2.25-1.913 0-2.268-.451-2.551-4.571-2.879-2.513-.2-4.763-.17-5 .066m-207.679.881c-.963.199-1.75 1.229-1.75 2.288 0 1.646.73 1.927 5 1.927 4.683 0 5-.16 5-2.531 0-2.239-.375-2.504-3.25-2.289-1.788.134-4.037.406-5 .605m63.25 3.66c0 4.518.028 4.555 3.418 4.555 1.88 0 4.157.284 5.06.63 1.408.54 1.598-.066 1.332-4.25l-.31-4.88-4.75-.305-4.75-.305zm91.25-3.783c-.741.299-1.25 2.345-1.25 5.028 0 3.714.283 4.415 1.582 3.917.87-.334 3.082-.607 4.916-.607 3.286 0 3.335-.066 3.335-4.5V183l-3.666.079c-2.017.043-4.229.306-4.917.583m64.75 1.756c0 2.393.329 2.582 4.5 2.582 3.833 0 4.5-.296 4.5-2 0-1.1-.338-2.017-.75-2.038s-2.437-.282-4.5-.581c-3.505-.509-3.75-.376-3.75 2.037M89 188.5v4.5h10v-9H89zm11.896-4.367c-.056.202-.188 2.279-.292 4.617-.163 3.652.098 4.262 1.853 4.332 1.124.045 3.28.286 4.793.534 2.662.438 2.75.308 2.75-4.082 0-4.031-.249-4.536-2.25-4.548-1.237-.007-3.263-.285-4.5-.616-1.237-.332-2.297-.438-2.354-.237m47.49.58c-2.896.366-3.113.671-3.113 4.365 0 4.788.643 5.281 5.764 4.416 3.917-.662 3.963-.721 3.963-5.082 0-4.736.294-4.571-6.614-3.699M157 188.5v4.5h9v-9h-9zm-45 1v4.5h9v-9h-9zm11 0v4.5h9.833v-9H123zm11 0v4.5h10v-9h-10zm-89.833 1.148c0 4.571 1.227 5.832 7.583 7.793 2.106.649 2.25.402 2.25-3.874 0-2.518-.47-4.567-1.048-4.567-.577 0-2.789-.841-4.917-1.869l-3.868-1.869zm162.083-1.809c-4.093 1.54-4.25 1.758-4.25 5.899 0 4.184.074 4.282 2.75 3.643 5.451-1.303 6.25-2.188 6.25-6.916 0-2.456-.113-4.411-.25-4.345s-2.162.84-4.5 1.719M56 195.5c0 3.996.252 4.502 2.25 4.514 1.237.007 3.263.285 4.5.616 2.089.56 2.25.282 2.25-3.888 0-4.231-.182-4.528-3.125-5.117-5.612-1.122-5.875-.949-5.875 3.875m136.833-3.792c-2.439.374-2.666.798-2.666 4.968v4.559l3.666-.607c2.017-.333 4.23-.611 4.917-.617.813-.007 1.25-1.584 1.25-4.511 0-4.859-.045-4.883-7.167-3.792M67 196.626c0 4.409 1.202 5.329 7.007 5.36 2.352.013 2.486-.259 2.157-4.393l-.351-4.406-4.406-.351-4.407-.35zm116.75-3.821-4.75.305V202l3.75-.015c5.337-.022 6.432-1.031 6.065-5.584l-.315-3.901zm-105.751 4.838c.001 4.583.952 5.357 6.583 5.357 3.373 0 3.418-.058 3.418-4.403v-4.404l-5.001-.346-5-.347zM89 198.5c0 2.927.437 4.504 1.25 4.511.688.006 2.938.29 5 .631l3.75.62v-4.5c0-4.423-.064-4.511-3.75-5.12-6.191-1.024-6.25-.987-6.25 3.858m71.25-3.777c-3.118.387-3.25.584-3.25 4.84 0 4.756.273 4.932 5.875 3.812 2.929-.586 3.125-.9 3.125-5q0-4.377-1.25-4.215c-.687.088-2.713.342-4.5.563m7.75 3.832v4.555l4.75-.305 4.75-.305.161-4.25.162-4.25H168zm45.667-3.888c-1.028 1.028-.789 9.527.25 8.885.504-.312.916-2.589.916-5.06 0-4.683-.072-4.92-1.166-3.825M42.286 199.5c.008 2.75.202 3.756.432 2.236s.223-3.77-.014-5-.425.014-.418 2.764m58.226-2.75c.184.963.369 2.988.411 4.5.072 2.581.353 2.75 4.577 2.75h4.5v-9h-4.912c-4.138 0-4.858.275-4.576 1.75M112 199.5v4.5h9v-9h-9zm11-.055V204h9.977l-.238-4.25-.239-4.25-4.75-.305-4.75-.305zm11 .055v4.5h10v-9h-10zm11.249 0 .068 4.5H155v-9h-9.819zm-101.082 1.89c0 3.632.425 4.529 2.821 5.944 1.551.916 3.764 1.666 4.916 1.666 1.781 0 2.096-.605 2.096-4.031 0-2.967-.462-4.175-1.75-4.573-.962-.298-3.175-1.159-4.917-1.913l-3.166-1.371zM206 199.41c-3.235 1.163-3.523 1.608-3.803 5.869l-.302 4.612 2.802-.842c6.079-1.824 6.303-2.061 6.303-6.656 0-4.813.035-4.792-5-2.983m-150 5.866c0 4.746 1.1 5.676 6.75 5.71 2.002.012 2.25-.482 2.25-4.486 0-4.305-.126-4.5-2.918-4.5-1.605 0-3.63-.273-4.5-.607-1.298-.498-1.582.2-1.582 3.883m138.5-3.384c-3.91.594-4.004.703-4.161 4.858-.151 3.979.008 4.249 2.5 4.236 6.051-.031 7.161-.899 7.161-5.603 0-2.41-.338-4.319-.75-4.241s-2.55.415-4.75.75M67 207.5c0 4.305.126 4.5 2.918 4.5 1.605 0 3.583.255 4.394.566 1.139.437 1.558-.46 1.833-3.924.339-4.258.208-4.521-2.519-5.067-6.143-1.228-6.626-.942-6.626 3.925m114.25-3.794c-1.94.373-2.25 1.06-2.25 4.98 0 4.228.158 4.505 2.25 3.944 1.238-.331 3.488-.609 5-.616 2.591-.013 2.75-.275 2.75-4.514 0-4.275-.137-4.493-2.75-4.364-1.512.075-3.762.331-5 .57M78 208.5c0 4.456.034 4.5 3.418 4.5 1.88 0 4.13.273 5 .607 1.298.498 1.582-.2 1.582-3.883 0-4.837-1.07-5.68-7.25-5.71-2.595-.013-2.75.24-2.75 4.486m91.75-3.811c-1.342.351-1.75 1.514-1.75 4.991 0 3.724.283 4.425 1.582 3.927.87-.334 3.082-.607 4.916-.607 3.286 0 3.335-.066 3.335-4.5 0-4.41-.063-4.498-3.166-4.384-1.742.064-3.954.322-4.917.573M89 209.5v4.5h10v-9H89zm11.896-4.284c-.056.156-.188 2.196-.292 4.534-.163 3.652.098 4.262 1.853 4.332 1.124.045 3.28.286 4.793.534 2.662.438 2.75.308 2.75-4.082 0-3.62-.353-4.551-1.75-4.616-.963-.045-2.987-.286-4.5-.534s-2.797-.325-2.854-.168m46.99.586c-2.328.271-2.613.738-2.613 4.277 0 4.787.643 5.28 5.764 4.415 3.916-.662 3.963-.722 3.963-5.071 0-4.769.513-4.508-7.114-3.621M157 209.5v4.5h9v-9h-9zm56.729-3.896c-.401.401-.715 1.667-.699 2.813.028 1.923.111 1.946 1.071.295 1.119-1.922.833-4.312-.372-3.108M42.158 208c0 1.375.227 1.938.504 1.25.278-.687.278-1.812 0-2.5-.277-.687-.504-.125-.504 1.25M112 210.5v4.5h9v-9h-9zm11 0v4.5h9.833v-9H123zm11 0v4.5h10v-9h-10zm-90-.792c0 1.913 5.448 5.292 8.534 5.292 3.126 0 1.461-3.6-2.284-4.94a694 694 0 0 1-5-1.808c-.728-.271-1.25.337-1.25 1.456m162.25.249c-3.286 1.145-4.25 1.987-4.25 3.71 0 2.069.233 2.152 3.25 1.15 4.008-1.331 6.052-3.143 5.596-4.961-.291-1.162-1.016-1.146-4.596.101M56 213.883c0 1.919 2.52 3.078 6.75 3.103 3.664.023 2.938-3.598-.875-4.361-4.884-.977-5.875-.765-5.875 1.258m136.75-1.167c-1.908.289-2.75 1.009-2.75 2.35 0 1.446.693 1.931 2.75 1.92 4.711-.023 7.25-1.11 7.25-3.103 0-1.927-1.083-2.101-7.25-1.167M67 215.642c0 1.836.668 2.21 4.5 2.515 4.053.322 4.5.143 4.5-1.799 0-1.836-.668-2.21-4.5-2.515-4.053-.322-4.5-.143-4.5 1.799m116.75-1.837c-4.278.274-4.75.546-4.75 2.731 0 2.315.218 2.397 4.75 1.804 5.617-.735 5.502-.667 5.081-3.004-.276-1.531-1.121-1.785-5.081-1.531M77.999 216.75C78 218.783 78.482 219 83 219c4.249 0 5-.286 5-1.903 0-1.572-.873-1.964-5.001-2.25-4.622-.321-5-.177-5 1.903m11.001.633c0 2.474.274 2.617 5 2.617 4.333 0 5-.267 5-2 0-1.512-.671-2.003-2.75-2.014-1.513-.007-3.763-.285-5-.616-1.914-.513-2.25-.212-2.25 2.013m70.25-1.563c-1.446.205-2.25 1.009-2.25 2.25 0 1.621.721 1.93 4.5 1.93 4.08 0 4.5-.223 4.5-2.394 0-2.455-.714-2.644-6.75-1.786m8.75 1.476c0 2.148.305 2.261 4.739 1.75 3.447-.397 4.829-1.023 5.073-2.296.283-1.481-.446-1.75-4.739-1.75-4.624 0-5.073.203-5.073 2.296m-67.29.704c.423 1.616 1.364 2 4.907 2 3.716 0 4.383-.304 4.383-2 0-1.728-.667-2-4.906-2-4.414 0-4.854.201-4.384 2m11.29.417c0 2.197.408 2.416 4.5 2.416s4.5-.219 4.5-2.416-.408-2.417-4.5-2.417-4.5.219-4.5 2.417m11 .083c0 2.489.219 2.596 4.75 2.305 3.982-.256 4.75-.628 4.75-2.305s-.768-2.049-4.75-2.305c-4.531-.291-4.75-.184-4.75 2.305m11 0c0 2.333.333 2.5 5 2.5s5-.167 5-2.5-.333-2.5-5-2.5-5 .167-5 2.5m11-.5c0 1.733.667 2 5 2s5-.267 5-2-.667-2-5-2-5 .267-5 2"/></svg>