<svg xmlns="http://www.w3.org/2000/svg" width="256" height="256"><path fill-opacity=".016" d="M0 128.004v128.004l128.25-.254 128.25-.254.254-127.75L257.008 0H0v128.004m.485.496c0 70.4.119 99.053.265 63.672.146-35.38.146-92.98 0-128C.604 29.153.485 58.1.485 128.5" fill="#1976D2" fill-rule="evenodd"/><path fill-opacity=".183" d="M105 30.894C91.613 35.428 81.633 41.51 72.381 50.772 56.305 66.866 48.047 88.222 49.3 110.459c.966 17.146 6.018 30.755 16.509 44.475 14.837 19.403 37.1 30.222 62.191 30.222 13.416 0 23.121-2.15 34.582-7.663 19.867-9.556 36.171-29.487 42.122-51.493 2.714-10.035 2.455-30.106-.522-40.455-6.908-24.015-24.075-42.932-47.93-52.816-7.696-3.188-7.889-3.213-26.752-3.455-16.326-.209-19.774.019-24.5 1.62m18.041 29.821c-3.614 15.921-5.854 23.954-5.934 21.285-.042-1.375.818-6.736 1.911-11.914s1.858-9.543 1.7-9.701c-.158-.158-4.067 12.628-8.688 28.414a17098.683 17098.683 0 0 1-9.668 32.951c-.696 2.337-1.116 4.25-.932 4.25.184 0 2.225-2.901 4.535-6.446 2.309-3.545 4.731-6.887 5.381-7.426.65-.539 3.988-1.12 7.418-1.29l6.236-.309V92h-4c-3.778 0-4-.167-4-3s.222-3 4-3 4-.167 4-3c0-2.667.333-3 3-3s3 .333 3 3c0 2.833.222 3 4 3s4 .167 4 3-.222 3-4 3h-4v18.529l6.236.309c3.43.17 6.768.751 7.418 1.29.65.539 3.072 3.881 5.381 7.426 2.31 3.545 4.351 6.446 4.535 6.446.184 0-.236-1.912-.932-4.25-.697-2.338-5.047-17.165-9.668-32.951-4.621-15.786-8.53-28.573-8.687-28.416-.157.158.637 4.705 1.765 10.106 3.513 16.823 1.653 14.879-2.371-2.478-2.102-9.07-4.078-16.72-4.39-17-.313-.281-.309.614.008 1.989s.819 7.45 1.116 13.5c.589 11.997-.723 9.821-1.96-3.25-.377-3.987-1.03-7.25-1.451-7.25-.421 0-1.074 3.263-1.451 7.25s-1.059 8.825-1.515 10.75c-.801 3.381-.831 3.33-.878-1.5-.026-2.75.333-8.6.798-13s.725-8.128.577-8.285c-.147-.157-1.268 4.118-2.49 9.5M113 55c-1.099.71-.362.973 2.75.985 2.338.008 4.25-.435 4.25-.985 0-1.276-5.026-1.276-7 0m23 0c0 .55 1.912.993 4.25.985 3.112-.012 3.849-.275 2.75-.985-1.974-1.276-7-1.276-7 0m-33.965 2.67c-7.928 3.95-18.108 14.036-22.387 22.181-4.866 9.259-6.661 16.789-6.582 27.609l.066 9.04 1.469-5.467c2.549-9.484 9.726-18.491 17.591-22.074 2.357-1.075 2.6-1.783 3.02-8.814.527-8.826 2.767-13.998 8.986-20.744 2.231-2.421 3.863-4.401 3.626-4.401-.237 0-2.842 1.201-5.789 2.67m49.667 1.622c6.319 6.856 8.557 11.991 9.086 20.853.42 7.031.663 7.739 3.02 8.814 7.865 3.583 15.042 12.59 17.591 22.074l1.469 5.467.066-9.04c.076-10.423-1.615-17.904-6.019-26.628-5.006-9.918-16.088-20.499-25.653-24.496l-3.717-1.553 4.157 4.509m-41.952-.569c1.787.222 4.713.222 6.5 0 1.787-.221.325-.403-3.25-.403s-5.037.182-3.25.403m30 0c1.787.222 4.713.222 6.5 0 1.787-.221.325-.403-3.25-.403s-5.037.182-3.25.403M104.5 62c-.39.631 1.99 1 6.441 1 4.039 0 7.059-.428 7.059-1 0-.563-2.814-1-6.441-1-3.543 0-6.719.45-7.059 1m33.5 0c0 .572 3.02 1 7.059 1 4.451 0 6.831-.369 6.441-1-.34-.55-3.516-1-7.059-1-3.627 0-6.441.437-6.441 1m-49 8.69c-4.812 5.265-5.066 5.788-3.409 7 1.674 1.224 1.646 1.31-.431 1.31-3.143 0-3.852 2.752-1.353 5.251 1.77 1.771 2.325 1.884 3.689.753.882-.733 1.492-2.271 1.355-3.418-.137-1.147.29-3.069.95-4.27C90.46 76.114 91 74.49 91 73.705c0-.784 1.111-3.064 2.47-5.065 3.689-5.436 1.422-4.396-4.47 2.05M101.5 66c-.391.633 2.137 1 6.882 1 4.125 0 7.778-.45 8.118-1 .391-.633-2.137-1-6.882-1-4.125 0-7.778.45-8.118 1m38 0c.34.55 3.993 1 8.118 1 4.745 0 7.273-.367 6.882-1-.34-.55-3.993-1-8.118-1-4.745 0-7.273.367-6.882 1m22.105 3.75c1.4 2.063 2.792 4.987 3.095 6.5.559 2.795 2.547 3.513 5.153 1.862 1.039-.658 1.097-1.337.251-2.917-1.082-2.022-9.216-9.195-10.427-9.195-.339 0 .528 1.688 1.928 3.75m-58.325-.014c2.629.207 6.679.204 9-.005 2.321-.21.17-.379-4.78-.376-4.95.003-6.849.175-4.22.381m41 0c2.629.207 6.679.204 9-.005 2.321-.21.17-.379-4.78-.376-4.95.003-6.849.175-4.22.381M98 73c0 .583 3.314 1 7.941 1 4.368 0 8.219-.45 8.559-1 .394-.637-2.49-1-7.941-1-5.039 0-8.559.411-8.559 1m43.5 0c.34.55 4.191 1 8.559 1 4.627 0 7.941-.417 7.941-1 0-.589-3.52-1-8.559-1-5.451 0-8.335.363-7.941 1M97 77c0 .583 3.314 1 7.941 1 4.368 0 8.219-.45 8.559-1 .394-.637-2.49-1-7.941-1-5.039 0-8.559.411-8.559 1m45.5 0c.34.55 4.191 1 8.559 1 4.627 0 7.941-.417 7.941-1 0-.589-3.52-1-8.559-1-5.451 0-8.335.363-7.941 1m25.75 2.662c-1.842.743-1.521 5.02.433 5.77 2.176.835 5.812-2.7 4.987-4.849-.592-1.544-2.903-1.936-5.42-.921m-67.474 1.071c2.352.212 5.952.209 8-.006s.124-.388-4.276-.384c-4.4.003-6.076.179-3.724.39m47 0c2.352.212 5.952.209 8-.006s.124-.388-4.276-.384c-4.4.003-6.076.179-3.724.39M97 84c0 .571 2.98 1 6.941 1 3.818 0 7.219-.45 7.559-1 .391-.633-2.156-1-6.941-1-4.373 0-7.559.422-7.559 1m47.5 0c.34.55 3.741 1 7.559 1 3.961 0 6.941-.429 6.941-1 0-.578-3.186-1-7.559-1-4.785 0-7.332.367-6.941 1m-65.961 5.182c-.847 2.849-1.519 6.337-1.495 7.75.04 2.319.245 2.181 2.116-1.432 1.139-2.2 3.031-5.049 4.205-6.331 2.104-2.296 2.106-2.351.194-3.75-2.942-2.15-3.357-1.839-5.02 3.763m94.023-3.602c-1.44 1.441-1.27 1.944 1.929 5.68 1.93 2.255 3.509 4.667 3.509 5.361s.512 1.578 1.138 1.965c1.428.882.394-5.216-1.825-10.761-1.693-4.231-2.42-4.575-4.751-2.245M97 88c0 .564 2.833 1 6.5 1s6.5-.436 6.5-1c0-.564-2.833-1-6.5-1s-6.5.436-6.5 1m49 0c0 .564 2.833 1 6.5 1s6.5-.436 6.5-1c0-.564-2.833-1-6.5-1s-6.5.436-6.5 1m-55.349 3.75c-.256.412 2.53.626 6.191.474 11.6-.481 12.961-.899 3.467-1.064-5.055-.088-9.401.178-9.658.59m58.849-.116c7.07.74 16.279.807 15.849.116-.257-.412-4.603-.678-9.658-.59-5.055.088-7.841.301-6.191.474M86.5 95c-.398.644 3.323 1 10.441 1 6.706 0 11.059-.394 11.059-1 0-.603-4.147-1-10.441-1-5.882 0-10.711.437-11.059 1m61.5 0c0 .606 4.353 1 11.059 1 7.118 0 10.839-.356 10.441-1-.348-.563-5.177-1-11.059-1-6.294 0-10.441.397-10.441 1m-65.5 4c-.399.646 3.823 1 11.941 1 7.706 0 12.559-.386 12.559-1 0-.611-4.647-1-11.941-1-6.882 0-12.203.424-12.559 1m66.5 0c0 .614 4.853 1 12.559 1 8.118 0 12.34-.354 11.941-1-.356-.576-5.677-1-12.559-1-7.294 0-11.941.389-11.941 1m-62.75 3.742c3.713.192 9.787.192 13.5 0 3.713-.193.675-.35-6.75-.35s-10.463.157-6.75.35m70 0c3.713.192 9.787.192 13.5 0 3.713-.193.675-.35-6.75-.35s-10.463.157-6.75.35M78.5 106c-.4.648 4.156 1 12.941 1 8.373 0 13.559-.383 13.559-1 0-.615-4.98-1-12.941-1-7.549 0-13.198.417-13.559 1m72.5 0c0 .617 5.186 1 13.559 1 8.785 0 13.341-.352 12.941-1-.361-.583-6.01-1-13.559-1-7.961 0-12.941.385-12.941 1m-74 4c0 .617 5.167 1 13.5 1s13.5-.383 13.5-1-5.167-1-13.5-1-13.5.383-13.5 1m75 0c0 .617 5.167 1 13.5 1s13.5-.383 13.5-1-5.167-1-13.5-1-13.5.383-13.5 1m-32 2.695c0 .565-1.237.873-2.75.685-2.42-.302-2.473-.255-.441.389 1.27.402 2.282 1.069 2.25 1.481-.163 2.07.158 2.025 1.026-.145.527-1.318.723-2.63.436-2.917-.286-.287-.521-.059-.521.507m5.75.303c.688.771 1.25 3.112 1.25 5.202 0 3.617-.156 3.801-3.25 3.815-1.787.009-3.808.37-4.49.803-.685.435 1.215.764 4.249.735l5.489-.053.001-4.872c.001-4.058.235-4.679 1.398-3.714.768.638 1.213 2.155.989 3.373-.225 1.217-.14 1.648.188.957s1.008-1.002 1.511-.691c.503.311.922-.249.93-1.244.012-1.396.212-1.499.875-.452.555.875 1.088.988 1.501.319.798-1.292-1.02-2.523-2.435-1.649-1.431.884-4.096-1.484-3.253-2.89.374-.625-.08-.519-1.011.235-1.408 1.142-1.986 1.151-3.442.049-1.489-1.127-1.563-1.115-.5.077m6.25-.615c0 .211.901.619 2.001.907 1.101.288 1.75.115 1.441-.383-.538-.871-3.442-1.313-3.442-.524m-56.002 1.367c-.002.412 4.161.63 9.25.484 16.795-.484 18.449-.871 4.502-1.054-7.562-.099-13.751.158-13.752.57m61.56.157c-.309.498.34.671 1.441.383 2.335-.611 2.63-1.29.56-1.29-.793 0-1.693.408-2.001.907m19.442-.243c10.827.73 23.004.775 23.002.086-.001-.412-6.189-.669-13.752-.57-7.562.099-11.725.317-9.25.484m-34.397 2.169c-.283.459.12.834.897.834s1.18-.375.897-.834c-.283-.458-.687-.833-.897-.833-.21 0-.614.375-.897.833m20.491-.157c.467 2.689-.121 3.546-1.594 2.324-.946-.785-1.5-.852-1.5-.181 0 1.745 1.666 2.245 4.158 1.246 1.288-.516 1.753-.967 1.033-1.002-.72-.034-1.05-.482-.734-.994.317-.512.107-1.22-.465-1.574-.573-.354-.977-.273-.898.181M76 117.065c0 .532 5.598.935 13 .935s13-.403 13-.935c0-.533-5.598-.936-13-.936s-13 .403-13 .936m34.703.268c-.336.874.055 1.37 1.018 1.293.86-.069 1.75.4 1.977 1.042.26.733-.528 1.065-2.114.891-1.391-.153-2.29.108-1.999.579.502.811 11.195.416 12.057-.447.223-.223-.28-.975-1.118-1.671-1.136-.943-1.524-.962-1.524-.075 0 1.451-3.763.464-6.126-1.606-1.404-1.23-1.702-1.231-2.171-.006m43.297-.268c0 .532 5.598.935 13 .935s13-.403 13-.935c0-.533-5.598-.936-13-.936s-13 .403-13 .936m-31 2.494c0 .857.45 1.281 1 .941.55-.34 1-1.041 1-1.559s-.45-.941-1-.941-1 .702-1 1.559m12.554-.222c-1.006.736-1.578 1.973-1.271 2.75.44 1.113.576 1.073.638-.184.043-.879 1.091-2.086 2.329-2.683 1.238-.596 1.774-1.115 1.191-1.152-.582-.038-1.882.534-2.887 1.269M76 121c0 .611 4.647 1 11.941 1 6.882 0 12.203-.424 12.559-1 .399-.646-3.823-1-11.941-1-7.706 0-12.559.386-12.559 1m79.5 0c.356.576 5.677 1 12.559 1 7.294 0 11.941-.389 11.941-1 0-.614-4.853-1-12.559-1-8.118 0-12.34.354-11.941 1m-17.25.736c-2.248.775-1.319 1.923 2.5 3.09 5.859 1.79 9.793 1.861 8.74.158-.346-.559-1.047-.758-1.559-.441-.512.316-.938-.014-.946-.734-.012-1.015-.214-.996-.899.087-.489.771-1.605 1.119-2.496.777-.886-.34-1.926-.597-2.311-.572-.386.026-.943-.593-1.24-1.374-.296-.782-1.101-1.228-1.789-.991m-7.437.947c.721.289 1.584.253 1.916-.079.332-.332-.258-.568-1.312-.525-1.165.048-1.402.285-.604.604m-54.704 1.759c.701.701 22.912.87 23.603.18.342-.342-4.929-.622-11.712-.622-6.783 0-12.134.199-11.891.442m38.704.241c.721.289 1.584.253 1.916-.079.332-.332-.258-.568-1.312-.525-1.165.048-1.402.285-.604.604m41.475-.061c.691.69 22.902.521 23.603-.18.243-.243-5.108-.442-11.891-.442s-12.054.28-11.712.622m-79.29 3.628c.001.412 4.84.674 10.752.582 10.92-.171 9.618-.564-3.502-1.059-3.989-.15-7.251.065-7.25.477M168 128l-10.5.609 10.75.195c6.63.121 10.75-.187 10.75-.804 0-.55-.113-.912-.25-.804-.137.107-4.975.469-10.75.804m-89.5 4c.34.55 4.615 1 9.5 1s9.16-.45 9.5-1c.396-.641-3.009-1-9.5-1s-9.896.359-9.5 1m80 0c.34.55 4.615 1 9.5 1s9.16-.45 9.5-1c.396-.641-3.009-1-9.5-1s-9.896.359-9.5 1m-69 2.999-9 .576 8 .463c9.592.554 10.359 2.462.989 2.462-3.571 0-6.492.338-6.491.75.001.412 2.702.75 6.002.75 3.333 0 6 .444 6 1 0 .55-2.138 1.007-4.75 1.015-3.435.011-4.335.284-3.25.985 2.273 1.469 38.312 1.288 39.8-.2.933-.933 1.467-.933 2.4 0 1.488 1.488 37.527 1.669 39.8.2 1.085-.701.185-.974-3.25-.985-2.613-.008-4.75-.465-4.75-1.015 0-.556 2.667-1 6-1 3.3 0 6.001-.338 6.002-.75.001-.412-2.92-.75-6.491-.75-9.12 0-8.191-1.893 1.227-2.5 7.356-.474 7.029-.54-6.238-1.27-15.071-.829-57.324-.671-72 .269m15.507 1.997c-.65.401-1.03 1.804-.844 3.117.29 2.057.884 2.387 4.292 2.387 3.367 0 4.059-.372 4.65-2.5.639-2.295.704-2.321.795-.309.151 3.321 2.084 3.865 2.2.618.099-2.807.1-2.807.795-.309.382 1.375 1.301 2.5 2.041 2.5 1.919 0 3.764-3.203 2.542-4.412-1.206-1.193-14.844-2.098-16.471-1.092m32.641.689c-.199.199-.16 1.419.087 2.711.395 2.062.978 2.332 4.789 2.211 2.387-.076 4.667-.465 5.066-.864.399-.399 1.29-.258 1.979.314 1.612 1.338 2.494-.101 1.766-2.883-.608-2.326-2.325-3.001-2.35-.924-.012.988-.184.985-.819-.015-.711-1.122-9.488-1.58-10.518-.55m-18.569 1.898c.048 1.165.285 1.402.604.605.289-.722.253-1.585-.079-1.917-.332-.332-.568.258-.525 1.312M107 140c-.901.582-1.025.975-.309.985.655.008 1.469-.435 1.809-.985.767-1.242.421-1.242-1.5 0m15.667.667c-.367.366-.667 1.131-.667 1.7 0 .626.466.567 1.183-.15.651-.651.951-1.416.667-1.7-.284-.285-.817-.217-1.183.15m-.861 7.564c-7.084 3.768-16.721 4.711-24.306 2.38l-5-1.537 2.5 1.998c3.497 2.797 10.517 6.317 17 8.525 4.002 1.363 8.36 1.874 16 1.874 7.64 0 11.998-.511 16-1.874 6.483-2.208 13.503-5.728 17-8.525l2.5-1.998-5 1.537c-7.372 2.266-16.98 1.383-24.199-2.225-3.177-1.587-6.007-2.953-6.289-3.034-.281-.082-3.074 1.214-6.206 2.879M93.5 146.926c1.1.44 7.175.8 13.5.8s12.4-.36 13.5-.8c1.128-.451-4.758-.799-13.5-.799s-14.628.348-13.5.799m42 0c1.1.44 7.175.8 13.5.8s12.4-.36 13.5-.8c1.128-.451-4.758-.799-13.5-.799s-14.628.348-13.5.799m-114.25 4.383L0 153.354V193l2.75-.01c3.465-.013 25.576-1.804 30.25-2.45l3.5-.484-.188 10.222c-.104 5.622.26 11.391.808 12.821 2.094 5.456 11.71 8.552 34.38 11.069 16.567 1.839 96.433 1.839 113 0 20.983-2.329 28.763-4.487 32.978-9.144 1.672-1.847 2.015-3.874 2.248-13.269.151-6.099.387-11.177.524-11.285.138-.107 3.4.152 7.25.577 3.85.425 11.95.926 18 1.113l11 .34.271-20.227c.239-17.915.093-20.158-1.277-19.632-.852.327-12.474-.423-25.828-1.666-24.399-2.271-31.644-2.172-35.281.483-1.675 1.223-1.921 3.054-2.206 16.415-.279 13.042-.544 15.103-2 15.534-13.941 4.119-110.513 4.101-124.429-.023-1.554-.461-1.75-2.02-1.75-13.886 0-7.352-.429-14.495-.952-15.873-1.956-5.144-8.599-5.512-41.798-2.316m83.5-1.603c1.237.238 3.263.238 4.5 0 1.237-.239.225-.434-2.25-.434s-3.487.195-2.25.434m42 0c1.238.238 3.262.238 4.5 0 1.238-.239.225-.434-2.25-.434s-3.488.195-2.25.434m-20.739 2.781c-1.78 2.144-.445 6.513 1.989 6.513s3.769-4.369 1.989-6.513c-.679-.818-1.574-1.487-1.989-1.487-.415 0-1.31.669-1.989 1.487M.422 173c0 11.275.146 15.887.324 10.25.178-5.637.178-14.863 0-20.5-.178-5.637-.324-1.025-.324 10.25M119.5 154.004c-1.1.47-4.025.924-6.5 1.007l-4.5.152 3.31 1.446c1.821.795 5.344 1.725 7.831 2.065 4.492.616 4.518.602 4.19-2.2-.37-3.15-1.386-3.73-4.331-2.47m13.198-.368c-1.226 1.226-.747 5.364.62 5.364 2.14 0 12.1-3.103 13.132-4.091.575-.55-1.267-.909-4.668-.909-3.09 0-6.241-.239-7.002-.531-.762-.292-1.698-.217-2.082.167m-34.619 13.947c.048 1.165.285 1.402.604.605.289-.722.253-1.585-.079-1.917-.332-.332-.568.258-.525 1.312m34.116 6.917c.02 1.65.244 2.204.498 1.231.254-.973.237-2.323-.037-3-.274-.677-.481.119-.461 1.769" fill="#1976D2" fill-rule="evenodd"/><path fill-opacity=".615" d="M106.5 30.872c-36.961 10.653-61.58 47.752-56.508 85.151 2.552 18.812 9.447 32.643 22.92 45.977 16.022 15.858 33.071 22.965 55.088 22.965 21.049 0 38.292-6.858 53.71-21.362 36.22-34.072 32.257-92.264-8.252-121.17-11.021-7.865-26.286-13.572-35.602-13.311-4.131.116-4.048.167 1.616.992 8.451 1.231 20.032 5.284 27.576 9.651 3.564 2.063 10.519 7.764 15.537 12.735 7.697 7.625 9.8 10.452 13.76 18.5 6.221 12.642 8.657 22.616 8.648 35.41-.016 22.664-7.811 40.627-24.475 56.401-9.228 8.735-21.405 15.577-33.518 18.833-8.937 2.403-29.063 2.403-38 0-12.113-3.256-24.29-10.098-33.518-18.833-16.562-15.677-24.434-33.825-24.467-56.401-.019-12.791 2.412-22.753 8.64-35.41 3.963-8.054 6.059-10.87 13.766-18.5 5.001-4.95 11.672-10.514 14.824-12.365 6.967-4.09 20.559-8.888 28.446-10.042l5.809-.849-5-.051c-2.75-.028-7.7.728-11 1.679m19.139 2.822c-.351.352-.639 3.077-.639 6.056 0 3.886.353 5.3 1.25 5.005.688-.226 1.397-1.415 1.577-2.642.215-1.464.902-2.116 2-1.897 1.089.217 1.564 1.111 1.36 2.559-.209 1.484.207 2.225 1.25 2.225 1.228 0 1.563-1.179 1.563-5.5 0-3.025-.45-5.5-1-5.5s-1 .9-1 2c0 1.333-.667 2-2 2-1.313 0-2-.667-2-1.941 0-2.087-1.318-3.408-2.361-2.365M114 35.015c-1.256.825-1.143 1.083.691 1.586 1.788.491 2.315 1.596 2.867 6.013.685 5.488 1.735 7.339 3.001 5.291.383-.621.077-1.521-.681-2.001-.758-.481-.925-.88-.371-.889.579-.008.855-1.929.65-4.515-.287-3.608-.041-4.5 1.242-4.5.881 0 1.601-.45 1.601-1 0-1.287-7.034-1.275-9 .015m24.062 4.712c-3.14 5.043-3.21 5.983-.355 4.739 2.453-1.069 4.475-.599 5.918 1.374 1.993 2.725 2.444.838 1.237-5.173-.714-3.554-1.645-5.667-2.498-5.667-.748 0-2.684 2.127-4.302 4.727m-34.36-2.096c-.347.348-.161 1.511.414 2.586 1.488 2.78.588 3.125-2.276.872-4.097-3.223-5.213-1.253-2.706 4.779 1.476 3.552 2.498 4.9 3.192 4.206.693-.693.64-1.854-.167-3.625l-1.187-2.605 2.918 2.078c5.324 3.791 6.231 2.58 3.474-4.639-1.594-4.173-2.368-4.945-3.662-3.652m45.985 2.575c-3.01 7.204-2.995 7.435.537 8.746 1.802.668 4.043 1.618 4.98 2.111 1.023.538 1.934.522 2.282-.04.921-1.491 3.585.034 4.566 2.613 1.47 3.868 2.631 2.719 3.339-3.307.909-7.734-.246-8.508-5.847-3.918-2.499 2.047-4.544 3.251-4.544 2.675 0-.576-1.125-1.33-2.5-1.675-2.96-.743-2.871-.278-.932-4.92 1.046-2.503 1.235-4.088.569-4.754-.667-.667-1.483.156-2.45 2.469m-9.144-.275c-.317.512-.118 1.213.441 1.559.559.345 1.016-.074 1.016-.931 0-1.757-.6-2.015-1.457-.628M88.648 44.76c-.258.418.087 3.231.767 6.25 1.215 5.397 2.731 6.843 3.451 3.293.493-2.431 2.155-3.336 4.876-2.653 3.649.916 2.605-.911-2.515-4.4-5.018-3.42-5.817-3.722-6.579-2.49m72.895 3.171c-.317.512-.118 1.213.441 1.559.559.345 1.016-.074 1.016-.931 0-1.757-.6-2.015-1.457-.628M91.5 49c.34.55 1.068 1 1.618 1s.722-.45.382-1c-.34-.55-1.068-1-1.618-1s-.722.45-.382 1m76.682 3.396c-3.519 4.9-3.766 5.614-1.932 5.583 1.887-.033 7.173-7.956 6.054-9.075-.586-.586-2.138.729-4.122 3.492M82.015 50.25c.023 1.958 6.576 9.221 7.285 8.074.347-.563-.742-2.89-2.421-5.173-3.054-4.154-4.892-5.25-4.864-2.901m37.958-.233C91.788 54.379 71.03 78.334 71.03 106.5c0 25.219 17.07 47.905 41.47 55.114 3.897 1.151 9.329 1.773 15.5 1.773 16.05 0 29.065-5.402 40.407-16.772 24.215-24.272 21.473-64.648-5.791-85.274-12.384-9.369-28.175-13.563-42.643-11.324m4.153 4.733c-.524 2.063-1.761 7.291-2.75 11.618-2.269 9.933-3.071 8.287-.953-1.956.867-4.194 1.554-8.14 1.526-8.769-.028-.629-4.25 13.032-9.383 30.357a77357.148 77357.148 0 0 1-10.895 36.75c-.86 2.888-1.419 5.25-1.243 5.25.176 0 2.66-3.565 5.521-7.922 6.706-10.215 8.795-10.994 3.771-1.406-2.153 4.107-3.625 7.756-3.273 8.108.352.352 3.883-.223 7.847-1.278 9.807-2.611 15.658-2.65 25.907-.173 4.785 1.157 8.991 1.812 9.347 1.457.355-.356-1.115-4.007-3.268-8.114-5.024-9.588-2.935-8.809 3.771 1.406 2.861 4.357 5.333 7.922 5.494 7.922.371 0 .389.062-11.492-40-5.464-18.425-9.961-32.986-9.994-32.357-.032.629.651 4.575 1.518 8.769s1.405 8.141 1.195 8.771c-.21.63-1.429-3.541-2.709-9.269-3.18-14.227-4.086-15.21-3.607-3.914l.402 9.5-1.083-7.75C129.179 57.487 128.38 54 128 54c-.38 0-1.179 3.487-1.775 7.75l-1.083 7.75.418-9.25c.23-5.087.215-9.25-.032-9.25-.248 0-.879 1.688-1.402 3.75m-47.439.055c-3.056 3.19-3.467 4.708-1.019 3.769 1.097-.421 2.771.429 4.887 2.48 4.418 4.281 5.788 1.926 1.471-2.528-2.004-2.067-2.794-3.552-2.113-3.972 1.269-.784 1.459-2.554.274-2.554-.447 0-2.022 1.262-3.5 2.805M113 54.497c-2.434 1.394-2.375 1.433 2.25 1.468 2.612.019 4.75-.415 4.75-.965s-.413-1-.918-1c-.505 0-1.518-.21-2.25-.468-.733-.257-2.457.177-3.832.965m24.75-.808c-3.485.911-1.64 2.31 3 2.276 4.623-.035 4.683-.074 2.25-1.465-1.375-.786-2.725-1.393-3-1.349-.275.045-1.287.287-2.25.538m-36.243 4.09C82.101 68.104 70.24 90.343 72.601 111.976l.713 6.524 1.322-5.759c.727-3.167 2.044-7.156 2.928-8.864 2.391-4.625 9.349-11.792 13.506-13.913 3.629-1.851 3.665-1.931 4.133-9.22.57-8.893 4.918-17.98 11.157-23.32 5.117-4.38 3.874-4.289-4.853.355m48.133-.355c6.239 5.34 10.587 14.427 11.157 23.32.467 7.265.515 7.375 4.088 9.222 4.35 2.249 11.28 9.305 13.527 13.775.897 1.783 2.225 5.833 2.952 9l1.322 5.759.713-6.524c2.371-21.723-9.559-43.995-29.048-54.226-3.929-2.062-7.496-3.75-7.927-3.75-.431 0 1.016 1.541 3.216 3.424m25.556.874C172.151 61.44 171.075 64 172.8 64c.44 0 1.302-.502 1.916-1.116.821-.821 1.707-.701 3.354.453 2.649 1.855 5.93.639 5.93-2.198 0-1.574-3.806-6.139-5.118-6.139-.269 0-1.928 1.484-3.686 3.298M107 58.5c-1.085 1.308-.396 1.5 5.378 1.5 5.22 0 6.622-.318 6.622-1.5 0-1.147-1.264-1.5-5.378-1.5-3.56 0-5.798.507-6.622 1.5m30 0c0 1.182 1.402 1.5 6.622 1.5 5.774 0 6.463-.192 5.378-1.5-.824-.993-3.062-1.5-6.622-1.5-4.114 0-5.378.353-5.378 1.5m41.51.484c-.737 1.193.199 3.016 1.549 3.016 1.217 0 1.225-2.707.01-3.457-.512-.317-1.213-.118-1.559.441M103.5 62c-.391.633 2.156 1 6.941 1 4.373 0 7.559-.422 7.559-1 0-.571-2.98-1-6.941-1-3.818 0-7.219.45-7.559 1m34.5 0c0 .578 3.186 1 7.559 1 4.785 0 7.332-.367 6.941-1-.34-.55-3.741-1-7.559-1-3.961 0-6.941.429-6.941 1m-69.631 2.56c-1.561 2.382-1.563 2.675-.022 4.215 1.54 1.54 1.856 1.536 4.558-.06 3.358-1.983 4.095-2.107 4.095-.69 0 .563-1.152 1.463-2.56 1.998-2.521.958-2.546 2.977-.036 2.977C76.319 73 79 69.639 79 67.239c0-2.921-3.602-3.909-6.078-1.669-1.064.963-2.262 1.423-2.663 1.022-.401-.401.389-1.588 1.756-2.638 2.471-1.899 2.473-1.91.258-1.932-1.302-.013-2.923 1.041-3.904 2.538m33.043.357C99.916 66.429 101.995 67 109 67c4.4 0 8-.414 8-.921 0-.895-14.763-1.996-15.588-1.162m44.838-.123c-9.855.399-9.24 2.206.75 2.206 4.4 0 8-.423 8-.941 0-1.445-.942-1.582-8.75-1.265m-57.153 5.833c-4.437 5.041-4.727 6.684-1.269 7.193 1.462.215 2.172-.207 2.172-1.29 0-.885.931-3.435 2.07-5.667 1.138-2.231 1.869-4.258 1.623-4.503-.246-.246-2.314 1.675-4.596 4.267m94.403-4.136c-.55.184-2.238.607-3.75.941-3.153.695-3.726 2.568-.785 2.568 2.273 0 4.629 3.515 3.021 4.508-1.064.658-.417 2.492.881 2.492 1.27 0 7.212-9.063 6.596-10.06-.557-.901-3.862-1.149-5.963-.449m-20.97 4.149c1.359 2.001 2.47 4.45 2.47 5.441 0 2.502 1.571 3.219 4.096 1.868 2.071-1.109 1.988-1.295-2.692-6.046-5.718-5.805-7.308-6.324-3.874-1.263m-62.863-1.973C97.876 70.457 99.698 71 107.5 71c6.889 0 8.5-.284 8.5-1.5 0-1.206-1.537-1.5-7.833-1.5-4.309 0-8.134.3-8.5.667M140 69.46c0 1.267 1.52 1.54 8.583 1.54 6.421 0 8.479-.315 8.17-1.25-.275-.831-3.154-1.347-8.583-1.54-6.817-.243-8.17-.036-8.17 1.25m43.51.556c.346.559 1.047.758 1.559.441 1.387-.857 1.129-1.457-.628-1.457-.857 0-1.276.457-.931 1.016M64.24 71.25c.666 2.046 8.777 6.133 9.914 4.996.657-.657-.596-1.881-3.707-3.619-5.188-2.9-6.82-3.262-6.207-1.377M98 73c0 .588 3.5 1 8.5 1s8.5-.412 8.5-1c0-.588-3.5-1-8.5-1s-8.5.412-8.5 1m43 0c0 .588 3.5 1 8.5 1s8.5-.412 8.5-1c0-.588-3.5-1-8.5-1s-8.5.412-8.5 1m47.238 2.766c-5.195 3.332-5.298 5.86-.223 5.457l3.485-.276-2.979 2.497c-1.95 1.634-2.641 2.836-1.998 3.479 1.403 1.403 10.704-.103 11.278-1.826.369-1.107-.35-1.274-3.417-.795l-3.884.607 2.75-2.038c4.15-3.075 3.666-5.276-1-4.547l-3.75.585 2.75-2.038c2.611-1.935 3.625-3.889 2-3.855-.412.009-2.668 1.246-5.012 2.75m-70.159.817c.048 1.165.285 1.402.604.605.289-.722.253-1.585-.079-1.917-.332-.332-.568.258-.525 1.312m19 0c.048 1.165.285 1.402.604.605.289-.722.253-1.585-.079-1.917-.332-.332-.568.258-.525 1.312m-75.876.673c-.573.69-1.334 2.417-1.69 3.838-.586 2.332-.227 2.744 3.703 4.244 2.393.914 4.898 1.662 5.567 1.662 1.963 0 1.396-1.808-.783-2.5-2.872-.912-2.464-2.239.916-2.982 1.605-.352 3.179-1.323 3.499-2.158.468-1.219.017-1.394-2.289-.888-2.091.46-3.034.209-3.468-.92-.716-1.866-4.004-2.045-5.455-.296M97 77c0 .588 3.5 1 8.5 1s8.5-.412 8.5-1c0-.588-3.5-1-8.5-1s-8.5.412-8.5 1m45 0c0 .588 3.5 1 8.5 1s8.5-.412 8.5-1c0-.588-3.5-1-8.5-1s-8.5.412-8.5 1m-79.37 2.523c-.925 2.408.438 4.107 1.612 2.009.621-1.11.619-2.071-.006-2.696-.627-.627-1.195-.385-1.606.687m19.808.578c-.98 1.584 3.071 5.302 4.979 4.569 2.048-.786 2.049-4.277.001-5.063-2.385-.915-4.222-.733-4.98.494m14.058-.094c-.983 1.59 1.662 2.115 9.024 1.792 4.341-.19 6.971-.753 7.234-1.549.515-1.559-15.299-1.796-16.258-.243m46.74.201c.302.906 2.72 1.292 8.097 1.292 10.542 0 10.391-1.922-.18-2.292-6.475-.227-8.251-.002-7.917 1m26.014-.502c-2.624.505-3.005 3.423-.695 5.339 1.295 1.075 1.885.96 3.538-.694 1.789-1.789 1.825-5.591.05-5.215-.354.075-1.655.331-2.893.57m-43.541.918c-.39.39-.709 1.872-.709 3.293 0 2.317-.385 2.583-3.737 2.583-3.317 0-3.739.281-3.75 2.5-.011 2.17.482 2.541 3.737 2.81l3.75.311v9.832c0 7.818.307 9.951 1.5 10.409 3.78 1.45 4.5-.216 4.5-10.409v-9.832l3.75-.311c3.251-.269 3.75-.643 3.75-2.81 0-2.19-.433-2.5-3.5-2.5-3.111 0-3.556-.333-4-3-.487-2.923-3.569-4.598-5.291-2.876M96 84c0 .583 3.333 1 8 1s8-.417 8-1-3.333-1-8-1-8 .417-8 1m48 0c0 .583 3.333 1 8 1s8-.417 8-1-3.333-1-8-1-8 .417-8 1m-65.358 5.78c-2.052 7.313-2.044 9.634.02 5.72.869-1.65 2.524-4.033 3.676-5.295 1.596-1.748 1.848-2.687 1.057-3.94-1.983-3.145-3.121-2.304-4.753 3.515M173.2 85.2c-1.744 1.744-1.515 2.666 1.55 6.264 1.512 1.775 3.278 4.084 3.923 5.132 1.061 1.723 1.124 1.666.656-.596-1.016-4.911-3.502-12-4.209-12-.396 0-1.26.54-1.92 1.2M57 88.035c0 .57.765 2.204 1.701 3.631 1.667 2.545 1.657 2.582-.5 1.898-1.586-.503-2.201-.288-2.201.769 0 1.475 9.531 4.469 10.654 3.346.867-.867-.63-2.679-2.213-2.679-2.253 0-1.689-1.788.809-2.567 1.237-.387 2.558-1.183 2.934-1.77 1.318-2.056-.258-2.53-3.671-1.104-3.209 1.341-3.517 1.302-4.514-.56-1.13-2.112-2.999-2.713-2.999-.964M97 88c0 .563 2.814 1 6.441 1 3.543 0 6.719-.45 7.059-1 .39-.631-1.99-1-6.441-1-4.039 0-7.059.428-7.059 1m48.5 0c.34.55 3.516 1 7.059 1 3.627 0 6.441-.437 6.441-1 0-.572-3.02-1-7.059-1-4.451 0-6.831.369-6.441 1m47.612 2.087c-2.414.471-4.537 1.005-4.719 1.187-.915.915 1.036 7.726 2.213 7.726.938 0 1.175-.844.786-2.791-.519-2.594-.266-2.858 3.596-3.75 2.285-.527 4.157-1.398 4.158-1.934.005-1.352-.982-1.424-6.034-.438M91 91.521c-2.285 1.326-1.604 1.43 7.919 1.215 7.272-.165 10.544-.614 10.833-1.486.62-1.868-15.466-1.635-18.752.271m55.248-.271c.289.872 3.561 1.321 10.833 1.486 9.523.215 10.204.111 7.919-1.215-3.286-1.906-19.372-2.139-18.752-.271M86.25 94.662c-3.249 1.311-.314 1.838 10.239 1.838 8.269 0 11.623-.35 11.969-1.25.366-.955-2.05-1.231-10.239-1.171-5.896.043-11.281.306-11.969.583m61.292.588c.346.9 3.7 1.25 11.969 1.25 6.319 0 11.489-.289 11.489-.643 0-1.37-3.553-1.857-13.55-1.857-7.899 0-10.272.299-9.908 1.25M82.5 99c-.399.646 3.803 1 11.882 1 7.255 0 12.759-.42 13.118-1 .399-.646-3.803-1-11.882-1-7.255 0-12.759.42-13.118 1m66 0c.359.58 5.863 1 13.118 1 8.079 0 12.281-.354 11.882-1-.359-.58-5.863-1-13.118-1-8.079 0-12.281.354-11.882 1M80 102.5c-1.096 1.321.382 1.5 12.378 1.5 11.442 0 13.622-.24 13.622-1.5 0-1.253-2.042-1.5-12.378-1.5-9.782 0-12.638.315-13.622 1.5m70 0c0 1.259 2.163 1.5 13.469 1.5 11.561 0 13.387-.212 12.893-1.5-.471-1.226-2.931-1.5-13.469-1.5-10.794 0-12.893.244-12.893 1.5m-91.25 3.937c-1.867 1.369-2.368 3.563-.813 3.563.515 0 1.077 1.463 1.25 3.25.373 3.871 2.317 3.449 2.303-.5-.005-1.55.54-2.75 1.25-2.75 1.777 0 1.564-1.416-.49-3.269-1.45-1.307-2.05-1.358-3.5-.294m19.248-.187c-.001.953 3.203 1.178 13.5.946 17.754-.4 17.756-2.196.002-2.196-10.132 0-13.5.312-13.502 1.25m73.002-.304c0 .533 5.897 1.079 13.502 1.25 10.297.232 13.501.007 13.5-.946-.002-.938-3.37-1.25-13.502-1.25-7.818 0-13.5.398-13.5.946m42.75.947c-2.103 2.133-2.224 3.107-.385 3.107.869 0 1.333 1.088 1.277 2.993-.121 4.085 1.781 4.309 2.171.257.173-1.787.735-3.25 1.25-3.25 1.399 0 1.131-1.949-.492-3.571-1.728-1.729-1.649-1.738-3.821.464M76.5 110c-.401.649 4.323 1 13.441 1 8.706 0 14.059-.381 14.059-1 0-.617-5.147-1-13.441-1-7.882 0-13.697.414-14.059 1m75.5 0c0 .619 5.353 1 14.059 1 9.118 0 13.842-.351 13.441-1-.362-.586-6.177-1-14.059-1-8.294 0-13.441.383-13.441 1m-76 3.5c0 1.259 2.167 1.5 13.5 1.5s13.5-.241 13.5-1.5-2.167-1.5-13.5-1.5-13.5.241-13.5 1.5m77 0c0 1.259 2.167 1.5 13.5 1.5s13.5-.241 13.5-1.5-2.167-1.5-13.5-1.5-13.5.241-13.5 1.5m-77.75 3.75c.304.913 3.872 1.25 13.25 1.25s12.946-.337 13.25-1.25c.32-.959-2.761-1.25-13.25-1.25s-13.57.291-13.25 1.25m79 0c.304.913 3.872 1.25 13.25 1.25s12.946-.337 13.25-1.25c.32-.959-2.761-1.25-13.25-1.25s-13.57.291-13.25 1.25M75 121c0 .615 5 1 13 1s13-.385 13-1-5-1-13-1-13 .385-13 1m80 0c0 .615 5 1 13 1s13-.385 13-1-5-1-13-1-13 .385-13 1m-92.735 2.379c-3.157 1.094-4.55 3.411-1.699 2.827 1.739-.356 1.867.961.251 2.577-.651.651-.869 1.499-.484 1.884.385.385 1.198.202 1.806-.406.607-.607 1.653-.894 2.323-.637 2.208.847 3.465-1.869 2.195-4.745-1.078-2.441-1.379-2.544-4.392-1.5M76 124.532c0 1.304 1.733 1.49 11.668 1.25 8.238-.199 11.791-.65 12.084-1.532.316-.954-2.447-1.25-11.669-1.25-10.185 0-12.083.241-12.083 1.532m80.248-.282c.293.882 3.846 1.333 12.084 1.532 9.935.24 11.668.054 11.668-1.25 0-1.291-1.898-1.532-12.083-1.532-9.222 0-11.985.296-11.669 1.25m33.374-.538c-.392.391.321 1.544 1.583 2.562 2.257 1.821 2.259 1.841.129 1.248-2.329-.649-4.135 1.077-2.666 2.546.492.492 2.455 1.16 4.363 1.485 3.364.573 3.408.539 1.469-1.116-1.491-1.272-1.579-1.562-.348-1.14 2.28.78 3.082-.303 1.589-2.147-.868-1.073-.886-1.321-.06-.826.649.39 1.436.295 1.749-.21.312-.506-.849-1.413-2.58-2.017-3.702-1.29-4.281-1.333-5.228-.385M64 126c0 .55.477 1 1.059 1s.781-.45.441-1-.816-1-1.059-1-.441.45-.441 1m13 2.534c0 1.3 1.624 1.49 10.669 1.25 7.435-.198 10.794-.663 11.083-1.534.315-.95-2.247-1.25-10.669-1.25-9.294 0-11.083.248-11.083 1.534m80.248-.284c.289.871 3.648 1.336 11.083 1.534 9.045.24 10.669.05 10.669-1.25 0-1.286-1.789-1.534-11.083-1.534-8.422 0-10.984.3-10.669 1.25M78.5 132c.34.55 4.615 1 9.5 1s9.16-.45 9.5-1c.396-.641-3.009-1-9.5-1s-9.896.359-9.5 1m80 0c.34.55 4.615 1 9.5 1s9.16-.45 9.5-1c.396-.641-3.009-1-9.5-1s-9.896.359-9.5 1m-97.5.893c0 .491.726 1.172 1.613 1.512 1.023.393 1.424 1.346 1.094 2.606-.285 1.093-.153 2.214.296 2.491.882.545 5.997-5.065 5.997-6.579 0-.508-2.025-.923-4.5-.923s-4.5.402-4.5.893m124.598.949c-.286.462 1.089 2.375 3.056 4.25 2.999 2.858 3.469 3.055 2.913 1.219-.501-1.654-.106-2.487 1.613-3.407 2.201-1.178 2.21-1.243.298-1.991-2.704-1.056-7.246-1.097-7.88-.071M80.246 135.25c.261.792 3.316 1.458 8.333 1.817l7.921.566-7.372.184c-6.429.16-7.214.375-6.128 1.683.796.959 3.274 1.565 6.872 1.68l5.628.18-4.775.376c-2.626.207-4.516.793-4.201 1.302.336.544 17.447.927 41.476.927s41.14-.383 41.476-.927c.315-.509-1.575-1.095-4.201-1.302l-4.775-.376 5.628-.18c3.598-.115 6.076-.721 6.872-1.68 1.086-1.308.301-1.523-6.128-1.683l-7.372-.184 7.921-.566c5.017-.359 8.072-1.025 8.333-1.817.326-.988-9.667-1.25-47.754-1.25-38.087 0-48.08.262-47.754 1.25M188.5 136c.34.55.816 1 1.059 1s.441-.45.441-1-.477-1-1.059-1-.781.45-.441 1m-120.847 2.84c-3.472 3.625-3.348 4.549.509 3.778 3.016-.604 3.085-.549 1.5 1.203-3.06 3.381-1.45 3.956 4.838 1.727 1.416-.502 1.136.032-.961 1.828-1.628 1.394-2.652 2.845-2.274 3.222.378.378 1.372.118 2.21-.577 1.326-1.101 1.443-.859.899 1.857-.784 3.923.449 3.96 4.126.122 1.581-1.65 2.367-3 1.746-3-.62 0-1.406.45-1.746 1-1.202 1.945-2.595 1.046-1.512-.977 1.499-2.801-.721-6.242-3.466-5.371-1.747.554-1.834.429-.678-.964 1.661-2.001.664-3.815-1.626-2.957-1.467.549-1.528.41-.419-.955 2.313-2.847-.41-2.791-3.146.064m36.347.66c0 1.93.513 2.497 2.25 2.485 1.819-.013 1.963-.201.75-.985-1.333-.862-1.333-.973 0-1 1.229-.025 1.254-.187.137-.894-1.151-.729-1.151-.948 0-1.406.785-.312.409-.576-.887-.621-1.754-.062-2.25.472-2.25 2.421m5-1.441c0 .582.375.827.833.544.459-.283.834.12.834.897s-.375 1.18-.834.897c-.458-.283-.833-.038-.833.544 0 1.11 2.264 1.461 3.225.501 1.002-1.002-.424-4.442-1.842-4.442-.76 0-1.383.477-1.383 1.059m4.745 1.39c.603 3.154 1.969 3.315 2.549.301l.434-2.25.136 2.266c.111 1.857.658 2.226 3.028 2.045 2.459-.187 2.78-.526 2.141-2.265-.555-1.513-1.796-2.124-4.763-2.347-3.819-.287-3.989-.178-3.525 2.25m24.045-1.906c-.815.815.268 4.457 1.327 4.457.485 0 .876-.562.868-1.25-.022-1.738-1.501-3.901-2.195-3.207m3.006-.006c-.318.318-.345 1.471-.06 2.562.631 2.414 2.764 1.952 2.764-.599 0-1.849-1.633-3.034-2.704-1.963m4.421 1.809c.155 1.882.747 2.327 2.986 2.25 2.27-.078 2.793-.554 2.795-2.546.001-1.906-.265-2.183-1.198-1.25-1.451 1.451-3.165 1.6-2.3.2.34-.55-.078-1-.93-1-1.012 0-1.48.812-1.353 2.346m-26.138.237c.048 1.165.285 1.402.604.605.289-.722.253-1.585-.079-1.917-.332-.332-.568.258-.525 1.312m62.501 1.607c-.844 1.204-1.432 2.25-1.307 2.324.125.073 1.669 1.129 3.431 2.345l3.204 2.211 1.678-2.56c1.578-2.41 1.572-2.678-.109-4.536-2.341-2.586-4.993-2.504-6.897.216m1.99.697c-.769 1.243 2.108 3.43 3.435 2.61.78-.482.758-1.078-.079-2.086-1.341-1.616-2.563-1.807-3.356-.524m-91.129 4.645C93.91 147.643 97.454 148 107 148s13.09-.357 14.559-1.468c1.732-1.31.164-1.468-14.559-1.468-14.723 0-16.291.158-14.559 1.468m28.078 1.853c-5.159 2.664-7.014 3.084-13.5 3.052-5.509-.026-8.856-.624-12.519-2.238l-5-2.202 3.5 2.958c8.629 7.292 22.44 12.045 35 12.045 12.56 0 26.371-4.753 35-12.045l3.5-2.958-5 2.202c-3.669 1.616-7.009 2.212-12.548 2.238-6.53.032-8.434-.4-14.122-3.2-3.617-1.78-6.97-3.17-7.453-3.089-.482.082-3.568 1.538-6.858 3.237m13.922-1.853C135.91 147.643 139.454 148 149 148s13.09-.357 14.559-1.468c1.732-1.31.164-1.468-14.559-1.468-14.723 0-16.291.158-14.559 1.468M179 145.8c0 .44.563 1.398 1.25 2.129 1.028 1.093.761 1.214-1.5.681-1.947-.459-2.75-.26-2.75.683 0 1.748 5.725 5.961 6.468 4.759.316-.511-.223-1.393-1.197-1.96-1.528-.889-1.393-1.035.979-1.062 3.357-.037 3.466-1.008.436-3.856-2.41-2.264-3.686-2.739-3.686-1.374m-75.75 3.928c2.063.216 5.438.216 7.5 0 2.063-.215.375-.392-3.75-.392s-5.812.177-3.75.392m42 0c2.063.216 5.438.216 7.5 0 2.063-.215.375-.392-3.75-.392s-5.812.177-3.75.392M34 150.556c-.825.178-4.511.609-8.19.957-5.824.551-6.745.915-7.114 2.81-.402 2.065-.431 2.055-.56-.19-.112-1.944-.537-2.259-2.386-1.763-1.238.331-3.681.609-5.43.616-2.498.011-3.274.497-3.614 2.264l-.434 2.25-.136-2.25c-.136-2.254-1.593-2.779-4.554-1.643C.216 154.131 0 156.824 0 173.365v19.15l11.75-.687c6.463-.378 14.788-.989 18.5-1.359l6.75-.672.071 3.352c.039 1.843.049 7.273.022 12.067l-.049 8.715 3.408 2.6c7.22 5.507 30.616 8.366 75.048 9.172 54.381.986 93.044-2.738 100.474-9.678l3.026-2.827v-23.401l6.75.672c10.629 1.058 30.349 2.099 30.821 1.626.236-.235.428-9.016.427-19.512l-.002-19.083-3.429-.244c-2.855-.203-3.502.132-3.862 2l-.433 2.244-.136-2.25c-.111-1.841-.727-2.252-3.386-2.264-1.787-.007-4.226-.275-5.418-.595-1.707-.458-2.263-.082-2.614 1.764-.442 2.326-.447 2.327-.582.095-.106-1.76-.79-2.288-3.136-2.425-5.664-.33-8.509-.608-13.654-1.332-4.537-.638-5.212-.502-5.634 1.141-.424 1.649-.493 1.663-.596.116-.095-1.438-1.085-1.75-5.546-1.75-4.837 0-5.478.246-5.864 2.25l-.434 2.25-.136-2.25c-.173-2.868-3.922-3.054-7.249-.36l-2.334 1.89 3.329 3.11c3.933 3.674 6.073 3.969 6.236.86.092-1.741.264-1.571.76.75.353 1.65 1.162 3 1.798 3 .637 0 1.495.338 1.907.75 1.144 1.144-1.172.894-4.108-.443-2.135-.973-2.787-.927-3.531.25-.73 1.153-.923 1.042-.96-.557-.026-1.1-1.158-2.809-2.515-3.797L193 155.907v25.966l3.25.404 3.25.403-3.25.16c-3.248.16-3.25.163-3.25 5.59 0 4.837.246 5.478 2.25 5.864l2.25.434-2.25.136c-2.011.122-2.25.66-2.25 5.066 0 4.318.279 4.985 2.25 5.364l2.25.434-2.25.136c-2.011.122-2.25.66-2.25 5.066 0 4.318.279 4.985 2.25 5.364l2.25.434-2.25.136c-1.737.105-2.25.744-2.25 2.803 0 1.466-.268 2.398-.596 2.07-.328-.327-.57-8.952-.539-19.166.063-20.67.642-19.211-7.115-17.929-3.727.616-3.75.649-3.75 5.422 0 4.472.19 4.832 2.75 5.22l2.75.416-2.75.15c-2.608.142-2.75.404-2.75 5.084 0 4.614.178 4.96 2.75 5.35l2.75.416-2.753.15-2.754.15.114 7.556c.062 4.156-.161 7.831-.497 8.167-.335.336-.61-.333-.61-1.487 0-1.379-.77-2.245-2.25-2.53l-2.25-.434 2.25-.136c2.237-.135 2.25-.231 2.25-16.67v-16.535l-5.129.681c-6.088.807-8.574.956-20.121 1.202L146 187v4.93c0 4.318.279 4.985 2.25 5.364l2.25.434-2.25.136c-2.011.122-2.25.66-2.25 5.066 0 4.318.279 4.985 2.25 5.364l2.25.434-2.25.136c-2.011.122-2.25.66-2.25 5.066 0 4.318.279 4.985 2.25 5.364l2.25.434-2.25.136c-1.737.105-2.25.744-2.25 2.803 0 1.466-.268 2.398-.596 2.07-.328-.327-.57-8.952-.539-19.166l.056-18.571h-10.878l-.294 19.25-.295 19.25-.227-19.24-.227-19.241-5.25.241-5.25.24-.155 18.322c-.086 10.077-.423 18.589-.75 18.917-.327.327-.595-8.004-.595-18.512V187.12H99v4.87c0 4.256.284 4.926 2.25 5.304l2.25.434-2.25.136c-2.011.122-2.25.66-2.25 5.066 0 4.318.279 4.985 2.25 5.364l2.25.434-2.25.136c-2.011.122-2.25.66-2.25 5.066 0 4.318.279 4.985 2.25 5.364 2.234.431 2.234.435.07.57-1.408.088-2.334.933-2.614 2.386-.431 2.238-.434 2.239-.57.066-.098-1.568-.91-2.3-2.886-2.6l-2.75-.416 2.75-.15c2.608-.142 2.75-.404 2.75-5.084 0-4.614-.178-4.96-2.75-5.35l-2.75-.416 2.75-.15c2.608-.142 2.75-.404 2.75-5.084 0-4.614-.178-4.96-2.75-5.35l-2.75-.416 2.75-.15c2.603-.142 2.75-.41 2.75-5.025 0-4.66-.138-4.903-3.125-5.5-1.719-.344-4.226-.625-5.573-.625-2.305 0-2.438.304-2.289 5.25.276 9.187-.296 33.358-.723 30.561-.308-2.013-1.088-2.793-3.101-3.101l-2.689-.41 2.75-.15c2.608-.142 2.75-.404 2.75-5.084 0-4.614-.178-4.96-2.75-5.35l-2.75-.416 2.75-.15c2.608-.142 2.75-.404 2.75-5.084 0-4.614-.178-4.96-2.75-5.35l-2.75-.416 2.75-.15c2.613-.143 2.75-.398 2.75-5.15 0-4.091-.318-5.002-1.75-5.011-.963-.006-3.438-.29-5.501-.631l-3.751-.62.056 16.57.056 16.57 2.695.411 2.695.411-2.68.15c-1.923.108-2.803.786-3.114 2.4-.239 1.238-.495-1.431-.57-5.93-.127-7.638-.285-8.21-2.386-8.614l-2.25-.434 2.25-.136c2.011-.122 2.25-.66 2.25-5.066 0-4.318-.279-4.985-2.25-5.364l-2.25-.434 2.25-.136c2.012-.122 2.25-.66 2.25-5.091 0-5.568 1.516-4.734-12.5-6.873-4.865-.742-5.291-.94-2.25-1.044L63 182v-26.145l-2.75 2.163c-3.963 3.118-13.409 6.808-10.833 4.232.412-.412 1.27-.75 1.907-.75.636 0 1.445-1.35 1.798-3 .496-2.321.668-2.491.76-.75.163 3.109 2.303 2.814 6.236-.86l3.329-3.11-2.334-1.89c-3.276-2.652-6.861-2.478-7.407.36l-.434 2.25-.136-2.25c-.123-2.04-.642-2.25-5.563-2.25-4.327 0-5.519.355-5.884 1.75-.435 1.667-.463 1.667-.573 0-.112-1.685-2.774-2.132-7.116-1.194m45.238 2.606c-2.862 2.862-.211 8.809 3.323 7.453 1.874-.719 1.552-3.745-.47-4.419-.969-.322-1.214.042-.782 1.168.346.9.192 1.636-.34 1.636-1.361 0-1.212-3.732.183-4.594.633-.391 1.753.112 2.489 1.118 1.643 2.247 3.206 1.046 1.722-1.322-1.338-2.134-4.495-2.67-6.125-1.04m46.29-.208c-.324.525-.302 2.1.05 3.5.848 3.378 3.996 3.378 4.844 0 .782-3.116.054-4.454-2.422-4.454-1.035 0-2.147.429-2.472.954m46.472.397c0 2.189 2.128 7.649 2.981 7.649.432 0 1.021-.9 1.309-2 .287-1.1 1.24-2 2.116-2 2.683 0 1.781-1.54-1.94-3.315-4.264-2.033-4.466-2.048-4.466-.334m-39.531 1.748c-1.035 3.26.561 3.812 6.522 2.254 6.872-1.796 8.46-3.216 3.366-3.01-2.122.087-5.064-.181-6.539-.595-2.208-.619-2.8-.38-3.349 1.351M.42 173.5c-.001 11 .145 15.636.325 10.303.179-5.333.18-14.333.001-20C.568 158.136.421 162.5.42 173.5M115 154.906l-5.5.599 3.5 1.197c1.925.659 5.226 1.503 7.336 1.875 3.616.639 3.817.542 3.5-1.689-.378-2.665-1.093-2.825-8.836-1.982m-73.85 2.271c-.091 1.622-.839 2.856-1.9 3.134-1.667.435-1.667.463 0 .573 2.6.172 2.157 4.197-.767 6.971-1.366 1.295-2.483 2.924-2.483 3.619 0 .909-2.365 1.296-8.433 1.378-7.997.109-8.45 0-8.78-2.118-.333-2.144-.367-2.134-.854.266-.278 1.375-.205 3.85.162 5.5l.668 3 .119-2.75L19 174h9.433c8.112 0 9.507.245 9.968 1.75.294.963.508 9.771.475 19.575-.033 9.804.207 18.091.532 18.417.326.325.592-.174.592-1.111 0-1.413.381-1.521 2.25-.637l2.25 1.064-2.25-1.651c-1.804-1.324-2.25-2.625-2.25-6.564 0-4.744.078-4.877 2.25-3.849l2.25 1.064-2.25-1.651c-1.804-1.324-2.25-2.625-2.25-6.564 0-4.744.078-4.877 2.25-3.849l2.25 1.064-2.25-1.651c-1.838-1.349-2.25-2.612-2.25-6.904v-5.252l3.75 1.815c2.063.999 5.55 2.058 7.75 2.353 2.809.378 3.256.299 1.5-.264l-2.5-.802 2.325-.768c1.279-.422 2.129-.964 1.889-1.204s-1.719.051-3.287.647c-1.882.715-3.543.756-4.889.118-1.121-.53-2.872-1.234-3.892-1.564-1.042-.337-1.624-1.197-1.329-1.966.312-.813-.097-1.316-1.008-1.242-.843.069-2.026-.635-2.629-1.565-.854-1.319-.667-2.166.851-3.843 3.015-3.332 5.564-4.424 6.581-2.819.666 1.051.861.963.873-.397.008-.963.54-1.75 1.182-1.75.641 0 .929-.238.638-.528-.29-.29-1.715-.077-3.166.475-2.283.868-2.639.745-2.639-.911 0-1.477.859-2.005 3.75-2.308l3.75-.392-3.684-.168c-3.198-.146-3.738-.53-4.1-2.918l-.416-2.75-.15 2.677m173 .013c-.13 2.337-.641 2.741-3.9 3.082l-3.75.392 3.75.168c3.011.135 3.75.557 3.75 2.143 0 1.722-.339 1.847-2.639.972-1.451-.552-2.876-.765-3.166-.475-.291.29-.003.528.638.528.642 0 1.219 1.012 1.283 2.25.087 1.693.229 1.817.573.5.639-2.444 1.782-2.199 5.545 1.193 2.736 2.465 3.081 3.236 2.128 4.75-.627.994-1.828 1.75-2.671 1.681-.911-.074-1.32.429-1.008 1.242.288.752-.085 1.553-.829 1.78-4.084 1.244-5.244 1.878-4.172 2.281 1.591.598 7.282-2.42 7.976-4.229.431-1.122 2.673-1.448 9.949-1.448H237l.118 2.75.119 2.75.668-3c.367-1.65.44-4.125.162-5.5-.487-2.4-.521-2.41-.854-.266-.33 2.118-.783 2.227-8.78 2.118-6.068-.082-8.433-.469-8.433-1.378 0-.695-1.117-2.324-2.483-3.619-2.899-2.75-3.301-6.504-.767-7.166 1.566-.409 1.573-.469.066-.573-1.028-.071-1.845-1.187-2.1-2.866l-.416-2.75-.15 2.69m-46.069.31c.252 3.371-.022 3.794-1.605 2.48-.838-.696-1.788-1.002-2.109-.68-.738.738 3.445 6.7 4.701 6.7 1.256 0 1.178-1.354-.155-2.687-.783-.783-.73-1.308.191-1.877.738-.456 1.444-.293 1.67.387.467 1.401 2.226 1.585 2.226.233 0-.52-1.14-2.207-2.534-3.75-2.219-2.458-2.515-2.558-2.385-.806M18.15 159.25c-.083 1.512-.712 2.757-1.4 2.765-.896.011-.929.224-.116.75.624.404 1.359 1.635 1.634 2.735.465 1.859.508 1.846.616-.187.089-1.685.861-2.279 3.366-2.59l3.25-.403-3.184-.16c-2.654-.133-3.252-.617-3.6-2.91l-.416-2.75-.15 2.75m67.329.422c-2.115 3.228-.953 5.828 2.606 5.828 3.426 0 5.186-5.097 2.451-7.097-2.615-1.912-3.043-1.805-5.057 1.269m151.639-.485c-.099 2.25-.646 2.752-3.368 3.09l-3.25.403 3.18.16c2.467.124 3.259.665 3.53 2.41.338 2.176.367 2.168.857-.25.278-1.375.205-3.85-.162-5.5-.663-2.977-.669-2.979-.787-.313m-230.968.99c-.091 1.622-.839 2.856-1.9 3.134-1.667.435-1.667.463 0 .573 1.068.071 1.803.992 1.886 2.366l.136 2.25.426-2.191c.309-1.592 1.297-2.301 3.614-2.59l3.188-.399-3.184-.16c-2.654-.133-3.252-.617-3.6-2.91L6.3 157.5l-.15 2.677m243 .01c-.125 2.241-.688 2.753-3.4 3.09l-3.25.403 3.25.16c2.611.129 3.277.603 3.386 2.41l.136 2.25.426-2.189c.234-1.203 1.185-2.389 2.113-2.634 1.578-.416 1.578-.453.005-.561-1.028-.071-1.845-1.187-2.1-2.866l-.416-2.75-.15 2.687M88 160c0 .55.477 1 1.059 1s.781-.45.441-1-.816-1-1.059-1-.441.45-.441 1m-59.62 1.806c.479.775 7.62.385 7.62-.415 0-.215-1.827-.391-4.059-.391s-3.835.363-3.561.806M161.5 163c.708 2.231-1.991 2.959-2.78.75-.245-.687-.766-.954-1.157-.593-.829.766 1.88 6.381 3.587 7.436.802.495.989.048.601-1.436-.654-2.502 1.078-4.052 2.306-2.064 1.635 2.644 2.061.037.491-3-1.776-3.435-4.05-4.25-3.048-1.093m58.5-1.609c0 .8 7.141 1.19 7.62.415.274-.443-1.329-.806-3.561-.806s-4.059.176-4.059.391M86.5 163c.34.55 1.068 1 1.618 1s.722-.45.382-1c-.34-.55-1.068-1-1.618-1s-.722.45-.382 1m6.483 2.058c-3.358 2.785-3.332 3.351.14 3.016.906-.088 1.925.854 2.308 2.135.663 2.216.714 2.226 1.557.291 1.105-2.535 1.251-7.234.245-7.856-.421-.26-2.334.826-4.25 2.414m6.622.53c-.939 2.447-.713 7.412.338 7.412.519 0 1.669-1.012 2.556-2.25l1.613-2.25-.637 2.641c-.959 3.977 1.04 4.291 3.934.619 2.867-3.639 2.973-3.58 1.682.924-.714 2.487-.588 3.295.581 3.744 2.296.881 4.328.68 4.328-.428 0-.55-.725-1-1.611-1-1.3 0-1.485-.676-.955-3.5.588-3.132.427-3.5-1.528-3.5-1.202 0-2.755.779-3.451 1.731-1.112 1.52-1.202 1.398-.744-1 .608-3.177-1.208-3.701-3.403-.981-1.307 1.62-1.368 1.589-.819-.416.69-2.524-.989-4.08-1.884-1.746M58 167.201c-1.925 1.132-5.075 2.682-7 3.444-3.218 1.274-3.258 1.337-.5.793 3.889-.768 9.093-3.243 10.576-5.03 1.488-1.792 1.187-1.715-3.076.793m93.667-1.534c-1.385 1.385-.633 6.281 1.109 7.213 2.197 1.176 5.224-.322 5.224-2.585 0-1.455-.172-1.45-1.831.052-2.024 1.832-3.169 1.285-3.169-1.514 0-1.184.729-1.833 2.059-1.833 1.132 0 1.781-.45 1.441-1-.698-1.13-3.821-1.345-4.833-.333M196 167.14c1.375 1.156 2.369 2.835 2.208 3.731-.231 1.294-.101 1.348.631.262.756-1.118 1.593-1.146 4.609-.15 2.027.669 3.956.946 4.286.617.329-.33-.068-.6-.884-.6-.816 0-4.154-1.342-7.417-2.981-4.513-2.268-5.335-2.478-3.433-.879m-52.965 2.794c-1.321 2.469-1.344 7.066-.035 7.066.55 0 1-.499 1-1.108 0-.683.96-.868 2.5-.481 3.038.762 3.088.277.418-4.043-2.432-3.936-2.525-3.97-3.883-1.434m-97.965.733c-.038 1.191-.476 2.316-.971 2.5-.496.183-.317.87.398 1.527 1.021.939 1.395.828 1.746-.516.246-.94.099-2.603-.328-3.694-.741-1.898-.777-1.89-.845.183m164.814-.151c-.316 1.109-.307 2.749.021 3.646.507 1.388.786 1.423 1.884.234.71-.768.853-1.396.32-1.396-.533 0-1.123-1.012-1.31-2.25-.322-2.129-.371-2.142-.915-.234M6.136 171.677c-.075 1.197-.923 2.382-1.886 2.634-1.566.409-1.573.469-.066.573 1.028.071 1.845 1.187 2.1 2.866l.416 2.75.15-2.687c.125-2.241.688-2.753 3.4-3.09l3.25-.403-3.18-.16c-2.439-.123-3.282-.685-3.614-2.41-.429-2.228-.435-2.229-.57-.073M118 171c0 .55.506 1 1.125 1 .723 0 .905 1.1.509 3.08-.442 2.211-.266 2.966.625 2.673.683-.224 1.383-1.61 1.557-3.08.452-3.816 2.989-3.382 3.371.577.257 2.673.737 3.25 2.704 3.25 3.049 0 4.592-2.438 3.727-5.886-.836-3.333-2.852-2.382-2.427 1.144.17 1.412-.253 2.757-.941 2.988-.814.274-1.25-.615-1.25-2.546 0-2.231-.558-3.116-2.25-3.57-3.447-.924-6.75-.743-6.75.37m15.07 1.687c.099 3.94 1.388 6.999 2.317 5.497.402-.651.453-1.634.113-2.184-.971-1.571.655-1.17 2.677.661 2.012 1.82 3.505 1.251 2.21-.843-.447-.724-.829-2.216-.85-3.317-.028-1.517-.823-2.077-3.287-2.314-2.984-.288-3.244-.084-3.18 2.5m116.066-1c-.104 1.68-.889 2.28-3.386 2.59l-3.25.403 3.184.16c2.654.133 3.252.617 3.6 2.91l.416 2.75.15-2.677c.091-1.622.839-2.856 1.9-3.134 1.561-.408 1.569-.47.07-.573-.925-.064-1.876-1.128-2.114-2.366-.432-2.243-.434-2.243-.57-.063m-113.323.996c.721.289 1.584.253 1.916-.079.332-.332-.258-.568-1.312-.525-1.165.048-1.402.285-.604.604m-77.063 2.889c-1.513.821-2.75 1.941-2.75 2.49 0 .549 1.35 0 3-1.22 4.293-3.174 4.193-3.68-.25-1.27m138.044.996c1.234.865 1.942 2.099 1.576 2.75-.389.694-.087.638.733-.135 1.19-1.122 1.109-1.53-.544-2.75-1.068-.788-2.405-1.433-2.973-1.433-.567 0-.023.706 1.208 1.568m6.206 2.855 2.5 1.506-2.5.152c-1.684.102-1.937.299-.774.604 1.516.397 1.698 1.744 1.5 11.09-.221 10.412-.279 10.652-2.726 11.331-2.5.695-2.5.695.305.794 2.707.097 2.794.263 2.5 4.81-.262 4.052-.654 4.806-2.805 5.4l-2.5.691 2.677.099c1.651.062 2.851.77 3.134 1.85.344 1.317.486 1.193.573-.5.064-1.239.764-2.25 1.557-2.25.793 0 1.693-.408 2.001-.907.309-.498-.34-.671-1.441-.383-1.809.473-2.001.032-2.001-4.593 0-3.789.374-5.117 1.441-5.117.793 0 1.693-.408 2.001-.907.309-.498-.34-.671-1.441-.383-1.806.472-2.001.032-2.001-4.51 0-3.091.482-5.228 1.25-5.538 1-.403 1-.52 0-.583-.839-.053-1.25-1.888-1.25-5.579 0-4.56.299-5.505 1.75-5.53 1.473-.026 1.512-.165.25-.879-.825-.467-2.625-1.147-4-1.512l-2.5-.662 2.5 1.506M18 182.5c0 2.36-.305 2.5-5.43 2.5-4.837 0-5.478-.246-5.864-2.25l-.434-2.25-.136 2.25c-.075 1.238-.698 2.257-1.386 2.265-.909.011-.937.216-.101.75.632.404 1.358 1.86 1.614 3.235.457 2.457.467 2.453.601-.25.131-2.646.342-2.75 5.566-2.75 4.837 0 5.478.246 5.864 2.25.239 1.238.495-.113.57-3 .075-2.887-.089-5.25-.364-5.25s-.5 1.125-.5 2.5m219.286 2.5c-.007 3.025.181 4.488.42 3.25.386-2.004 1.027-2.25 5.864-2.25 5.224 0 5.435.104 5.566 2.75.134 2.703.144 2.707.601.25.256-1.375.982-2.831 1.614-3.235.856-.547.848-.738-.031-.75-.65-.008-1.376-1.027-1.614-2.265l-.434-2.25-.136 2.25c-.123 2.041-.642 2.25-5.57 2.25-5.159 0-5.454-.139-5.85-2.75-.229-1.512-.422-.275-.43 2.75M26 184.1c-3.746.499-3.202.625 3.25.75 4.263.082 7.75-.026 7.75-.241 0-.786-6.622-1.093-11-.509m191.872 1.562c-.754.914-2.722 2.524-4.372 3.577-2.65 1.692-2.713 1.833-.538 1.204 1.354-.392 3.285-1.758 4.29-3.036 1.578-2.006 2.884-2.371 9.538-2.664l7.71-.341-7.628-.201c-6.063-.16-7.909.14-9 1.461M49 192.393c0 .216.675.652 1.5.969.825.316 1.5.139 1.5-.393 0-.533-.675-.969-1.5-.969s-1.5.177-1.5.393m4.813 1.29c.721.289 1.584.253 1.916-.079.332-.332-.258-.568-1.312-.525-1.165.048-1.402.285-.604.604m6.741.287c-1.883.671-1.878.712.139 1.239 2.47.646 5.273-.631 3.141-1.431-.734-.276-2.21-.189-3.28.192m139.259-.287c.721.289 1.584.253 1.916-.079.332-.332-.258-.568-1.312-.525-1.165.048-1.402.285-.604.604m-122 3c.721.289 1.584.253 1.916-.079.332-.332-.258-.568-1.312-.525-1.165.048-1.402.285-.604.604m76.687.412c-2.428.541-1.999.691 2.25.787 2.887.065 5.25-.055 5.25-.265 0-.83-4.661-1.154-7.5-.522m13.5-.268c0 .455 1.35.628 3 .386s3-.614 3-.826c0-.213-1.35-.387-3-.387s-3 .372-3 .827m8.813-.144c.721.289 1.584.253 1.916-.079.332-.332-.258-.568-1.312-.525-1.165.048-1.402.285-.604.604m-71.73.676c1.195 1.03 5.917 1.557 5.917.66 0-.56-1.425-1.019-3.167-1.019-1.741 0-2.979.162-2.75.359M214 199.729c-1.925 1.407-2.676 2.269-1.668 1.915 1.007-.354 2.137-.644 2.509-.644.373 0 1.24-.9 1.927-2 1.515-2.425 1.567-2.439-2.768.729m-165.5 3.72c1.65.751 3.188 1.183 3.417.959.662-.648-.2-1.083-3.417-1.726l-3-.6 3 1.367m5.313 1.234c.721.289 1.584.253 1.916-.079.332-.332-.258-.568-1.312-.525-1.165.048-1.402.285-.604.604m5.187.7c0 .888 4.046 1.352 4.558.523.308-.498-.592-.906-1.999-.906s-2.559.173-2.559.383m18.813 2.3c.721.289 1.584.253 1.916-.079.332-.332-.258-.568-1.312-.525-1.165.048-1.402.285-.604.604m76.687.412c-2.428.541-1.999.691 2.25.787 2.887.065 5.25-.055 5.25-.265 0-.83-4.661-1.154-7.5-.522m13.5-.268c0 .455 1.35.628 3 .386s3-.614 3-.826c0-.213-1.35-.387-3-.387s-3 .372-3 .827m8.813-.144c.721.289 1.584.253 1.916-.079.332-.332-.258-.568-1.312-.525-1.165.048-1.402.285-.604.604m-71.73.676c1.195 1.03 5.917 1.557 5.917.66 0-.56-1.425-1.019-3.167-1.019-1.741 0-2.979.162-2.75.359m108.417 2.819c-1.65 1.117-2.176 1.759-1.168 1.427 1.007-.333 2.197-.605 2.643-.605.446 0 1.07-.675 1.387-1.5.69-1.799.851-1.837-2.862.678m-45.421 2.405c.048 1.165.285 1.402.604.605.289-.722.253-1.585-.079-1.917-.332-.332-.568.258-.525 1.312m-120.079.8c0 .211.9.619 2 .907 1.1.287 2 .115 2-.384 0-.498-.9-.906-2-.906s-2 .173-2 .383m5.813 1.3c.721.289 1.584.253 1.916-.079.332-.332-.258-.568-1.312-.525-1.165.048-1.402.285-.604.604m5.187.7c0 .888 4.046 1.352 4.558.523.308-.498-.592-.906-1.999-.906s-2.559.173-2.559.383m11.813 1.3c.721.289 1.584.253 1.916-.079.332-.332-.258-.568-1.312-.525-1.165.048-1.402.285-.604.604m113 0c.721.289 1.584.253 1.916-.079.332-.332-.258-.568-1.312-.525-1.165.048-1.402.285-.604.604m4 0c.721.289 1.584.253 1.916-.079.332-.332-.258-.568-1.312-.525-1.165.048-1.402.285-.604.604m-33.313 1.335-3 .592 3.013.487c1.657.268 4.132.214 5.5-.121l2.487-.607-2.5-.471c-1.375-.259-3.85-.205-5.5.12m13.5.001c0 .605 1.117.751 2.75.359 3.926-.941 4.058-1.378.417-1.378-1.742 0-3.167.459-3.167 1.019m-62.187.664c.721.289 1.584.253 1.916-.079.332-.332-.258-.568-1.312-.525-1.165.048-1.402.285-.604.604M109 220c0 .55.45 1 1 1s1-.45 1-1-.45-1-1-1-1 .45-1 1" fill="#1976D2" fill-rule="evenodd"/><path fill-opacity=".975" d="M114.813 29.683c.721.289 1.584.253 1.916-.079.332-.332-.258-.568-1.312-.525-1.165.048-1.402.285-.604.604m25 0c.721.289 1.584.253 1.916-.079.332-.332-.258-.568-1.312-.525-1.165.048-1.402.285-.604.604m-30 1c.721.289 1.584.253 1.916-.079.332-.332-.258-.568-1.312-.525-1.165.048-1.402.285-.604.604m35 0c.721.289 1.584.253 1.916-.079.332-.332-.258-.568-1.312-.525-1.165.048-1.402.285-.604.604m-39 1c.721.289 1.584.253 1.916-.079.332-.332-.258-.568-1.312-.525-1.165.048-1.402.285-.604.604m43 0c.721.289 1.584.253 1.916-.079.332-.332-.258-.568-1.312-.525-1.165.048-1.402.285-.604.604m-32.063 3.033c-1.513.229-2.75.864-2.75 1.409 0 .546.5.684 1.112.306 1.549-.957 2.855 1.46 2.873 5.319.008 1.788.516 3.25 1.129 3.25.753 0 .895-1.457.438-4.5-.555-3.7-.397-4.5.887-4.5.858 0 1.561-.45 1.561-1 0-1.012-.324-1.03-5.25-.284m8.812 3.609c-.548 3.256-.446 5.191.313 5.95.833.833 1.125.425 1.125-1.575 0-2.213.451-2.7 2.5-2.7 2 0 2.5.5 2.5 2.5 0 1.375.45 2.5 1 2.5s1-2.475 1-5.5-.45-5.5-1-5.5-1 .9-1 2c0 3.001-4.729 2.775-5.243-.25-.249-1.46-.668-.557-1.195 2.575m12.945 1.254c-1.476 2.518-2.357 4.88-1.958 5.25.399.369.926.109 1.171-.579.718-2.009 4.026-1.441 5.827 1 1.6 2.167 1.637 2.05.997-3.193-1.065-8.732-2.119-9.164-6.037-2.478m-51.066-.024c-1.864 1.494-1.852 1.512.309.465 1.237-.6 2.25-1.3 2.25-1.555 0-.765-.519-.544-2.559 1.09M104 38.435c0 .239.439 1.589.975 3 1.189 3.128.777 3.181-3.003.386-1.621-1.198-3.226-1.901-3.566-1.561-.857.858 2.641 9.74 3.837 9.74.534 0 .647-.788.251-1.75-2.203-5.35-1.975-5.832 1.411-2.983 1.796 1.51 3.646 2.51 4.113 2.222 1.045-.646-1.855-9.489-3.112-9.489-.498 0-.906.196-.906.435m36.639 1.063c-.893 2.327-.832 2.502.861 2.502 1.683 0 1.873-.863.624-2.834-.675-1.064-.975-.997-1.485.332m8.874 2.124c-2.122 5.08-1.925 6.039 1.487 7.228 1.65.575 3 .65 3 .165 0-.484-.9-1.166-2-1.515-2.399-.761-2.436-1.211-.487-5.878.866-2.072 1.086-3.622.514-3.622-.55 0-1.681 1.63-2.514 3.622M166 38.43c0 .275.9.981 2 1.57 1.1.589 2 .845 2 .57s-.9-.981-2-1.57c-1.1-.589-2-.845-2-.57m-88.055 7.898c-3.545 2.931-7.12 6.183-7.945 7.227-.825 1.044 1.2-.428 4.5-3.271 3.3-2.844 7.125-6.08 8.5-7.194 1.375-1.113 2.25-2.038 1.945-2.057-.306-.018-3.456 2.365-7 5.295M173 42.97c1.375 1.18 5.2 4.409 8.5 7.176l6 5.032-5.231-5.007c-2.877-2.754-6.702-5.983-8.5-7.176l-3.269-2.168 2.5 2.143m-83.507 2.041c-.591.957-.103 4.811 1.184 9.35.479 1.687.641 1.64 1.735-.5.867-1.696 1.966-2.308 3.898-2.173 1.479.104 2.69-.157 2.69-.58 0-1.481-8.851-7.158-9.507-6.097m69.007 2.623c-3.417 3.04-3.648 3.479-1.588 3.014 3.045-.688 6.419 1.046 5.697 2.929-.3.783-.119 1.423.403 1.423.932 0 1.312-1.229 2.397-7.75.736-4.421-1.658-4.288-6.909.384m2.574-.223c-.887 1.069-.89 1.585-.011 2.128 1.076.665 2.886-1.064 2.922-2.789.025-1.232-1.657-.851-2.911.661M91 48.878c0 1.167.423 2.122.941 2.122 1.732 0 2.053-1.76.548-3.009-1.239-1.029-1.489-.88-1.489.887m77.168 4.063c-1.742 2.168-2.782 4.179-2.311 4.47.775.479 7.143-6.521 7.143-7.852 0-1.547-1.992-.152-4.832 3.382M82.629 51.25c2.075 3.475 5.866 7.562 6.595 7.112.972-.601-4.938-8.362-6.367-8.362-.536 0-.639.563-.228 1.25m32.567.098c-2.367.634-4.272 1.497-4.234 1.919.037.422-1.591 2.222-3.618 4C103.354 60.766 98 67.673 98 69.321c0 .562 1.399-1.09 3.109-3.672 3.653-5.515 9.83-10.794 15.263-13.045 6.315-2.616 6.939-2.303 6.282 3.146-.531 4.404-.499 4.495.43 1.25 1.814-6.335 2.276-6.647 2.957-2l.659 4.5.15-4.25c.082-2.337.6-4.25 1.15-4.25.55 0 1.068 1.913 1.15 4.25l.15 4.25.659-4.5c.681-4.647 1.143-4.335 2.957 2 .929 3.245.961 3.154.43-1.25-.657-5.449-.033-5.762 6.282-3.146 5.433 2.251 11.61 7.53 15.263 13.045 1.71 2.582 3.109 4.234 3.109 3.672 0-1.648-5.354-8.555-9.344-12.054-2.027-1.778-3.653-3.57-3.612-3.983.278-2.789-21.405-4.195-29.848-1.936M76.653 54.84c-2.85 2.975-3.655 5.236-1.112 3.126 1.297-1.076 2.089-.748 5 2.074C82.443 61.884 84 62.932 84 62.37c0-.562-1.125-2.078-2.5-3.37-2.701-2.538-3.212-4.596-1.299-5.234.798-.266.849-.617.153-1.047-.576-.356-2.242.598-3.701 2.121m22.457 2.91c-6.562 3.879-16.924 14.056-19.621 19.27-2.321 4.49-1.218 3.585 2.358-1.934 4.177-6.446 12.314-13.798 19.71-17.81 3.269-1.772 5.483-3.235 4.92-3.249-.562-.015-3.877 1.661-7.367 3.723m55.333-.579c7.491 4.196 15.59 11.557 19.71 17.915 3.576 5.519 4.679 6.424 2.358 1.934-3.852-7.449-18.585-20.222-26.011-22.55-1.1-.345.674.871 3.943 2.701m21.104 1.775c-2.174 2.23-3.502 4.054-2.95 4.054.552 0 1.532-.529 2.179-1.176.902-.902 1.663-.737 3.259.708 1.561 1.412 2.491 1.626 3.714.855 2.528-1.595 2.539-2.941.048-5.831l-2.297-2.663-3.953 4.053M66.405 58.25 64.5 60.5l2.25-1.905C68.864 56.805 69.455 56 68.655 56c-.19 0-1.202 1.013-2.25 2.25M188.5 58c.995 1.1 2.035 2 2.31 2 .275 0-.315-.9-1.31-2-.995-1.1-2.035-2-2.31-2-.275 0 .315.9 1.31 2m-10 1c-.837 1.354.292 3 2.059 3 1.622 0 1.688-.192.834-2.418-.69-1.799-1.981-2.058-2.893-.582m-60 1c-.34.55-.141 1 .441 1S120 60.55 120 60s-.198-1-.441-1-.719.45-1.059 1m17.5 0c0 .55.477 1 1.059 1s.781-.45.441-1-.816-1-1.059-1-.441.45-.441 1m-72.722 2.25C61.779 64.188 60.836 66 61.326 66c.244 0 1.181-1.125 2.082-2.5 1.686-2.573 1.592-3.476-.13-1.25m57.801.333c.048 1.165.285 1.402.604.605.289-.722.253-1.585-.079-1.917-.332-.332-.568.258-.525 1.312m4.116.917c.02 1.65.244 2.204.498 1.231.254-.973.237-2.323-.037-3-.274-.677-.481.119-.461 1.769m4.963-.5c0 1.375.227 1.938.504 1.25.278-.687.278-1.812 0-2.5-.277-.687-.504-.125-.504 1.25m3.921-.417c.048 1.165.285 1.402.604.605.289-.722.253-1.585-.079-1.917-.332-.332-.568.258-.525 1.312m58.432.794c.946 1.443 1.908 2.623 2.139 2.623.724 0-1.605-3.854-2.759-4.567-.604-.374-.325.501.62 1.944m-123.476.557c-.569 1.064-1.035 2.639-1.035 3.5 0 2.03 4.324 2.085 5.991.077.68-.819 1.635-1.242 2.122-.941 1.609.994.925 3.106-1.363 4.21l-2.25 1.085 2.215.067c2.435.075 4.769-3.228 3.893-5.51-.717-1.869-5.028-1.826-6.599.067-.68.819-1.615 1.255-2.079.968-1.244-.769.059-3.457 1.677-3.457.766 0 1.393-.45 1.393-1 0-1.754-2.891-1.073-3.965.934M116.5 67c-.34.55-.141 1 .441 1S118 67.55 118 67s-.198-1-.441-1-.719.45-1.059 1m21.5 0c0 .55.477 1 1.059 1s.781-.45.441-1-.816-1-1.059-1-.441.45-.441 1m43.656.346C177.127 68.425 176.179 70 180.06 70c2.07 0 3.006 2.034 2.255 4.904-.835 3.193.361 2.526 3.679-2.054 4.941-6.821 4.348-7.573-4.338-5.504M57.951 71.097c-1.15 2.253-1.919 4.268-1.709 4.478.209.21 1.36-1.634 2.556-4.097 2.726-5.609 1.989-5.941-.847-.381m139.251.381c1.196 2.463 2.347 4.307 2.556 4.097.453-.452-3.588-8.575-4.265-8.575-.257 0 .512 2.015 1.709 4.478m-108.695.646c-2.895 3.204-3.422 4.315-2.366 4.984 2.3 1.458 3.859.99 3.859-1.158 0-1.127.687-3.377 1.526-5 2.054-3.972 1.401-3.718-3.019 1.174m73.702-3.624c.239.55 1.258 2.912 2.264 5.25 1.792 4.161 3.727 5.354 5.094 3.141.381-.615-1.201-2.952-3.553-5.25-2.331-2.278-4.044-3.691-3.805-3.141m21.799.474c-1.01.639-1.164 1.27-.475 1.959.689.689 1.415.38 2.251-.958 1.325-2.123.624-2.519-1.776-1.001m-68.444 1.733c-.542 1.425-.428 1.54.56.56.684-.679.991-1.486.683-1.793-.308-.308-.867.247-1.243 1.233M139 69.941c0 .518.445 1.216.989 1.552.566.35.734-.051.393-.941-.665-1.732-1.382-2.049-1.382-.611m-74.493 1.048c-.284.459 1.568 2 4.114 3.423C73.803 77.308 74 77.369 74 76.085c0-1.322-8.879-6.09-9.493-5.096m49.609 5.109c-.614 1.76-1.084 3.696-1.046 4.301.039.606.716-.66 1.504-2.812.789-2.152 1.259-4.087 1.046-4.301-.214-.213-.891 1.052-1.504 2.812m26.041-2.598c-.003.55.602 2.575 1.343 4.5.741 1.925 1.362 2.825 1.379 2 .017-.825-.587-2.85-1.343-4.5-.755-1.65-1.376-2.55-1.379-2m48.075 2.67c-5.068 3.52-4.621 5.278 1.148 4.51l4.12-.549-3.259 2.684c-1.792 1.477-3.255 3.023-3.25 3.435.011.956 5.738.797 9.009-.25 2.812-.901 1.944-1.276-2.5-1.079l-3 .132 2.961-2.482c3.501-2.935 2.809-4.093-2.265-3.793-3.238.191-3.468.063-1.859-1.03 4.476-3.041 4.915-3.474 4.064-3.993-.495-.302-2.821.784-5.169 2.415m-92.153-.587c.048 1.165.285 1.402.604.605.289-.722.253-1.585-.079-1.917-.332-.332-.568.258-.525 1.312m63 0c.048 1.165.285 1.402.604.605.289-.722.253-1.585-.079-1.917-.332-.332-.568.258-.525 1.312m-98.134 3.061c-.553 1.454-1.245 3.033-1.539 3.508-.294.475 1.583 1.772 4.172 2.881 4.925 2.112 7.077 1.898 3.946-.392C65.406 83.093 66.255 81 69 81c1.035 0 2.2-.515 2.59-1.145.484-.784-.085-.993-1.804-.665-1.721.329-2.871-.097-3.657-1.355-1.644-2.632-4.016-2.262-5.184.809m1.087 1.295c-.69 1.29-.702 2.147-.035 2.559 1.497.925 3.003-.358 3.003-2.557 0-2.496-1.632-2.497-2.968-.002m33.635-1.272c-.367.366-.667 2.016-.667 3.666 0 3.822 1.12 2.814 1.402-1.261.233-3.361.23-3.37-.735-2.405m63.935 2.468c.284 4.09 1.398 4.96 1.398 1.091 0-1.71-.361-3.331-.803-3.604-.442-.273-.709.858-.595 2.513m-76.906-.786c-.674 1.756 2.733 5.122 4.241 4.19 1.301-.804 1.42-4.539.145-4.539-.505 0-1.572-.251-2.371-.557a1.567 1.567 0 0 0-2.015.906m84.684 1.103c-.689 1.797.31 3.548 2.024 3.548 1.665 0 4.804-3.458 3.932-4.331-1.233-1.233-5.392-.685-5.956.783m-41.564 2.298c-.274 2.388-.81 2.791-4.066 3.06-3.224.267-3.75.653-3.75 2.75 0 2.176.428 2.44 3.965 2.44h3.965l.285 10.25c.231 8.318.568 10.25 1.785 10.25s1.554-1.932 1.785-10.25L130.07 92h3.965c3.537 0 3.965-.264 3.965-2.44 0-2.097-.526-2.483-3.75-2.75-3.256-.269-3.792-.672-4.066-3.06-.22-1.905-.89-2.75-2.184-2.75s-1.964.845-2.184 2.75m-14.245.821c-.367 1.466-.475 2.858-.24 3.094.236.235.73-.771 1.098-2.236.367-1.466.475-2.858.24-3.094-.236-.235-.73.771-1.098 2.236M143.141 83c0 .825.386 2.4.859 3.5.542 1.261.859 1.445.859.5 0-.825-.386-2.4-.859-3.5-.542-1.261-.859-1.445-.859-.5m-67.517 1.539c-.965 2.514-.681 3.163.498 1.136.584-1.004.851-2.036.593-2.293-.257-.258-.749.263-1.091 1.157M179.031 83.5c0 .55.436 1.675.969 2.5.533.825.969 1.05.969.5s-.436-1.675-.969-2.5c-.533-.825-.969-1.05-.969-.5m-99.873 5.366c-1.733 5.784-1.504 8.322.417 4.636.86-1.649 2.302-3.814 3.204-4.811 1.422-1.57 1.446-1.937.181-2.737-2.273-1.437-2.566-1.213-3.802 2.912m93.371-2.914c-.323.524 1 3.034 2.941 5.577 1.942 2.543 3.53 4.446 3.53 4.229 0-.217-.692-2.727-1.539-5.576-1.44-4.851-3.471-6.593-4.932-4.23M57.708 87.663c-.354.574.002 1.896.792 2.94C60.466 93.2 60.348 94 58 94c-1.1 0-2 .361-2 .803 0 1.133 9.975 3.046 10.602 2.032.284-.459-.13-.835-.921-.835-.79 0-1.999-.678-2.687-1.507-1.054-1.27-.758-1.679 1.878-2.598 1.72-.6 3.128-1.545 3.128-2.1 0-.555-.717-.734-1.593-.398-4.715 1.81-6.053 1.71-7.05-.523-.573-1.284-1.282-1.804-1.649-1.211m33.724 2.352c-2.237 1.108-5.612 3.647-7.5 5.643-3.055 3.232-2.797 3.12 2.357-1.014C89.473 92.09 92.709 90 93.48 90c.771 0 1.68-.45 2.02-1 .838-1.356.605-1.298-4.068 1.015M160 89.052c0 .521.882.948 1.961.948 1.079 0 4.566 2.052 7.75 4.559l5.789 4.559-4.732-4.455C166.15 90.315 160 87.11 160 89.052m-49.921 1.531c.048 1.165.285 1.402.604.605.289-.722.253-1.585-.079-1.917-.332-.332-.568.258-.525 1.312m35 0c.048 1.165.285 1.402.604.605.289-.722.253-1.585-.079-1.917-.332-.332-.568.258-.525 1.312m-94 1c.048 1.165.285 1.402.604.605.289-.722.253-1.585-.079-1.917-.332-.332-.568.258-.525 1.312m140.671-.867c-2.218.336-2.747.936-2.735 3.1.009 1.476.491 3.359 1.071 4.184.812 1.154.966.766.668-1.681-.409-3.356.871-4.274 5.996-4.305 1.238-.008 2.25-.464 2.25-1.014 0-.996-2.024-1.075-7.25-.284m12.329.867c.048 1.165.285 1.402.604.605.289-.722.253-1.585-.079-1.917-.332-.332-.568.258-.525 1.312m-131 1c.048 1.165.285 1.402.604.605.289-.722.253-1.585-.079-1.917-.332-.332-.568.258-.525 1.312m109 0c.048 1.165.285 1.402.604.605.289-.722.253-1.585-.079-1.917-.332-.332-.568.258-.525 1.312M50.195 97.5c.02 1.65.244 2.204.498 1.231.254-.973.237-2.323-.037-3-.274-.677-.481.119-.461 1.769m21.963-.5c0 1.375.227 1.938.504 1.25.278-.687.278-1.812 0-2.5-.277-.687-.504-.125-.504 1.25m111 0c0 1.375.227 1.938.504 1.25.278-.687.278-1.812 0-2.5-.277-.687-.504-.125-.504 1.25m22.037.5c.02 1.65.244 2.204.498 1.231.254-.973.237-2.323-.037-3-.274-.677-.481.119-.461 1.769m-133.885 9c.005 3.3.192 4.529.415 2.732.222-1.797.218-4.497-.01-6-.229-1.503-.411-.032-.405 3.268m113 0c.005 3.3.192 4.529.415 2.732.222-1.797.218-4.497-.01-6-.229-1.503-.411-.032-.405 3.268m-106.746-1.793c-.542 1.425-.428 1.54.56.56.684-.679.991-1.486.683-1.793-.308-.308-.867.247-1.243 1.233M105.5 104c-.34.55-.141 1 .441 1s1.059-.45 1.059-1-.198-1-.441-1-.719.45-1.059 1m43.5 0c0 .55.477 1 1.059 1s.781-.45.441-1-.816-1-1.059-1-.441.45-.441 1m28-.059c0 .518.445 1.216.989 1.552.566.35.734-.051.393-.941-.665-1.732-1.382-2.049-1.382-.611M60.015 106.75c-.008.688-.776 1.25-1.706 1.25-1.555 0-1.56.101-.062 1.25.896.688 1.814 2.6 2.041 4.25.369 2.685.428 2.606.562-.75.113-2.814.587-3.77 1.9-3.829 1.394-.063 1.445-.195.25-.65-.825-.314-1.831-1.066-2.235-1.671-.508-.761-.739-.715-.75.15m44.623.75c-.316.825-.139 1.5.393 1.5.533 0 .969-.675.969-1.5s-.177-1.5-.393-1.5c-.216 0-.652.675-.969 1.5m45.362 0c0 .825.436 1.5.969 1.5.532 0 .709-.675.393-1.5-.317-.825-.753-1.5-.969-1.5-.216 0-.393.675-.393 1.5m44.194.137c-.741.793-.838 1.363-.233 1.363.571 0 1.106 1.688 1.189 3.75.134 3.356.193 3.435.562.75.227-1.65 1.026-3.475 1.776-4.056 1.13-.875 1.074-1.236-.329-2.113-1.245-.777-2.028-.697-2.965.306m-119.115 3.946c.048 1.165.285 1.402.604.605.289-.722.253-1.585-.079-1.917-.332-.332-.568.258-.525 1.312m105 0c.048 1.165.285 1.402.604.605.289-.722.253-1.585-.079-1.917-.332-.332-.568.258-.525 1.312M50.195 115.5c.02 1.65.244 2.204.498 1.231.254-.973.237-2.323-.037-3-.274-.677-.481.119-.461 1.769m52.369-.793c-.542 1.425-.428 1.54.56.56.684-.679.991-1.486.683-1.793-.308-.308-.867.247-1.243 1.233m2.953 6.534c-5.867 8.764-6.371 8.915-4.054 1.215.805-2.675 1.286-5.041 1.068-5.258-.458-.459-3.172 8.371-4.112 13.381L97.777 134h60.446l-.642-3.421c-.94-5.01-3.654-13.84-4.112-13.381-.218.217.263 2.583 1.068 5.258 2.317 7.7 1.813 7.549-4.054-1.215-3.035-4.533-5.742-8.241-6.015-8.241-.273 0 .86 2.687 2.518 5.971 1.658 3.285 3.014 6.435 3.014 7 0 1.457-4.789 1.275-10.568-.402-2.713-.787-7.857-1.431-11.432-1.431s-8.719.644-11.432 1.431c-5.779 1.677-10.568 1.859-10.568.402 0-.565 1.356-3.715 3.014-7 1.658-3.284 2.791-5.971 2.518-5.971-.273 0-2.98 3.708-6.015 8.241m46.483-7.3c0 .518.445 1.216.989 1.552.566.35.734-.051.393-.941-.665-1.732-1.382-2.049-1.382-.611m53.195 1.559c.02 1.65.244 2.204.498 1.231.254-.973.237-2.323-.037-3-.274-.677-.481.119-.461 1.769m-133 1c.02 1.65.244 2.204.498 1.231.254-.973.237-2.323-.037-3-.274-.677-.481.119-.461 1.769m111 0c.02 1.65.244 2.204.498 1.231.254-.973.237-2.323-.037-3-.274-.677-.481.119-.461 1.769m-108.726 0-.946 3.023c-.6 1.912 2.997 11.687 6.247 16.977 2.929 4.768 10.542 12.864 14.73 15.665 2.097 1.403 1.872 1.05-.749-1.176-2.063-1.75-3.517-3.558-3.233-4.019.285-.46-.739-1.578-2.274-2.485-6.361-3.757-13.771-18.161-13.079-25.42.399-4.187.125-5.196-.696-2.565m105.981 5.206c-.048 6.264-.006 6.375 1.142 3.058.656-1.894.962-4.647.681-6.118-.939-4.91-1.772-3.511-1.823 3.06m-129.371.877c.048 1.165.285 1.402.604.605.289-.722.253-1.585-.079-1.917-.332-.332-.568.258-.525 1.312m153 0c.048 1.165.285 1.402.604.605.289-.722.253-1.585-.079-1.917-.332-.332-.568.258-.525 1.312M61.25 124.031c-1.237.498-2.25 1.192-2.25 1.544 0 .351.675.38 1.5.063 1.748-.67 1.932.687.465 3.428-.596 1.113-.641 1.934-.107 1.934.51 0 1.174-.64 1.474-1.422.334-.871 1.345-1.214 2.607-.884 2.145.561 2.674-.934 1.454-4.112-.676-1.763-1.823-1.885-5.143-.551m128.75-.427c0 .406.745 1.561 1.655 2.567 1.564 1.728 1.509 1.829-1 1.829-3.618 0-3.345 1.564.507 2.907 3.72 1.296 5.234.578 1.733-.822l-2.395-.958 2.75-.064c3.189-.073 3.446-.781 1-2.755-1.599-1.289-1.534-1.36.75-.812 1.773.425 2.064.33 1-.327-2.311-1.428-6-2.39-6-1.565m-126.292 1.021c-.78.78.295 3.375 1.399 3.375 1.143 0 1.168-2.712.032-3.414-.473-.292-1.117-.275-1.431.039m-11.629 1.958c.048 1.165.285 1.402.604.605.289-.722.253-1.585-.079-1.917-.332-.332-.568.258-.525 1.312m151 0c.048 1.165.285 1.402.604.605.289-.722.253-1.585-.079-1.917-.332-.332-.568.258-.525 1.312m-24.775 4.167c-1.308 3.615-7.86 12.147-10.548 13.735-1.535.907-2.559 2.025-2.274 2.485.284.461-1.17 2.269-3.233 4.019-2.621 2.226-2.846 2.579-.749 1.176 4.21-2.816 11.817-10.917 14.709-15.665 2.665-4.374 4.01-7.5 3.228-7.5-.275 0-.785.787-1.133 1.75M63 133c-1.667.534-1.917.834-.75.9 1.726.099 2.186 1.16 1.779 4.1-.129.932.949.4 2.846-1.403 4.342-4.128 2.659-5.69-3.875-3.597m123 1.826c0 .954 4.309 5.174 5.283 5.174.36 0 .37-.74.023-1.645-.386-1.007.088-2.17 1.223-3 1.668-1.219 1.434-1.355-2.338-1.355-2.305 0-4.191.372-4.191.826m2.5 1.174c.34.55.816 1 1.059 1s.441-.45.441-1-.477-1-1.059-1-.781.45-.441 1M56 137.373c0 1.08 3.972 8.627 4.541 8.627.275 0-.465-1.912-1.644-4.25-2.318-4.597-2.897-5.472-2.897-4.377m11.75 2.097c-2.366 3.253-2.218 3.682 1 2.899 2.75-.668 2.75-.668.839 1.487-2.599 2.934-1.664 3.443 2.998 1.633 2.628-1.02 2.996-1.34 1.12-.974l-2.792.544 1.769-2.7 1.769-2.7-3.388.678c-3.341.668-3.363.65-1.572-1.33 1-1.104 1.41-1.993.912-1.976-.498.018-1.692 1.115-2.655 2.439m41.746-1.463c-.343.554.118 1.292 1.024 1.639 1.317.505 1.38.802.314 1.478-.91.577-.955.85-.143.861 1.967.025 2.559-1.952.789-2.631-1.317-.505-1.38-.802-.314-1.478.91-.577.955-.85.143-.861-.655-.008-1.471.438-1.813.992m8.504-.614c0 .216.698.661 1.552.989.89.341 1.291.173.941-.393-.587-.951-2.493-1.406-2.493-.596m24.564.9c.376.986.935 1.541 1.243 1.233.308-.307.001-1.114-.683-1.793-.988-.98-1.102-.865-.56.56m54.638 3.229c-1.197 2.463-1.966 4.478-1.709 4.478.677 0 4.718-8.123 4.265-8.575-.209-.21-1.36 1.634-2.556 4.097m-14.771-.445c-1.848 2.042-1.838 2.108.595 3.977 3.384 2.601 4.817 2.419 5.602-.71.491-1.956.183-3.009-1.172-4-2.422-1.771-2.811-1.714-5.025.733M119 141c-.901.582-1.025.975-.309.985.655.008 1.469-.435 1.809-.985.767-1.242.421-1.242-1.5 0m27 .046c-1.095.741-.691.834 1.5.344 3.677-.823 4.475-1.395 1.917-1.375-1.054.009-2.592.472-3.417 1.031m36.568.845c-.303.489.578 1.63 1.959 2.534 2.186 1.433 2.583 1.453 3.08.158.313-.818.279-1.959-.077-2.535-.79-1.278-4.203-1.386-4.962-.157m-58.54 3.658c-1.909 1.348-3.104 2.451-2.654 2.451.449 0 2.124-.931 3.722-2.068l2.904-2.068 2.904 2.068c1.598 1.137 3.277 2.068 3.733 2.068.455 0-.828-1.125-2.852-2.5-2.023-1.375-3.815-2.478-3.982-2.451-.167.027-1.865 1.152-3.775 2.5m54.972.061c0 .368.787 1.267 1.75 1.998 1.564 1.188 1.387 1.332-1.674 1.36l-3.425.032 2.349 2.5c2.846 3.03 5.1 3.381 2.405.375l-1.905-2.125 3.25.705c4.06.88 4.158-.408.25-3.297-1.65-1.22-3-1.917-3-1.548M73 148.5c-2.359 2.511-1.558 3.589.929 1.25 1.093-1.028 1.214-.761.681 1.5-.356 1.512-.399 2.75-.094 2.75 1.242 0 5.484-3.303 5.484-4.27 0-.572-.903-.223-2.007.777-1.976 1.788-1.998 1.767-1.375-1.345.763-3.819-.445-4.04-3.618-.662m-10.392 1.317c1.041 1.824 2.763 4.074 3.827 5 1.125.979.73.01-.945-2.317-4.007-5.566-5.115-6.598-2.882-2.683m29.959-1.87c1.076 1.051 7.245 2.675 6.319 1.663-.338-.37-2.108-1.1-3.933-1.623-1.914-.55-2.924-.566-2.386-.04m67.683.172c-1.787.516-3.25 1.199-3.25 1.518 0 .818 5.303-.586 6.45-1.708 1.085-1.061 1.142-1.064-3.2.19m30.807 3.631c-1.83 2.613-2.479 3.993-1.442 3.067 1.812-1.617 5.884-7.817 5.134-7.817-.2 0-1.861 2.137-3.692 4.75M116 149c-1.333.862-1.333.969 0 .969.825 0 2.175-.436 3-.969 1.333-.862 1.333-.969 0-.969-.825 0-2.175.436-3 .969m21 0c.825.533 2.175.969 3 .969 1.333 0 1.333-.107 0-.969-.825-.533-2.175-.969-3-.969-1.333 0-1.333.107 0 .969m-101.75 1.732-4.25.383v5.059c0 4.759.134 5.023 2.25 4.456 1.237-.331 3.487-.609 5-.616 2.632-.013 2.75-.229 2.75-5.014 0-2.75-.337-4.921-.75-4.825-.413.096-2.663.347-5 .557m7.639 1.518c-.114 2.32.188 7.166.458 7.359.084.06 2.291.389 4.903.731l4.75.622V150h-5c-4.486 0-5.011.231-5.111 2.25M54 155c0 2.75.284 5 .632 5 .348 0 2.148-.937 4-2.082 4.291-2.652 4.378-5.37.219-6.82C54.156 149.461 54 149.586 54 155m46.813-4.317c.721.289 1.584.253 1.916-.079.332-.332-.258-.568-1.312-.525-1.165.048-1.402.285-.604.604m11 0c.721.289 1.584.253 1.916-.079.332-.332-.258-.568-1.312-.525-1.165.048-1.402.285-.604.604m31 0c.721.289 1.584.253 1.916-.079.332-.332-.258-.568-1.312-.525-1.165.048-1.402.285-.604.604m11 0c.721.289 1.584.253 1.916-.079.332-.332-.258-.568-1.312-.525-1.165.048-1.402.285-.604.604m42.937.479c-3.758 1.373-3.498 4.213.618 6.756 1.852 1.145 3.652 2.082 4 2.082.348 0 .632-2.25.632-5 0-5.34-.379-5.617-5.25-3.838m6.25 4.319v5.481l4.75-.622c2.613-.342 4.819-.671 4.903-.731.27-.193.572-5.039.458-7.359-.1-2.019-.625-2.25-5.111-2.25h-5v5.481m12-.588c0 4.901.111 5.108 2.75 5.121 1.512.007 3.762.285 5 .616 2.119.568 2.25.305 2.25-4.513V151h-3.418c-1.88 0-4.13-.273-5-.607-1.315-.505-1.582.254-1.582 4.5m-191.25-3.088-4.75.305v10.14l3.125-.625c1.719-.344 3.918-.625 4.887-.625 1.908 0 2.989-3.999 2.03-7.513-.46-1.687-1.258-1.941-5.292-1.682m203.139 1.695c-.115 2.092.195 6.912.458 7.122.084.067 2.29.432 4.903.811l4.75.69v-9.93l-5.001-.346c-4.421-.307-5.013-.115-5.11 1.653m-100.601-.699c-1.746 1.11-.399 5.199 1.712 5.199 2.111 0 3.458-4.089 1.712-5.199-.666-.424-1.437-.77-1.712-.77-.275 0-1.046.346-1.712.77m-118.621.866C7.3 154.033 7 156.34 7 158.792v4.458l3.125-.625c1.719-.344 4.081-.625 5.25-.626 1.852 0 2.125-.579 2.125-4.5V153h-4.583c-2.521 0-4.884.3-5.25.667m71.533.533c-1.638 1.638-1.506 3.351.406 5.263 1.233 1.233 1.927 1.34 2.989.458.761-.631 1.107-1.595.769-2.141-.373-.604-.941-.465-1.447.355-1.159 1.874-3.188-.264-2.343-2.468.796-2.074 4.426-2.211 4.426-.167 0 .825.45 1.5 1 1.5s1-.36 1-.8c0-1.351-2.312-3.2-4-3.2-.88 0-2.14.54-2.8 1.2m92.8-.668c0 1.258 2.957 7.468 3.556 7.468.362 0 .42-.62.129-1.378-.291-.758-.059-1.848.515-2.422.574-.574 1.664-.806 2.422-.515 2.568.986 1.396-.624-1.572-2.159-3.001-1.552-5.05-1.955-5.05-.994m66.5 3.924c0 3.965.27 4.543 2.125 4.543 1.169.001 3.558.288 5.31.638l3.186.637-.311-4.887-.31-4.887-5-.294-5-.293v4.543M0 173v19h3c2.533 0 3-.389 3-2.5 0-2-.5-2.5-2.5-2.5-1.375 0-2.5-.45-2.5-1s1.125-1 2.5-1c2.296 0 2.5-.367 2.5-4.5s-.204-4.5-2.5-4.5c-1.375 0-2.5-.45-2.5-1s1.125-1 2.5-1c2.296 0 2.5-.367 2.5-4.5s-.204-4.5-2.5-4.5c-1.375 0-2.5-.45-2.5-1s1.125-1 2.5-1c2.296 0 2.5-.367 2.5-4.5 0-4.333-.111-4.5-3-4.5H0v19m98-18.478c0 .86 12.294 6.486 14 6.407.825-.039-.1-.659-2.055-1.379-1.955-.721-5.442-2.273-7.75-3.45-2.307-1.178-4.195-1.887-4.195-1.578m19 .741c-4.094.955-4.275 1.117-2 1.794 1.375.409 3.92.788 5.656.843 2.685.085 3.079-.199 2.634-1.9-.288-1.1-.808-1.952-1.157-1.893-.348.059-2.658.579-5.133 1.156m16 .62c0 2.453 1.597 2.59 7.5.645l4-1.318-3.5-.119c-1.925-.065-4.512-.39-5.75-.721-1.815-.487-2.25-.194-2.25 1.513m22.5-.65c-1.1.644-4.475 2.195-7.5 3.445-3.025 1.251-4.825 2.285-4 2.297 1.723.027 14-5.615 14-6.433 0-.722-.168-.676-2.5.691M250 158.5c0 4.133.204 4.5 2.5 4.5 1.375 0 2.5.45 2.5 1s-1.125 1-2.5 1c-2.296 0-2.5.367-2.5 4.5s.204 4.5 2.5 4.5c1.375 0 2.5.45 2.5 1s-1.125 1-2.5 1c-2.296 0-2.5.367-2.5 4.5s.204 4.5 2.5 4.5c1.375 0 2.5.45 2.5 1s-1.125 1-2.5 1c-2 0-2.5.5-2.5 2.5 0 2.111.467 2.5 3 2.5h3v-38h-3c-2.889 0-3 .167-3 4.5m-76-2.5c0 .55.45 1 1 1s1-.45 1-1-.45-1-1-1-1 .45-1 1m-113.83 2.652c-1.733 1.41-2.246 2.704-2 5.046l.33 3.149 2.316-1.887c1.713-1.396 2.234-2.71 2-5.046l-.316-3.159-2.33 1.897M71 160.363c1.925 2.097 5.3 5.201 7.5 6.897 4.676 3.604 3.315 2.156-5-5.318-3.926-3.529-4.79-4.075-2.5-1.579m15.022-.394c-2.171 3.049-2.183 3.194-.382 4.558 2.547 1.929 2.883 1.85 4.847-1.147 1.64-2.504 1.629-2.708-.253-4.59-1.96-1.96-1.981-1.954-4.212 1.179m82.578-1.57c.75 1.956-1.389 3.021-3.144 1.565-2.336-1.939-1.61.27 1.162 3.536 2.112 2.487 2.44 2.63 1.924.834-.755-2.623.995-3.963 3.002-2.298 2.064 1.714 1.745-.109-.488-2.786-2.122-2.544-3.257-2.937-2.456-.851m11.9 5.318c-3.85 3.642-5.2 5.235-3 3.541 3.853-2.969 11.362-10.308 10.446-10.21-.245.026-3.596 3.027-7.446 6.669m12.531-3.589c.023 2.435.737 3.885 2.567 5.219l2.534 1.846-.316-3.732c-.214-2.534-1.039-4.21-2.566-5.219-2.183-1.442-2.249-1.386-2.219 1.886m-104.679.347c.505 1.317.28 1.598-.913 1.14-1.109-.426-1.487-.109-1.262 1.056.178.915.828 1.831 1.446 2.037.928.309 1.636-1.058 2.424-4.683.057-.261-.452-.66-1.131-.886-.815-.272-1.007.182-.564 1.336m-52.602 1.33-4.75.305v4.828c0 4.357.244 4.876 2.5 5.307 1.913.365 2.5.058 2.5-1.311 0-.984 1.159-2.701 2.576-3.815 1.462-1.15 2.435-2.803 2.25-3.822-.269-1.485-1.152-1.744-5.076-1.492m6.888.695c-.718 1.873 1.085 1.873 4.362 0l2.5-1.429-3.143-.036c-1.897-.021-3.371.56-3.719 1.465m8.112.319c-4.544 1.467-4.75 1.695-4.75 5.265v3.732l5-1.599c4.845-1.549 5-1.717 5-5.408 0-2.095-.112-3.745-.25-3.666-.138.078-2.388.832-5 1.676m64.063-1.136c.721.289 1.584.253 1.916-.079.332-.332-.258-.568-1.312-.525-1.165.048-1.402.285-.604.604m25 0c.721.289 1.584.253 1.916-.079.332-.332-.258-.568-1.312-.525-1.165.048-1.402.285-.604.604m21.868 1.204c.542 2.075-1.168 3.752-2.171 2.129-1.564-2.53-2.229-.686-.713 1.978 1.949 3.425 3.264 3.956 2.493 1.006-.601-2.296 1.53-2.736 3.635-.75 1.421 1.341 1.287.798-.868-3.5-1.57-3.133-3.117-3.695-2.376-.863M200 164.979c0 3.487.209 3.706 5 5.238l5 1.599v-3.704c0-3.574-.176-3.758-5-5.239l-5-1.534v3.64m9-2.479c3.277 1.873 5.08 1.873 4.362 0-.348-.905-1.822-1.486-3.719-1.465l-3.143.036 2.5 1.429m5.999.856c.001 1.021 1.126 2.741 2.501 3.823 1.375 1.081 2.5 2.771 2.5 3.755 0 1.369.587 1.676 2.5 1.311 2.252-.431 2.5-.953 2.5-5.265v-4.787l-5.001-.346c-4.329-.3-5-.098-5 1.509m-95.237-.649c1.244.239 3.044.23 4-.02s-.062-.446-2.262-.435c-2.2.011-2.982.216-1.738.455m13 0c1.244.239 3.044.23 4-.02s-.062-.446-2.262-.435c-2.2.011-2.982.216-1.738.455M19 168.066v5.067l4.75-.496c2.613-.273 4.863-.528 5-.567.137-.038.25-2.095.25-4.57V163H19v5.066m74.306-2.562c-1.543 1.378-2.065 2.248-1.16 1.933 1.032-.358 2.245.284 3.25 1.718 1.491 2.129 1.605 2.151 1.618.318.007-1.085.285-2.985.616-4.223.795-2.964-.825-2.869-4.324.254M227 167.765v4.765l5 .228 5 .227V163h-10v4.765m-220 1.36v5.125l3.125-.625c1.719-.344 4.081-.625 5.25-.625 1.849 0 2.128-.585 2.146-4.5l.021-4.5H7v5.125m231.479-.625c.018 3.915.297 4.5 2.146 4.5 1.169 0 3.531.281 5.25.625l3.125.625V164h-10.542l.021 4.5m-197.731-1.335c-2.549 1.857-3.66 5.59-2.121 7.128.345.345 1.849-.005 3.342-.777 2.143-1.108 2.678-2.051 2.534-4.467-.243-4.075-.541-4.225-3.755-1.884m19.502.056c-1.423 1.523-2.25 3.662-2.25 5.821v3.413l2.575-2.575c1.926-1.926 2.493-3.393 2.25-5.821l-.325-3.246-2.25 2.408M94.5 166c-.34.55-.141 1 .441 1S96 166.55 96 166s-.198-1-.441-1-.719.45-1.059 1m5.195 1.938c-.396 1.89-.324 3.833.16 4.317 1.266 1.266 1.878-1.229 1.166-4.755l-.606-3-.72 3.438M152.2 166.2c-.66.66-1.2 1.955-1.2 2.878 0 3.66 5.764 5.291 6.792 1.922.37-1.211.202-1.259-.867-.25-1.97 1.858-3.705 1.518-4.465-.875-.705-2.223 1.144-4.238 2.897-3.155.524.324.631.069.238-.565-.911-1.475-1.888-1.462-3.395.045m40.8 1.951c0 2.441.757 4.211 2.5 5.849l2.5 2.349v-3.5c0-2.441-.757-4.211-2.5-5.849l-2.5-2.349v3.5m18.871-2.469c-.772 4.901-.307 6.558 2.205 7.857 3.042 1.573 3.924 1.092 3.924-2.138 0-2.143-5.834-7.587-6.129-5.719m-108.688 1.535c-1.438 1.438-1.575 3.143-.183 2.283.567-.351 1 .49 1 1.941 0 1.407.422 2.559.937 2.559.519 0 .679-1.673.359-3.75-.705-4.563-.654-4.492-2.113-3.033m3.797 2.307c-.696.838-1.012 1.777-.704 2.086.309.309 1.064-.377 1.678-1.524 1.31-2.448.824-2.728-.974-.562m2.504 2.548c-.774 3.525-.805 3.473 2.516 4.309 2.278.574 2.316.534.434-.447-1.563-.813-1.962-1.79-1.637-4.005.57-3.881-.453-3.77-1.313.143m33.502-1.322c-.007.963-.303 2.875-.657 4.25-.639 2.483-.629 2.487 1.495.612 1.753-1.548 2.412-1.661 3.657-.628 2.142 1.778 1.886.34-.549-3.08-2.337-3.282-3.925-3.747-3.946-1.154m-92.236 1.016c-4.244 1.206-4.75 1.655-4.75 4.209 0 3.376 1.409 4.077 5.5 2.736 4.154-1.362 4.693-2.032 4.323-5.376l-.323-2.919-4.75 1.35m68-1.104c.688.278 1.317 2.155 1.4 4.171.127 3.115.213 3.244.572.858.232-1.545 1.103-3.07 1.934-3.389 1.228-.471 1.261-.739.178-1.426-.734-.465-2.234-.817-3.334-.782-1.1.035-1.437.291-.75.568m15.577.114c-.8.51-.912 1.852-.352 4.235.451 1.919.866 2.702.923 1.739.127-2.185.938-2.208 3.273-.095 1.006.91 1.829 1.162 1.829.559 0-.603-.489-1.398-1.087-1.768-.731-.452-.757-1.002-.078-1.681 2.397-2.397-1.439-4.941-4.508-2.989m65.857 2.791c.277 3.302.747 3.913 3.816 4.956 4.544 1.543 6 .914 6-2.591 0-2.513-.509-2.991-4.25-3.995-2.338-.627-4.617-1.364-5.066-1.638-.449-.275-.674 1.196-.5 3.268m-75.082.148c-.067 2.126.491 3.519 1.648 4.115 2.901 1.492 4.262.273 4.09-3.663l-.16-3.667-.403 3.25c-.222 1.787-.985 3.25-1.696 3.25-.71 0-1.761-1.463-2.334-3.25l-1.043-3.25-.102 3.215m9.898-1.132c0 1.766 2.153 1.459 2.771-.395.218-.654-.317-1.188-1.188-1.188-.87 0-1.583.713-1.583 1.583m9-.024c0 .857.457 1.276 1.016.931.559-.346.758-1.047.441-1.559-.857-1.387-1.457-1.129-1.457.628M19 179v5h10v-10H19v5m12 .072c0 4.75.149 5.052 2.361 4.762 1.299-.17 3.058.269 3.91.976 1.364 1.132 1.544.71 1.506-3.512-.053-5.76-1.085-7.298-4.899-7.298-2.792 0-2.878.151-2.878 5.072m11-4.057c-1.333.876-1.333 1.094 0 1.97 2.238 1.469 2.892 1.233 2.725-.985-.169-2.249-.576-2.396-2.725-.985m18.25.971c-2.888 2.355-3.021 6.014-.219 6.014 2.338 0 3.257-1.756 2.794-5.34-.321-2.475-.356-2.484-2.575-.674m132.934 1.667c.256 3.111.747 3.908 2.566 4.167 3.217.456 2.98-3.742-.348-6.167l-2.534-1.846.316 3.846M211.275 176c-.167 2.218.487 2.454 2.725.985 1.333-.876 1.333-1.094 0-1.97-2.149-1.411-2.556-1.264-2.725.985m6.925-.8c-.66.66-1.2 3.392-1.2 6.071 0 4.246.185 4.686 1.444 3.428.84-.84 2.512-1.239 4-.955 2.472.473 2.556.321 2.556-4.627 0-4.938-.098-5.117-2.8-5.117-1.54 0-3.34.54-4 1.2m8.8 3.8v5h10v-10h-10v5M7 180.066v5.067l4.75-.496c2.613-.273 4.975-.528 5.25-.567.275-.038.5-2.095.5-4.57V175H7v5.066m231.488-.816c.007 2.338.398 4.531.869 4.875.472.344 2.834.665 5.25.714l4.393.088V175h-10.524l.012 4.25M40 182.652c0 5.232 1.256 6.701 7.182 8.4l2.818.808v-5.185c0-4.959-.142-5.234-3.25-6.283-1.788-.603-4.038-1.436-5-1.851-1.53-.66-1.75-.144-1.75 4.111m171.5-3.091c-1.65.71-3.787 1.535-4.75 1.833-1.367.424-1.75 1.66-1.75 5.642 0 4.829.119 5.062 2.25 4.398 7.603-2.369 8.056-2.919 7.563-9.184l-.313-3.98-3 1.291M53 180c-1.213.784-1.069.972.75.985 1.237.008 2.25-.435 2.25-.985 0-1.253-1.061-1.253-3 0m147 0c0 .55 1.012.993 2.25.985 1.819-.013 1.963-.201.75-.985-1.939-1.253-3-1.253-3 0m-148 6.901c0 4.593.231 5.109 2.5 5.58l5 1.038c2.4.498 2.5.321 2.5-4.433 0-5.285.069-5.218-6.75-6.591l-3.25-.654v5.06m149.5-4.322c-.55.141-2.687.539-4.75.884-3.746.627-3.75.633-3.75 5.594v4.967l4.25-.64c2.338-.352 4.615-.969 5.06-1.372 1.148-1.038.4-9.744-.81-9.433m-87.75 1.083c.688.278 1.813.278 2.5 0 .688-.277.125-.504-1.25-.504s-1.937.227-1.25.504m26 0c.688.278 1.813.278 2.5 0 .688-.277.125-.504-1.25-.504s-1.937.227-1.25.504M64 188.758c0 4.791.126 5.017 3.125 5.617C73.648 195.68 74 195.456 74 190c0-4.785-.118-5.001-2.75-5.014-1.513-.007-3.763-.285-5-.616-2.113-.567-2.25-.3-2.25 4.388m59.75-4.026c2.337.211 6.162.211 8.5 0 2.338-.21.425-.383-4.25-.383s-6.588.173-4.25.383m61.75.16c-3.98.605-4.001.632-4.219 5.358-.202 4.378-.035 4.75 2.125 4.75 1.289 0 3.707-.273 5.374-.606 2.871-.574 3.032-.863 3.068-5.5.025-3.221-.37-4.845-1.155-4.752-.656.078-2.993.415-5.193.75m-163.25.831c-2.718.338-3.25.824-3.25 2.971 0 2.411.229 2.53 3.75 1.948 2.063-.341 4.313-.625 5-.631.688-.006 1.25-1.136 1.25-2.511 0-2.608-.015-2.612-6.75-1.777m8.75 1.902c0 2.383.276 2.57 3 2.025 2.785-.557 3-.391 3 2.316 0 1.604.41 3.169.911 3.479 1.07.661.803-6.145-.34-8.695-.486-1.083-1.888-1.75-3.678-1.75-2.456 0-2.893.397-2.893 2.625m187.241-.639c-.683 1.093-1.234 3.905-1.226 6.25.012 3.122.275 3.862.985 2.764.533-.825.976-2.726.985-4.225.014-2.492.271-2.674 3.015-2.125 2.724.545 3 .358 3-2.025 0-2.199-.448-2.625-2.759-2.625-1.671 0-3.25.784-4 1.986m8.759.389c0 1.444.563 2.63 1.25 2.636.688.006 2.938.29 5 .631 3.54.585 3.75.472 3.75-2.011 0-1.906-.517-2.631-1.875-2.631-1.031 0-3.281-.281-5-.625-2.865-.573-3.125-.407-3.125 2m-219.333-.708C7.3 187.033 7 188.44 7 189.792c0 2.22.303 2.397 3.125 1.833 1.719-.344 4.081-.625 5.25-.625 1.6 0 2.125-.618 2.125-2.5 0-2.303-.361-2.5-4.583-2.5-2.521 0-4.884.3-5.25.667m67.5 3.725c0 4.093.207 4.433 3.041 5C85.384 196.827 86 196.48 86 191v-5H75.167v4.392M170 191c0 4.791.115 4.999 2.75 4.986 6.145-.03 7.25-.884 7.25-5.603V186h-10v5m68.5-2.544c0 1.927.515 2.544 2.125 2.544 1.169 0 3.567.288 5.33.641 3.064.613 3.191.514 2.875-2.25-.31-2.712-.64-2.909-5.33-3.185-4.766-.279-5-.174-5 2.25M87 191.5c0 3.98.26 4.508 2.25 4.569 1.237.038 3.487.232 5 .432 2.677.353 2.75.232 2.75-4.569V187H87v4.5m12 .434V197h10v-4.5c0-2.475-.112-4.532-.25-4.57-.138-.039-2.388-.294-5-.567l-4.75-.496v5.067m48.701-4.111c-1.296.247-1.701 1.377-1.701 4.75V197h10V187.001l-3.299.25c-1.815.137-4.065.394-5 .572M158 192.034c0 4.935.054 5.025 2.75 4.582 1.512-.248 3.762-.489 5-.534 1.988-.072 2.25-.606 2.25-4.582V187h-10v5.034m-47 .466v4.5h10v-9h-10v4.5m11.5 0v4.5H133v-9h-10.5v4.5m11.667 0v4.5h10.666v-9h-10.666v4.5M40 193.867c0 4.996 1.324 6.505 7.182 8.185l2.818.808v-4.93c0-3.356-.411-4.93-1.289-4.93-.708 0-2.958-.851-5-1.892L40 189.216v4.651M209.755 192l-4.745 1.5-.005 4.817c-.005 4.538.126 4.777 2.245 4.117 7.484-2.331 8.091-3.02 7.567-8.579l-.317-3.355-4.745 1.5M52 198.481c0 3.975.283 4.54 2.5 5l5 1.038c2.396.498 2.5.317 2.5-4.369 0-4.872-.013-4.89-3.75-5.508-6.189-1.023-6.25-.986-6.25 3.839m143.75-3.765c-2.576.39-2.75.732-2.75 5.396v4.979l3.75-.624c6.144-1.021 6.25-1.121 6.25-5.936 0-4.902-.016-4.911-7.25-3.815M64 200.32c0 4.162.189 4.468 3.125 5.055 6.627 1.325 7.014 1.086 6.68-4.125l-.305-4.75-4.75-.305-4.75-.305v4.43m118.366-3.555c-.624.404-1.158 2.647-1.188 4.985-.058 4.642.729 5.019 7.614 3.642 2.834-.567 3.041-.907 3.041-5V196l-4.166.015c-2.292.009-4.677.346-5.301.75m-107.199 4.591c0 4.883.976 5.603 7.638 5.63l3.305.014-.305-4.75-.305-4.75-5.167-.299-5.166-.3v4.455M170 202v5h3.418c5.7 0 6.582-.752 6.582-5.607V197h-10v5m-133 .382c0 2.475.413 4.755.917 5.066.504.312.916-1.458.916-3.933 0-2.475-.412-4.755-.916-5.067-.504-.311-.917 1.459-.917 3.934m50 .118c0 3.976.262 4.51 2.25 4.582 1.237.045 3.487.286 5 .534 2.696.443 2.75.353 2.75-4.582V198H87v4.5m12 .451V208h10v-9.643l-5-.228-5-.228v5.05m37.833-4.143c-2.442.283-2.666.682-2.666 4.75V208h10.666v-4.399c0-4.011-.235-4.429-2.666-4.75-1.467-.193-3.867-.212-5.334-.043m10.917-.119c-1.334.349-1.75 1.509-1.75 4.884V208h10v-5c0-4.998-.001-5-3.25-4.884-1.787.064-4.037.322-5 .573M158 203c0 5.391.001 5.391 6.25 4.358 3.667-.606 3.75-.717 3.75-4.989V198h-10v5m59.75-4.427c-.412.418-.75 2.8-.75 5.294 0 3.204.312 4.221 1.064 3.469.585-.585.923-2.968.75-5.294-.173-2.326-.652-3.887-1.064-3.469M111 203.5v4.5h10v-9h-10v4.5m11.5-.251c0 3.728.308 4.316 2.5 4.776 1.375.289 3.738.35 5.25.137 2.523-.357 2.75-.751 2.75-4.775V199l-5.25-.001-5.25-.002v4.252M40 204.867c0 4.996 1.324 6.505 7.182 8.185l2.818.808v-4.93c0-3.356-.411-4.93-1.289-4.93-.708 0-2.958-.851-5-1.892L40 200.216v4.651M209.755 203l-4.745 1.5-.005 4.817c-.005 4.538.126 4.777 2.245 4.117 7.484-2.331 8.091-3.02 7.567-8.579l-.317-3.355-4.745 1.5M52 209.481c0 3.975.283 4.54 2.5 5l5 1.038c2.396.498 2.5.317 2.5-4.369 0-4.872-.013-4.89-3.75-5.508-6.189-1.023-6.25-.986-6.25 3.839m143.75-3.665c-2.589.298-2.75.608-2.75 5.296v4.979l3.75-.624c6.142-1.02 6.25-1.123 6.25-5.924 0-4.914.557-4.628-7.25-3.727M64 211.383c0 4.719 1.105 5.573 7.25 5.603 2.585.013 2.75-.25 2.75-4.379 0-4.855-.882-5.607-6.582-5.607-3.371 0-3.418.06-3.418 4.383m118.833-3.71c-1.239.328-1.666 1.581-1.666 4.884 0 4.325.084 4.443 3.166 4.429 6.498-.028 7.5-.774 7.5-5.581V207l-3.666.116c-2.017.064-4.417.315-5.334.557m-107.666 4.683c0 4.883.976 5.603 7.638 5.63l3.305.014-.305-4.75-.305-4.75-5.167-.299-5.166-.3v4.455m95.5-3.689c-.367.366-.667 2.616-.667 5 0 4.266.053 4.333 3.418 4.333 5.7 0 6.582-.752 6.582-5.607V208h-4.333c-2.384 0-4.634.3-5 .667M37 210.882c0 1.1.45 2.278 1 2.618.55.34 1-.282 1-1.382 0-1.1-.45-2.278-1-2.618-.55-.34-1 .282-1 1.382m50 2.618c0 2.927.437 4.504 1.25 4.511.688.006 2.938.29 5 .631l3.75.62V209H87v4.5m12 .5v5h10v-4.383c0-4.719-1.105-5.573-7.25-5.603-2.635-.013-2.75.195-2.75 4.986m37.833-4.192c-2.432.282-2.666.691-2.666 4.649 0 3.948.241 4.372 2.666 4.692 1.467.193 3.867.212 5.334.043 2.432-.282 2.666-.691 2.666-4.649 0-3.948-.241-4.372-2.666-4.692-1.467-.193-3.867-.212-5.334-.043m11.417-.102c-1.93.371-2.25 1.064-2.25 4.864V219h10v-5c0-4.821-.099-4.995-2.75-4.864-1.512.075-3.762.331-5 .57M158 214c0 5.456.352 5.68 6.875 4.375 2.929-.586 3.125-.9 3.125-5V209h-10v5m59.729-4.396c-.401.401-.715 1.667-.699 2.813.028 1.923.111 1.946 1.071.295 1.119-1.922.833-4.312-.372-3.108M111 214.5v4.5h10v-9h-10v4.5m11.5-.251c0 3.728.308 4.316 2.5 4.776 1.375.289 3.738.35 5.25.137 2.523-.357 2.75-.751 2.75-4.775V210l-5.25-.001-5.25-.002v4.252m-82.5-.667c0 2.343 2.513 4.243 7.75 5.859 1.929.595 2.25.328 2.25-1.874 0-1.428-.572-2.567-1.289-2.567-.708 0-2.958-.851-5-1.892L40 211.216v2.366m169.755.314c-3.775 1.276-4.746 2.064-4.75 3.854-.006 2.726 1.224 2.783 6.673.309 3.391-1.539 4.075-2.288 3.633-3.978-.299-1.144-.604-2.015-.678-1.935-.073.081-2.268.868-4.878 1.75M52 218.5c0 1.778.542 2.5 1.875 2.5 1.031 0 3.281.281 5 .625 2.832.566 3.125.391 3.125-1.869 0-2.105-.585-2.591-3.75-3.114-5.787-.957-6.25-.819-6.25 1.858m143.75-1.684c-2.203.254-2.75.827-2.75 2.881 0 2.407.23 2.527 3.75 1.945 2.063-.341 4.475-.625 5.361-.631 1.175-.008 1.483-.684 1.138-2.49-.348-1.82-1.043-2.419-2.612-2.251-1.175.125-3.375.371-4.887.546M64.18 220.25c.273 1.92 1.017 2.295 5.07 2.555 4.145.266 4.75.057 4.75-1.643 0-2.287-1.841-3.162-6.651-3.162-3.045 0-3.448.286-3.169 2.25m118.57-1.561c-.963.252-1.75 1.348-1.75 2.437 0 1.759.583 1.945 5.25 1.676 4.574-.263 5.291-.592 5.57-2.552.285-2.012-.084-2.238-3.5-2.134-2.101.064-4.607.322-5.57.573M75 221.5c0 2.364.3 2.5 5.5 2.5 4.73 0 5.5-.265 5.5-1.893 0-2.285-1.873-3.107-7.082-3.107-3.513 0-3.918.259-3.918 2.5m96.25-1.838c-.687.278-1.25 1.367-1.25 2.421 0 1.634.739 1.917 5 1.917 4.667 0 5-.167 5-2.5 0-2.236-.396-2.492-3.75-2.421-2.062.043-4.312.306-5 .583m-84.07 2.588c.278 1.951 1 2.29 5.44 2.548 5.006.291 5.11.241 4.634-2.25-.444-2.322-.926-2.548-5.44-2.548-4.565 0-4.928.177-4.634 2.25m11.82.25c0 2.333.333 2.5 5 2.5 4.222 0 5-.292 5-1.875 0-1.3-.958-2.067-3.125-2.5-5.702-1.14-6.875-.821-6.875 1.875m49.25-1.794c-1.407.271-2.25 1.157-2.25 2.364 0 1.649.727 1.93 5 1.93 4.667 0 5-.167 5-2.5 0-2.592-1.639-2.971-7.75-1.794M158 222.5c0 2.333.333 2.5 5 2.5s5-.167 5-2.5-.333-2.5-5-2.5-5 .167-5 2.5m-47 .383c0 1.993 2.539 3.08 7.25 3.103 2.27.012 2.75-.422 2.75-2.486 0-2.333-.333-2.5-5-2.5-4.23 0-5 .29-5 1.883m11.5.617c0 2.349.317 2.5 5.25 2.5s5.25-.151 5.25-2.5-.317-2.5-5.25-2.5-5.25.151-5.25 2.5m11.5 0c0 2.157.446 2.498 3.25 2.486 5.196-.021 7.75-1.044 7.75-3.103 0-1.616-.78-1.883-5.5-1.883-5.2 0-5.5.136-5.5 2.5" fill="#1976D2" fill-rule="evenodd"/></svg>