<svg xmlns="http://www.w3.org/2000/svg" width="256" height="256"><path fill="#1976D2" fill-opacity=".016" fill-rule="evenodd" d="M0 128.004v128.004l128.25-.254 128.25-.254.254-127.75L257.008 0H0zm.485.496c0 70.4.119 99.053.265 63.672s.146-92.98 0-128S.485 58.1.485 128.5"/><path fill="#1976D2" fill-opacity=".179" fill-rule="evenodd" d="M112.365 34.429C97.767 37.756 85.945 44.266 75.011 55 34.497 94.772 50.787 161.893 105.5 180.628c7.115 2.436 9.494 2.746 21.5 2.801 15.695.072 22.079-1.31 34.583-7.483 25.818-12.747 41.741-38.475 41.741-67.446 0-33.717-21.155-62.216-53.824-72.508-8.982-2.83-28.053-3.632-37.135-1.563M125 56.4c0 1.823-6.333 28.262-7.09 29.6-1.316 2.325-1.077.032 1.1-10.547 1.105-5.372 1.873-9.904 1.706-10.071s-4.243 13.199-9.058 29.701-9.02 30.772-9.346 31.711c-.325.938 1.324-1.219 3.664-4.794 4.907-7.494 7.635-10.358 9.04-9.49.544.336 3.014.308 5.487-.063l4.497-.674V95h-3.5c-3.222 0-3.5-.238-3.5-3s.278-3 3.5-3 3.5-.238 3.5-3c0-2.667.333-3 3-3s3 .333 3 3c0 2.762.278 3 3.5 3s3.5.238 3.5 3-.278 3-3.5 3H131v16.773l4.497.674c2.473.371 4.943.399 5.487.063 1.405-.868 4.133 1.996 9.04 9.49 2.34 3.575 3.989 5.732 3.664 4.794-.326-.939-4.531-15.209-9.346-31.711s-8.891-29.868-9.058-29.701.601 4.699 1.706 10.071c3.834 18.634 1.57 14.829-2.939-4.939-1.754-7.693-3.447-14.218-3.761-14.5s-.319.611-.01 1.986c.31 1.375.816 7 1.126 12.5.63 11.17-.818 9.24-1.99-2.654C129.045 64.081 128.408 61 128 61s-1.045 3.081-1.416 6.846-1.066 8.154-1.543 9.75c-.834 2.788-.87 2.745-.901-1.096-.018-2.2.349-7.6.814-12s.666-8.187.446-8.417c-.22-.229-.4-.086-.4.317M114 59c-1.116.721-.539.973 2.25.985 2.063.008 3.75-.435 3.75-.985 0-1.274-4.029-1.274-6 0m22 0c0 .55 1.688.993 3.75.985 2.789-.012 3.366-.264 2.25-.985-1.971-1.274-6-1.274-6 0m-32.866 2.75C86.222 70.794 76.4 86.831 75.421 107c-.494 10.174-.688 10.194 3.936-.42 2.414-5.543 9.017-12.664 13.441-14.496 2.761-1.144 2.973-1.634 3.422-7.918.592-8.264 3.313-14.619 8.818-20.592 2.319-2.516 3.997-4.574 3.728-4.574s-2.803 1.237-5.632 2.75m47.794 1.788c5.538 6.008 8.259 12.35 8.852 20.628.449 6.284.661 6.774 3.422 7.918 4.424 1.832 11.027 8.953 13.441 14.496 4.625 10.616 4.43 10.595 3.943.42-.677-14.127-5.08-25.156-13.835-34.654-4.171-4.526-12.689-10.612-17.311-12.369-2.559-.973-2.449-.711 1.488 3.561m-40.16-.813c1.797.222 4.497.218 6-.01 1.503-.229.032-.411-3.268-.405s-4.529.192-2.732.415m29 0c1.797.222 4.497.218 6-.01 1.503-.229.032-.411-3.268-.405s-4.529.192-2.732.415M105 66c0 .564 2.833 1 6.5 1s6.5-.436 6.5-1-2.833-1-6.5-1-6.5.436-6.5 1m33 0c0 .564 2.833 1 6.5 1s6.5-.436 6.5-1-2.833-1-6.5-1-6.5.436-6.5 1m-47.492 8.202c-4.341 4.829-4.548 5.296-2.883 6.513 2.498 1.827 3.392 1.276 4.859-2.991.701-2.038 2.014-4.835 2.918-6.215 2.819-4.302.001-2.752-4.894 2.693m15.268-4.469c2.352.212 5.952.209 8-.006s.124-.388-4.276-.384c-4.4.003-6.076.179-3.724.39m37 0c2.352.212 5.952.209 8-.006s.124-.388-4.276-.384c-4.4.003-6.076.179-3.724.39M158 69.587c0 .416.718 1.549 1.595 2.518s2.184 3.48 2.904 5.579c1.355 3.953 2.978 4.971 5.422 3.4 1.215-.781 1.189-1.268-.184-3.362-1.757-2.683-9.737-9.349-9.737-8.135M100.5 73c-.392.635 2.323 1 7.441 1 4.706 0 8.059-.416 8.059-1 0-.577-3.147-1-7.441-1-4.093 0-7.719.45-8.059 1m39.5 0c0 .584 3.353 1 8.059 1 5.118 0 7.833-.365 7.441-1-.34-.55-3.966-1-8.059-1-4.294 0-7.441.423-7.441 1m-37.25 3.732c2.337.211 6.162.211 8.5 0 2.337-.21.425-.383-4.25-.383s-6.588.173-4.25.383m42 0c2.338.211 6.162.211 8.5 0 2.338-.21.425-.383-4.25-.383s-6.588.173-4.25.383M98.5 80c-.392.635 2.323 1 7.441 1 4.706 0 8.059-.416 8.059-1 0-.577-3.147-1-7.441-1-4.093 0-7.719.45-8.059 1m43.5 0c0 .584 3.353 1 8.059 1 5.118 0 7.833-.365 7.441-1-.34-.55-3.966-1-8.059-1-4.294 0-7.441.423-7.441 1m-57.653 3.537c-.324.846.197 2.406 1.158 3.468 1.343 1.484 2.18 1.699 3.621.928C90.157 87.381 91 86.094 91 85.072c0-3.043-5.58-4.33-6.653-1.535m82.403-.848c-2.169.567-2.28 3.626-.195 5.356 1.297 1.077 1.898.946 3.638-.794 3.418-3.418 1.566-5.871-3.443-4.562m-64.974 1.044c2.352.212 5.952.209 8-.006s.124-.388-4.276-.384c-4.4.003-6.076.179-3.724.39m45 0c2.352.212 5.952.209 8-.006s.124-.388-4.276-.384c-4.4.003-6.076.179-3.724.39M98 87c0 .571 3 1 7 1s7-.429 7-1-3-1-7-1-7 .429-7 1m46 0c0 .571 3 1 7 1s7-.429 7-1-3-1-7-1-7 .429-7 1m-63.461 5.182c-.847 2.849-1.521 6.337-1.499 7.75.036 2.313.235 2.176 2.007-1.375 1.082-2.169 2.976-5.017 4.21-6.331 2.205-2.347 2.21-2.411.302-3.807-2.942-2.15-3.357-1.839-5.02 3.763m89.939-3.789c-1.825 1.334-1.75 1.563 1.809 5.502 2.042 2.261 3.713 4.784 3.713 5.608s.486 1.497 1.079 1.497c1.255 0 .453-4.543-1.809-10.25-1.652-4.166-2.051-4.362-4.792-2.357m-68.728 2.33c1.787.222 4.713.222 6.5 0 1.787-.221.325-.403-3.25-.403s-5.037.182-3.25.403m46 0c1.787.222 4.713.222 6.5 0 1.787-.221.325-.403-3.25-.403s-5.037.182-3.25.403M93 94c-1.028.665 1.408.974 7.75.985 5.51.009 9.25-.389 9.25-.985 0-1.294-14.997-1.294-17 0m53 0c0 .596 3.74.994 9.25.985 6.342-.011 8.778-.32 7.75-.985-2.003-1.294-17-1.294-17 0m-52.713 3.74c3.182.199 8.132.197 11-.004 2.867-.201.263-.364-5.787-.362s-8.396.167-5.213.366m59 0c3.182.199 8.132.197 11-.004 2.867-.201.263-.364-5.787-.362s-8.396.167-5.213.366M84.5 101c-.399.646 3.656 1 11.441 1 7.373 0 12.059-.389 12.059-1 0-.608-4.48-1-11.441-1-6.549 0-11.705.428-12.059 1m63.5 0c0 .611 4.686 1 12.059 1 7.785 0 11.84-.354 11.441-1-.354-.572-5.51-1-12.059-1-6.961 0-11.441.392-11.441 1m-59.708 3.742c3.735.193 9.585.192 13-.003 3.414-.194.358-.352-6.792-.35-7.15.001-9.944.161-6.208.353m67 0c3.735.193 9.585.192 13-.003 3.414-.194.358-.352-6.792-.35-7.15.001-9.944.161-6.208.353M80.5 108c-.4.647 3.99 1 12.441 1 8.039 0 13.059-.384 13.059-1 0-.613-4.814-1-12.441-1-7.215 0-12.701.42-13.059 1m69.5 0c0 .616 5.02 1 13.059 1 8.451 0 12.841-.353 12.441-1-.358-.58-5.844-1-13.059-1-7.627 0-12.441.387-12.441 1m-71.002 3.75c-.002.412 3.936.629 8.75.482 16.227-.497 17.826-.87 4.502-1.052-7.287-.099-13.251.158-13.252.57m76.002-.088c10.919.732 22.004.777 22.002.088-.001-.412-5.965-.669-13.252-.57s-11.225.316-8.75.482m-76.473 3.294c-.435.705 3.598 1.044 12.414 1.044 7.182 0 13.059-.402 13.059-.893 0-1.294-24.676-1.44-25.473-.151M112.5 117c-1.343 2.598-1.355 3-.085 3 .807 0 1.755.465 2.106 1.034.399.646-.301.864-1.865.58-1.444-.262-2.705.07-2.979.785-.286.746.338 1.211 1.573 1.17 1.126-.038 2.267.565 2.535 1.34.337.973-.019 1.215-1.149.782-.9-.346-1.636-.159-1.636.414 0 2.094 3.51.305 3.831-1.953.261-1.836.792-2.213 2.508-1.782 1.198.301 2.797.164 3.554-.304 1.083-.669.896-1.109-.879-2.058-1.24-.664-1.997-.789-1.681-.278.79 1.279-3.109.894-4.441-.438-.77-.77-.755-1.679.051-3.185.62-1.159.898-2.107.618-2.107s-1.208 1.35-2.061 3m8.313-2.317c.721.289 1.584.253 1.916-.079s-.258-.568-1.312-.525c-1.165.048-1.402.285-.604.604m4.937.027c.709.259 1.25 2.15 1.25 4.373 0 3.589-.23 3.923-2.75 3.987-5.518.141-6.329 1.501-.895 1.501h5.485l.33-5.042c.312-4.774.197-5.048-2.17-5.159-1.375-.064-1.937.089-1.25.34m7-.048c.688.278 1.813.278 2.5 0 .688-.277.125-.504-1.25-.504s-1.937.227-1.25.504m6.25.356c-2.333.763-2.288.809.681.692 1.749-.068 2.96-.482 2.691-.917s-.576-.748-.681-.693-1.316.468-2.691.918m13 .089c0 .491 5.877.893 13.059.893 8.816 0 12.849-.339 12.414-1.044-.797-1.289-25.473-1.143-25.473.151M118.5 117c-.34.55.084 1 .941 1s1.559-.45 1.559-1-.423-1-.941-1-1.219.45-1.559 1m4.103-.167c-.283.459.12.834.897.834s1.18-.375.897-.834-.687-.833-.897-.833-.614.375-.897.833m8.341.132c1.183.731 1.203 1.153.119 2.459-.875 1.055-.937 1.576-.185 1.576.617 0 1.122-.477 1.122-1.059s.445-.784.989-.448c.593.367.718-.109.312-1.191-.614-1.638-.507-1.666 1.174-.302 1.624 1.316 1.79 1.318 1.359.015-.27-.816-1.802-1.585-3.404-1.708-2.036-.157-2.484.042-1.486.658m10.69 1.523c.445 1.16.142 1.363-1.24.833-1.625-.624-1.665-.526-.361.878.807.869 1.692 1.247 1.967.84.275-.406 1.174-.956 1.997-1.222 1.158-.372.993-.752-.727-1.673-1.884-1.008-2.135-.955-1.636.344m-63.636.262c-.002.412 3.936.63 8.75.482 15.534-.475 17.061-.878 4.002-1.057-7.013-.096-12.751.163-12.752.575m78.502-.093c9.512.732 21.504.783 21.502.093-.001-.412-5.74-.671-12.752-.575s-10.95.313-8.75.482m-33.5 1.902c0 .857.45 1.281 1 .941s1-1.041 1-1.559-.45-.941-1-.941-1 .702-1 1.559M134 122c-.591 1.105-.659 2-.152 2 .505 0 1.154-.9 1.442-2 .287-1.1.356-2 .152-2-.205 0-.853.9-1.442 2m-56 .25c0 .412 5.4.75 12 .75s12-.338 12-.75-5.4-.75-12-.75-12 .338-12 .75m76 0c0 .412 5.4.75 12 .75s12-.338 12-.75-5.4-.75-12-.75-12 .338-12 .75m-16.984.73c-1.167.729-.695 1.256 2.218 2.473 4.198 1.754 10.226 2.1 9.256.531-.346-.559-1.042-.761-1.548-.448-.505.312-.651-.13-.324-.984.328-.854.098-1.552-.511-1.552s-1.107.675-1.107 1.5-.675 1.5-1.5 1.5-1.5-.436-1.5-.969-.636-.724-1.413-.426c-.787.302-1.561-.142-1.75-1.005-.239-1.098-.768-1.278-1.821-.62m-58.724 2.645c.691.692 21.898.518 22.601-.185.242-.242-4.885-.44-11.393-.44s-11.552.281-11.208.625M108.5 126c-.34.55-.141 1 .441 1s1.059-.45 1.059-1-.198-1-.441-1-.719.45-1.059 1m46.607-.56c.703.703 21.91.877 22.601.185.344-.344-4.7-.625-11.208-.625s-11.635.198-11.393.44m-75.452 3.81c.254.412 4.685.75 9.845.75s9.591-.338 9.845-.75-4.175-.75-9.845-.75-10.1.338-9.845.75m77 0c.254.412 4.685.75 9.845.75s9.591-.338 9.845-.75-4.175-.75-9.845-.75-10.1.338-9.845.75M81 132.75c-.001.868 16.872.712 17.748-.165.322-.322-3.54-.585-8.581-.585-5.042 0-9.167.338-9.167.75m76.252-.165c.876.877 17.749 1.033 17.748.165 0-.412-4.125-.75-9.167-.75s-8.903.263-8.581.585M90.5 136l-8 .633 7.75.184c9.531.225 10.503 2.183 1.083 2.183-3.666 0-6.329.338-5.916.75.899.899 1.31.965 7.083 1.125 2.532.07 4.5.606 4.5 1.226 0 .687-1.654.969-4.405.75-2.422-.193-4.201-.022-3.952.38.249.403 17.959.732 39.357.732s39.108-.329 39.357-.732-1.53-.573-3.952-.38c-2.751.219-4.405-.063-4.405-.75 0-.62 1.968-1.156 4.5-1.226 5.773-.16 6.184-.226 7.083-1.125.413-.412-2.25-.75-5.916-.75-9.437 0-8.451-1.964 1.083-2.158l7.75-.159-9-.736c-10.763-.879-62.687-.843-74 .053m14.5 4.097c0 2.76.177 2.87 4.25 2.637 3.347-.192 4.22-.614 4.111-1.989-.076-.96.261-1.745.75-1.745s.889.836.889 1.857c0 1.535.782 1.857 4.5 1.857 2.475 0 4.5-.385 4.5-.857 0-.471-.398-.857-.883-.857-.486 0-1.12-.904-1.409-2.01-.476-1.817-1.301-1.998-8.617-1.891l-8.091.118zm32.31-2.007c-1.161 1.161-.602 4.91.733 4.91.446 0 1.016-.787 1.268-1.75.418-1.602.467-1.605.573-.043.096 1.418 1.001 1.656 5.366 1.406 4.847-.277 5.229-.48 4.978-2.645-.357-3.09-1.124-3.746-2.267-1.939-.521.824-.937.965-.946.321-.008-.645-1.553-1.15-3.515-1.15s-3.507.505-3.515 1.15c-.011.79-.263.76-.806-.094-.565-.891-1.097-.938-1.869-.166m-15.81 10.317c-5.248 2.706-7.002 3.091-14 3.079-5.835-.01-8.947-.515-11.5-1.864-5.302-2.803-2.297-.233 4.5 3.848 8.763 5.262 17.047 7.53 27.5 7.53s18.737-2.268 27.5-7.53c6.797-4.081 9.802-6.651 4.5-3.848-2.554 1.35-5.663 1.854-11.5 1.863-6.853.012-8.86-.41-14-2.938-3.3-1.623-6.225-3.015-6.5-3.092-.275-.078-3.2 1.251-6.5 2.952M95 147c.825.533 6.675.969 13 .969s12.175-.436 13-.969c1.006-.65-3.274-.969-13-.969s-14.006.319-13 .969m40 0c.825.533 6.675.969 13 .969s12.175-.436 13-.969c1.006-.65-3.274-.969-13-.969s-14.006.319-13 .969m-107 4.076c-10.175 1.015-20.525 1.75-23 1.634l-4.5-.21-.272 19.25L-.043 191h5.738c3.156 0 11.959-.507 19.563-1.126s14.072-.878 14.374-.575c.303.302.55 4.971.549 10.375-.002 11.061.812 13.146 6.119 15.664C57.177 220.5 79.995 222.5 128 222.5c58.464 0 82.172-3.131 86.457-11.417.871-1.684 1.369-6.032 1.369-11.945 0-5.114.232-9.529.516-9.813.283-.284 7.86.025 16.837.686s17.896 1.041 19.821.845l3.5-.356.271-19.149.271-19.148-4.271.283c-2.349.156-15.296-.635-28.771-1.758-35.638-2.968-35.343-3.125-34.809 18.54l.309 12.568-5 .589c-30.069 3.543-83.002 3.542-113-.002l-5-.59.151-13.086c.086-7.441-.306-14.09-.909-15.413-2.171-4.766-8.68-5.155-37.742-2.258m78.25-1.387c.963.252 2.537.252 3.5 0 .963-.251.175-.457-1.75-.457s-2.713.206-1.75.457m40 0c.963.252 2.537.252 3.5 0 .963-.251.175-.457-1.75-.457s-2.713.206-1.75.457m-20.239 2.798c-1.738 2.094-.449 6.513 1.9 6.513 2.305 0 3.696-4.564 2.01-6.596-1.486-1.789-2.372-1.771-3.91.083M.419 172c0 10.725.147 15.113.327 9.75.179-5.363.179-14.137 0-19.5-.18-5.363-.327-.975-.327 9.75M118.5 154.119c-1.65.516-4.237.711-5.75.434s-2.75-.135-2.75.314c0 .819 4.605 2.369 10.826 3.644 3.179.651 3.311.559 3-2.088-.379-3.219-1.226-3.586-5.326-2.304m13.964-.25c-.255.255-.464 1.472-.464 2.704 0 1.804.437 2.142 2.25 1.739 4.879-1.085 11.75-3.508 11.745-4.142-.007-.748-12.8-1.032-13.531-.301m-33.385 14.714c.048 1.165.285 1.402.604.605.289-.722.253-1.585-.079-1.917s-.568.258-.525 1.312"/><path fill="#1976D2" fill-opacity=".597" fill-rule="evenodd" d="M114.5 34.429c-29.623 5.863-52.404 27.459-59.645 56.54-3.103 12.465-2.346 29.091 1.88 41.292 4.309 12.44 8.487 18.957 18.765 29.269 15.152 15.203 31.114 21.844 52.5 21.844s37.348-6.641 52.5-21.844c10.278-10.312 14.456-16.829 18.765-29.269 4.226-12.201 4.983-28.827 1.88-41.292-3.921-15.747-12.613-29.655-25.36-40.577-6.203-5.315-20.761-12.732-29.285-14.921-8.623-2.213-23.615-2.702-32-1.042m5.341.743c-10.15.95-21.636 4.903-30.841 10.612-48.592 30.139-45.708 101.774 5.164 128.241C105.035 179.68 114.877 182 128 182s22.965-2.32 33.836-7.975c18.655-9.706 32.178-26.528 37.802-47.025 2.425-8.841 2.468-28.035.082-37-4.114-15.455-14.237-30.73-26.422-39.865-16.051-12.034-33.265-16.853-53.457-14.963m5.589 4.15c-.882 2.299-.034 10.2 1.07 9.968.55-.116 1.144-1.129 1.32-2.25.431-2.757 2.962-2.598 3.36.21.574 4.042 2.313 1.895 2.622-3.237.241-3.994-.013-5.013-1.25-5.013-.885 0-1.552.859-1.552 2 0 1.111-.667 2-1.5 2-.825 0-1.5-.873-1.5-1.941 0-2.439-1.827-3.674-2.57-1.737m-10.18.34c-1.873.756-1.507 2.037.75 2.628 1.532.4 2 1.364 2 4.116 0 2.591.436 3.594 1.561 3.594 1.284 0 1.442-.8.887-4.5-.563-3.753-.407-4.5.938-4.5.888 0 1.614-.45 1.614-1 0-1.017-5.474-1.256-7.75-.338m22.257 4.917c-2.58 4.403-2.748 7.062-.29 4.604 1.784-1.784 3.744-1.432 5.932 1.067l1.97 2.25-.64-4.878c-1.215-9.263-2.897-9.997-6.972-3.043m-32.145.48.611 3.058-2.891-2.058C101.492 44.926 99.923 44 99.596 44c-1.053 0-.639 2.852 1.013 6.98 1.926 4.815 3.851 5.393 2.855.857l-.695-3.164 2.787 2.192c3.937 3.097 5.094 1.404 2.923-4.28-1.985-5.199-4.054-6.212-3.117-1.526m43.675-.722c-.57 1.465-1.471 3.774-2.001 5.132-.891 2.285-.622 2.62 3.609 4.492 2.515 1.113 4.977 1.772 5.473 1.466 1.58-.976 4.882.647 4.882 2.4 0 .93.95 2.285 2.112 3.011 1.906 1.19 2.389.994 4.959-2.01 2.752-3.216 3.728-5.828 2.179-5.828-.412 0-2.199 1.687-3.969 3.75l-3.219 3.75.611-6.25c.715-7.304-.184-7.846-5.588-3.364-3.253 2.697-3.543 2.758-6.118 1.28-2.627-1.507-2.663-1.65-1.267-4.99.987-2.362 1.114-3.762.406-4.47-.709-.709-1.356-.198-2.069 1.631M140 45c0 .55.477 1 1.059 1s.781-.45.441-1-.816-1-1.059-1-.441.45-.441 1m-49.677 6.25c1.129 4.7 1.92 10.23 1.396 9.75-.3-.275-1.898-2.204-3.551-4.286-3.868-4.871-5.326-2.954-1.582 2.079a1393 1393 0 0 1 2.988 4.026c.648.896 4.426-2.539 4.426-4.024 0-2.162 3.576-4.291 4.552-2.711.479.775.984.78 1.744.02.589-.589.876-1.209.637-1.378a886 886 0 0 1-4.116-3.016c-4.637-3.411-7.246-3.596-6.494-.46M119 52c0 .55.45 1 1 1s1-.45 1-1-.45-1-1-1-1 .45-1 1m41.459.067c-.363.586-.445 1.281-.183 1.543s.743-.218 1.069-1.067c.676-1.762.1-2.072-.886-.476M93 53.441c0 .857.45 1.559 1 1.559s1-.423 1-.941-.45-1.219-1-1.559-1 .084-1 .941m21.275 2.098c-17.787 4.791-33.139 19.504-38.52 36.919-3.136 10.149-2.96 23.522.435 33.144 13.277 37.622 59.36 49.683 88.405 23.138 19.597-17.911 23.707-47.523 9.615-69.282-7.467-11.53-19.89-20.577-32.913-23.969-7.082-1.845-20.077-1.821-27.022.05m8.143 11.46c-1.514 6.6-2.937 11.815-3.163 11.59-.225-.226.324-4.326 1.221-9.113.897-4.786 1.494-8.829 1.327-8.984-.166-.154-4.834 15.197-10.372 34.114S101.515 129 101.701 129c.187 0 2.435-3.263 4.997-7.25 4.686-7.294 5.961-8.719 7.802-8.719.557 0 .503.325-.121.734-1.582 1.037-7.635 13.313-6.918 14.03.326.326 3.904-.232 7.95-1.24s8.643-1.587 10.213-1.287 3.56.169 4.422-.293c.962-.514 4.712-.004 9.701 1.319 4.474 1.187 8.415 1.878 8.758 1.535s-.979-3.805-2.937-7.694c-4.479-8.893-2.466-8.363 3.225.851 2.361 3.822 4.634 7.16 5.05 7.417s-3.765-14.981-9.293-33.862-10.187-34.203-10.353-34.049.43 4.198 1.327 8.984c.897 4.787 1.446 8.887 1.221 9.113-.226.225-1.649-4.99-3.163-11.59S130.626 55 130.378 55c-.247 0-.242 4.163.012 9.25l.463 9.25-1.081-7.75C129.178 61.487 128.38 58 128 58s-1.178 3.487-1.772 7.75l-1.081 7.75.463-9.25c.254-5.087.259-9.25.012-9.25-.248 0-1.69 5.4-3.204 11.999m-43.731-8.194c-3.129 3.266-3.43 4.566-.87 3.753 1.173-.372 2.653.313 4.174 1.933C84.275 66.922 87 67.845 87 66.187c0-.447-1.353-2.109-3.007-3.693-2.017-1.933-2.675-3.212-2-3.887C82.547 58.053 83 57.24 83 56.8c0-1.542-1.65-.775-4.313 2.005m24.061 2.854c-8.133 4.339-18.322 14.705-22.084 22.468-1.432 2.955-3.292 8.055-4.134 11.333-1.73 6.74-2.122 23.024-.53 22.04.55-.34 1-1.853 1-3.363 0-6.66 11.06-21.11 17.371-22.694 1.88-.472 2.145-1.295 2.266-7.037.173-8.261 4.538-17.688 10.585-22.864 5.221-4.469 4.068-4.439-4.474.117M113 59c-1.1.711-.383.973 2.691.985 2.305.008 4.469-.435 4.809-.985.801-1.295-5.495-1.295-7.5 0m22.5 0c.34.55 2.504.993 4.809.985 3.074-.012 3.791-.274 2.691-.985-2.005-1.295-8.301-1.295-7.5 0m13.278 2.542c6.047 5.176 10.412 14.603 10.585 22.864.121 5.742.386 6.565 2.266 7.037C167.94 93.027 179 107.477 179 114.137c0 1.51.45 3.023 1 3.363 1.592.984 1.2-15.3-.53-22.04-3.662-14.261-13.753-27.208-26.375-33.841-3.788-1.99-7.24-3.619-7.671-3.619s1.078 1.594 3.354 3.542m24.319.858c-1.853 1.912-3.012 3.929-2.62 4.562.518.839 1.081.82 2.154-.071 1.101-.914 1.735-.925 2.611-.049 1.62 1.62 4.277 1.442 5.796-.388 1.063-1.281.945-1.999-.688-4.187-2.79-3.737-3.515-3.724-7.253.133m-65.14.152c-1.145 1.379-.584 1.518 5.048 1.25 3.95-.188 6.492-.773 6.749-1.552.645-1.953-10.155-1.677-11.797.302m28.289-.302c.257.779 2.799 1.364 6.749 1.552 5.632.268 6.193.129 5.048-1.25-1.642-1.979-12.442-2.255-11.797-.302M176.5 63c-.399.646-.276 1.624.274 2.174q1 1 1.726-.174c.399-.646.276-1.624-.274-2.174q-1-1-1.726.174M72.163 66.598c-4.534 3.176-1.486 7.983 3.403 5.367 1.337-.716 2.702-1.031 3.033-.7.912.912-.526 2.735-2.158 2.735-.793 0-1.441.45-1.441 1 0 1.518 3.593 1.195 4.954-.445 1.688-2.033.899-5.967-1.278-6.382-1.004-.192-2.647.395-3.651 1.304-1.285 1.163-2.034 1.318-2.526.521-.413-.668.162-1.358 1.4-1.682 1.156-.302 2.101-.92 2.101-1.374 0-1.664-1.73-1.819-3.837-.344M104.5 66c-.39.63 1.97 1 6.382 1 3.85 0 7.278-.45 7.618-1 .39-.63-1.97-1-6.382-1-3.85 0-7.278.45-7.618 1m33 0c.34.55 3.768 1 7.618 1 4.412 0 6.772-.37 6.382-1-.34-.55-3.768-1-7.618-1-4.412 0-6.772.37-6.382 1m-34.833 2.667c-1.832 1.831.013 2.391 7.003 2.125 5.027-.191 7.812-.723 8.083-1.542.306-.925-1.516-1.25-7.003-1.25-4.079 0-7.717.3-8.083.667m35.565.539c.29.875 2.944 1.389 8.196 1.588 6.006.227 7.671 0 7.34-1-.29-.875-2.944-1.389-8.196-1.588-6.006-.227-7.671 0-7.34 1m42.018 1.128c-5.788 1.044-6.612 2.198-2.645 3.706 2.136.812 2.492 1.437 1.981 3.475-.963 3.837 1.498 3.01 4.664-1.566 4.352-6.292 3.829-7.027-4-5.615M90.578 74.18C86.357 79.111 86.059 81 89.5 81c1.925 0 2.501-.518 2.504-2.25.002-1.237.895-3.713 1.985-5.5 2.788-4.572.845-4.043-3.411.93M159 70.383c0 .445.87 2.03 1.934 3.524 1.063 1.493 2.237 3.925 2.608 5.404.758 3.022 1.328 3.236 3.797 1.431 1.559-1.14 1.248-1.724-3.309-6.213-2.767-2.724-5.03-4.59-5.03-4.146M100.5 73c-.392.635 2.303 1 7.382 1 4.4 0 8.278-.45 8.618-1 .392-.635-2.303-1-7.382-1-4.4 0-8.278.45-8.618 1m39 0c.34.55 4.218 1 8.618 1 5.079 0 7.774-.365 7.382-1-.34-.55-4.218-1-8.618-1-5.079 0-7.774.365-7.382 1m42 0c-.34.55-.168 1 .382 1s1.278-.45 1.618-1 .168-1-.382-1-1.278.45-1.618 1M67 74.316C67 75.641 73.814 80 75.886 80c2.269 0 .989-1.59-3.427-4.257C67.254 72.598 67 72.532 67 74.316M99 76.5c0 1.207 1.544 1.5 7.893 1.5 6.094 0 8.024-.342 8.469-1.5.483-1.261-.777-1.5-7.893-1.5-6.861 0-8.469.285-8.469 1.5m41.638 0c.445 1.158 2.375 1.5 8.469 1.5 6.349 0 7.893-.293 7.893-1.5 0-1.215-1.608-1.5-8.469-1.5-7.116 0-8.376.239-7.893 1.5m44.594 2.612c-4.879 3.456-4.713 4.876.577 4.915l3.691.026-2.75 1.705c-3.751 2.326-3.524 4.245.5 4.228 4.198-.017 7.75-.981 7.75-2.103 0-.485-1.45-.883-3.223-.883-3.201 0-3.208-.01-1-1.557C192 84.587 193 83.178 193 82.312c0-1.257-.755-1.455-3.75-.983l-3.75.591 2.75-1.691c1.512-.931 2.75-2.263 2.75-2.961 0-1.85-1.006-1.529-5.768 1.844M64.203 80.256c-.573.69-1.334 2.417-1.69 3.838-.59 2.348-.229 2.743 3.98 4.35 4.82 1.841 7.283 1.328 4.255-.886-2.388-1.746-2.222-2.197 1.252-3.408 3.535-1.233 4.115-3.468.676-2.605-1.475.371-2.799.012-3.623-.981-1.567-1.888-3.44-2.007-4.85-.308M98 80c0 .583 3.314 1 7.941 1 4.368 0 8.219-.45 8.559-1 .394-.637-2.49-1-7.941-1-5.039 0-8.559.411-8.559 1m43.5 0c.34.55 4.191 1 8.559 1 4.627 0 7.941-.417 7.941-1 0-.589-3.52-1-8.559-1-5.451 0-8.335.363-7.941 1M65 83.5c0 .825.402 1.5.893 1.5s1.152-.675 1.469-1.5c.35-.914.001-1.5-.893-1.5-.808 0-1.469.675-1.469 1.5m19.438-.399c-.375.605.272 2.054 1.437 3.218 2.029 2.029 2.19 2.043 3.871.338 1.673-1.697 1.664-1.846-.187-3.218-2.319-1.719-4.191-1.843-5.121-.338M98 83.5c0 1.2 1.5 1.5 7.5 1.5s7.5-.3 7.5-1.5-1.5-1.5-7.5-1.5-7.5.3-7.5 1.5m45 0c0 1.2 1.5 1.5 7.5 1.5s7.5-.3 7.5-1.5-1.5-1.5-7.5-1.5-7.5.3-7.5 1.5m24.176-.441c-2.842 1.139-2.559 4.311.422 4.739 2.538.365 4.661-1.958 3.812-4.171-.703-1.834-.983-1.872-4.234-.568m-41.467.565c-.39.39-.709 1.759-.709 3.043 0 2-.5 2.333-3.5 2.333-3.067 0-3.5.31-3.5 2.5s.433 2.5 3.5 2.5h3.5v9.378c0 7.115.362 9.677 1.5 10.622 1.197.993 1.803.993 3 0 1.138-.945 1.5-3.507 1.5-10.622V94h3.5c3.067 0 3.5-.31 3.5-2.5 0-2.181-.438-2.5-3.434-2.5-3.002 0-3.473-.345-3.75-2.75-.31-2.696-3.432-4.301-5.107-2.626M98 87c0 .571 2.98 1 6.941 1 3.818 0 7.219-.45 7.559-1 .391-.633-2.156-1-6.941-1-4.373 0-7.559.422-7.559 1m45.5 0c.34.55 3.741 1 7.559 1 3.961 0 6.941-.429 6.941-1 0-.578-3.186-1-7.559-1-4.785 0-7.332.367-6.941 1m-62.477 4.75c-.68 2.612-1.444 5.537-1.697 6.5-.772 2.934.226 1.989 3.553-3.363 2.483-3.994 2.927-5.416 2.027-6.5-1.874-2.258-2.578-1.648-3.883 3.363m89.953-3.221c-1.048 1.263-.916 1.917.756 3.75 1.113 1.222 2.737 3.571 3.606 5.221 2.033 3.855 2.092 1.309.123-5.318-1.626-5.477-2.429-6.131-4.485-3.653M60 90.277c0 .703.701 2.278 1.557 3.5C63.02 95.867 62.985 96 60.973 96c-3.405 0-1.726 2.365 2.366 3.333 2.027.479 4.468.555 5.423.169 1.536-.621 1.477-.803-.512-1.57-2.962-1.142-2.856-2.563.25-3.343 1.375-.345 2.5-1.342 2.5-2.215 0-1.126-.509-1.374-1.75-.852-4.275 1.797-6.05 1.685-6.719-.424-.727-2.29-2.531-2.874-2.531-.821m38 .223c0 1.179 1.389 1.5 6.5 1.5s6.5-.321 6.5-1.5-1.389-1.5-6.5-1.5-6.5.321-6.5 1.5m47 0c0 1.179 1.389 1.5 6.5 1.5s6.5-.321 6.5-1.5-1.389-1.5-6.5-1.5-6.5.321-6.5 1.5m44.194 2.228c-3.125.385-3.29.605-3 4.012.168 1.983.932 3.811 1.697 4.063 1.051.346 1.231-.181.737-2.15-.568-2.26-.286-2.689 2.109-3.214 4.538-.995 5.263-1.327 5.263-2.408 0-1.033-.652-1.062-6.806-.303M92.5 94c-.395.639 2.656 1 8.441 1 5.373 0 9.059-.407 9.059-1 0-.588-3.48-1-8.441-1-4.643 0-8.719.45-9.059 1m53.5 0c0 .593 3.686 1 9.059 1 5.785 0 8.836-.361 8.441-1-.34-.55-4.416-1-9.059-1-4.961 0-8.441.412-8.441 1m-58 3.5c-1.094 1.318.104 1.5 9.878 1.5 9.22 0 11.122-.257 11.122-1.5 0-1.232-1.764-1.5-9.878-1.5-7.56 0-10.169.352-11.122 1.5m59 0c0 1.243 1.902 1.5 11.122 1.5 9.774 0 10.972-.182 9.878-1.5-.953-1.148-3.562-1.5-11.122-1.5-8.114 0-9.878.268-9.878 1.5M84.5 101c-.399.646 3.656 1 11.441 1 7.373 0 12.059-.389 12.059-1 0-.608-4.48-1-11.441-1-6.549 0-11.705.428-12.059 1m63.5 0c0 .611 4.686 1 12.059 1 7.785 0 11.84-.354 11.441-1-.354-.572-5.51-1-12.059-1-6.961 0-11.441.392-11.441 1m-66 3.5c-1.096 1.32.327 1.5 11.878 1.5 10.997 0 13.122-.243 13.122-1.5 0-1.249-1.986-1.5-11.878-1.5-9.337 0-12.143.321-13.122 1.5m67 0c0 1.257 2.125 1.5 13.122 1.5 11.551 0 12.974-.18 11.878-1.5-.979-1.179-3.785-1.5-13.122-1.5-9.892 0-11.878.251-11.878 1.5m-87.958 4.219c-1.077 1.212-1.142 1.748-.25 2.045.664.221 1.208 1.94 1.208 3.819S62.45 118 63 118s1-1.364 1-3.031c0-1.818.622-3.27 1.552-3.627 1.332-.511 1.267-.862-.458-2.469-2.389-2.226-2.219-2.219-4.052-.154M80 108c0 .615 5 1 13 1s13-.385 13-1-5-1-13-1-13 .385-13 1m70 0c0 .615 5 1 13 1s13-.385 13-1-5-1-13-1-13 .385-13 1m40.706.935c-1.571 1.59-1.602 1.891-.25 2.41.922.354 1.544 1.813 1.544 3.624 0 1.667.45 3.031 1 3.031s1-1.537 1-3.417.558-3.602 1.241-3.83c.903-.301.786-.869-.428-2.083-1.998-1.998-1.863-2.007-4.107.265m-98.956 1.812C74.715 111.165 74.919 113 92 113c10.889 0 13-.244 13-1.5 0-.825-.112-1.402-.25-1.283-.138.12-5.987.358-13 .53m59.248 1.003c.002.936 3.27 1.25 13.002 1.25 7.49 0 13-.4 13-.944 0-.529-5.727-1.079-13.002-1.25-9.898-.233-13.001-.008-13 .944M78 115c0 .615 5 1 13 1s13-.385 13-1-5-1-13-1-13 .385-13 1m74 0c0 .615 5 1 13 1s13-.385 13-1-5-1-13-1-13 .385-13 1m-74 3.75c0 .933 3.167 1.25 12.5 1.25s12.5-.317 12.5-1.25-3.167-1.25-12.5-1.25-12.5.317-12.5 1.25m75 0c0 .933 3.167 1.25 12.5 1.25s12.5-.317 12.5-1.25-3.167-1.25-12.5-1.25-12.5.317-12.5 1.25M78 122c0 .611 4.667 1 12 1s12-.389 12-1-4.667-1-12-1-12 .389-12 1m76 0c0 .611 4.667 1 12 1s12-.389 12-1-4.667-1-12-1-12 .389-12 1m-90.814 3.055c-1.273.51-2.046 1.362-1.718 1.893s1.309.691 2.18.357c1.357-.521 1.412-.286.387 1.629-1.294 2.418-.468 4.384.908 2.159.458-.742 1.243-1.096 1.743-.787 1.857 1.148 3.596-1.047 2.93-3.699-.692-2.757-2.398-3.169-6.43-1.552m26.064-.308c-14.967.424-14.764 2.253.25 2.253 9.556 0 11.5-.254 11.5-1.5 0-.825-.112-1.404-.25-1.286s-5.312.357-11.5.533m65.748 1.003c.001.927 2.97 1.25 11.502 1.25 6.506 0 11.5-.408 11.5-.939 0-.517-5.176-1.08-11.502-1.25-8.701-.235-11.501-.007-11.5.939m32.002-.61c0 .627.742 1.682 1.649 2.345 1.458 1.067 1.383 1.195-.649 1.11-3.541-.147-3.472 2.045.104 3.291 1.757.613 3.577 1.114 4.045 1.114 1.583 0 .863-1.85-.899-2.311-1.25-.326-1.072-.49.622-.573 2.1-.103 2.215-.311 1-1.808-.781-.964-.864-1.387-.191-.984.649.39 1.436.295 1.749-.21.312-.506-.849-1.413-2.58-2.017-3.978-1.386-4.85-1.378-4.85.043M66.638 127.5c.317.825.753 1.5.969 1.5s.393-.675.393-1.5-.436-1.5-.969-1.5-.709.675-.393 1.5M79 129c0 .603 4.167 1 10.5 1s10.5-.397 10.5-1-4.167-1-10.5-1-10.5.397-10.5 1m77 0c0 .603 4.167 1 10.5 1s10.5-.397 10.5-1-4.167-1-10.5-1-10.5.397-10.5 1m-75.5 4c.34.55 4.641 1 9.559 1 5.294 0 8.941-.408 8.941-1 0-.597-3.853-1-9.559-1-6.118 0-9.337.36-8.941 1m76.5 0c0 .592 3.647 1 8.941 1 4.918 0 9.219-.45 9.559-1 .396-.64-2.823-1-8.941-1-5.706 0-9.559.403-9.559 1m-93 .893c0 .491.706 1.164 1.569 1.495 1.043.4 1.355 1.275.933 2.607-.35 1.103-.241 2.005.244 2.005 1.412 0 6.35-5.571 5.601-6.319-1.011-1.012-8.347-.825-8.347.212m119 1.433c0 1.368 4.066 5.674 5.358 5.674.401 0 .657-.562.567-1.25-.341-2.632.128-3.75 1.575-3.75.825 0 1.5-.45 1.5-1s-2.025-1-4.5-1c-3.07 0-4.5.421-4.5 1.326M82.5 136c.34.55 3.741 1 7.559 1 3.961 0 6.941.429 6.941 1 0 .557-2.686 1-6.059 1-7.476 0-7.145 1.933.368 2.15l5.191.15-4.5.6c-2.878.384-4.041.897-3.227 1.423 1.479.957 36.681 1.133 38.204.191.563-.348 1.483-.348 2.046 0 1.523.942 36.725.766 38.204-.191.814-.526-.349-1.039-3.227-1.423l-4.5-.6 5.191-.15c7.513-.217 7.844-2.15.368-2.15-3.373 0-6.059-.443-6.059-1 0-.571 2.98-1 6.941-1 3.818 0 7.219-.45 7.559-1 .409-.661-15.009-1-45.5-1s-45.909.339-45.5 1m-12.43 3.426c-2.778 2.956-1.992 5.127 1.241 3.431 2.175-1.141 2.177-1.134.278 1.004-2.534 2.854-1.408 3.726 3.05 2.358l3.637-1.116-2.825 2.948c-2.701 2.819-2.285 4.297.478 1.699 1.092-1.027 1.216-.771.696 1.439-.912 3.878.641 4.186 3.909.775 2.715-2.833 2.309-4.314-.47-1.714-1.097 1.026-1.234.826-.764-1.115.315-1.301.063-3.182-.56-4.18-.905-1.448-1.548-1.602-3.187-.762-1.688.865-1.831.817-.803-.271 2.054-2.172 1.542-4.232-.894-3.595-1.609.421-1.859.276-1-.583.629-.629 1.144-1.504 1.144-1.944 0-1.49-1.641-.811-3.93 1.626m35.597-1.759c-1.256 1.256-.668 4.119.976 4.75 2.182.837 3.196-.275 1.328-1.456-.996-.63-1.068-.935-.221-.946.688-.008 1.25-.69 1.25-1.515 0-1.522-2.115-2.051-3.333-.833m4.774.428c-.383.621-.077 1.521.681 2.001 1.082.686 1.096.877.069.889-.72.008-1.026.472-.681 1.031.908 1.469 2.49.187 2.49-2.016 0-2.279-1.594-3.466-2.559-1.905m4.016.653c.299.779.575 1.941.613 2.584.039.642.457.268.93-.832 1.231-2.865 1.179-3.167-.543-3.167-.92 0-1.324.572-1 1.415m3.898-.231c-.313.816-.313 2.15 0 2.966.759 1.977 3.645.802 3.645-1.483s-2.886-3.46-3.645-1.483m22.284-.823c-1.146 1.146-.672 2.444.611 1.673.937-.563.925-.35-.049.852-.72.889-.893 1.853-.389 2.165 1.228.759 2.188-.334 2.188-2.492 0-1.947-1.352-3.207-2.361-2.198m3.944.172c-.431.697-.513 1.537-.183 1.867.895.895 1.871-.421 1.387-1.871-.338-1.016-.574-1.016-1.204.004m-7.568.884c.009.412.452 1.425.985 2.25.784 1.213.972 1.069.985-.75.008-1.238-.435-2.25-.985-2.25s-.993.338-.985.75m10.985.183c0 .513-.907 1.22-2.015 1.572-1.108.351-1.732 1.096-1.387 1.654.422.683.958.685 1.637.006.555-.555 1.629-.771 2.387-.48.902.346 1.378-.199 1.378-1.578 0-1.159-.45-2.107-1-2.107s-1 .42-1 .933M119 140c0 .55.45 1 1 1s1-.45 1-1-.45-1-1-1-1 .45-1 1m60.538 1.25c-1.449 2.068-1.433 2.356.193 3.573 4.159 3.112 4.931 3.176 6.349.527 1.253-2.341 1.169-2.73-.964-4.457-2.993-2.424-3.661-2.381-5.578.357m1.923.813c-.665 1.076 1.064 2.886 2.789 2.922 1.232.025.851-1.657-.661-2.911-1.069-.887-1.585-.89-2.128-.011m-57.005 4.922c-1.675 1.073-5.909 2.685-9.41 3.582-5.372 1.376-7.316 1.443-12.456.433-3.349-.659-6.877-1.619-7.84-2.134-4.132-2.211-1.242.506 4.458 4.19 17.3 11.181 40.284 11.181 57.584 0 5.7-3.684 8.59-6.401 4.458-4.19-.963.515-4.491 1.475-7.84 2.134-5.133 1.009-7.085.943-12.419-.424-3.48-.891-7.767-2.511-9.527-3.598-3.848-2.379-3.285-2.379-7.008.007M176 145.64c0 .352.787 1.282 1.75 2.068 1.596 1.302 1.513 1.378-.939.856-1.479-.314-2.946-.154-3.261.356-.695 1.123 5.288 5.575 6.229 4.635.365-.365.001-1.082-.808-1.594-1.116-.706-.807-.934 1.279-.946 3.542-.019 3.489-1.352-.154-3.947-3.012-2.144-4.096-2.522-4.096-1.428M94 147c.825.533 7.125.969 14 .969s13.175-.436 14-.969c1.004-.649-3.628-.969-14-.969s-15.004.32-14 .969m40 0c.825.533 7.125.969 14 .969s13.175-.436 14-.969c1.004-.649-3.628-.969-14-.969s-15.004.32-14 .969m-30.272 2.722c1.775.221 4.925.224 7 .008 2.074-.217.622-.397-3.228-.402-3.85-.004-5.548.173-3.772.394m41 0c1.775.221 4.925.224 7 .008 2.074-.217.622-.397-3.228-.402-3.85-.004-5.548.173-3.772.394m-107.417.976c-1.203.234-2.389 1.185-2.634 2.113-.384 1.459-.461 1.437-.561-.155-.103-1.643-.687-1.764-5.366-1.109-5.58.78-8.322 1.045-13.427 1.296-2.097.104-3.332.752-3.634 1.907-.394 1.507-.473 1.522-.573.103-.092-1.301-1.242-1.66-5.48-1.71l-5.364-.064.054 18.96C.378 190.502.434 191 2.44 190.996c3.604-.007 29.89-1.962 34.31-2.552l4.25-.567v22.945l2.994 2.52c5.638 4.743 21.09 7.087 58.256 8.834 20.155.948 31.345.948 51.5 0 37.166-1.747 52.618-4.091 58.256-8.834l2.994-2.52v-22.998l3.75.571c7.319 1.115 36.175 2.769 37.204 2.133.575-.355 1.046-1.096 1.046-1.646s-.562-.662-1.25-.249c-.729.438-.624-.035.25-1.133s.979-1.571.25-1.133c-.687.413-1.25.301-1.25-.249s.45-1.278 1-1.618c1.492-.922 1.248-3.758-.25-2.912-1 .564-1 .436 0-.641.688-.741 1.25-1.734 1.25-2.206s-.562-.541-1.25-.153c-1 .564-1 .436 0-.641.688-.741 1.25-2.184 1.25-3.206 0-1.197-.445-1.608-1.25-1.153-1 .564-1 .436 0-.641.688-.741 1.25-2.634 1.25-4.206 0-1.997-.377-2.646-1.25-2.153-1 .564-1 .436 0-.641 1.489-1.604 1.712-7.35.25-6.447-1.417.876-1.242-.839.25-2.447 1.016-1.094.969-1.198-.25-.553s-1.266.541-.25-.553c1.484-1.6 1.685-4.334.253-3.449-.549.339-3.224.634-5.945.655-3.739.029-5.055.442-5.387 1.693-.387 1.458-.453 1.447-.555-.096-.083-1.248-1.048-1.795-3.366-1.907-5.128-.246-7.877-.51-13.411-1.284-4.512-.631-5.22-.492-5.634 1.109-.375 1.452-.497 1.495-.589.207-.208-2.913-9.692-3.937-10.427-1.125-.435 1.667-.463 1.667-.573 0-.094-1.414-1.062-1.75-5.046-1.75-4.318 0-4.985.279-5.364 2.25l-.434 2.25-.136-2.25c-.161-2.657-3.61-3.085-6.695-.832-1.73 1.264-1.978 2.944-2.285 15.419l-.344 13.999 2.344.446c2.326.442 2.327.447.094.582-2.011.122-2.25.66-2.25 5.066 0 4.318.279 4.985 2.25 5.364l2.25.434-2.212.136c-2.127.131-2.213.522-2.201 10.073.011 9.438.122 9.958 2.212 10.364l2.201.427-2.18.136c-1.408.088-2.334.933-2.614 2.386-.239 1.238-.495-.981-.57-4.93-.125-6.601-.318-7.216-2.386-7.614l-2.25-.434 2.25-.136c2.183-.132 2.25-.45 2.25-10.743 0-9.261-.201-10.53-1.582-10-.87.334-3.12.607-5 .607H179v10.43c0 10.022.088 10.448 2.25 10.864l2.25.434-2.25.136c-2.115.128-2.258.6-2.386 7.886-.075 4.262-.328 6.765-.562 5.561-.245-1.263-1.35-2.368-2.613-2.613l-2.189-.426 2.25-.136c2.011-.122 2.25-.66 2.25-5.066 0-4.318-.279-4.985-2.25-5.364l-2.25-.434 2.25-.136c2.177-.132 2.25-.467 2.25-10.283v-10.146l-7.651.646c-4.208.356-9.158.647-11 .647-3.346 0-3.349.005-3.349 4.93 0 4.318.279 4.985 2.25 5.364l2.25.434-2.193.136c-1.825.113-2.256.848-2.575 4.386l-.383 4.25-.174-4.18c-.145-3.472-.557-4.254-2.425-4.614l-2.25-.434 2.25-.136c2.015-.122 2.25-.658 2.25-5.136 0-4.791-.115-4.999-2.75-4.986-6.122.03-7.25.891-7.25 5.533 0 3.679.331 4.378 2.25 4.747l2.25.434-2.25.136c-2.011.122-2.25.66-2.25 5.066 0 4.318.279 4.985 2.25 5.364l2.25.434-2.25.136c-1.974.119-2.25.679-2.25 4.566 0 3.8.32 4.493 2.25 4.864 2.234.431 2.234.435.07.57-1.408.088-2.334.933-2.614 2.386-.239 1.238-.495-.981-.57-4.93-.125-6.601-.318-7.216-2.386-7.614l-2.25-.434 2.25-.136c2.011-.122 2.25-.66 2.25-5.066 0-4.318-.279-4.985-2.25-5.364l-2.25-.434 2.25-.136c1.98-.12 2.25-.676 2.25-4.636V186h-10v9.93c0 9.504.097 9.95 2.25 10.364l2.25.434-2.206.136c-2.025.125-2.235.731-2.551 7.386l-.346 7.25-.198-7.184c-.194-7.01-.265-7.193-2.949-7.6l-2.75-.416 2.712-.15 2.713-.15-.012-10-.012-10H111v4.43c0 3.8.32 4.493 2.25 4.864l2.25.434-2.25.136c-2.011.122-2.25.66-2.25 5.07 0 4.614.178 4.96 2.75 5.35l2.75.416-2.762.15c-2.735.149-2.761.215-2.62 6.687.078 3.595-.142 6.82-.488 7.167-.347.346-.63-.314-.63-1.468 0-1.379-.77-2.245-2.25-2.53l-2.25-.434 2.25-.136c1.974-.119 2.25-.679 2.25-4.566 0-3.8-.32-4.493-2.25-4.864l-2.25-.434 2.25-.136c2.011-.122 2.25-.66 2.25-5.066 0-4.318-.279-4.985-2.25-5.364l-2.25-.434 2.25-.136c1.971-.119 2.25-.68 2.25-4.529 0-4.855-.882-5.607-6.582-5.607H100v4.93c0 4.318.279 4.985 2.25 5.364l2.25.434-2.25.136c-2.173.131-2.25.475-2.25 10.066 0 9.504.097 9.95 2.25 10.364 2.234.431 2.234.435.07.57-1.408.088-2.334.933-2.614 2.386-.431 2.234-.435 2.234-.57.07-.088-1.408-.933-2.334-2.386-2.614l-2.25-.434 2.25-.136c2.011-.122 2.25-.66 2.25-5.066 0-4.318-.279-4.985-2.25-5.364l-2.25-.434 2.25-.136c1.974-.119 2.25-.679 2.25-4.566 0-3.8-.32-4.493-2.25-4.864l-2.25-.434 2.25-.136c2.015-.122 2.25-.658 2.25-5.136v-5H89v9.93c0 9.504.097 9.95 2.25 10.364l2.25.434-2.25.136c-2.1.127-2.259.618-2.386 7.386-.075 3.988-.328 6.265-.562 5.06q-.425-2.189-3.114-2.6l-2.688-.41 2.75-.15c2.562-.14 2.75-.451 2.75-4.567 0-2.597-.515-4.624-1.25-4.921-1-.403-1-.52 0-.583.82-.052 1.25-1.774 1.25-5.013 0-4.614-.178-4.96-2.75-5.35l-2.75-.416 2.805-.15c2.704-.145 2.794-.32 2.5-4.9l-.305-4.75-7.337-.655c-4.036-.36-8.855-.94-10.709-1.288l-3.371-.632v10.473c0 10.007.099 10.493 2.209 10.902l2.208.428-2.262.136c-2.12.127-2.253.545-2.12 6.673.078 3.595-.142 6.82-.488 7.167-.347.346-.63-.314-.63-1.468 0-1.379-.77-2.245-2.25-2.53l-2.25-.434 2.25-.136c2.173-.131 2.25-.475 2.25-10.063 0-8.613-.232-9.987-1.75-10.384-1.667-.435-1.667-.463 0-.573 1.414-.094 1.75-1.061 1.75-5.043 0-3.851-.382-5.026-1.75-5.384-1.264-.33-1.099-.489.596-.573l2.346-.116-.346-14.082c-.309-12.554-.556-14.235-2.287-15.5-3.018-2.205-6.346-1.801-6.853.832l-.434 2.25-.136-2.25c-.122-2.01-.661-2.25-5.063-2.25-3.851 0-5.026.382-5.384 1.75-.435 1.667-.463 1.667-.573 0-.116-1.756-2.518-2.08-7.805-1.052m43.927 2.464c-1.717 1.717-1.546 4.387.405 6.338 1.448 1.448 1.818 1.468 3.118.167.812-.811 1.171-1.968.798-2.571-1.07-1.732-2.565-1.275-1.858.568.43 1.119.256 1.427-.531.941-.644-.398-1.17-1.345-1.17-2.105 0-2.319 2.223-2.915 3.641-.976 1.643 2.247 3.206 1.046 1.722-1.322-1.338-2.134-4.495-2.67-6.125-1.04m44.369-.336c-.996 1.612.652 5.174 2.393 5.174s3.389-3.562 2.393-5.174c-.281-.454-1.358-.826-2.393-.826s-2.112.372-2.393.826m44.393.353c0 1.954 2.349 7.821 3.131 7.821.402 0 .874-1.012 1.049-2.25q.32-2.252 2.07-1.956c2.983.501 1.928-1.339-1.784-3.109-4.202-2.004-4.466-2.034-4.466-.506M.079 154.583c.048 1.165.285 1.402.604.605.289-.722.253-1.585-.079-1.917s-.568.258-.525 1.312m120.421-.528c-1.1.442-3.8.87-6 .951l-4 .146 3.5 1.348c1.925.741 4.963 1.382 6.75 1.424 2.577.06 3.25-.326 3.25-1.865 0-2.462-.975-3.02-3.5-2.004m12.198-.419c-.384.383-.698 1.581-.698 2.662 0 1.658.507 1.881 3.256 1.435 1.791-.29 4.828-1.212 6.75-2.049l3.494-1.521-4.668-.081c-2.568-.045-5.291-.321-6.052-.613-.762-.292-1.698-.217-2.082.167m-87.541 3.557c-.141 2.41-.603 2.732-4.407 3.075l-4.25.383 4.25.174c3.548.146 4.25.511 4.25 2.206 0 1.118-.64 2.277-1.423 2.578-.782.3-1.707 1.288-2.055 2.195-.43 1.121.266.856 2.172-.828a487 487 0 0 1 2.818-2.476c.007 0-.259-2.25-.592-5s-.676-3.788-.763-2.307m164.8 2.358c-.413 4.564-.192 5.27 2.29 7.324 1.737 1.437 2.536 1.722 2.172.776-.315-.823-1.214-1.742-1.996-2.042-.783-.301-1.423-1.434-1.423-2.52 0-1.596.815-2.047 4.25-2.357l4.25-.383-4.184-.174c-3.757-.157-4.22-.455-4.543-2.925-.236-1.806-.516-1.017-.816 2.301M34 158.44c0 2.082-.549 2.497-3.75 2.832l-3.75.392 3.677.168c2.568.117 3.814.695 4.134 1.918.251.963.509-.387.573-3S34.775 156 34.5 156s-.5 1.098-.5 2.44m22.1-.083c-.074 2.107-.494 2.706-1.6 2.281-.825-.316-1.5-.188-1.5.285s-1.125 1.143-2.5 1.488-2.5 1.034-2.5 1.531c0 .498 1.237.336 2.75-.359a385 385 0 0 1 4.829-2.173c1.647-.721 1.928-1.43 1.35-3.41-.726-2.486-.73-2.484-.829.357m5.4-.357c-1.65 1.093-2.55 1.98-2 1.971 1.003-.016 6.44-3.913 5.5-3.942-.275-.009-1.85.878-3.5 1.971m105 0c.652 2.053-.885 2.805-2.01.984-.346-.559-1.055-.753-1.577-.43-1.017.628 2.649 6.446 4.061 6.446.462 0 .603-.9.316-2-.584-2.231.677-2.633 2.51-.8 1.836 1.836 1.551-.735-.415-3.735-1.942-2.964-3.772-3.259-2.885-.465m26.25-.422c1.238.916 2.257 2.624 2.265 3.794.013 1.74.192 1.855.985.628 1.418-2.194 1.311-2.401-2.25-4.328-2.705-1.464-2.872-1.48-1-.094m6.122.673c-.544 2.515-.254 2.854 3.369 3.939 2.322.696 4.309 2.041 4.798 3.249.814 2.012.836 2.008.898-.17.044-1.573-.675-2.416-2.437-2.858-1.375-.345-2.5-1.015-2.5-1.488s-.642-.614-1.426-.313c-.989.38-1.53-.319-1.766-2.281l-.341-2.829zm22.394 2.249c-.019 2.75.167 4.238.412 3.307.291-1.102 1.735-1.829 4.134-2.082l3.688-.389-3.684-.168c-3.198-.146-3.738-.53-4.1-2.918-.229-1.512-.432-.5-.45 2.25m-134.151-.662-2.096 2.944 2.519 1.651c2.651 1.737 4.462 1.368 4.462-.909 0-.746.563-1.562 1.25-1.812.943-.343.978-.916.143-2.333-1.723-2.924-3.987-2.758-6.278.459M11 162.5c0 2.658.27 4.563.6 4.233.78-.78.78-7.686 0-8.466-.33-.33-.6 1.575-.6 4.233m232.812-2.25c-.231 1.238-.104 3.375.284 4.75.541 1.918.728 1.394.804-2.25.106-5.057-.394-6.207-1.088-2.5M90.5 160c.34.55.816 1 1.059 1s.441-.45.441-1-.477-1-1.059-1-.781.45-.441 1M.232 163c0 1.925.206 2.713.457 1.75.252-.963.252-2.537 0-3.5-.251-.963-.457-.175-.457 1.75m160.083-1.315c.489 2.303-1.861 4.109-2.613 2.009-.236-.657-.748-.898-1.139-.537-.995.92 2.317 7.035 3.436 6.344.502-.311.678-1.18.389-1.932-.288-.752-.091-1.635.439-1.962.53-.328 1.232.105 1.561.962s1.052 1.277 1.608.934c1.096-.678.287-2.624-2.497-6.003-1.634-1.984-1.644-1.982-1.184.185M18 162l-4.5.7 5.25.15c2.933.084 5.25-.291 5.25-.85 0-.55-.337-.932-.75-.85s-2.775.465-5.25.85m70-.118c0 .55.45 1.278 1 1.618s1 .168 1-.382-.45-1.278-1-1.618-1-.168-1 .382m144 .241c0 .482 2.325.877 5.167.877s4.979-.165 4.75-.367c-.967-.851-9.917-1.312-9.917-.51m-137.25 1.994c-3.213 2.395-3.631 4.297-.743 3.381 1.493-.474 2.218-.064 2.835 1.604.998 2.698 1.837 1.602 2.309-3.018.424-4.145-.765-4.677-4.401-1.967m-86.937-.434c.721.289 1.584.253 1.916-.079s-.258-.568-1.312-.525c-1.165.048-1.402.285-.604.604m239 0c.721.289 1.584.253 1.916-.079s-.258-.568-1.312-.525c-1.165.048-1.402.285-.604.604M62.872 165.75c-1.243 1.586-1.208 1.621.378.378.963-.755 1.75-1.543 1.75-1.75 0-.823-.821-.294-2.128 1.372m37.553 1.797c-.819 4.368-.036 5.316 2.499 3.021 1.856-1.679 1.915-1.67 1.419.227-.867 3.318 1.372 3.414 3.69.159 2.382-3.345 1.884-5.519-.546-2.381-1.19 1.537-1.372 1.582-.901.225.984-2.834-.536-4.153-2.616-2.271-1.724 1.56-1.799 1.535-1.284-.435.304-1.161.071-2.092-.524-2.092-.589 0-1.371 1.596-1.737 3.547m50.825-2.885c-1.881.759-1.531 6.082.474 7.204 2.092 1.17 5.276-.278 5.276-2.401 0-2.029-1.641-1.839-2.464.285-.636 1.638-.768 1.629-2.075-.147-1.583-2.151-.945-4.003 1.108-3.215.752.289 1.604.141 1.893-.327.407-.658-1.991-2.359-2.794-1.982-.092.043-.73.306-1.418.583m39.75-.284c0 .207.787.995 1.75 1.75 1.586 1.243 1.621 1.208.378-.378-1.307-1.666-2.128-2.195-2.128-1.372m4.079 3.411c-.066 2.762.144 3.083 1.31 2 .764-.709 1.057-1.514.65-1.789s-.996-1.175-1.31-2-.607-.02-.65 1.789m-135.868-.188c-.71.769-.849 1.399-.309 1.399 1.038 0 2.541-1.902 1.948-2.466-.192-.183-.93.297-1.639 1.067M.232 170c0 1.925.206 2.713.457 1.75.252-.963.252-2.537 0-3.5-.251-.963-.457-.175-.457 1.75M34 169.5c0 2.389-.267 2.5-6 2.5-3.3 0-6.001.338-6.002.75s2.663.599 5.92.415c5.531-.312 5.95-.181 6.365 2 .245 1.284.506-.028.581-2.915S34.775 167 34.5 167s-.5 1.125-.5 2.5m76.081 1.168c-1.192 4.318-1.345 3.977 2.171 4.859 1.759.442 2.748.291 2.748-.419 0-.609-.726-1.108-1.613-1.108-1.23 0-1.508-.725-1.167-3.044.65-4.432-.936-4.645-2.139-.288M221.286 172c-.007 3.025.186 4.449.431 3.165.415-2.181.834-2.312 6.365-2 3.257.184 5.921-.003 5.92-.415s-2.672-.75-5.936-.75c-5.705 0-5.949-.106-6.35-2.75-.229-1.512-.422-.275-.43 2.75m-79.624-.303c-.65 4.005-.057 5.56 1.29 3.381.49-.793 1.724-1.134 2.946-.815 2.613.684 2.68-.991.158-4.013-2.639-3.164-3.703-2.813-4.394 1.447M11.136 170.68c-.088 1.408-.933 2.334-2.386 2.614-2.234.431-2.234.435-.07.57 1.408.088 2.334.933 2.614 2.386.432 2.243.434 2.243.57.063.104-1.68.889-2.28 3.386-2.59l3.25-.403-3.18-.16c-2.439-.123-3.282-.685-3.614-2.41-.431-2.234-.435-2.234-.57-.07m37.597.739-5.766 2.371-1.484-2.117c-.816-1.165-1.483-1.601-1.483-.969s-.788 1.355-1.75 1.607c-1.084.283-.711.501.981.573 2.877.122 3.367 1.094 4.089 8.116.341 3.316.368 3.281.52-.673l.16-4.174 3.062 1.528c1.685.84 3.313 1.278 3.618.972.306-.306-.604-.847-2.021-1.202-5.644-1.417-5.049-3.076 2.069-5.774 3.725-1.411 6.097-2.58 5.272-2.598s-4.095 1.036-7.267 2.34M118.8 170.2c.66.66 1.2 2.46 1.2 4s.45 2.8 1 2.8 1-1.35 1-3q0-3 1.5-3c.913 0 1.5.931 1.5 2.378 0 2.889 2.161 4.881 4.373 4.032 1.123-.431 1.627-1.849 1.627-4.576 0-2.38-.398-3.706-1-3.334-.55.34-1 1.941-1 3.559s-.45 2.941-1 2.941-1-1.298-1-2.883c0-3.026-1.777-4.075-6.95-4.103-1.906-.011-2.183.253-1.25 1.186M133 173c0 2.2.45 4 1 4s1-.675 1-1.5c0-2.037 1.679-1.895 2.875.242.536.958 1.279 1.438 1.65 1.066s.307-1.267-.144-1.991-.688-2.329-.529-3.567c.247-1.908-.176-2.25-2.78-2.25-2.917 0-3.072.202-3.072 4m111.136-2.313c-.104 1.68-.889 2.28-3.386 2.59l-3.25.403 3.18.16c2.439.123 3.282.685 3.614 2.41.431 2.234.435 2.234.57.07.088-1.408.933-2.334 2.386-2.614 2.234-.431 2.234-.435.07-.57-1.408-.088-2.334-.933-2.614-2.386-.432-2.243-.434-2.243-.57-.063m-39.886.475c1.512.553 2.757 1.755 2.765 2.671.012 1.244.222 1.341.83.383.448-.706 1.564-.996 2.479-.645 2.165.83 1.29 2.132-2.651 3.947-2.196 1.012-2.404 1.255-.673.79 1.375-.37 3.255-.687 4.179-.704.923-.018 1.639-.274 1.591-.568-.337-2.068 1.846-4.053 4.587-4.172 2.354-.102 2.578-.245.893-.57-1.238-.238-2.25-.952-2.25-1.586s-.683-.178-1.517 1.013l-1.517 2.166-4.233-1.922c-2.328-1.056-4.908-1.895-5.733-1.864s-.262.509 1.25 1.061m-140.756 1.847c-.343.555-2.282 1.92-4.309 3.032-2.587 1.42-2.94 1.834-1.185 1.388 2.281-.579 8.344-5.429 6.786-5.429-.367 0-.949.454-1.292 1.009m129.756 1.587c.963 1.134 1.757 2.701 1.765 3.483.013 1.182.161 1.192.878.06.474-.748.613-2.311.309-3.474-.315-1.205-.734-1.569-.975-.847-.339 1.019-.743 1.017-2.074-.009-1.376-1.061-1.36-.929.097.787M.158 176c0 1.375.227 1.938.504 1.25.278-.687.278-1.812 0-2.5-.277-.687-.504-.125-.504 1.25m52.342 3c-.34.55-.141 1 .441 1 .604 0 1.059 2.148 1.059 5 0 3.325-.419 5.005-1.25 5.015-.961.012-.971.193-.045.781.803.511 1.204 3.981 1.204 10.42 0 8.255-.247 9.72-1.704 10.103-1.568.413-1.564.458.045.565 1.075.071 1.795.984 1.866 2.366.082 1.594.246 1.758.561.561.245-.928 1.431-1.879 2.634-2.113l2.189-.426-2.25-.136c-2.01-.121-2.25-.661-2.25-5.053 0-2.997.488-5.113 1.25-5.421 1-.403 1-.52 0-.583-.923-.058-1.25-3.088-1.25-11.579 0-10.452-.703-13.407-2.5-10.5m148.182.387c-.373.971.042 1.237 1.382.886 1.052-.275 1.667-.899 1.366-1.387-.814-1.316-2.144-1.074-2.748.501M33.892 180.5c-.29 1.1-.205 3.125.19 4.5.659 2.293.727 2.319.818.316.072-1.581.859-2.298 2.85-2.6l2.75-.416-2.677-.15c-1.664-.093-2.814-.812-3.04-1.9-.317-1.527-.431-1.495-.891.25m187.178-.316c-.043 1.044-1.114 1.841-2.82 2.1l-2.75.416 2.68.15c1.951.109 2.776.762 3.03 2.4.333 2.144.376 2.128.897-.319.3-1.413.206-3.438-.21-4.5-.624-1.593-.769-1.636-.827-.247M11.1 181.68c-.065 1.424-.881 2.331-2.35 2.614-2.234.431-2.234.435-.07.57 1.437.09 2.3.904 2.53 2.386.339 2.179.366 2.171.874-.25.289-1.375.208-3.625-.18-5-.644-2.284-.713-2.312-.804-.32m46.65-1.018c.688.278 1.813.278 2.5 0 .688-.277.125-.504-1.25-.504s-1.937.227-1.25.504m138 0c.688.278 1.813.278 2.5 0 .688-.277.125-.504-1.25-.504s-1.937.227-1.25.504M243.916 182c-.289 1.375-.208 3.625.18 5 .644 2.284.713 2.312.804.32.065-1.424.881-2.331 2.35-2.614 2.234-.431 2.234-.435.07-.57-1.437-.09-2.3-.904-2.53-2.386-.339-2.179-.366-2.171-.874.25M.079 183.583c.048 1.165.285 1.402.604.605.289-.722.253-1.585-.079-1.917s-.568.258-.525 1.312m19.671.14c1.788.222 4.712.222 6.5 0 1.788-.221.325-.403-3.25-.403s-5.038.182-3.25.403m210 0c1.787.222 4.713.222 6.5 0 1.787-.221.325-.403-3.25-.403s-5.037.182-3.25.403m-187.057 7.026c.107 3.163.219 6.016.25 6.34.031.325 1.294 1.125 2.807 1.778l2.75 1.188-2.437-1.923c-2.136-1.685-2.405-2.616-2.178-7.527.143-3.083-.11-5.605-.562-5.606s-.736 2.587-.63 5.75m166.807-3.124c-2.204 1.876-2.398 2.252-.729 1.418 1.249-.625 2.824-.818 3.5-.429s.895.338.488-.112-.24-1.422.372-2.16c1.863-2.245-.443-1.43-3.631 1.283m-163.767.499c.679.684 1.486.991 1.793.683.308-.308-.247-.867-1.233-1.243-1.425-.542-1.54-.428-.56.56M198 191l-2.5.801 2.5.029c1.375.016 3.4-.357 4.5-.83l2-.859-2 .029c-1.1.016-3.125.39-4.5.83m-141.187.683c.721.289 1.584.253 1.916-.079s-.258-.568-1.312-.525c-1.165.048-1.402.285-.604.604m15.27 1.676c1.195 1.03 5.917 1.557 5.917.66 0-.56-1.425-1.019-3.167-1.019s-2.979.162-2.75.359m108.73.324c.721.289 1.584.253 1.916-.079s-.258-.568-1.312-.525c-1.165.048-1.402.285-.604.604m-14.396 1.183c.498.805 5.583.366 5.583-.483 0-.21-1.377-.383-3.059-.383s-2.818.39-2.524.866M121 196c0 .55.45 1 1 1s1-.45 1-1-.45-1-1-1-1 .45-1 1m91-.032c0 .532-1.238 1.639-2.75 2.46-3.246 1.761-2.435 2.069 1.148.437 2.534-1.155 4.336-3.865 2.571-3.865a.97.97 0 0 0-.969.968M42.772 202.75c-.246 2.063-.108 4.875.305 6.25s.79 1.907.837 1.183c.056-.859.87-1.118 2.336-.745l2.25.573-2.25-1.159c-2.414-1.242-2.547-1.628-2.275-6.602.245-4.475-.655-4.101-1.203.5m156.738-.734c.346.559 1.047.758 1.559.441 1.387-.857 1.129-1.457-.628-1.457-.857 0-1.276.457-.931 1.016m-123.76 2.69c1.237.238 3.263.238 4.5 0 1.237-.239.225-.434-2.25-.434s-3.487.195-2.25.434m88.75.362c-2.753.638-2.65.705 1.25.814 4.239.118 5.369-.292 3-1.088-.687-.231-2.6-.108-4.25.274m-9.5.991c0 .582.45.781 1 .441s1-.816 1-1.059-.45-.441-1-.441-1 .477-1 1.059m3.813-.376c.721.289 1.584.253 1.916-.079s-.258-.568-1.312-.525c-1.165.048-1.402.285-.604.604m-39.563 1.033c1.513.229 3.987.229 5.5 0s.275-.416-2.75-.416-4.263.187-2.75.416m92.25.375c-.55.545-1.9 1.672-3 2.505-1.95 1.477-1.946 1.488.184.459 2.882-1.392 3.082-1.354 3.678.695.402 1.386.475 1.334.348-.25-.088-1.1.193-2.562.624-3.25.924-1.473-.392-1.588-1.834-.159m-56.325 4.589c-.145 3.472-.557 4.254-2.425 4.614-2.234.431-2.234.435-.07.57 1.408.088 2.334.933 2.614 2.386.431 2.238.434 2.239.57.066.098-1.568.91-2.3 2.886-2.6l2.75-.416-2.693-.15c-2.411-.134-2.732-.594-3.075-4.4l-.383-4.25zM198 212l-2.5.801h2.5c1.375 0 3.625-.361 5-.801l2.5-.801H203c-1.375 0-3.625.361-5 .801m-125.187 2.683c.721.289 1.584.253 1.916-.079s-.258-.568-1.312-.525c-1.165.048-1.402.285-.604.604M76 215c0 .55.45 1 1 1s1-.45 1-1-.45-1-1-1-1 .45-1 1m3.813.683c.721.289 1.584.253 1.916-.079s-.258-.568-1.312-.525c-1.165.048-1.402.285-.604.604M166 216c0 .55.45 1 1 1s1-.45 1-1-.45-1-1-1-1 .45-1 1m3.813-.317c.721.289 1.584.253 1.916-.079s-.258-.568-1.312-.525c-1.165.048-1.402.285-.604.604M121 217c0 .55.45 1 1 1s1-.45 1-1-.45-1-1-1-1 .45-1 1"/><path fill="#1976D2" fill-opacity=".976" fill-rule="evenodd" d="M125.75 33.706c1.237.238 3.262.238 4.5 0 1.238-.239.225-.434-2.25-.434s-3.487.195-2.25.434m-9 .956c.688.278 1.813.278 2.5 0 .688-.277.125-.504-1.25-.504s-1.937.227-1.25.504m20 0c.688.278 1.813.278 2.5 0 .688-.277.125-.504-1.25-.504s-1.937.227-1.25.504M116.5 40c-2.425.617-2.569.786-.75.882 1.74.091 2.266.741 2.32 2.868.039 1.513.457 3.65.93 4.75.647 1.505.877.824.93-2.75.038-2.612.52-4.75 1.07-4.75s1-.45 1-1c0-1.117-1.109-1.117-5.5 0m9.636 2.168c-.075 2.018-.409 4.38-.743 5.25s-.109 1.582.5 1.582S127 48.1 127 47c0-3.059 4.975-2.813 5.07.25.067 2.147.11 2.158.93.25 1.203-2.8 1.203-8.5 0-8.5-.55 0-1 .9-1 2 0 2.993-4.712 2.771-5.294-.25-.275-1.427-.483-.909-.57 1.418m-32.386-.596c-3.877 2.103-3.438 2.829.5.827 3.77-1.918 4.437-2.414 3.167-2.359-.505.022-2.154.711-3.667 1.532m44.054 2.937c-1.482 2.442-2.301 4.684-1.819 4.982s1.159.084 1.505-.475c1.003-1.622 4.321-1.175 5.385.726.536.958 1.212 1.504 1.501 1.215.79-.79-1.826-10.279-2.924-10.605-.524-.156-2.165 1.715-3.648 4.157m20.279-4.136c1.029.921 6.917 3.626 6.917 3.178 0-.576-5.544-3.551-6.617-3.551-.394 0-.529.168-.3.373M105.27 43.75c.277.962.862 2.627 1.3 3.699.745 1.824.599 1.808-2.291-.25-3.768-2.683-5.765-2.871-4.784-.449a158 158 0 0 1 1.705 4.5c.548 1.513 1.39 2.75 1.873 2.75s.439-1.154-.098-2.565c-1.406-3.698-1.285-3.792 1.929-1.503 2.658 1.892 5.096 2.682 5.096 1.651 0-1.173-4.021-9.583-4.581-9.583-.359 0-.426.788-.149 1.75m34.4.667c-.299.78.103 1.666.893 1.969.949.364 1.437-.117 1.437-1.417 0-2.276-1.529-2.638-2.33-.552m8.843 2.205c-.832 1.992-1.513 4.028-1.513 4.525 0 1.106 5.056 3.131 5.845 2.341.312-.312-.425-.827-1.639-1.144-2.6-.68-2.677-1.281-.757-5.876.797-1.907 1.028-3.468.513-3.468-.514 0-1.616 1.63-2.449 3.622M82.872 48.75c-1.243 1.586-1.208 1.621.378.378C84.916 47.821 85.445 47 84.622 47c-.207 0-.995.788-1.75 1.75M171 47.378c0 .207.787.995 1.75 1.75 1.586 1.243 1.621 1.208.378-.378-1.307-1.666-2.128-2.195-2.128-1.372m-12.758 3.79c-2.279 1.751-3.889 3.594-3.579 4.095.326.529.999.475 1.603-.129 1.344-1.344 4.734.376 4.734 2.401 0 .806.389 1.465.864 1.465 1.164 0 2.365-9.171 1.335-10.201-.448-.448-2.679.618-4.957 2.369m-67.231-.418c.02 3.235 1.245 9.25 1.883 9.25.347 0 1.079-1.013 1.626-2.25.741-1.676 1.694-2.177 3.737-1.962 1.509.158 2.743.067 2.743-.202 0-.579-8.601-6.586-9.43-6.586-.314 0-.565.788-.559 1.75m-16.045 5L69.5 61.5l5.75-5.466C80.592 50.956 81.458 50 80.716 50c-.156 0-2.744 2.587-5.75 5.75M180 55.5c2.987 3.025 5.657 5.5 5.932 5.5s-1.945-2.475-4.932-5.5-5.657-5.5-5.932-5.5 1.945 2.475 4.932 5.5m-61-3.441c0 .582.45.781 1 .441s1-.816 1-1.059-.45-.441-1-.441-1 .477-1 1.059m40.667-.392c-1.151 1.15-.729 2.333.833 2.333.825 0 1.5-.675 1.5-1.5 0-1.562-1.183-1.984-2.333-.833M93 53.531c0 1.618 1.563 1.986 2.435.574.305-.493-.119-1.153-.941-1.469-.907-.348-1.494.003-1.494.895m74.257 2.424c-3.768 4.778-3.65 6.806.148 2.545 1.961-2.2 3.572-4.337 3.58-4.75.03-1.501-1.536-.575-3.728 2.205M84.041 54.75c.074 1.379 5.909 7.633 6.536 7.006.34-.34-.663-2.224-2.229-4.187-2.693-3.374-4.398-4.49-4.307-2.819m38.919-.552c-.022.166-.201 2.777-.4 5.802-.385 5.894-.333 5.861 1.6-1l1.268-4.5.629 5 .629 5 .157-4.25c.086-2.337.607-4.25 1.157-4.25s1.071 1.913 1.157 4.25l.157 4.25.629-5 .629-5 1.268 4.5c1.933 6.862 1.982 6.891 1.644 1l-.316-5.5-5.084-.302c-2.796-.167-5.102-.167-5.124 0m-8.46 1.652c-1.1.357-2.104 1.186-2.23 1.841-.162.838.873.733 3.5-.355 2.051-.851 3.918-1.724 4.147-1.941.632-.6-3.151-.282-5.417.455m21.583-.455c.23.217 2.096 1.09 4.147 1.941 2.627 1.088 3.662 1.193 3.5.355-.126-.655-1.13-1.484-2.23-1.841-2.266-.737-6.049-1.055-5.417-.455m-57.326 4.082c-1.508 1.328-2.334 2.666-1.835 2.975.499.308 1.113-.005 1.365-.696.298-.818 1.722-.054 4.085 2.19 4.166 3.957 4.961 3.055.976-1.105-2.216-2.312-2.443-3.022-1.378-4.305 1.972-2.376-.15-1.754-3.213.941M108 58c-.825.533-1.05.969-.5.969s1.675-.436 2.5-.969 1.05-.969.5-.969-1.675.436-2.5.969m38 0c.825.533 1.95.969 2.5.969s.325-.436-.5-.969-1.95-.969-2.5-.969-.325.436.5.969m-43.559 2.555c-1.83 1.467-1.798 1.487.559.365 3.061-1.458 3.628-1.92 2.358-1.92-.537 0-1.849.7-2.917 1.555m6.54-.032c-1.057 1.273-.995 1.42.378.893.902-.347 1.641-1.032 1.641-1.523 0-1.286-.579-1.105-2.019.63m36.019-.63c0 .491.739 1.176 1.641 1.523 1.373.527 1.435.38.378-.893-1.44-1.735-2.019-1.916-2.019-.63m5.083-.528c.23.2 1.542.9 2.917 1.555 2.357 1.122 2.389 1.102.559-.365-1.593-1.276-4.848-2.391-3.476-1.19M173 63.5c-1.866 1.925-2.944 3.5-2.396 3.5s1.525-.529 2.172-1.176c.902-.902 1.64-.757 3.163.621 2.327 2.106 5.061 1.426 5.061-1.259 0-1.644-2.822-5.186-4.133-5.186-.261 0-2.001 1.575-3.867 3.5m-105.128.25c-1.243 1.586-1.208 1.621.378.378C69.916 62.821 70.445 62 69.622 62c-.207 0-.995.788-1.75 1.75m107.698-.863c-.769 1.243 2.108 3.43 3.435 2.61.78-.482.758-1.078-.079-2.086-1.341-1.616-2.563-1.807-3.356-.524m10.43-.509c0 .207.787.995 1.75 1.75 1.586 1.243 1.621 1.208.378-.378-1.307-1.666-2.128-2.195-2.128-1.372M104 65.5c-1.292 1.375-1.933 2.486-1.424 2.469.855-.029 4.976-4.969 4.145-4.969-.205 0-1.429 1.125-2.721 2.5m46.703-.031c.988 1.357 2.213 2.482 2.721 2.5.509.017-.132-1.094-1.424-2.469-2.998-3.191-3.607-3.206-1.297-.031m-60.629 4.297c-5.272 5.272-12.08 15.302-12.038 17.734.01.55 1.468-1.698 3.241-4.995 1.772-3.298 6.027-8.81 9.454-12.25S96.71 64 96.401 64c-.308 0-3.156 2.595-6.327 5.766m75.004.298c3.532 3.545 7.873 9.143 9.645 12.441 1.773 3.297 3.231 5.545 3.241 4.995.06-3.474-10.509-17.616-16.186-21.658-1.718-1.223-.232.677 3.3 4.222M71.56 68.218c-1.35 1.927-1.365 2.405-.117 3.654 1.249 1.249 1.767 1.22 3.962-.218C78.54 69.6 79 69.592 79 71.594c0 .876-.9 1.829-2 2.116-2.245.587-2.732 2.29-.655 2.29C77.889 76 81 72.854 81 71.294c0-.577-.673-1.607-1.495-2.29-1.206-1.001-1.996-.913-4.087.458-3.41 2.234-4.604.951-1.403-1.508 1.941-1.492 2.115-1.914.792-1.932-.932-.012-2.393.976-3.247 2.196m49.519-.635c.048 1.165.285 1.402.604.605.289-.722.253-1.585-.079-1.917s-.568.258-.525 1.312m13 0c.048 1.165.285 1.402.604.605.289-.722.253-1.585-.079-1.917s-.568.258-.525 1.312M99.541 72.25c-.747 1.787-1.628 5.05-1.957 7.25-.443 2.954-.129 2.428 1.201-2.011.991-3.306 2.146-6.568 2.567-7.25.421-.681.492-1.239.156-1.239s-1.221 1.463-1.967 3.25m56.595 2.045c.989 2.863 1.849 6.105 1.91 7.205.062 1.1.336 1.446.61.77.586-1.449-2.311-11.938-3.5-12.674-.45-.278-.009 1.837.98 4.699m23.063-3.309c-4.023.953-5.295 2.014-2.415 2.014 2.477 0 4.161 2.496 3.469 5.142-.75 2.868.13 2.244 3.544-2.509 4.082-5.684 3.266-6.509-4.598-4.647M90.582 75.04C87.021 78.983 86.668 81 89.54 81c.782 0 1.709-1.237 2.06-2.75s1.27-3.763 2.042-5c2.096-3.359 1.027-2.733-3.06 1.79m70.545-2.54c2.921 7.631 3.44 8.5 5.074 8.5 2.819 0 2.125-2.298-1.829-6.054-1.995-1.895-3.455-2.996-3.245-2.446m19.873 1c0 .825.402 1.5.893 1.5s1.152-.675 1.469-1.5c.35-.914.001-1.5-.893-1.5-.808 0-1.469.675-1.469 1.5M67.509 75.014C68.488 76.599 76 80.161 76 79.041c0-.55-1.782-1.909-3.96-3.021-4.439-2.264-5.447-2.488-4.531-1.006m72.57 3.569c.048 1.165.285 1.402.604.605.289-.722.253-1.585-.079-1.917s-.568.258-.525 1.312m45.162 1.194c-4.345 3.631-4.096 4.6 1.009 3.92l4.25-.566-3.494 2.858c-1.921 1.571-3.211 3.139-2.866 3.484.963.963 10.86-.598 10.86-1.713 0-.581-1.533-.725-3.75-.352l-3.75.631 2.75-2.307c3.651-3.063 3.472-3.731-1-3.737l-3.75-.005 3-2.459c1.864-1.528 2.432-2.463 1.5-2.468-.825-.005-2.967 1.216-4.759 2.714m-119.928.009c-.654.415-1.662 2.001-2.241 3.524-1.01 2.658-.869 2.848 3.521 4.73C71.847 90.292 72 90.321 72 89.067c0-.513-.9-1.218-2-1.567-2.928-.929-2.441-2.462 1-3.15 1.65-.33 3-1.043 3-1.583 0-.541-1.074-.714-2.386-.385-1.83.459-2.507.135-2.906-1.392-.552-2.111-1.462-2.434-3.395-1.204m-.266 3.125c-.75 1.402-.732 2.166.062 2.656 1.021.632 2.839-1.112 2.876-2.758.038-1.737-1.991-1.666-2.938.102m19.689.272c-.653 1.811 2.134 4.804 3.858 4.143 1.543-.592 1.964-4.326.488-4.326-.505 0-1.583-.255-2.395-.567s-1.69.026-1.951.75M166 84.941c0 2.821 1.839 3.515 4.039 1.523 2.321-2.1 1.691-3.464-1.598-3.464-1.75 0-2.441.55-2.441 1.941m-40.184 1.809c-.274 2.388-.81 2.791-4.066 3.06-2.938.244-3.75.731-3.75 2.25 0 1.594.708 1.94 3.964 1.94h3.964l.286 9.75c.231 7.873.575 9.75 1.786 9.75s1.555-1.877 1.786-9.75l.286-9.75h3.964c3.256 0 3.964-.346 3.964-1.94 0-1.519-.812-2.006-3.75-2.25-3.256-.269-3.792-.672-4.066-3.06-.22-1.905-.89-2.75-2.184-2.75s-1.964.845-2.184 2.75m-44.742 5.872c-.64 2.542-.919 4.867-.619 5.166s.545.055.545-.545c0-.599 1.157-2.465 2.572-4.146C86.118 90.071 86.113 88 83.56 88c-.738 0-1.837 2.043-2.486 4.622M97 89.379c0 .758-1.335 1.931-2.967 2.607s-3.485 1.854-4.119 2.618.926.227 3.467-1.193S98 90.192 98 89.415 97.775 88 97.5 88s-.5.62-.5 1.379m61.116-.214c-.07 1.003 1.717 2.689 4.503 4.246 2.541 1.42 4.101 1.957 3.467 1.193s-2.463-1.932-4.065-2.595-3.11-1.95-3.351-2.858c-.404-1.523-.447-1.522-.554.014m12.366-.135c-.35.566.748 2.607 2.441 4.535S176 97.579 176 98.201c0 .623.223.909.497.636.273-.273-.195-2.823-1.039-5.667-1.455-4.899-3.471-6.576-4.976-4.14M55.079 90.583c.048 1.165.285 1.402.604.605.289-.722.253-1.585-.079-1.917s-.568.258-.525 1.312m145 0c.048 1.165.285 1.402.604.605.289-.722.253-1.585-.079-1.917s-.568.258-.525 1.312M61 91.055c0 .825.747 2.567 1.661 3.871 1.639 2.34 1.626 2.363-1 1.704-1.467-.368-2.661-.247-2.661.271 0 .517 1.462 1.234 3.25 1.594 1.787.36 4.037.876 5 1.147s1.75.012 1.75-.575S68.373 98 67.607 98c-2.947 0-2.501-2.841.616-3.928 1.706-.595 2.826-1.356 2.49-1.692s-1.977-.135-3.646.447c-2.646.922-3.229.78-4.551-1.107C61.464 90.217 61 90.014 61 91.055m15.079 1.528c.048 1.165.285 1.402.604.605.289-.722.253-1.585-.079-1.917s-.568.258-.525 1.312m103 0c.048 1.165.285 1.402.604.605.289-.722.253-1.585-.079-1.917s-.568.258-.525 1.312m11.171.583c-4.35.974-4.64 1.494-3.25 5.834.772 2.41.804 2.388.9-.622.091-2.846.454-3.179 4.1-3.762 2.2-.352 4-1.084 4-1.628 0-1.117.038-1.118-5.75.178M54.079 95.583c.048 1.165.285 1.402.604.605.289-.722.253-1.585-.079-1.917s-.568.258-.525 1.312m147 0c.048 1.165.285 1.402.604.605.289-.722.253-1.585-.079-1.917s-.568.258-.525 1.312m-126 1c.048 1.165.285 1.402.604.605.289-.722.253-1.585-.079-1.917s-.568.258-.525 1.312m105 0c.048 1.165.285 1.402.604.605.289-.722.253-1.585-.079-1.917s-.568.258-.525 1.312M84.553 99.12c-2.736 3.251-5.971 8.88-5.104 8.88.275 0 1.176-1.307 2.002-2.905s2.075-3.512 2.776-4.254C86.518 98.414 88.256 96 87.711 96c-.293 0-1.715 1.404-3.158 3.12m84.477-1.624c.809 1.098 2.043 2.603 2.743 3.345.701.742 1.95 2.656 2.776 4.254S176.294 108 176.59 108c1.079 0-4.025-8.057-6.492-10.247-2.106-1.87-2.287-1.913-1.068-.257M108.5 99c-.34.55-.141 1 .441 1S110 99.55 110 99s-.198-1-.441-1-.719.45-1.059 1m37.5 0c0 .55.477 1 1.059 1s.781-.45.441-1-.816-1-1.059-1-.441.45-.441 1m-71.768 3c0 1.925.206 2.713.457 1.75.252-.963.252-2.537 0-3.5-.251-.963-.457-.175-.457 1.75m107 0c0 1.925.206 2.713.457 1.75.252-.963.252-2.537 0-3.5-.251-.963-.457-.175-.457 1.75m-127.877 6.5c-.003 4.95.166 7.101.376 4.78.209-2.321.212-6.371.005-9-.206-2.629-.378-.73-.381 4.22m149 0c-.003 4.95.166 7.101.376 4.78.209-2.321.212-6.371.005-9-.206-2.629-.378-.73-.381 4.22M106.5 106c-.34.55-.141 1 .441 1s1.059-.45 1.059-1-.198-1-.441-1-.719.45-1.059 1m41.5 0c0 .55.477 1 1.059 1s.781-.45.441-1-.816-1-1.059-1-.441.45-.441 1m-86.509 3.63c-1.661 1.215-1.682 1.37-.182 1.37 1.259 0 1.732.958 1.851 3.75l.16 3.75.421-3.491c.232-1.92.785-3.72 1.23-4s.264-1.013-.4-1.629c-.895-.83-1.692-.765-3.08.25m129.703.007c-.7.75-.832 1.363-.294 1.363.539 0 1.156 1.688 1.372 3.75l.392 3.75.168-3.677c.11-2.399.701-3.789 1.702-4 1.284-.27 1.241-.504-.267-1.436-1.369-.846-2.105-.786-3.073.25M74.232 115c0 1.925.206 2.713.457 1.75.252-.963.252-2.537 0-3.5-.251-.963-.457-.175-.457 1.75m30.268-2c-.34.55-.141 1 .441 1s1.059-.45 1.059-1-.198-1-.441-1-.719.45-1.059 1m45.5 0c0 .55.477 1 1.059 1s.781-.45.441-1-.816-1-1.059-1-.441.45-.441 1m31.232 2c0 1.925.206 2.713.457 1.75.252-.963.252-2.537 0-3.5-.251-.963-.457-.175-.457 1.75M77 115.5c0 1.375.173 2.5.383 2.5s.599-1.125.862-2.5.09-2.5-.384-2.5c-.473 0-.861 1.125-.861 2.5m100.755 0c.263 1.375.651 2.5.862 2.5s.383-1.125.383-2.5-.388-2.5-.861-2.5c-.474 0-.647 1.125-.384 2.5m-70.746 6.487c-2.884 4.392-5.594 7.77-6.021 7.505-.759-.468-1.988 1.752-1.988 3.59 0 .536 12.055.918 29 .918s29-.382 29-.918c0-1.838-1.229-4.058-1.988-3.59-.427.265-3.144-3.124-6.037-7.53s-5.421-7.849-5.62-7.651.983 2.797 2.624 5.775 2.993 5.977 3.003 6.664c.024 1.646-4.337 1.576-10.059-.161-2.517-.764-7.432-1.389-10.923-1.389s-8.406.625-10.923 1.389c-5.419 1.645-10.077 1.822-10.077.382 0-.565 1.356-3.715 3.014-7 1.658-3.284 2.84-5.971 2.626-5.971s-2.747 3.594-5.631 7.987m-52.93-.404c.048 1.165.285 1.402.604.605.289-.722.253-1.585-.079-1.917s-.568.258-.525 1.312m21.327.334c1.417 5.154 1.812 6.083 2.592 6.083.475 0 .458-1.41-.039-3.142-.496-1.729-.709-3.454-.474-3.834s-.235-.691-1.043-.691c-.859 0-1.29.66-1.036 1.584m103.109-.893c.235.38.022 2.105-.474 3.834-.497 1.732-.514 3.142-.039 3.142s1.083-.787 1.351-1.75c.269-.963.756-2.687 1.082-3.833.409-1.436.137-2.084-.877-2.084-.808 0-1.278.311-1.043.691m22.564.559c.048 1.165.285 1.402.604.605.289-.722.253-1.585-.079-1.917s-.568.258-.525 1.312m-99.515 2.124c-.542 1.425-.428 1.54.56.56.684-.679.991-1.486.683-1.793-.308-.308-.867.247-1.243 1.233m51.436-.766c0 .518.445 1.216.989 1.552.566.35.734-.051.393-.941-.665-1.732-1.382-2.049-1.382-.611m-88.5 2.523c-1.957.896-2.391 1.402-1.25 1.455 1.908.088 2.346 1.595.75 2.581-.55.34-1 1.097-1 1.681 0 .632.664.512 1.636-.293.899-.747 2.362-1.365 3.25-1.373s1.569-.577 1.514-1.265c-.396-4.946-.3-4.892-4.9-2.786m123.094-.724c-.714.713 1.308 3.26 2.587 3.26.516 0 .629-.498.253-1.107-.461-.745.011-.887 1.441-.433 3.242 1.029 2.532-.122-.79-1.281-1.603-.558-3.174-.756-3.491-.439m-132.515 1.843c.048 1.165.285 1.402.604.605.289-.722.253-1.585-.079-1.917s-.568.258-.525 1.312m145 0c.048 1.165.285 1.402.604.605.289-.722.253-1.585-.079-1.917s-.568.258-.525 1.312m-133.929.367c.22.66.726 1.166 1.125 1.125 1.196-.124.964-1.495-.325-1.925-.66-.22-1.02.14-.8.8m122.6 1.766c-3.596.545-3.493 1.829.25 3.134 1.65.575 3 .652 3 .171s-.787-1.08-1.75-1.332c-1.317-.344-1.193-.486.5-.573 1.238-.064 2.25-.566 2.25-1.116s-.338-.933-.75-.85c-.412.082-1.988.337-3.5.566m-110.746.584c-.007 1.382 3.12 6.909 3.624 6.406.264-.264-.443-1.994-1.57-3.843-1.128-1.85-2.052-3.003-2.054-2.563m97.696 2.9c-.969 1.689-1.557 3.277-1.305 3.528.252.252 1.199-.976 2.105-2.728s1.493-3.34 1.305-3.528-1.136 1.039-2.105 2.728m-109.866 2.86c1.216 1.132 1.903 2.595 1.527 3.25s.514.099 1.978-1.234c3.642-3.318 3.357-4.076-1.528-4.076h-4.188zM68 135c0 .55.45 1 1 1s1-.45 1-1-.45-1-1-1-1 .45-1 1m115.648-.24c-.317.514.757 2.212 2.388 3.774 3.11 2.98 4.244 1.9 1.214-1.157-1.454-1.466-1.481-1.663-.159-1.164.875.331 2.225.2 3-.29 1.189-.753 1.175-.897-.091-.921-.825-.016-2.462-.287-3.637-.603-1.176-.315-2.397-.153-2.715.361m-113.211 5.351-2.937 3.112 3.5-.737 3.5-.736-1.911 2.131c-2.576 2.874-1.54 3.552 2.545 1.664 3.338-1.543 3.341-1.551.393-.975-2.869.56-2.913.514-1.25-1.324 2.427-2.681 2.149-3.388-1.027-2.615-2.747.668-2.748.666-.845-1.481 2.946-3.325 1.335-2.538-1.968.961m12.527-1.285c1.626 3.184 11.952 13.268 15.851 15.481 4.925 2.793 3.773 1.43-2.363-2.795-3.4-2.342-5.347-4.342-5.031-5.167.284-.74-.069-1.345-.785-1.345-.715 0-3.002-1.912-5.081-4.25-2.078-2.338-3.245-3.203-2.591-1.924m87.145 2.179c-1.865 2.197-3.988 3.995-4.719 3.995-.73 0-1.095.605-.811 1.345.316.825-1.631 2.825-5.031 5.167-6.136 4.225-7.288 5.588-2.363 2.795 3.693-2.095 14.146-12.188 15.774-15.231 1.609-3.005.973-2.575-2.85 1.929M115.158 140c0 1.375.227 1.938.504 1.25.278-.687.278-1.812 0-2.5-.277-.687-.504-.125-.504 1.25m3 0c0 1.375.227 1.938.504 1.25.278-.687.278-1.812 0-2.5-.277-.687-.504-.125-.504 1.25m2.271 0c0 1.295.338 1.633.985.986.648-.648.648-1.324 0-1.972-.647-.647-.985-.309-.985.986m17.729 0c0 1.375.227 1.938.504 1.25.278-.687.278-1.812 0-2.5-.277-.687-.504-.125-.504 1.25m41.747 1.615c-1.149 1.384-1.008 1.883.988 3.5 2.931 2.373 3.78 2.365 5.07-.046.78-1.457.648-2.315-.536-3.5-2.008-2.007-3.831-1.992-5.522.046m.588.396c-.381.617.139 1.753 1.157 2.524 2.646 2.005 3.535 1.787 3.17-.775-.346-2.421-3.199-3.574-4.327-1.749M123 145.997c-1.925 1.049-4.352 2.165-5.393 2.479s-1.652.812-1.358 1.106c.673.673 6.594-1.851 9.251-3.943 2.664-2.098 1.769-1.97-2.5.358m7.5-.446c2.547 2.117 8.55 4.733 9.251 4.031.294-.294-.317-.793-1.358-1.108s-3.693-1.476-5.893-2.579c-2.964-1.486-3.482-1.575-2-.344m-54.25 2.123c-1.237.864-2.25 2.035-2.25 2.603s.9.218 2-.777c2.255-2.041 2.419-1.732 1.025 1.935-.537 1.411-.746 2.565-.465 2.565 1.208 0 5.44-3.322 5.44-4.27 0-.572-.9-.225-2 .77-2.255 2.041-2.419 1.732-1.025-1.935 1.112-2.923.483-3.129-2.725-.891M178 147.5c1.056 1.273.821 1.5-1.552 1.5h-2.797l2.349 2.5c2.862 3.046 5.081 3.37 2.405.35-1.903-2.147-1.902-2.149.845-1.481 3.175.772 3.55-.335.921-2.714-2.282-2.065-3.849-2.177-2.171-.155M96 149c1.97 1.273 4.287 1.273 3.5 0-.34-.55-1.604-.993-2.809-.985-1.781.013-1.91.197-.691.985m60.5 0c-.787 1.273 1.53 1.273 3.5 0 1.219-.788 1.09-.972-.691-.985-1.205-.008-2.469.435-2.809.985m-117.25 1.732-4.25.383v8.995l4.75-.305 4.75-.305.305-4.75c.167-2.613-.058-4.671-.5-4.575-.443.096-2.718.347-5.055.557m6.75 3.659c0 4.193.146 4.411 3.25 4.847 1.788.252 4.038.799 5 1.217 1.549.672 1.75.115 1.75-4.848V150H46zm11.801-2.141c-.441 2.929.227 6.75 1.181 6.75 1.445 0 6.018-4.16 6.018-5.475 0-.731-1.417-1.823-3.149-2.427-3.978-1.387-3.655-1.479-4.05 1.152m44.012-1.567c.721.289 1.584.253 1.916-.079s-.258-.568-1.312-.525c-1.165.048-1.402.285-.604.604m11 0c.721.289 1.584.253 1.916-.079s-.258-.568-1.312-.525c-1.165.048-1.402.285-.604.604m29 0c.721.289 1.584.253 1.916-.079s-.258-.568-1.312-.525c-1.165.048-1.402.285-.604.604m11 0c.721.289 1.584.253 1.916-.079s-.258-.568-1.312-.525c-1.165.048-1.402.285-.604.604m40.937.479c-1.512.553-2.75 1.61-2.75 2.349 0 1.326 4.564 5.489 6.018 5.489.954 0 1.622-3.821 1.181-6.75-.374-2.489-.516-2.524-4.449-1.088m6.25 4.445c0 4.963.201 5.52 1.75 4.848.963-.418 3.213-.965 5-1.217 3.104-.436 3.25-.654 3.25-4.847V150h-10zm11.19-.987.31 4.88 4.75.305 4.75.305v-4.555c0-4.518-.028-4.555-3.418-4.555-1.88 0-4.157-.284-5.06-.63-1.408-.54-1.598.066-1.332 4.25m-182.94-2.813-4.25.308v8.995l4.75-.305c4.735-.304 4.751-.317 5.068-4.187.175-2.135-.05-4.16-.5-4.5s-2.731-.48-5.068-.311m194.059.831c-.248.644-.306 2.677-.129 4.517.309 3.229.485 3.356 5.07 3.65l4.75.305v-8.909l-4.621-.367c-2.917-.232-4.786.064-5.07.804M67 152.378c0 .207.787.995 1.75 1.75 1.586 1.243 1.621 1.208.378-.378-1.307-1.666-2.128-2.195-2.128-1.372m14.571 1.193c-1.971 1.972-2 3.828-.084 5.418 1.735 1.44 4.964.55 3.951-1.089-.501-.811-.882-.8-1.401.041-.514.831-1.063.733-1.961-.35-.687-.827-.958-1.973-.603-2.547.824-1.333 4.527-1.369 4.527-.044 0 .55.52 1 1.155 1 .655 0 .371-.866-.655-2-2.182-2.411-2.885-2.472-4.929-.429m44.824-.953c-.607.249-.888 1.583-.624 2.966.628 3.281 3.729 2.854 3.729-.514 0-2.427-1.079-3.28-3.105-2.452m60.477 1.132c-1.243 1.586-1.208 1.621.378.378 1.666-1.307 2.195-2.128 1.372-2.128-.207 0-.995.787-1.75 1.75M4 171.393V190h3.5c3.041 0 3.5-.319 3.5-2.434 0-1.887-.617-2.527-2.75-2.85L5.5 184.3l2.75-.15c2.615-.143 2.75-.397 2.75-5.169 0-4.854-.082-4.999-2.5-4.392-1.54.387-2.5.202-2.5-.481C6 173.499 7.125 173 8.5 173c2.296 0 2.5-.367 2.5-4.5 0-4.217-.173-4.507-2.75-4.606l-2.75-.107 2.75-1.086c2.328-.92 2.75-1.671 2.75-4.894 0-3.086-.363-3.807-1.918-3.807-1.055 0-2.63-.273-3.5-.607-1.408-.54-1.582 1.444-1.582 18m8.875-17.893c-.069.275-.181 2.3-.25 4.5l-.125 4H22v-9h-4.5c-2.475 0-4.556.225-4.625.5m157.631 1.25c.397.963.947 2.537 1.224 3.5s.927 1.75 1.446 1.75.683-.419.366-.932c-.316-.512.33-1.566 1.437-2.341 1.981-1.387 1.973-1.428-.53-2.568-3.596-1.639-4.787-1.46-3.943.591M234 157.5v4.5h4.75c4.639 0 4.747-.07 4.625-3-.256-6.144-.139-6-4.875-6H234zm13.75-3.784c-2.436.369-2.75.844-2.75 4.157 0 3.151.434 3.912 2.75 4.828l2.75 1.086-2.75.107c-2.577.099-2.75.389-2.75 4.606 0 4.133.204 4.5 2.5 4.5 1.375 0 2.5.499 2.5 1.108 0 .683-.96.868-2.5.481-2.415-.606-2.5-.458-2.5 4.326 0 4.635.176 4.979 2.75 5.369l2.75.416-2.75.15c-2.227.121-2.75.626-2.75 2.65 0 2.19.433 2.5 3.5 2.5h3.5v-18.5c0-10.175-.338-18.433-.75-18.35s-1.988.337-3.5.566m-131.25 1.218-5 .619 5.756 1.384c3.166.761 6.034 1.106 6.374.767.798-.798-.325-3.753-1.349-3.547-.429.087-3.031.436-5.781.777m15.892.487c-.992 2.586-.044 2.787 5.739 1.218 2.953-.802 4.413-1.498 3.244-1.548s-3.524-.371-5.235-.713c-2.364-.473-3.262-.223-3.748 1.043m39.608.138c0 .857.457 1.276 1.016.931.559-.346.758-1.047.441-1.559-.857-1.387-1.457-1.129-1.457.628M63.184 158.04c-1.707 1.392-2.233 2.711-2 5.019l.316 3.131 2.319-2.022c1.663-1.45 2.228-2.87 2-5.018l-.319-2.997zM74.5 161c2.709 2.75 5.15 5 5.425 5s-1.716-2.25-4.425-5-5.15-5-5.425-5 1.716 2.25 4.425 5m92.066-3.689c.923 2.407-.429 4.048-2.155 2.615-2.111-1.752-1.659.221.704 3.074 1.601 1.933 1.929 2.065 1.444.58-.785-2.405 1.371-3.88 3.321-2.273 1.229 1.013 1.28.879.338-.889-.61-1.145-1.819-2.672-2.686-3.392-1.336-1.108-1.484-1.065-.966.285m13.896 3.939-4.962 5.25 5.25-4.962c4.878-4.612 5.709-5.538 4.962-5.538-.158 0-2.52 2.363-5.25 5.25m9.538-1.952c0 2.016.742 4.063 1.829 5.047 2.613 2.365 3.175 2.08 3.14-1.595-.022-2.281-.768-3.786-2.5-5.047L190 155.907zm-102.452.269c-1.32 2.015-1.426 2.875-.492 4 1.728 2.083 3.498 1.762 5.28-.957 1.438-2.195 1.421-2.52-.214-4-2.337-2.115-2.597-2.061-4.574.957m2.049-.723c-.346.56-.142 1.319.453 1.687 1.538.95 2.53-.351 1.246-1.635-.718-.718-1.277-.735-1.699-.052m19.903.692c1.65.756 3.675 1.36 4.5 1.343s-.075-.638-2-1.379c-4.566-1.758-6.362-1.732-2.5.036m34.5-.036c-1.925.741-2.825 1.362-2 1.379s2.85-.587 4.5-1.343c3.862-1.768 2.066-1.794-2.5-.036m-107.25 2.285c-1.349.279-1.75 1.377-1.75 4.788 0 4.055.21 4.427 2.5 4.427 1.499 0 2.5-.572 2.5-1.427 0-.786 1.125-2.313 2.5-3.394 3.669-2.886 3.307-5.302-.75-4.999-1.788.134-4.038.406-5 .605m9.25.75c0 1.138.452 1.303 1.75.635.962-.495 2.425-1.15 3.25-1.456s.038-.592-1.75-.635c-2.29-.056-3.25.375-3.25 1.456m8.093-.151c-3.52 1.273-5.483 4.367-4.145 6.532.587.949 1.707.985 4.794.154 3.962-1.067 5.595-3.558 4.495-6.858-.478-1.435-.721-1.427-5.144.172m33.472-.489c-.305.493.183 1.178 1.084 1.524 1.947.747 2.809.131 1.892-1.352-.804-1.301-2.228-1.383-2.976-.172m29.185-.233c.688.278 1.813.278 2.5 0 .688-.277.125-.504-1.25-.504s-1.937.227-1.25.504m20 0c.688.278 1.813.278 2.5 0 .688-.277.125-.504-1.25-.504s-1.937.227-1.25.504m23.816.487c.779 2.253-1.291 3.324-3.264 1.687-1.436-1.19-1.428-.982.069 1.914 1.681 3.251 3.342 4.55 2.28 1.782-.77-2.007 1.107-2.977 2.893-1.496 2.168 1.799 1.785-.426-.546-3.175-1.206-1.422-1.775-1.705-1.432-.712m36.197.063c-1.1 3.3.533 5.791 4.495 6.858 4.519 1.216 6.115.112 4.836-3.346-.535-1.447-6.169-4.475-8.761-4.709-.091-.008-.348.531-.57 1.197m8.237-.498c.825.306 2.287.961 3.25 1.456 1.298.668 1.75.503 1.75-.635 0-1.081-.96-1.512-3.25-1.456-1.787.043-2.575.329-1.75.635m6 .799c0 .934 1.125 2.584 2.5 3.666s2.5 2.771 2.5 3.755c0 1.369.587 1.676 2.5 1.311 2.214-.423 2.5-.98 2.5-4.862 0-2.41-.338-4.406-.75-4.434s-2.662-.295-5-.593c-3.545-.453-4.25-.261-4.25 1.157m-184.25.203c-2.529.383-2.75.777-2.75 4.9v4.484l4.25-.488c2.337-.268 4.587-.516 5-.55s.75-2.087.75-4.562c0-4.867-.022-4.879-7.25-3.784m67.944 1.816c-2.584 2.273-2.64 2.468-.718 2.468 1.148 0 2.376.755 2.73 1.677.576 1.5.723 1.474 1.399-.25 1-2.553 1.088-6.435.145-6.395-.412.017-2.013 1.142-3.556 2.5m30.556-1.816c1.513.229 3.988.229 5.5 0s.275-.416-2.75-.416-4.263.187-2.75.416M222 166.5c0 2.475.338 4.528.75 4.562s2.662.282 5 .55l4.25.488v-4.419c0-4.33-.076-4.432-3.75-5.039-6.191-1.024-6.25-.987-6.25 3.858m-208.011-2.597c-.975.391-1.484 1.977-1.473 4.597.012 3.155.382 3.982 1.75 3.917 8.302-.399 7.734-.04 7.734-4.887 0-4.404-.048-4.467-3.261-4.347-1.793.068-3.931.392-4.75.72M234 167.318v4.419l4.231.567c2.327.312 4.346.452 4.488.311.557-.558.882-8.619.349-8.677-.312-.034-2.48-.282-4.818-.55L234 162.9zM96.5 165c-.34.55-.141 1 .441 1S98 165.55 98 165s-.198-1-.441-1-.719.45-1.059 1m4.386 2.281c-.616 4.734.042 5.453 2.303 2.514l1.767-2.295.022 2.75c.012 1.512.461 2.75.997 2.75.56 0 .712-1.383.356-3.25-.811-4.262-1.25-4.637-2.624-2.242-1.07 1.865-1.181 1.801-1.736-1.008-.592-2.996-.594-2.995-1.085.781m89.114-.13c0 2.441.757 4.211 2.5 5.849l2.5 2.349v-3.5c0-2.441-.757-4.211-2.5-5.849l-2.5-2.349zm-145.777-.594c-2.03 1.421-3.01 5.323-1.674 6.659.302.302 1.649.04 2.993-.583 1.853-.86 2.444-1.917 2.45-4.383.009-3.658-.584-3.924-3.769-1.693m19.027-.03c-1.637 1.154-2.25 2.587-2.25 5.257v3.671l2.581-2.581c1.776-1.776 2.477-3.415 2.25-5.257-.318-2.568-.422-2.612-2.581-1.09m87.112-.027c-1.445 3.764 2.669 6.897 5.43 4.137 1.052-1.052 1.203-1.637.422-1.637-.668 0-1.214.45-1.214 1 0 1.614-2.73 1.146-3.393-.582-.879-2.29-.829-2.393 1.643-3.387l2.25-.904-2.281-.064c-1.255-.034-2.541.612-2.857 1.437M208 168.339c0 2.555.564 3.597 2.4 4.434 2.803 1.277 3.6.749 3.6-2.383 0-2.047-3.239-5.39-5.223-5.39-.427 0-.777 1.503-.777 3.339m-125.817-.774c.926 1.064 3.176 2.786 5 3.827 3.915 2.233 2.883 1.125-2.683-2.882-2.327-1.675-3.296-2.07-2.317-.945m88.353 1.551c-5.254 3.948-5.745 4.602-1.719 2.29 2.838-1.631 7.3-5.542 6.088-5.338-.223.038-2.189 1.41-4.369 3.048m-62.556-.592c-.696.838-1.012 1.777-.704 2.086s1.064-.377 1.678-1.524c1.31-2.448.824-2.728-.974-.562m2.627 1.058c-1.192 3.106-.598 5.187 1.643 5.752 2.079.523 2.114.465.454-.777-1.298-.972-1.614-2.067-1.141-3.951.712-2.838.023-3.577-.956-1.024m32.06-.915c-.367.366-.667 1.996-.667 3.622 0 2.393.262 2.739 1.373 1.816.756-.627 2.195-.824 3.199-.439 1.591.61 1.534.292-.442-2.483-2.472-3.473-2.492-3.487-3.463-2.516m-88.31 2.03c-3.114 1.051-4.262 2.026-4.626 3.929-.588 3.076.868 3.794 5.338 2.636 2.353-.61 3.513-1.607 4.004-3.442 1.059-3.961-.052-4.696-4.716-3.123m65.389-.551c.635.635.909 2.529.616 4.25-.407 2.381-.281 2.755.538 1.604.588-.825 1.076-2.287 1.085-3.25s.578-1.782 1.265-1.82c.688-.039.35-.457-.75-.93-2.885-1.24-4.077-1.177-2.754.146m14.335-.231c-1.13.726-1.202 1.593-.352 4.249.587 1.835 1.113 2.549 1.169 1.586.111-1.909 1.617-2.343 2.602-.75.34.55 1.068 1 1.618 1 .565 0 .648-.544.191-1.25-.445-.687-.809-2.142-.809-3.231 0-2.199-2.233-3.01-4.419-1.604m62.804.396c-.21 2.169.278 5.179.951 5.861.365.37 2.352.982 4.414 1.361 3.657.672 3.75.615 3.75-2.328 0-2.682-.5-3.187-4.5-4.55-3.309-1.128-4.53-1.219-4.615-.344m-71.87 1.939c.038 5.539 5.407 6.735 5.578 1.242.089-2.836.072-2.849-.313-.242-.565 3.824-3.28 3.617-3.28-.25 0-1.65-.45-3-1-3s-.993 1.012-.985 2.25m9.528-1.319c-.74 1.197 1.141 2.382 2.473 1.559 1.119-.691.384-2.49-1.016-2.49-.485 0-1.141.419-1.457.931M143 171c0 .55.477 1 1.059 1s.781-.45.441-1-.816-1-1.059-1-.441.45-.441 1m-119 7.117c0 4.818.131 5.081 2.25 4.513 1.238-.331 3.488-.609 5-.616 2.591-.013 2.75-.275 2.75-4.514V173H24zm11-.617c0 4.333.111 4.5 3 4.5 1.65 0 3 .45 3 1s-1.35 1-3 1c-2.333 0-3 .444-3 2s.667 2 3 2c2.667 0 3 .333 3 3 0 1.65.358 3 .796 3s.546-2.137.24-4.75-.295-6.879.023-9.482c.657-5.378-.218-6.768-4.259-6.768-2.652 0-2.8.238-2.8 4.5m11-3.468c-1.333.86-1.333 1.076 0 1.936 1.538.992 2.494-.017 1.833-1.936-.215-.624-.866-.624-1.833 0m17.25.955c-2.517 2.051-2.942 4.534-.909 5.313 2.307.886 3.82-.886 3.483-4.078-.322-3.052-.336-3.059-2.574-1.235M190 176.37c0 3.418 1.311 4.773 3.75 3.876 2.034-.748 1.372-3.612-1.281-5.543L190 172.907zm18-1.37c0 1.311.485 1.751 1.5 1.362.825-.317 1.5-.93 1.5-1.362s-.675-1.045-1.5-1.362c-1.015-.389-1.5.051-1.5 1.362m6.2-.8c-.66.66-1.2 3.225-1.2 5.7 0 3.5.267 4.233 1.2 3.3.66-.66 2.46-1.2 4-1.2 2.652 0 2.8-.238 2.8-4.5s-.148-4.5-2.8-4.5c-1.54 0-3.34.54-4 1.2m7.8 3.3c0 3.733.319 4.5 1.875 4.5 1.031 0 3.281.281 5 .625l3.125.625V173h-10zm-209.129-1.75c-.573 7.775-.886 7.25 4.333 7.25H22v-9h-4.5c-3.57 0-4.527.362-4.629 1.75m80.862-.626c.679.684 1.486.991 1.793.683.308-.308-.247-.867-1.233-1.243-1.425-.542-1.54-.428-.56.56M161 175c-.901.582-1.025.975-.309.985.655.008 1.469-.435 1.809-.985.767-1.242.421-1.242-1.5 0m73 3.5v4.5h4.796c5.219 0 4.906.525 4.333-7.25-.102-1.388-1.059-1.75-4.629-1.75H234zm-190 2.891c0 4.763 1.228 6.038 7.75 8.05 2.122.654 2.25.415 2.25-4.215 0-4.789-.092-4.939-3.75-6.133-2.062-.672-4.312-1.456-5-1.741-.893-.371-1.25.783-1.25 4.039m162.25-2.552c-4.184 1.575-4.25 1.673-4.25 6.38 0 2.63.216 4.781.48 4.781s2.289-.724 4.5-1.609c3.926-1.571 4.02-1.722 4.02-6.5 0-2.69-.113-4.837-.25-4.771s-2.162.84-4.5 1.719M56.5 179c.34.55 1.041 1 1.559 1s.941-.45.941-1-.702-1-1.559-1-1.281.45-.941 1m140.5 0c0 .55.423 1 .941 1s1.219-.45 1.559-1-.084-1-.941-1-1.559.45-1.559 1m-142 6.356c0 4.108.27 4.662 2.5 5.125l5 1.038c2.404.499 2.5.325 2.5-4.5 0-4.241-.291-5.019-1.875-5.019-1.031 0-3.281-.281-5-.625L55 180.75zm56.813-3.673c.721.289 1.584.253 1.916-.079s-.258-.568-1.312-.525c-1.165.048-1.402.285-.604.604m31 0c.721.289 1.584.253 1.916-.079s-.258-.568-1.312-.525c-1.165.048-1.402.285-.604.604m50.687.193c-2.783.594-3.016.985-3.22 5.422l-.221 4.781 3.721-.617c6.109-1.015 6.22-1.12 6.22-5.931 0-4.892-.192-5-6.5-3.655m-76.231.817c.973.254 2.323.237 3-.037s-.119-.481-1.769-.461-2.204.244-1.231.498m19 0c.973.254 2.323.237 3-.037s-.119-.481-1.769-.461-2.204.244-1.231.498m-70.102 4.699c0 4.093.207 4.433 3.041 5 6.301 1.26 6.792.986 6.792-3.785 0-4.841-.888-5.607-6.498-5.607-3.274 0-3.335.081-3.335 4.392m114.583-3.703c-1.334.349-1.75 1.509-1.75 4.884 0 4.166.162 4.426 2.75 4.413 6.145-.03 7.25-.884 7.25-5.603 0-4.302-.06-4.381-3.25-4.267-1.787.064-4.037.322-5 .573M16.5 184.9c-3.269.49-4.015 1.011-4.079 2.85-.063 1.776.464 2.247 2.5 2.236 4.974-.026 7.079-1.097 7.079-3.603 0-1.31-.337-2.315-.75-2.233-.413.083-2.55.42-4.75.75m7.5 1.6c0 2.179.439 2.5 3.418 2.5 4.713 0 6.582-.882 6.582-3.107 0-1.605-.761-1.893-5-1.893-4.667 0-5 .167-5 2.5m54 1.758c0 4.813 1.079 5.696 7 5.728 2.298.013 2.5-.349 2.5-4.486 0-3.487-.366-4.5-1.625-4.5-.894 0-3.031-.281-4.75-.625L78 183.75zm92.75-3.542c-2.524.383-2.75.781-2.75 4.85 0 4.174.161 4.433 2.75 4.42 6.053-.03 7.083-.841 7.083-5.581 0-4.753-.012-4.76-7.083-3.689m43.45.484c-1.462 1.462-1.65 10.196-.2 9.3.55-.34 1-1.941 1-3.559 0-2.601.347-2.941 3-2.941 2.333 0 3-.444 3-2 0-1.524-.667-2-2.8-2-1.54 0-3.34.54-4 1.2m7.8.693c0 2.225 1.869 3.107 6.582 3.107 2.979 0 3.418-.321 3.418-2.5 0-2.333-.333-2.5-5-2.5-4.239 0-5 .288-5 1.893m12 .383c0 2.609 2.027 3.683 7 3.71 2.004.011 2.5-.482 2.5-2.486 0-2.141-.455-2.5-3.168-2.5-1.743 0-3.88-.273-4.75-.607-1.182-.453-1.582.023-1.582 1.883m-145 3.169V194h8.75c.412 0 .75-1.912.75-4.25v-4.25l-4.75-.305-4.75-.305zm68 .338c0 4.6.105 4.775 2.75 4.581 1.512-.111 3.537-.238 4.5-.283 1.395-.065 1.75-.993 1.75-4.581V185h-9zm-57 .717v4.5h10v-9h-10zm12 0v4.5h9v-9h-9zm11 0v4.5h9.833v-9H123zm11 0v4.5h10v-9h-10zm11.167 0v4.5H155v-9h-9.833zM44 192.386c0 4.005.295 4.526 3.401 6C53.013 201.049 54 200.618 54 195.5c0-3.617-.344-4.501-1.75-4.506-.962-.004-3.039-.679-4.614-1.5-1.576-.822-3.038-1.494-3.25-1.494S44 189.974 44 192.386m164-2.688c-1.375.7-3.287 1.279-4.25 1.287-1.405.012-1.75.902-1.75 4.515 0 4.078.224 4.5 2.389 4.5 4.241 0 6.791-2.996 6.43-7.552-.312-3.935-.373-3.995-2.819-2.75m-153 6.677c0 4.1.196 4.414 3.125 5 6.387 1.277 6.875 1.012 6.875-3.744 0-4.272-.083-4.383-3.75-4.989-6.175-1.021-6.25-.976-6.25 3.733m138-3.384c-2.108.496-2.548 1.249-2.807 4.799-.294 4.023-.183 4.209 2.5 4.196 6.202-.03 7.307-.875 7.307-5.591 0-4.705-.482-4.939-7-3.404M66.339 198.25l.161 4.25 4.75.546 4.75.546V194h-9.823zm113.911-3.588c-.741.299-1.25 2.345-1.25 5.028 0 3.714.283 4.415 1.582 3.917.87-.334 3.12-.607 5-.607 3.384 0 3.418-.044 3.418-4.5V194l-3.75.079c-2.062.043-4.312.306-5 .583M78 199.445V204h9.586l-.081-4.25-.082-4.25-4.711-.305L78 194.89zm89.999.305v4.75l4.917-.341 4.917-.341V195H168zM41 199.941c0 2.232.176 4.059.391 4.059.8 0 1.19-7.141.415-7.62-.443-.274-.806 1.329-.806 3.561m48 .559v4.5h10v-9H89zm11-.097v4.404l5.001.346 5 .347v-4.75L110 196h-10zm12 .814V206h9v-4.5c0-3.588-.355-4.516-1.75-4.581-.963-.045-2.987-.172-4.5-.283-2.645-.194-2.75-.019-2.75 4.581m33.398-3.812c-.744 1.938-.069 8.152.852 7.845.412-.137 2.55-.25 4.75-.25h4v-9h-4.531c-2.969 0-4.718.484-5.071 1.405M157 200.5v4.5h9v-9h-9zm56.583-3.634c-.294.476-.504 4.148-.467 8.159.086 9.11 1.539 7.334 1.713-2.092.124-6.709-.119-7.891-1.246-6.067M123 201.555v4.555l4.75-.305 4.75-.305.161-4.25.162-4.25H123zm11-.055v4.5h10v-9h-10zm-90 .855c0 4.963 1.595 6.733 7.25 8.045 2.683.623 2.75.53 2.75-3.803 0-4.251-.161-4.494-3.75-5.65-2.062-.664-4.312-1.654-5-2.2-.963-.764-1.25.066-1.25 3.608m162.25-1.634c-4.138 1.43-4.25 1.585-4.25 5.893 0 4.319.065 4.408 2.75 3.767 5.451-1.303 6.25-2.188 6.25-6.916 0-2.456-.113-4.408-.25-4.339s-2.162.787-4.5 1.595M55 206.666c0 4.667.125 4.784 6.25 5.801l3.75.624v-4.546c0-2.5-.338-4.565-.75-4.589-.413-.024-2.663-.413-5-.865l-4.25-.822zm139.833-3.338-4.666.858v8.912l4.666-.677c2.567-.373 4.806-.796 4.976-.942s.17-2.232 0-4.637l-.309-4.372zm-128.587 4.989c.074 4.868 1.027 5.64 7.004 5.669 2.595.013 2.75-.24 2.75-4.486 0-3.733-.319-4.5-1.875-4.5-1.031 0-3.241-.273-4.911-.607-3.032-.607-3.036-.6-2.968 3.924m116.504-3.589c-3.711.389-3.75.439-3.75 4.832 0 4.18.161 4.439 2.75 4.426 6.145-.03 7.25-.884 7.25-5.603 0-2.929-.415-4.327-1.25-4.215-.687.093-2.937.345-5 .56M78 209.461c0 4.736.917 5.539 6.332 5.539 3.088 0 3.168-.114 3.168-4.5 0-3.81-.307-4.511-2-4.569-1.1-.038-3.237-.232-4.75-.432-2.632-.347-2.75-.177-2.75 3.962m94.25-3.661-4.25.315v8.995l4.75-.305 4.75-.305.189-4.229c.104-2.326-.121-4.354-.5-4.507s-2.601-.137-4.939.036M41.158 208c0 1.375.227 1.938.504 1.25.278-.687.278-1.812 0-2.5-.277-.687-.504-.125-.504 1.25M89 210.375c0 4.1.196 4.414 3.125 5 6.391 1.278 6.875 1.013 6.875-3.758 0-4.719-1.105-5.573-7.25-5.603-2.583-.013-2.75.252-2.75 4.361m69.75-3.686c-1.334.349-1.75 1.509-1.75 4.884 0 4.745.274 4.922 5.875 3.802 2.929-.586 3.125-.9 3.125-5 0-4.134-.151-4.369-2.75-4.259-1.512.064-3.537.322-4.5.573M100 211.5v4.5h10v-9h-10zm12 0v4.5h9v-9h-9zm11 0v4.5h9.683l.068-4.5.068-4.5H123zm11 0v4.5h10v-9h-10zm11.167 0v4.5H155v-9h-9.833zm-101.454-.511c-.497 1.901 2.843 4.275 7.611 5.413 2.486.593 2.786.416 2.5-1.471-.228-1.511-1.703-2.666-4.991-3.91-4.419-1.671-4.691-1.673-5.12-.032m162.037.314c-2.967.831-3.75 1.539-3.75 3.392 0 2.044.351 2.262 2.75 1.705 4.262-.989 7.26-3.211 6.611-4.902-.316-.824-.864-1.441-1.218-1.372-.354.07-2.33.599-4.393 1.177M55 214.906c0 2.319.505 2.607 6.25 3.561 3.514.584 3.75.464 3.75-1.922 0-1.822-.533-2.545-1.875-2.545-1.031 0-3.281-.281-5-.625-2.727-.545-3.125-.35-3.125 1.531m139-1.024c-2.709.478-3.576 1.158-3.838 3.011-.312 2.202-.083 2.341 2.875 1.75 1.767-.354 4.057-.643 5.088-.643 1.333 0 1.875-.722 1.875-2.5 0-2.599-.177-2.647-6-1.618M66.206 216.75c.361 2.15 2.29 3.088 6.544 3.18 2.547.055 3.25-.34 3.25-1.823 0-2.23-1.87-3.107-6.626-3.107-2.742 0-3.401.364-3.168 1.75m114.544-1.061c-.963.252-1.75 1.325-1.75 2.384 0 1.527.71 1.927 3.418 1.927 4.713 0 6.582-.882 6.582-3.107 0-1.493-.687-1.868-3.25-1.777-1.787.064-4.037.322-5 .573m-102.577 2.503c.28 1.974.99 2.351 4.913 2.606 4.244.276 4.575.126 4.422-2-.143-2.003-.773-2.337-4.913-2.606-4.46-.289-4.729-.167-4.422 2m91.077-1.53c-.687.278-1.25 1.392-1.25 2.476 0 1.728.587 1.934 4.75 1.667 4.053-.26 4.797-.635 5.07-2.555.285-2.007-.093-2.241-3.5-2.171-2.101.043-4.382.306-5.07.583M89 219c0 1.289.667 2 1.875 2 1.031 0 3.281.281 5 .625 2.865.573 3.125.407 3.125-2 0-2.483-.27-2.625-5-2.625-4.333 0-5 .267-5 2m11 .5c0 2.333.333 2.5 5 2.5 4.239 0 5-.288 5-1.893 0-2.225-1.869-3.107-6.582-3.107-2.979 0-3.418.321-3.418 2.5m14.25-1.699c-1.388.208-2.25 1.037-2.25 2.164 0 1.558 1.179 1.931 8 2.535 4.4.389 11.6.389 16 0 6.938-.614 8-.96 8-2.604 0-1.605-.757-1.896-4.93-1.896-4.318 0-4.985.279-5.364 2.25l-.434 2.25-.136-2.25c-.122-2.015-.658-2.25-5.136-2.25-4.333 0-5 .267-5 2 0 1.1-.45 2-1 2s-1-.848-1-1.883c0-1.989-2.721-2.923-6.75-2.316m32.5-.112c-.963.252-1.75 1.325-1.75 2.384 0 1.646.73 1.927 5 1.927 4.667 0 5-.167 5-2.5 0-2.178-.419-2.485-3.25-2.384-1.787.064-4.037.322-5 .573m9.984 1.923c-.479 2.507-.354 2.588 3.133 2.011 1.998-.331 4.196-.606 4.883-.612S166 220.1 166 219c0-1.696-.667-2-4.383-2-3.932 0-4.435.269-4.883 2.612"/></svg>